<?xml version="1.0" encoding="utf-8" standalone="no"?>
<!DOCTYPE svg PUBLIC "-//W3C//DTD SVG 1.1//EN"
  "http://www.w3.org/Graphics/SVG/1.1/DTD/svg11.dtd">
<!-- Created with matplotlib (https://matplotlib.org/) -->
<svg height="170.055469pt" version="1.1" viewBox="0 0 235.065625 170.055469" width="235.065625pt" xmlns="http://www.w3.org/2000/svg" xmlns:xlink="http://www.w3.org/1999/xlink">
 <defs>
  <style type="text/css">
*{stroke-linecap:butt;stroke-linejoin:round;}
  </style>
 </defs>
 <g id="figure_1">
  <g id="patch_1">
   <path d="M 0 170.055469 
L 235.065625 170.055469 
L 235.065625 0 
L 0 0 
z
" style="fill:#ffffff;"/>
  </g>
  <g id="axes_1">
   <g id="patch_2">
    <path d="M 39.765625 139.699219 
L 235.065625 139.699219 
L 235.065625 3.799219 
L 39.765625 3.799219 
z
" style="fill:#ffffff;"/>
   </g>
   <g id="matplotlib.axis_1">
    <g id="xtick_1">
     <g id="line2d_1">
      <path clip-path="url(#pcb52536a2b)" d="M 84.049023 139.699219 
L 84.049023 3.799219 
" style="fill:none;stroke:#b0b0b0;stroke-linecap:square;stroke-width:0.8;"/>
     </g>
     <g id="line2d_2">
      <defs>
       <path d="M 0 0 
L 0 3.5 
" id="mf54dc0933a" style="stroke:#000000;stroke-width:0.8;"/>
      </defs>
      <g>
       <use style="stroke:#000000;stroke-width:0.8;" x="84.049023" xlink:href="#mf54dc0933a" y="139.699219"/>
      </g>
     </g>
     <g id="text_1">
      <!-- 10000 -->
      <defs>
       <path d="M 12.40625 8.296875 
L 28.515625 8.296875 
L 28.515625 63.921875 
L 10.984375 60.40625 
L 10.984375 69.390625 
L 28.421875 72.90625 
L 38.28125 72.90625 
L 38.28125 8.296875 
L 54.390625 8.296875 
L 54.390625 0 
L 12.40625 0 
z
" id="DejaVuSans-49"/>
       <path d="M 31.78125 66.40625 
Q 24.171875 66.40625 20.328125 58.90625 
Q 16.5 51.421875 16.5 36.375 
Q 16.5 21.390625 20.328125 13.890625 
Q 24.171875 6.390625 31.78125 6.390625 
Q 39.453125 6.390625 43.28125 13.890625 
Q 47.125 21.390625 47.125 36.375 
Q 47.125 51.421875 43.28125 58.90625 
Q 39.453125 66.40625 31.78125 66.40625 
z
M 31.78125 74.21875 
Q 44.046875 74.21875 50.515625 64.515625 
Q 56.984375 54.828125 56.984375 36.375 
Q 56.984375 17.96875 50.515625 8.265625 
Q 44.046875 -1.421875 31.78125 -1.421875 
Q 19.53125 -1.421875 13.0625 8.265625 
Q 6.59375 17.96875 6.59375 36.375 
Q 6.59375 54.828125 13.0625 64.515625 
Q 19.53125 74.21875 31.78125 74.21875 
z
" id="DejaVuSans-48"/>
      </defs>
      <g transform="translate(68.142773 154.297656)scale(0.1 -0.1)">
       <use xlink:href="#DejaVuSans-49"/>
       <use x="63.623047" xlink:href="#DejaVuSans-48"/>
       <use x="127.246094" xlink:href="#DejaVuSans-48"/>
       <use x="190.869141" xlink:href="#DejaVuSans-48"/>
       <use x="254.492188" xlink:href="#DejaVuSans-48"/>
      </g>
     </g>
    </g>
    <g id="xtick_2">
     <g id="line2d_3">
      <path clip-path="url(#pcb52536a2b)" d="M 128.46567 139.699219 
L 128.46567 3.799219 
" style="fill:none;stroke:#b0b0b0;stroke-linecap:square;stroke-width:0.8;"/>
     </g>
     <g id="line2d_4">
      <g>
       <use style="stroke:#000000;stroke-width:0.8;" x="128.46567" xlink:href="#mf54dc0933a" y="139.699219"/>
      </g>
     </g>
     <g id="text_2">
      <!-- 20000 -->
      <defs>
       <path d="M 19.1875 8.296875 
L 53.609375 8.296875 
L 53.609375 0 
L 7.328125 0 
L 7.328125 8.296875 
Q 12.9375 14.109375 22.625 23.890625 
Q 32.328125 33.6875 34.8125 36.53125 
Q 39.546875 41.84375 41.421875 45.53125 
Q 43.3125 49.21875 43.3125 52.78125 
Q 43.3125 58.59375 39.234375 62.25 
Q 35.15625 65.921875 28.609375 65.921875 
Q 23.96875 65.921875 18.8125 64.3125 
Q 13.671875 62.703125 7.8125 59.421875 
L 7.8125 69.390625 
Q 13.765625 71.78125 18.9375 73 
Q 24.125 74.21875 28.421875 74.21875 
Q 39.75 74.21875 46.484375 68.546875 
Q 53.21875 62.890625 53.21875 53.421875 
Q 53.21875 48.921875 51.53125 44.890625 
Q 49.859375 40.875 45.40625 35.40625 
Q 44.1875 33.984375 37.640625 27.21875 
Q 31.109375 20.453125 19.1875 8.296875 
z
" id="DejaVuSans-50"/>
      </defs>
      <g transform="translate(112.55942 154.297656)scale(0.1 -0.1)">
       <use xlink:href="#DejaVuSans-50"/>
       <use x="63.623047" xlink:href="#DejaVuSans-48"/>
       <use x="127.246094" xlink:href="#DejaVuSans-48"/>
       <use x="190.869141" xlink:href="#DejaVuSans-48"/>
       <use x="254.492188" xlink:href="#DejaVuSans-48"/>
      </g>
     </g>
    </g>
    <g id="xtick_3">
     <g id="line2d_5">
      <path clip-path="url(#pcb52536a2b)" d="M 172.882318 139.699219 
L 172.882318 3.799219 
" style="fill:none;stroke:#b0b0b0;stroke-linecap:square;stroke-width:0.8;"/>
     </g>
     <g id="line2d_6">
      <g>
       <use style="stroke:#000000;stroke-width:0.8;" x="172.882318" xlink:href="#mf54dc0933a" y="139.699219"/>
      </g>
     </g>
     <g id="text_3">
      <!-- 30000 -->
      <defs>
       <path d="M 40.578125 39.3125 
Q 47.65625 37.796875 51.625 33 
Q 55.609375 28.21875 55.609375 21.1875 
Q 55.609375 10.40625 48.1875 4.484375 
Q 40.765625 -1.421875 27.09375 -1.421875 
Q 22.515625 -1.421875 17.65625 -0.515625 
Q 12.796875 0.390625 7.625 2.203125 
L 7.625 11.71875 
Q 11.71875 9.328125 16.59375 8.109375 
Q 21.484375 6.890625 26.8125 6.890625 
Q 36.078125 6.890625 40.9375 10.546875 
Q 45.796875 14.203125 45.796875 21.1875 
Q 45.796875 27.640625 41.28125 31.265625 
Q 36.765625 34.90625 28.71875 34.90625 
L 20.21875 34.90625 
L 20.21875 43.015625 
L 29.109375 43.015625 
Q 36.375 43.015625 40.234375 45.921875 
Q 44.09375 48.828125 44.09375 54.296875 
Q 44.09375 59.90625 40.109375 62.90625 
Q 36.140625 65.921875 28.71875 65.921875 
Q 24.65625 65.921875 20.015625 65.03125 
Q 15.375 64.15625 9.8125 62.3125 
L 9.8125 71.09375 
Q 15.4375 72.65625 20.34375 73.4375 
Q 25.25 74.21875 29.59375 74.21875 
Q 40.828125 74.21875 47.359375 69.109375 
Q 53.90625 64.015625 53.90625 55.328125 
Q 53.90625 49.265625 50.4375 45.09375 
Q 46.96875 40.921875 40.578125 39.3125 
z
" id="DejaVuSans-51"/>
      </defs>
      <g transform="translate(156.976068 154.297656)scale(0.1 -0.1)">
       <use xlink:href="#DejaVuSans-51"/>
       <use x="63.623047" xlink:href="#DejaVuSans-48"/>
       <use x="127.246094" xlink:href="#DejaVuSans-48"/>
       <use x="190.869141" xlink:href="#DejaVuSans-48"/>
       <use x="254.492188" xlink:href="#DejaVuSans-48"/>
      </g>
     </g>
    </g>
    <g id="xtick_4">
     <g id="line2d_7">
      <path clip-path="url(#pcb52536a2b)" d="M 217.298966 139.699219 
L 217.298966 3.799219 
" style="fill:none;stroke:#b0b0b0;stroke-linecap:square;stroke-width:0.8;"/>
     </g>
     <g id="line2d_8">
      <g>
       <use style="stroke:#000000;stroke-width:0.8;" x="217.298966" xlink:href="#mf54dc0933a" y="139.699219"/>
      </g>
     </g>
     <g id="text_4">
      <!-- 40000 -->
      <defs>
       <path d="M 37.796875 64.3125 
L 12.890625 25.390625 
L 37.796875 25.390625 
z
M 35.203125 72.90625 
L 47.609375 72.90625 
L 47.609375 25.390625 
L 58.015625 25.390625 
L 58.015625 17.1875 
L 47.609375 17.1875 
L 47.609375 0 
L 37.796875 0 
L 37.796875 17.1875 
L 4.890625 17.1875 
L 4.890625 26.703125 
z
" id="DejaVuSans-52"/>
      </defs>
      <g transform="translate(201.392716 154.297656)scale(0.1 -0.1)">
       <use xlink:href="#DejaVuSans-52"/>
       <use x="63.623047" xlink:href="#DejaVuSans-48"/>
       <use x="127.246094" xlink:href="#DejaVuSans-48"/>
       <use x="190.869141" xlink:href="#DejaVuSans-48"/>
       <use x="254.492188" xlink:href="#DejaVuSans-48"/>
      </g>
     </g>
    </g>
    <g id="text_5">
     <!-- iter -->
     <defs>
      <path d="M 9.421875 54.6875 
L 18.40625 54.6875 
L 18.40625 0 
L 9.421875 0 
z
M 9.421875 75.984375 
L 18.40625 75.984375 
L 18.40625 64.59375 
L 9.421875 64.59375 
z
" id="DejaVuSans-105"/>
      <path d="M 18.3125 70.21875 
L 18.3125 54.6875 
L 36.8125 54.6875 
L 36.8125 47.703125 
L 18.3125 47.703125 
L 18.3125 18.015625 
Q 18.3125 11.328125 20.140625 9.421875 
Q 21.96875 7.515625 27.59375 7.515625 
L 36.8125 7.515625 
L 36.8125 0 
L 27.59375 0 
Q 17.1875 0 13.234375 3.875 
Q 9.28125 7.765625 9.28125 18.015625 
L 9.28125 47.703125 
L 2.6875 47.703125 
L 2.6875 54.6875 
L 9.28125 54.6875 
L 9.28125 70.21875 
z
" id="DejaVuSans-116"/>
      <path d="M 56.203125 29.59375 
L 56.203125 25.203125 
L 14.890625 25.203125 
Q 15.484375 15.921875 20.484375 11.0625 
Q 25.484375 6.203125 34.421875 6.203125 
Q 39.59375 6.203125 44.453125 7.46875 
Q 49.3125 8.734375 54.109375 11.28125 
L 54.109375 2.78125 
Q 49.265625 0.734375 44.1875 -0.34375 
Q 39.109375 -1.421875 33.890625 -1.421875 
Q 20.796875 -1.421875 13.15625 6.1875 
Q 5.515625 13.8125 5.515625 26.8125 
Q 5.515625 40.234375 12.765625 48.109375 
Q 20.015625 56 32.328125 56 
Q 43.359375 56 49.78125 48.890625 
Q 56.203125 41.796875 56.203125 29.59375 
z
M 47.21875 32.234375 
Q 47.125 39.59375 43.09375 43.984375 
Q 39.0625 48.390625 32.421875 48.390625 
Q 24.90625 48.390625 20.390625 44.140625 
Q 15.875 39.890625 15.1875 32.171875 
z
" id="DejaVuSans-101"/>
      <path d="M 41.109375 46.296875 
Q 39.59375 47.171875 37.8125 47.578125 
Q 36.03125 48 33.890625 48 
Q 26.265625 48 22.1875 43.046875 
Q 18.109375 38.09375 18.109375 28.8125 
L 18.109375 0 
L 9.078125 0 
L 9.078125 54.6875 
L 18.109375 54.6875 
L 18.109375 46.1875 
Q 20.953125 51.171875 25.484375 53.578125 
Q 30.03125 56 36.53125 56 
Q 37.453125 56 38.578125 55.875 
Q 39.703125 55.765625 41.0625 55.515625 
z
" id="DejaVuSans-114"/>
     </defs>
     <g transform="translate(128.934375 167.975781)scale(0.1 -0.1)">
      <use xlink:href="#DejaVuSans-105"/>
      <use x="27.783203" xlink:href="#DejaVuSans-116"/>
      <use x="66.992188" xlink:href="#DejaVuSans-101"/>
      <use x="128.515625" xlink:href="#DejaVuSans-114"/>
     </g>
    </g>
   </g>
   <g id="matplotlib.axis_2">
    <g id="ytick_1">
     <g id="line2d_9">
      <path clip-path="url(#pcb52536a2b)" d="M 39.765625 139.699219 
L 235.065625 139.699219 
" style="fill:none;stroke:#b0b0b0;stroke-linecap:square;stroke-width:0.8;"/>
     </g>
     <g id="line2d_10">
      <defs>
       <path d="M 0 0 
L -3.5 0 
" id="m08c4ad0b7b" style="stroke:#000000;stroke-width:0.8;"/>
      </defs>
      <g>
       <use style="stroke:#000000;stroke-width:0.8;" x="39.765625" xlink:href="#m08c4ad0b7b" y="139.699219"/>
      </g>
     </g>
     <g id="text_6">
      <!-- 0 -->
      <g transform="translate(26.403125 143.498437)scale(0.1 -0.1)">
       <use xlink:href="#DejaVuSans-48"/>
      </g>
     </g>
    </g>
    <g id="ytick_2">
     <g id="line2d_11">
      <path clip-path="url(#pcb52536a2b)" d="M 39.765625 105.724219 
L 235.065625 105.724219 
" style="fill:none;stroke:#b0b0b0;stroke-linecap:square;stroke-width:0.8;"/>
     </g>
     <g id="line2d_12">
      <g>
       <use style="stroke:#000000;stroke-width:0.8;" x="39.765625" xlink:href="#m08c4ad0b7b" y="105.724219"/>
      </g>
     </g>
     <g id="text_7">
      <!-- 50 -->
      <defs>
       <path d="M 10.796875 72.90625 
L 49.515625 72.90625 
L 49.515625 64.59375 
L 19.828125 64.59375 
L 19.828125 46.734375 
Q 21.96875 47.46875 24.109375 47.828125 
Q 26.265625 48.1875 28.421875 48.1875 
Q 40.625 48.1875 47.75 41.5 
Q 54.890625 34.8125 54.890625 23.390625 
Q 54.890625 11.625 47.5625 5.09375 
Q 40.234375 -1.421875 26.90625 -1.421875 
Q 22.3125 -1.421875 17.546875 -0.640625 
Q 12.796875 0.140625 7.71875 1.703125 
L 7.71875 11.625 
Q 12.109375 9.234375 16.796875 8.0625 
Q 21.484375 6.890625 26.703125 6.890625 
Q 35.15625 6.890625 40.078125 11.328125 
Q 45.015625 15.765625 45.015625 23.390625 
Q 45.015625 31 40.078125 35.4375 
Q 35.15625 39.890625 26.703125 39.890625 
Q 22.75 39.890625 18.8125 39.015625 
Q 14.890625 38.140625 10.796875 36.28125 
z
" id="DejaVuSans-53"/>
      </defs>
      <g transform="translate(20.040625 109.523438)scale(0.1 -0.1)">
       <use xlink:href="#DejaVuSans-53"/>
       <use x="63.623047" xlink:href="#DejaVuSans-48"/>
      </g>
     </g>
    </g>
    <g id="ytick_3">
     <g id="line2d_13">
      <path clip-path="url(#pcb52536a2b)" d="M 39.765625 71.749219 
L 235.065625 71.749219 
" style="fill:none;stroke:#b0b0b0;stroke-linecap:square;stroke-width:0.8;"/>
     </g>
     <g id="line2d_14">
      <g>
       <use style="stroke:#000000;stroke-width:0.8;" x="39.765625" xlink:href="#m08c4ad0b7b" y="71.749219"/>
      </g>
     </g>
     <g id="text_8">
      <!-- 100 -->
      <g transform="translate(13.678125 75.548437)scale(0.1 -0.1)">
       <use xlink:href="#DejaVuSans-49"/>
       <use x="63.623047" xlink:href="#DejaVuSans-48"/>
       <use x="127.246094" xlink:href="#DejaVuSans-48"/>
      </g>
     </g>
    </g>
    <g id="ytick_4">
     <g id="line2d_15">
      <path clip-path="url(#pcb52536a2b)" d="M 39.765625 37.774219 
L 235.065625 37.774219 
" style="fill:none;stroke:#b0b0b0;stroke-linecap:square;stroke-width:0.8;"/>
     </g>
     <g id="line2d_16">
      <g>
       <use style="stroke:#000000;stroke-width:0.8;" x="39.765625" xlink:href="#m08c4ad0b7b" y="37.774219"/>
      </g>
     </g>
     <g id="text_9">
      <!-- 150 -->
      <g transform="translate(13.678125 41.573437)scale(0.1 -0.1)">
       <use xlink:href="#DejaVuSans-49"/>
       <use x="63.623047" xlink:href="#DejaVuSans-53"/>
       <use x="127.246094" xlink:href="#DejaVuSans-48"/>
      </g>
     </g>
    </g>
    <g id="ytick_5">
     <g id="line2d_17">
      <path clip-path="url(#pcb52536a2b)" d="M 39.765625 3.799219 
L 235.065625 3.799219 
" style="fill:none;stroke:#b0b0b0;stroke-linecap:square;stroke-width:0.8;"/>
     </g>
     <g id="line2d_18">
      <g>
       <use style="stroke:#000000;stroke-width:0.8;" x="39.765625" xlink:href="#m08c4ad0b7b" y="3.799219"/>
      </g>
     </g>
     <g id="text_10">
      <!-- 200 -->
      <g transform="translate(13.678125 7.598438)scale(0.1 -0.1)">
       <use xlink:href="#DejaVuSans-50"/>
       <use x="63.623047" xlink:href="#DejaVuSans-48"/>
       <use x="127.246094" xlink:href="#DejaVuSans-48"/>
      </g>
     </g>
    </g>
    <g id="text_11">
     <!-- perplexity -->
     <defs>
      <path d="M 18.109375 8.203125 
L 18.109375 -20.796875 
L 9.078125 -20.796875 
L 9.078125 54.6875 
L 18.109375 54.6875 
L 18.109375 46.390625 
Q 20.953125 51.265625 25.265625 53.625 
Q 29.59375 56 35.59375 56 
Q 45.5625 56 51.78125 48.09375 
Q 58.015625 40.1875 58.015625 27.296875 
Q 58.015625 14.40625 51.78125 6.484375 
Q 45.5625 -1.421875 35.59375 -1.421875 
Q 29.59375 -1.421875 25.265625 0.953125 
Q 20.953125 3.328125 18.109375 8.203125 
z
M 48.6875 27.296875 
Q 48.6875 37.203125 44.609375 42.84375 
Q 40.53125 48.484375 33.40625 48.484375 
Q 26.265625 48.484375 22.1875 42.84375 
Q 18.109375 37.203125 18.109375 27.296875 
Q 18.109375 17.390625 22.1875 11.75 
Q 26.265625 6.109375 33.40625 6.109375 
Q 40.53125 6.109375 44.609375 11.75 
Q 48.6875 17.390625 48.6875 27.296875 
z
" id="DejaVuSans-112"/>
      <path d="M 9.421875 75.984375 
L 18.40625 75.984375 
L 18.40625 0 
L 9.421875 0 
z
" id="DejaVuSans-108"/>
      <path d="M 54.890625 54.6875 
L 35.109375 28.078125 
L 55.90625 0 
L 45.3125 0 
L 29.390625 21.484375 
L 13.484375 0 
L 2.875 0 
L 24.125 28.609375 
L 4.6875 54.6875 
L 15.28125 54.6875 
L 29.78125 35.203125 
L 44.28125 54.6875 
z
" id="DejaVuSans-120"/>
      <path d="M 32.171875 -5.078125 
Q 28.375 -14.84375 24.75 -17.8125 
Q 21.140625 -20.796875 15.09375 -20.796875 
L 7.90625 -20.796875 
L 7.90625 -13.28125 
L 13.1875 -13.28125 
Q 16.890625 -13.28125 18.9375 -11.515625 
Q 21 -9.765625 23.484375 -3.21875 
L 25.09375 0.875 
L 2.984375 54.6875 
L 12.5 54.6875 
L 29.59375 11.921875 
L 46.6875 54.6875 
L 56.203125 54.6875 
z
" id="DejaVuSans-121"/>
     </defs>
     <g transform="translate(7.598438 96.875781)rotate(-90)scale(0.1 -0.1)">
      <use xlink:href="#DejaVuSans-112"/>
      <use x="63.476562" xlink:href="#DejaVuSans-101"/>
      <use x="125" xlink:href="#DejaVuSans-114"/>
      <use x="166.113281" xlink:href="#DejaVuSans-112"/>
      <use x="229.589844" xlink:href="#DejaVuSans-108"/>
      <use x="257.373047" xlink:href="#DejaVuSans-101"/>
      <use x="317.146484" xlink:href="#DejaVuSans-120"/>
      <use x="376.326172" xlink:href="#DejaVuSans-105"/>
      <use x="404.109375" xlink:href="#DejaVuSans-116"/>
      <use x="443.318359" xlink:href="#DejaVuSans-121"/>
     </g>
    </g>
   </g>
   <g id="line2d_19">
    <path clip-path="url(#pcb52536a2b)" d="M 44.118456 18.892653 
L 44.162873 24.754742 
L 44.20729 17.142959 
L 44.251706 24.743313 
L 44.296123 20.158663 
L 44.34054 25.154874 
L 44.429373 27.77335 
L 44.47379 30.536754 
L 44.518206 28.719261 
L 44.562623 19.368315 
L 44.60704 29.386867 
L 44.651456 22.89852 
L 44.695873 31.515598 
L 44.784706 30.743744 
L 44.829123 30.955118 
L 44.873539 27.031939 
L 44.917956 36.28018 
L 44.962373 31.686324 
L 45.051206 27.248269 
L 45.095623 36.258309 
L 45.184456 34.364523 
L 45.228873 29.385799 
L 45.273289 36.53782 
L 45.406539 32.339492 
L 45.495373 39.73906 
L 45.584206 37.666593 
L 45.628622 31.035226 
L 45.673039 38.776527 
L 45.717456 40.204718 
L 45.761872 33.352966 
L 45.806289 40.796671 
L 45.850706 39.167943 
L 45.895122 41.570973 
L 45.939539 41.007206 
L 45.983956 37.8619 
L 46.028372 39.964574 
L 46.072789 44.54199 
L 46.117206 40.747672 
L 46.161622 33.821017 
L 46.294872 45.56765 
L 46.428122 35.725426 
L 46.472539 47.265332 
L 46.516955 42.336782 
L 46.561372 35.396637 
L 46.694622 49.788335 
L 46.739039 49.207679 
L 46.872289 45.011497 
L 46.961122 49.521889 
L 47.005539 48.683348 
L 47.049955 51.005822 
L 47.094372 50.68966 
L 47.138789 45.009091 
L 47.183205 55.429707 
L 47.227622 54.56326 
L 47.316455 48.293364 
L 47.360872 48.393551 
L 47.405288 53.866432 
L 47.494122 51.556508 
L 47.627372 46.929505 
L 47.760622 55.196974 
L 47.805038 53.162708 
L 47.849455 56.835437 
L 47.893872 54.142574 
L 47.938288 49.797961 
L 48.115955 60.600128 
L 48.160371 54.358399 
L 48.204788 61.535007 
L 48.293621 51.325949 
L 48.382455 54.158452 
L 48.426871 54.890697 
L 48.471288 60.837472 
L 48.560121 58.874604 
L 48.737788 53.904783 
L 48.826621 60.611381 
L 48.871038 55.818996 
L 48.959871 57.520452 
L 49.093121 64.092696 
L 49.137538 53.018659 
L 49.226371 56.684785 
L 49.270788 60.577794 
L 49.359621 59.271441 
L 49.492871 53.394034 
L 49.537287 62.582432 
L 49.626121 58.839847 
L 49.670537 64.51537 
L 49.714954 63.251308 
L 49.759371 61.275789 
L 49.803787 65.602594 
L 49.892621 64.720655 
L 49.937037 60.860821 
L 49.981454 61.167909 
L 50.070287 60.376751 
L 50.114704 66.173049 
L 50.247954 62.464361 
L 50.336787 66.273548 
L 50.381204 63.672588 
L 50.42562 64.696166 
L 50.470037 67.329208 
L 50.514454 62.768887 
L 50.55887 68.978741 
L 50.603287 64.220633 
L 50.647704 64.003954 
L 50.69212 62.485589 
L 50.736537 67.030162 
L 50.780954 60.608599 
L 50.82537 66.309473 
L 50.869787 67.365347 
L 50.914204 66.268136 
L 50.95862 66.867953 
L 51.003037 66.105478 
L 51.047454 70.140661 
L 51.09187 67.680875 
L 51.136287 66.72498 
L 51.180703 67.762376 
L 51.22512 69.915353 
L 51.269537 67.03652 
L 51.313953 67.11848 
L 51.35837 69.328035 
L 51.402787 65.549909 
L 51.447203 70.611986 
L 51.49162 70.853159 
L 51.580453 68.590652 
L 51.62487 72.385626 
L 51.669287 68.038739 
L 51.713703 66.295817 
L 51.846953 76.452352 
L 51.89137 68.462641 
L 51.980203 70.727443 
L 52.069036 68.211108 
L 52.113453 72.91411 
L 52.15787 72.653766 
L 52.202286 69.12494 
L 52.29112 70.466731 
L 52.335536 69.512938 
L 52.513203 75.286746 
L 52.602036 70.019497 
L 52.646453 70.542901 
L 52.690869 71.543023 
L 52.824119 78.576035 
L 52.868536 77.447196 
L 52.957369 70.099285 
L 53.001786 72.901258 
L 53.046203 70.577446 
L 53.090619 70.621993 
L 53.179453 76.476391 
L 53.268286 74.531857 
L 53.312703 74.096512 
L 53.357119 76.290199 
L 53.401536 72.406817 
L 53.445952 76.599879 
L 53.534786 74.361641 
L 53.579202 76.038949 
L 53.623619 76.702548 
L 53.712452 71.910475 
L 53.756869 74.907068 
L 53.845702 77.189599 
L 53.890119 71.38493 
L 53.934536 78.750923 
L 54.067786 72.513294 
L 54.112202 79.128369 
L 54.201036 77.154368 
L 54.245452 74.148412 
L 54.289869 78.224578 
L 54.334285 80.423788 
L 54.378702 74.242178 
L 54.423119 81.70711 
L 54.467535 80.20243 
L 54.511952 74.462504 
L 54.600785 76.981047 
L 54.689619 78.508646 
L 54.778452 76.38686 
L 54.867285 81.177868 
L 54.911702 78.135367 
L 54.956119 75.810081 
L 55.000535 79.073604 
L 55.044952 78.45071 
L 55.089368 75.958319 
L 55.133785 78.831403 
L 55.222618 81.995756 
L 55.267035 80.058658 
L 55.311452 73.61347 
L 55.355868 81.914476 
L 55.400285 79.812212 
L 55.444702 82.273328 
L 55.489118 84.122964 
L 55.533535 78.416112 
L 55.622368 79.930706 
L 55.666785 79.771638 
L 55.711202 80.44763 
L 55.755618 78.70476 
L 55.800035 79.20274 
L 55.888868 82.847341 
L 55.933285 79.234063 
L 56.022118 80.917782 
L 56.066535 82.336752 
L 56.155368 77.439795 
L 56.199785 82.093701 
L 56.244201 81.773759 
L 56.288618 77.912836 
L 56.333035 82.697168 
L 56.377451 82.813129 
L 56.421868 85.564658 
L 56.466285 83.611852 
L 56.510701 79.812002 
L 56.599534 80.290477 
L 56.643951 80.19053 
L 56.688368 86.599517 
L 56.777201 84.937847 
L 56.910451 81.073261 
L 56.954868 86.477144 
L 57.043701 84.218858 
L 57.088118 85.655309 
L 57.132534 84.879876 
L 57.265784 81.060275 
L 57.310201 81.473847 
L 57.443451 89.612633 
L 57.487867 82.846373 
L 57.576701 85.2036 
L 57.665534 82.727712 
L 57.754367 83.04802 
L 57.887617 85.624347 
L 57.932034 84.823515 
L 57.976451 85.409224 
L 58.109701 89.262289 
L 58.154117 88.360755 
L 58.287367 82.005654 
L 58.24295 89.04478 
L 58.331784 82.640983 
L 58.3762 83.856329 
L 58.465034 89.420087 
L 58.50945 86.676997 
L 58.553867 88.564637 
L 58.598284 86.606541 
L 58.6427 86.048382 
L 58.731534 88.574913 
L 58.864784 85.784648 
L 58.9092 88.543848 
L 58.953617 86.141254 
L 58.998033 86.08255 
L 59.1757 90.345937 
L 59.397783 86.923578 
L 59.486617 91.72746 
L 59.531033 91.022216 
L 59.57545 87.775069 
L 59.664283 88.569147 
L 59.7087 89.604983 
L 59.753116 87.655868 
L 59.797533 89.182803 
L 59.84195 89.255393 
L 59.886366 86.280023 
L 59.930783 86.77322 
L 60.064033 90.850846 
L 60.197283 87.066999 
L 60.2417 89.22777 
L 60.330533 88.828065 
L 60.37495 92.148386 
L 60.508199 89.380142 
L 60.552616 93.400882 
L 60.597033 89.458641 
L 60.685866 92.319793 
L 60.730283 89.260695 
L 60.774699 93.040195 
L 60.819116 90.10572 
L 60.863533 91.907295 
L 60.907949 89.690949 
L 60.952366 90.279209 
L 60.996783 86.589746 
L 61.041199 90.959337 
L 61.085616 92.028605 
L 61.130033 90.489421 
L 61.174449 89.662649 
L 61.307699 95.073432 
L 61.263282 89.41301 
L 61.352116 93.424598 
L 61.396532 89.263373 
L 61.440949 92.555439 
L 61.529782 93.444203 
L 61.574199 90.606718 
L 61.663032 90.988745 
L 61.751866 90.599823 
L 61.796282 93.987552 
L 61.929532 90.817949 
L 61.973949 91.427866 
L 62.018366 93.016601 
L 62.062782 91.543269 
L 62.107199 90.424308 
L 62.240449 94.653214 
L 62.284865 88.683157 
L 62.329282 92.503475 
L 62.373699 97.573728 
L 62.418115 92.040526 
L 62.462532 92.077547 
L 62.506949 92.281089 
L 62.551365 94.682455 
L 62.595782 92.863097 
L 62.684615 90.553694 
L 62.729032 92.549538 
L 62.773449 92.141927 
L 62.862282 95.363522 
L 62.906698 94.09433 
L 62.951115 94.952575 
L 62.995532 94.273057 
L 63.039948 93.763168 
L 63.084365 95.514412 
L 63.128782 95.427228 
L 63.173198 94.413474 
L 63.217615 95.87771 
L 63.262032 97.276065 
L 63.306448 95.543801 
L 63.350865 94.351502 
L 63.395282 95.572135 
L 63.439698 95.528961 
L 63.484115 91.334829 
L 63.528532 96.632125 
L 63.661781 93.552776 
L 63.795031 99.266664 
L 63.839448 93.779341 
L 63.883865 94.209893 
L 63.928281 96.634419 
L 64.017115 96.074437 
L 64.105948 93.371129 
L 64.283615 99.390841 
L 64.328031 99.085515 
L 64.372448 94.927368 
L 64.416864 97.709477 
L 64.461281 97.021121 
L 64.505698 98.599636 
L 64.550114 98.508797 
L 64.638948 95.520223 
L 64.683364 98.0861 
L 64.772198 97.479709 
L 64.905448 94.899183 
L 65.083114 99.843625 
L 65.171947 95.640884 
L 65.216364 97.76955 
L 65.260781 99.115062 
L 65.438447 95.023423 
L 65.571697 98.869187 
L 65.616114 98.586702 
L 65.660531 94.372725 
L 65.749364 95.328428 
L 65.793781 99.497143 
L 65.838197 95.05905 
L 65.882614 97.545344 
L 65.971447 100.477473 
L 66.06028 97.802802 
L 66.104697 98.223596 
L 66.149114 98.639687 
L 66.282364 96.108847 
L 66.371197 102.61936 
L 66.415614 97.810924 
L 66.46003 99.392964 
L 66.548864 93.816711 
L 66.59328 100.935954 
L 66.682114 100.050851 
L 66.72653 94.620668 
L 66.770947 97.235377 
L 66.815363 101.445849 
L 66.85978 98.819283 
L 66.904197 97.413136 
L 66.948613 99.51566 
L 66.99303 99.018573 
L 67.037447 99.334311 
L 67.081863 101.489709 
L 67.12628 99.290838 
L 67.170697 95.084521 
L 67.215113 99.469669 
L 67.25953 99.189569 
L 67.303947 98.050018 
L 67.348363 99.109679 
L 67.39278 99.967132 
L 67.481613 97.199899 
L 67.52603 101.246473 
L 67.570446 98.719707 
L 67.614863 99.167896 
L 67.65928 97.914841 
L 67.748113 100.458362 
L 67.79253 99.625823 
L 67.836946 98.594475 
L 67.881363 101.649956 
L 67.92578 100.345139 
L 67.970196 100.099362 
L 68.014613 103.571945 
L 68.05903 98.637832 
L 68.103446 99.784546 
L 68.147863 95.568455 
L 68.19228 101.197647 
L 68.236696 98.927353 
L 68.281113 101.237076 
L 68.325529 102.315349 
L 68.369946 100.859507 
L 68.414363 100.845579 
L 68.458779 101.035459 
L 68.636446 98.695909 
L 68.680863 102.396425 
L 68.725279 100.637892 
L 68.769696 99.809731 
L 68.814113 101.702819 
L 68.858529 98.215089 
L 68.947363 99.732106 
L 68.991779 101.888165 
L 69.036196 98.71859 
L 69.080612 97.122528 
L 69.213862 101.268019 
L 69.302696 99.477582 
L 69.347112 99.976835 
L 69.524779 101.592306 
L 69.569196 100.290409 
L 69.613612 102.010285 
L 69.702446 100.334037 
L 69.746862 101.733455 
L 69.791279 99.245605 
L 69.835696 100.291198 
L 69.880112 101.108454 
L 69.924529 100.877963 
L 70.013362 98.87663 
L 70.057779 99.698266 
L 70.146612 103.880157 
L 70.235445 102.507079 
L 70.279862 98.422132 
L 70.324279 101.74092 
L 70.368695 101.063239 
L 70.413112 103.352057 
L 70.457529 101.443448 
L 70.501945 101.344231 
L 70.546362 99.544532 
L 70.590779 102.777422 
L 70.679612 102.087487 
L 70.724028 102.113896 
L 70.768445 103.722951 
L 70.812862 103.049453 
L 70.946112 99.393381 
L 70.990528 103.575615 
L 71.079362 102.083701 
L 71.168195 104.575546 
L 71.301445 100.633802 
L 71.345862 103.437999 
L 71.390278 102.377691 
L 71.434695 98.404008 
L 71.479111 102.237016 
L 71.567945 105.053035 
L 71.612361 103.528036 
L 71.701195 101.537637 
L 71.745611 102.256406 
L 71.790028 101.934324 
L 71.834445 102.000691 
L 71.923278 104.837778 
L 72.012111 101.396264 
L 72.189778 106.182829 
L 72.234194 105.273905 
L 72.278611 99.726685 
L 72.323028 102.295419 
L 72.367444 105.063391 
L 72.456278 103.850007 
L 72.500694 101.87811 
L 72.545111 102.947999 
L 72.678361 105.022499 
L 72.811611 101.94829 
L 72.856028 103.908606 
L 72.900444 102.376921 
L 72.944861 100.166062 
L 72.989277 102.331771 
L 73.033694 101.333181 
L 73.211361 107.481381 
L 73.344611 103.387122 
L 73.389027 104.47736 
L 73.522277 100.878651 
L 73.611111 105.266835 
L 73.655527 101.898184 
L 73.699944 103.991996 
L 73.744361 104.511324 
L 73.788777 107.091755 
L 73.833194 105.579878 
L 74.01086 103.209424 
L 74.055277 105.093532 
L 74.099694 102.066999 
L 74.14411 103.722886 
L 74.188527 103.709069 
L 74.232944 105.961188 
L 74.321777 105.299922 
L 74.366194 105.786208 
L 74.41061 103.838878 
L 74.455027 105.428881 
L 74.499444 105.966701 
L 74.54386 103.253076 
L 74.588277 107.486032 
L 74.632693 102.711353 
L 74.721527 105.614704 
L 74.765943 103.732598 
L 74.81036 103.471163 
L 74.854777 104.321395 
L 74.899193 103.633196 
L 74.94361 103.553112 
L 75.165693 105.962688 
L 75.21011 105.24657 
L 75.254527 103.9872 
L 75.34336 104.322133 
L 75.387776 106.790178 
L 75.432193 103.933932 
L 75.47661 103.789914 
L 75.521026 106.586091 
L 75.565443 103.743056 
L 75.60986 103.531896 
L 75.698693 104.690638 
L 75.74311 108.027933 
L 75.787526 105.33666 
L 75.831943 105.204965 
L 75.965193 108.463688 
L 76.00961 108.365223 
L 76.054026 110.531254 
L 76.142859 109.821524 
L 76.187276 111.060601 
L 76.320526 108.097555 
L 76.364943 112.439426 
L 76.409359 109.606102 
L 76.587026 111.625778 
L 76.631443 111.287647 
L 76.675859 106.973989 
L 76.720276 110.686014 
L 76.809109 107.883657 
L 76.853526 109.90145 
L 76.897942 109.907381 
L 76.942359 108.589749 
L 76.986776 110.043512 
L 77.031192 111.883558 
L 77.120026 108.26994 
L 77.164442 109.599328 
L 77.208859 109.445633 
L 77.253276 109.985827 
L 77.297692 108.760094 
L 77.342109 109.040118 
L 77.475359 110.478115 
L 77.564192 105.083476 
L 77.608609 107.531341 
L 77.741859 110.78651 
L 77.786275 110.585448 
L 77.830692 107.955108 
L 77.875109 108.8064 
L 77.919525 110.011108 
L 77.963942 107.917822 
L 78.052775 114.22333 
L 78.097192 111.061376 
L 78.230442 105.179399 
L 78.274859 109.373043 
L 78.319275 108.897615 
L 78.363692 107.2083 
L 78.408109 107.555203 
L 78.541358 111.802867 
L 78.674608 108.398337 
L 78.763442 112.412761 
L 78.807858 108.88818 
L 78.896692 109.406005 
L 78.941108 112.009842 
L 78.985525 108.88705 
L 79.029942 111.6014 
L 79.163192 108.965551 
L 79.252025 108.834349 
L 79.296441 111.74817 
L 79.340858 107.656007 
L 79.385275 109.431107 
L 79.429691 110.782471 
L 79.474108 109.794073 
L 79.562941 110.426584 
L 79.607358 107.860552 
L 79.785025 111.402779 
L 79.873858 111.714906 
L 79.918275 107.078038 
L 79.962691 111.960003 
L 80.051524 109.641442 
L 80.140358 109.290174 
L 80.229191 112.456516 
L 80.273608 109.204056 
L 80.318024 111.263602 
L 80.362441 111.017263 
L 80.406858 109.962042 
L 80.451274 112.643878 
L 80.540108 111.300715 
L 80.584524 112.172827 
L 80.628941 111.549684 
L 80.762191 109.37464 
L 80.806607 110.102815 
L 80.851024 111.243454 
L 80.939857 110.755471 
L 80.984274 108.255026 
L 81.028691 110.47281 
L 81.073107 109.85052 
L 81.117524 111.127293 
L 81.161941 108.858229 
L 81.206357 111.777354 
L 81.250774 112.460539 
L 81.295191 108.40704 
L 81.384024 110.256474 
L 81.428441 112.347159 
L 81.56169 108.760942 
L 81.606107 112.432845 
L 81.69494 111.486857 
L 81.82819 108.505747 
L 82.005857 112.825155 
L 81.917024 108.03504 
L 82.050274 112.437136 
L 82.139107 113.279812 
L 82.272357 110.075288 
L 82.316774 111.414943 
L 82.36119 110.146971 
L 82.49444 108.100801 
L 82.62769 113.505835 
L 82.76094 109.31489 
L 82.89419 110.725927 
L 82.938607 109.728774 
L 82.983023 111.895294 
L 83.02744 110.033847 
L 83.071857 108.335058 
L 83.116273 109.564133 
L 83.205106 111.225394 
L 83.249523 110.565508 
L 83.29394 107.961926 
L 83.338356 112.295217 
L 83.382773 112.035952 
L 83.471606 109.264035 
L 83.516023 109.425924 
L 83.56044 109.761415 
L 83.604856 113.001395 
L 83.649273 111.714151 
L 83.82694 108.576487 
L 83.871356 111.371839 
L 83.915773 111.291209 
L 83.960189 109.893025 
L 84.004606 112.826909 
L 84.049023 111.961304 
L 84.182273 109.018289 
L 84.315523 114.672982 
L 84.404356 109.242716 
L 84.448773 111.63174 
L 84.537606 112.572207 
L 84.670856 110.231671 
L 84.715272 110.532898 
L 84.804106 110.106659 
L 84.848522 111.829427 
L 84.892939 110.006705 
L 84.937356 111.061836 
L 84.981772 113.63352 
L 85.026189 110.782722 
L 85.070606 112.629033 
L 85.115022 110.94137 
L 85.159439 111.054934 
L 85.203856 112.03097 
L 85.248272 110.935923 
L 85.292689 111.084896 
L 85.337106 109.911226 
L 85.381522 110.920703 
L 85.425939 113.011208 
L 85.470355 111.297533 
L 85.514772 107.549707 
L 85.603605 108.428376 
L 85.648022 108.663836 
L 85.692439 113.425979 
L 85.781272 112.057173 
L 85.870105 109.390494 
L 86.003355 109.74756 
L 86.047772 114.137499 
L 86.136605 113.409682 
L 86.225439 111.85878 
L 86.269855 113.759342 
L 86.314272 109.153357 
L 86.403105 110.9836 
L 86.447522 113.532056 
L 86.491938 113.054795 
L 86.536355 109.273667 
L 86.580772 111.443733 
L 86.625188 112.026508 
L 86.669605 111.086812 
L 86.714022 113.328321 
L 86.758438 112.36641 
L 86.847272 110.98391 
L 86.891688 112.710997 
L 86.936105 109.345458 
L 86.980522 112.664277 
L 87.024938 113.999506 
L 87.069355 112.667238 
L 87.113771 112.661516 
L 87.247021 110.549812 
L 87.335855 109.993271 
L 87.380271 114.303083 
L 87.424688 109.911429 
L 87.513521 110.378507 
L 87.557938 110.520846 
L 87.691188 113.601209 
L 87.735605 110.275218 
L 87.824438 111.014792 
L 87.913271 112.815811 
L 88.046521 112.327095 
L 88.090938 111.052135 
L 88.135354 112.8682 
L 88.179771 111.448073 
L 88.224188 111.844294 
L 88.313021 111.910145 
L 88.357438 109.604694 
L 88.490688 112.815527 
L 88.535104 109.055139 
L 88.623937 109.672392 
L 88.668354 113.473399 
L 88.712771 110.449688 
L 88.846021 114.661779 
L 88.934854 112.595663 
L 88.979271 111.916041 
L 89.023687 112.700012 
L 89.068104 112.784717 
L 89.156937 111.633633 
L 89.334604 113.806311 
L 89.423437 112.413299 
L 89.467854 114.802009 
L 89.51227 111.008084 
L 89.556687 114.171872 
L 89.601104 113.214778 
L 89.64552 115.375684 
L 89.689937 111.550089 
L 89.734354 113.609282 
L 89.77877 114.760069 
L 89.867604 111.338977 
L 89.91202 112.287146 
L 89.956437 115.45168 
L 90.000854 114.137961 
L 90.089687 114.630979 
L 90.134104 110.656593 
L 90.267353 114.935064 
L 90.31177 112.034679 
L 90.356187 115.138798 
L 90.400603 112.615928 
L 90.44502 112.542494 
L 90.489437 110.947988 
L 90.533853 114.252373 
L 90.622687 114.077203 
L 90.71152 114.583691 
L 90.755937 111.563039 
L 90.800353 112.18191 
L 90.889187 109.909957 
L 90.97802 113.595639 
L 91.022436 113.044208 
L 91.066853 113.696307 
L 91.11127 112.486778 
L 91.155686 113.093979 
L 91.200103 113.817824 
L 91.24452 113.433974 
L 91.288936 110.377639 
L 91.333353 111.94076 
L 91.37777 112.337444 
L 91.466603 113.613172 
L 91.51102 108.682153 
L 91.64427 115.41125 
L 91.733103 112.674278 
L 91.777519 112.768543 
L 91.821936 113.211954 
L 91.866353 112.786035 
L 91.910769 110.543298 
L 91.999603 115.435448 
L 92.044019 111.06646 
L 92.132853 112.606478 
L 92.221686 113.881534 
L 92.266103 111.162532 
L 92.354936 112.249481 
L 92.488186 114.210007 
L 92.532602 110.411352 
L 92.577019 113.296798 
L 92.621436 113.898669 
L 92.799102 110.836964 
L 92.932352 112.818403 
L 92.976769 113.141912 
L 93.065602 111.773834 
L 93.110019 113.804819 
L 93.154436 113.224833 
L 93.243269 113.251404 
L 93.287685 111.507391 
L 93.332102 111.414506 
L 93.376519 114.680973 
L 93.465352 113.28795 
L 93.509769 112.700398 
L 93.554185 113.348341 
L 93.598602 114.937885 
L 93.643019 114.372443 
L 93.687435 109.486167 
L 93.731852 113.220666 
L 93.776269 111.948346 
L 93.865102 114.480086 
L 93.909519 113.976131 
L 93.953935 114.224453 
L 94.042769 112.219475 
L 94.087185 113.302684 
L 94.176018 115.705067 
L 94.220435 113.267027 
L 94.309268 113.39284 
L 94.353685 114.308376 
L 94.398102 113.117385 
L 94.442518 110.433337 
L 94.486935 112.890792 
L 94.531352 113.451446 
L 94.575768 112.668201 
L 94.620185 111.69797 
L 94.664602 112.274498 
L 94.753435 113.509 
L 94.797852 115.228375 
L 94.842268 113.619622 
L 94.886685 113.579801 
L 95.064351 110.136634 
L 95.153185 115.647585 
L 95.197601 113.501565 
L 95.242018 113.267298 
L 95.375268 111.002705 
L 95.508518 114.478848 
L 95.552935 114.524104 
L 95.597351 117.10773 
L 95.730601 112.557418 
L 95.819434 111.205716 
L 95.863851 114.483869 
L 95.952684 114.018231 
L 95.997101 112.647578 
L 96.041518 114.256335 
L 96.085934 115.561887 
L 96.263601 110.926045 
L 96.352434 114.036499 
L 96.485684 111.447488 
L 96.530101 114.104845 
L 96.574517 110.498446 
L 96.618934 113.177667 
L 96.663351 113.039186 
L 96.707767 110.676746 
L 96.752184 113.069878 
L 96.796601 113.156211 
L 96.841017 114.740505 
L 96.885434 110.154564 
L 96.929851 114.601385 
L 96.974267 113.840171 
L 97.018684 114.844651 
L 97.063101 115.353867 
L 97.19635 112.600591 
L 97.285184 114.473403 
L 97.3296 114.396142 
L 97.418434 112.231445 
L 97.46285 112.880908 
L 97.507267 115.007574 
L 97.551684 113.525544 
L 97.5961 113.435671 
L 97.640517 115.489571 
L 97.684934 113.394337 
L 97.72935 112.394119 
L 97.818184 115.404524 
L 97.8626 115.311033 
L 97.951434 111.292873 
L 97.99585 113.225625 
L 98.040267 112.06214 
L 98.084683 112.887246 
L 98.1291 114.443485 
L 98.173517 113.499064 
L 98.217933 111.577909 
L 98.26235 115.369261 
L 98.306767 110.977255 
L 98.351183 114.612874 
L 98.3956 113.206726 
L 98.440017 113.65751 
L 98.52885 114.950477 
L 98.573267 113.332439 
L 98.617683 114.918866 
L 98.6621 115.890178 
L 98.706517 112.153501 
L 98.79535 113.973819 
L 98.839766 111.84327 
L 98.884183 114.712002 
L 98.9286 112.61707 
L 98.973016 112.202008 
L 99.017433 115.104079 
L 99.106266 114.65916 
L 99.150683 113.088689 
L 99.1951 114.785373 
L 99.239516 115.787706 
L 99.283933 112.670276 
L 99.32835 117.159951 
L 99.506016 113.193353 
L 99.594849 114.779013 
L 99.639266 113.848911 
L 99.683683 111.930631 
L 99.728099 112.503072 
L 99.816933 114.25292 
L 99.861349 112.903289 
L 99.905766 113.312872 
L 100.039016 114.740399 
L 100.083433 113.06833 
L 100.172266 113.356227 
L 100.261099 115.031148 
L 100.305516 113.057359 
L 100.349932 117.384526 
L 100.394349 115.853952 
L 100.527599 113.093284 
L 100.616432 112.93685 
L 100.660849 116.262276 
L 100.749682 111.283711 
L 100.794099 111.911808 
L 100.838516 112.519677 
L 101.016182 116.214024 
L 101.060599 113.906175 
L 101.105015 116.349512 
L 101.149432 114.961738 
L 101.193849 113.788198 
L 101.238265 115.207084 
L 101.415932 111.760421 
L 101.504765 114.089866 
L 101.549182 113.023015 
L 101.682432 114.618365 
L 101.726849 114.645802 
L 101.815682 112.21843 
L 101.948932 116.021032 
L 102.037765 111.093277 
L 102.082182 113.13973 
L 102.126598 116.625698 
L 102.215432 115.496819 
L 102.348682 113.439319 
L 102.393098 116.192984 
L 102.437515 114.631436 
L 102.481932 113.884891 
L 102.526348 115.658663 
L 102.570765 112.707076 
L 102.615182 115.363478 
L 102.704015 114.494539 
L 102.881681 116.455686 
L 102.926098 114.410262 
L 103.014931 114.645369 
L 103.059348 116.189812 
L 103.103765 112.273335 
L 103.148181 114.654659 
L 103.192598 115.083498 
L 103.237015 112.895354 
L 103.281431 115.858366 
L 103.325848 113.385954 
L 103.370265 115.617559 
L 103.414681 113.086521 
L 103.459098 114.923414 
L 103.503514 112.386011 
L 103.547931 115.854961 
L 103.681181 113.105379 
L 103.770014 113.446893 
L 103.814431 115.727351 
L 103.858848 112.810566 
L 103.947681 116.174396 
L 103.992098 114.770457 
L 104.080931 112.665908 
L 104.214181 116.760423 
L 104.303014 114.844956 
L 104.347431 116.560625 
L 104.391847 114.663977 
L 104.436264 113.05544 
L 104.525097 113.614814 
L 104.658347 116.57863 
L 104.791597 113.030899 
L 104.836014 113.879863 
L 104.924847 115.480154 
L 104.969264 115.174837 
L 105.191347 113.942337 
L 105.235764 114.889496 
L 105.28018 112.850939 
L 105.324597 114.79582 
L 105.369014 116.95237 
L 105.41343 115.856826 
L 105.457847 114.368247 
L 105.502264 116.019403 
L 105.54668 116.655374 
L 105.635514 113.930621 
L 105.67993 114.193646 
L 105.724347 117.045291 
L 105.768764 113.686363 
L 105.81318 111.713316 
L 105.857597 116.659617 
L 105.94643 116.50356 
L 105.990847 113.743009 
L 106.035263 114.486041 
L 106.168513 117.0049 
L 106.257347 112.683956 
L 106.301763 115.815171 
L 106.34618 115.387207 
L 106.390597 113.539781 
L 106.435013 116.491553 
L 106.47943 113.127665 
L 106.523847 113.250997 
L 106.568263 115.988728 
L 106.657096 115.799521 
L 106.74593 114.511523 
L 106.790346 115.619842 
L 106.834763 114.168329 
L 106.87918 114.075471 
L 106.923596 114.943765 
L 106.968013 113.439448 
L 107.056846 113.899595 
L 107.101263 115.186796 
L 107.14568 111.714141 
L 107.190096 114.988064 
L 107.234513 113.634307 
L 107.27893 115.053875 
L 107.323346 116.527937 
L 107.367763 113.345769 
L 107.456596 114.558747 
L 107.501013 114.851718 
L 107.545429 116.334581 
L 107.589846 114.644927 
L 107.634263 113.576104 
L 107.723096 116.715038 
L 107.767513 115.652152 
L 107.811929 114.544289 
L 107.856346 116.100456 
L 107.900763 114.785858 
L 108.078429 116.39593 
L 108.122846 115.995517 
L 108.167262 116.1407 
L 108.211679 117.236214 
L 108.256096 116.063373 
L 108.344929 114.812588 
L 108.389346 117.664266 
L 108.433762 116.15353 
L 108.522596 115.379557 
L 108.567012 117.556803 
L 108.611429 112.905332 
L 108.655846 114.690236 
L 108.744679 117.162879 
L 108.789096 115.84205 
L 108.877929 116.294095 
L 108.966762 113.065211 
L 109.011179 118.403177 
L 109.055595 113.061416 
L 109.100012 113.683902 
L 109.144429 117.116429 
L 109.188845 113.288791 
L 109.277679 115.992205 
L 109.322095 113.510947 
L 109.366512 116.815822 
L 109.410929 114.949405 
L 109.455345 116.167148 
L 109.499762 115.96883 
L 109.544179 114.07986 
L 109.677429 118.53336 
L 109.810678 113.291696 
L 109.943928 116.307941 
L 109.988345 116.034686 
L 110.032762 114.56332 
L 110.121595 114.993631 
L 110.166012 116.626319 
L 110.210428 116.061016 
L 110.254845 112.346566 
L 110.299262 116.321984 
L 110.388095 116.511014 
L 110.432512 115.028403 
L 110.476928 117.185906 
L 110.521345 113.884122 
L 110.565761 117.26735 
L 110.654595 114.12524 
L 110.699011 116.402558 
L 110.743428 115.265417 
L 110.787845 116.077151 
L 110.832261 116.456059 
L 110.876678 115.82379 
L 110.921095 117.02356 
L 110.965511 116.059463 
L 111.009928 115.933506 
L 111.054345 116.213089 
L 111.098761 116.069502 
L 111.232011 114.171645 
L 111.276428 114.244108 
L 111.409678 116.927973 
L 111.498511 114.373006 
L 111.542928 118.428588 
L 111.631761 116.890225 
L 111.676178 117.924453 
L 111.809428 115.019671 
L 111.853844 117.889172 
L 111.898261 116.819693 
L 111.942678 114.894082 
L 111.987094 117.764616 
L 112.075927 116.822401 
L 112.120344 114.398359 
L 112.164761 117.225644 
L 112.209177 116.377624 
L 112.253594 116.83868 
L 112.386844 120.937242 
L 112.520094 120.391399 
L 112.564511 120.616915 
L 112.608927 119.931597 
L 112.653344 121.249561 
L 112.697761 120.006182 
L 112.786594 120.658096 
L 112.83101 118.870199 
L 112.919844 119.000905 
L 112.96426 119.932048 
L 113.053094 118.297985 
L 113.09751 118.958047 
L 113.141927 118.540555 
L 113.275177 120.659643 
L 113.319594 120.675053 
L 113.408427 121.484318 
L 113.452844 120.602997 
L 113.541677 120.673167 
L 113.63051 122.119558 
L 113.674927 121.131822 
L 113.719343 121.13761 
L 113.808177 119.203198 
L 113.852593 120.601272 
L 113.89701 118.831574 
L 113.941427 118.483382 
L 114.074677 120.958716 
L 114.16351 118.49111 
L 114.341177 121.310939 
L 114.43001 121.428296 
L 114.474426 118.00223 
L 114.607676 121.724609 
L 114.652093 117.602013 
L 114.69651 120.521409 
L 114.740926 120.082428 
L 114.785343 117.371192 
L 114.82976 119.933612 
L 114.874176 119.865228 
L 114.918593 119.916151 
L 114.96301 120.079714 
L 115.007426 117.977781 
L 115.051843 121.179693 
L 115.140676 120.442783 
L 115.229509 119.866904 
L 115.273926 120.264272 
L 115.318343 121.510681 
L 115.407176 119.182249 
L 115.451593 120.518472 
L 115.496009 119.164653 
L 115.540426 120.022108 
L 115.584843 119.474522 
L 115.629259 119.552113 
L 115.673676 121.191412 
L 115.718093 120.919696 
L 115.806926 118.720737 
L 115.940176 121.264865 
L 115.984592 120.268303 
L 116.029009 120.531196 
L 116.073426 122.243465 
L 116.251092 117.818313 
L 116.384342 120.702547 
L 116.473176 118.779453 
L 116.562009 121.398824 
L 116.695259 117.952128 
L 116.739675 121.077556 
L 116.828509 121.044555 
L 116.872925 122.186107 
L 117.050592 118.279387 
L 117.095009 119.879251 
L 117.183842 119.854025 
L 117.272675 119.505254 
L 117.317092 122.440578 
L 117.361509 118.895859 
L 117.539175 121.107465 
L 117.716842 119.002501 
L 117.761258 119.213703 
L 117.805675 120.325239 
L 117.850092 118.280074 
L 117.894508 119.568163 
L 118.027758 121.017065 
L 118.072175 118.65341 
L 118.116592 119.993118 
L 118.161008 121.990312 
L 118.205425 119.933201 
L 118.294258 120.686286 
L 118.338675 117.148367 
L 118.427508 118.451759 
L 118.471925 116.654524 
L 118.560758 120.373413 
L 118.605175 118.581152 
L 118.649591 120.143232 
L 118.694008 119.244204 
L 118.738425 119.231783 
L 118.782841 120.882959 
L 118.871675 120.637608 
L 118.916091 120.383771 
L 118.960508 120.647691 
L 119.004925 118.272594 
L 119.049341 119.115657 
L 119.182591 121.667458 
L 119.271424 118.919215 
L 119.315841 120.593281 
L 119.360258 119.012793 
L 119.404674 119.239676 
L 119.537924 121.52632 
L 119.626758 118.609054 
L 119.671174 119.52426 
L 119.715591 119.549195 
L 119.760008 117.951371 
L 119.804424 119.740382 
L 119.848841 120.703611 
L 119.893257 119.4613 
L 119.937674 119.559243 
L 119.982091 120.423071 
L 120.026507 118.83085 
L 120.115341 118.855252 
L 120.159757 118.296465 
L 120.337424 120.888647 
L 120.381841 119.338166 
L 120.470674 119.776942 
L 120.515091 119.927682 
L 120.603924 119.055064 
L 120.64834 120.913321 
L 120.692757 118.618743 
L 120.870424 119.915605 
L 120.91484 119.692238 
L 120.959257 118.207948 
L 121.003674 119.077863 
L 121.04809 119.235458 
L 121.136924 121.445282 
L 121.270174 118.863759 
L 121.359007 120.827999 
L 121.44784 120.602982 
L 121.492257 119.93945 
L 121.536673 121.933076 
L 121.58109 119.370467 
L 121.625507 121.491043 
L 121.758757 118.631505 
L 121.803173 118.520925 
L 121.892007 120.724998 
L 121.936423 119.333722 
L 121.98084 119.538633 
L 122.11409 121.727426 
L 122.202923 119.012847 
L 122.24734 121.460616 
L 122.291756 120.965807 
L 122.38059 119.371871 
L 122.425006 119.389433 
L 122.469423 120.265324 
L 122.51384 119.056107 
L 122.558256 118.23971 
L 122.602673 119.905744 
L 122.691506 119.205206 
L 122.824756 120.353841 
L 122.869173 120.408845 
L 122.91359 120.827338 
L 122.958006 116.752851 
L 123.046839 118.448827 
L 123.135673 120.346509 
L 123.180089 120.187261 
L 123.224506 118.802477 
L 123.268923 119.728279 
L 123.357756 119.626823 
L 123.402173 121.169091 
L 123.446589 119.380294 
L 123.535423 119.156299 
L 123.579839 117.971088 
L 123.624256 118.506467 
L 123.757506 121.855451 
L 123.890756 115.935118 
L 123.935172 120.39163 
L 124.024006 118.459119 
L 124.112839 122.056684 
L 124.201672 116.600413 
L 124.246089 119.940428 
L 124.290506 120.45465 
L 124.334922 119.991394 
L 124.379339 118.171403 
L 124.468172 118.462865 
L 124.512589 119.995427 
L 124.557005 119.182178 
L 124.601422 118.370864 
L 124.645839 119.003373 
L 124.690255 122.025075 
L 124.734672 120.055859 
L 124.779089 118.227091 
L 124.823505 120.040215 
L 124.867922 121.337556 
L 124.912339 119.346763 
L 124.956755 120.501044 
L 125.001172 121.707184 
L 125.045589 120.805797 
L 125.090005 117.711612 
L 125.134422 120.613228 
L 125.178839 120.468065 
L 125.312088 115.364535 
L 125.489755 120.37359 
L 125.534172 119.592709 
L 125.578588 119.770249 
L 125.667422 120.223272 
L 125.711838 118.825033 
L 125.756255 120.172739 
L 125.845088 118.478904 
L 125.889505 120.445211 
L 125.978338 120.316526 
L 126.022755 118.044816 
L 126.067172 120.486338 
L 126.111588 118.262805 
L 126.156005 118.49221 
L 126.200421 117.885104 
L 126.289255 119.356622 
L 126.333671 117.251599 
L 126.378088 119.407656 
L 126.422505 117.950002 
L 126.466921 121.056963 
L 126.511338 119.020374 
L 126.689005 120.306267 
L 126.866671 118.7273 
L 126.955504 118.625475 
L 126.999921 121.053914 
L 127.044338 118.819014 
L 127.133171 118.940701 
L 127.177588 120.003633 
L 127.222004 116.599428 
L 127.266421 119.497804 
L 127.355254 122.131318 
L 127.488504 118.240717 
L 127.532921 118.632097 
L 127.666171 120.485094 
L 127.710587 120.222581 
L 127.755004 119.126041 
L 127.799421 119.176997 
L 127.888254 120.67614 
L 127.932671 119.738123 
L 127.977087 119.398876 
L 128.021504 120.943119 
L 128.110337 120.538116 
L 128.243587 117.442144 
L 128.376837 121.059825 
L 128.421254 118.910355 
L 128.46567 119.121924 
L 128.554504 120.82149 
L 128.59892 117.78365 
L 128.643337 119.752032 
L 128.687754 120.846093 
L 128.776587 120.553726 
L 128.821004 119.407719 
L 128.86542 120.218845 
L 128.909837 121.564364 
L 128.954254 119.959259 
L 128.99867 120.963951 
L 129.087504 117.254928 
L 129.176337 117.148256 
L 129.220753 120.215591 
L 129.26517 120.22554 
L 129.39842 118.783117 
L 129.442837 120.892378 
L 129.487253 120.381838 
L 129.53167 118.683022 
L 129.576087 120.156712 
L 129.620503 120.169873 
L 129.842587 118.890074 
L 129.887003 117.60366 
L 129.93142 119.328785 
L 129.975837 118.946893 
L 130.020253 120.590912 
L 130.06467 119.669427 
L 130.109086 118.669591 
L 130.153503 121.105925 
L 130.19792 119.94407 
L 130.242336 117.981172 
L 130.286753 119.862129 
L 130.33117 120.07953 
L 130.375586 118.729829 
L 130.420003 121.638491 
L 130.46442 119.424338 
L 130.508836 119.409792 
L 130.59767 120.805451 
L 130.642086 119.985876 
L 130.686503 120.965941 
L 130.73092 118.039113 
L 130.775336 119.343497 
L 130.819753 120.671018 
L 130.864169 118.479213 
L 130.908586 120.992771 
L 130.953003 118.782456 
L 130.997419 120.27937 
L 131.041836 118.373707 
L 131.219503 120.508842 
L 131.263919 118.10315 
L 131.308336 118.657057 
L 131.397169 120.613785 
L 131.441586 119.935901 
L 131.486003 118.621487 
L 131.574836 119.274525 
L 131.708086 119.79329 
L 131.752502 119.705391 
L 131.796919 118.304361 
L 131.841336 121.628067 
L 131.885752 117.009784 
L 132.019002 120.852694 
L 132.196669 117.057729 
L 132.241086 118.453932 
L 132.285502 119.497525 
L 132.329919 118.679285 
L 132.418752 119.132635 
L 132.596419 121.404126 
L 132.774085 119.178897 
L 132.818502 121.34825 
L 132.907335 121.265288 
L 132.951752 118.306462 
L 132.996169 118.659707 
L 133.129418 121.189408 
L 133.173835 118.040167 
L 133.262668 119.379594 
L 133.307085 118.815706 
L 133.395918 120.875021 
L 133.440335 118.42175 
L 133.484752 121.824418 
L 133.529168 118.829499 
L 133.573585 118.918441 
L 133.618002 118.86831 
L 133.706835 120.198206 
L 133.751252 118.688292 
L 133.795668 120.076507 
L 133.840085 119.524035 
L 133.884502 121.062884 
L 133.928918 119.953199 
L 133.973335 118.302756 
L 134.017751 121.131349 
L 134.106585 120.808765 
L 134.151001 120.658129 
L 134.328668 118.674362 
L 134.506335 119.412636 
L 134.550751 118.741346 
L 134.595168 120.638769 
L 134.639585 120.411929 
L 134.684001 117.346781 
L 134.728418 119.801532 
L 134.772834 121.208588 
L 134.861668 120.519457 
L 134.950501 117.11525 
L 134.994918 119.222644 
L 135.083751 121.023723 
L 135.128168 119.404472 
L 135.217001 119.986672 
L 135.261418 120.357524 
L 135.305834 118.644799 
L 135.350251 120.643138 
L 135.483501 119.681379 
L 135.527917 120.899226 
L 135.572334 119.634422 
L 135.616751 119.07571 
L 135.661167 121.171654 
L 135.705584 121.069744 
L 135.794417 119.035517 
L 135.838834 119.383215 
L 135.927667 120.847129 
L 135.972084 120.354963 
L 136.016501 117.976323 
L 136.060917 119.123743 
L 136.105334 119.421763 
L 136.149751 120.87548 
L 136.194167 119.552901 
L 136.238584 119.641417 
L 136.283 121.414067 
L 136.327417 117.779401 
L 136.371834 120.002876 
L 136.41625 121.676969 
L 136.460667 119.695558 
L 136.505084 119.243989 
L 136.593917 120.830935 
L 136.638334 120.815663 
L 136.68275 118.737578 
L 136.727167 120.28654 
L 136.771584 121.402648 
L 136.904834 118.945445 
L 136.94925 119.487304 
L 136.993667 121.928234 
L 137.038083 119.219567 
L 137.171333 121.156974 
L 137.260167 119.028605 
L 137.304583 119.788806 
L 137.349 119.878963 
L 137.393417 118.64653 
L 137.437833 119.790088 
L 137.48225 121.213119 
L 137.526667 119.224718 
L 137.659917 121.237874 
L 137.74875 119.463441 
L 137.793167 119.954668 
L 137.837583 121.461944 
L 137.882 117.995419 
L 137.970833 119.660391 
L 138.01525 119.698876 
L 138.059666 119.400469 
L 138.237333 121.550912 
L 138.503833 119.46457 
L 138.54825 119.541266 
L 138.770333 121.099982 
L 138.814749 118.858203 
L 138.903583 119.877641 
L 138.947999 122.034694 
L 138.992416 120.444311 
L 139.125666 119.503491 
L 139.214499 120.848421 
L 139.258916 120.388363 
L 139.303333 118.796817 
L 139.347749 121.110046 
L 139.392166 119.307501 
L 139.436582 120.701424 
L 139.480999 120.154638 
L 139.525416 119.604724 
L 139.569832 119.812597 
L 139.614249 120.566136 
L 139.658666 118.371664 
L 139.703082 121.536606 
L 139.791916 119.081155 
L 139.836332 119.483574 
L 139.880749 120.890683 
L 139.925166 117.580125 
L 139.969582 120.514841 
L 140.013999 120.657321 
L 140.147249 117.945948 
L 140.236082 117.173756 
L 140.280499 120.301904 
L 140.324915 120.633646 
L 140.546999 118.196968 
L 140.635832 120.351869 
L 140.680249 120.135424 
L 140.724665 120.450218 
L 140.813499 118.141191 
L 140.857915 118.912243 
L 140.902332 119.168585 
L 141.035582 120.599313 
L 141.213248 118.375302 
L 141.302082 119.853842 
L 141.346498 118.788246 
L 141.479748 120.912824 
L 141.524165 118.976978 
L 141.612998 119.285516 
L 141.657415 121.688754 
L 141.701832 119.593071 
L 141.746248 119.567876 
L 141.790665 122.193863 
L 141.835081 121.509485 
L 141.879498 117.865749 
L 141.968331 119.437154 
L 142.190415 120.987536 
L 142.323665 116.932253 
L 142.412498 121.966419 
L 142.456915 120.935116 
L 142.501331 122.047111 
L 142.545748 120.535844 
L 142.590164 118.455743 
L 142.678998 119.284263 
L 142.767831 121.940856 
L 142.812248 118.76202 
L 142.856664 120.249855 
L 142.901081 121.863889 
L 142.945498 117.568581 
L 142.989914 118.959981 
L 143.078748 121.533005 
L 143.123164 121.030511 
L 143.167581 118.37529 
L 143.211998 120.371751 
L 143.389664 119.352569 
L 143.434081 121.469662 
L 143.478497 119.436681 
L 143.567331 121.862628 
L 143.611747 120.262739 
L 143.656164 119.668998 
L 143.700581 120.548439 
L 143.744997 121.587413 
L 143.789414 120.062371 
L 143.833831 120.982639 
L 143.878247 119.106509 
L 143.922664 120.439335 
L 143.967081 120.454941 
L 144.011497 121.291983 
L 144.055914 121.186124 
L 144.10033 120.350977 
L 144.144747 121.631413 
L 144.23358 119.384738 
L 144.277997 121.38137 
L 144.322414 120.825088 
L 144.411247 118.476586 
L 144.455664 121.892841 
L 144.50008 119.682695 
L 144.544497 119.929034 
L 144.588914 117.460179 
L 144.63333 118.849543 
L 144.722164 120.839569 
L 144.76658 120.809895 
L 144.89983 119.98929 
L 144.944247 121.483128 
L 144.988663 120.585191 
L 145.077497 118.342825 
L 145.121913 121.324055 
L 145.16633 116.226682 
L 145.210747 119.228223 
L 145.255163 121.27945 
L 145.29958 118.510288 
L 145.43283 120.088946 
L 145.477247 118.637119 
L 145.56608 122.559355 
L 145.610497 120.681414 
L 145.69933 120.846615 
L 145.788163 118.704171 
L 145.921413 120.104471 
L 145.96583 119.003332 
L 146.010246 121.603031 
L 146.09908 121.165545 
L 146.143496 119.806381 
L 146.187913 120.223263 
L 146.23233 120.559869 
L 146.36558 118.377952 
L 146.409996 118.899663 
L 146.498829 121.305764 
L 146.587663 120.430175 
L 146.632079 118.41064 
L 146.676496 121.334458 
L 146.720913 122.089575 
L 146.765329 118.468203 
L 146.854163 118.959943 
L 146.898579 121.107147 
L 146.942996 118.877322 
L 146.987413 120.707556 
L 147.031829 119.03041 
L 147.076246 121.257671 
L 147.165079 119.544941 
L 147.209496 120.499646 
L 147.253912 120.954846 
L 147.298329 120.634123 
L 147.387162 118.240221 
L 147.475996 121.479707 
L 147.520412 120.863348 
L 147.564829 119.114282 
L 147.609246 119.211948 
L 147.653662 121.368382 
L 147.698079 120.238205 
L 147.742496 120.227621 
L 147.786912 119.856161 
L 147.831329 121.931349 
L 147.875746 120.849093 
L 148.008995 119.22718 
L 148.053412 119.225416 
L 148.097829 119.624255 
L 148.142245 121.199074 
L 148.186662 119.595446 
L 148.231079 120.557599 
L 148.275495 120.493584 
L 148.408745 119.091641 
L 148.453162 119.144558 
L 148.630829 124.523676 
L 148.675245 124.279853 
L 148.719662 123.116205 
L 148.764078 125.767083 
L 148.808495 124.973936 
L 148.897328 122.385477 
L 148.941745 123.936772 
L 148.986162 126.253283 
L 149.030578 123.236265 
L 149.074995 122.612603 
L 149.119412 122.934812 
L 149.208245 125.12451 
L 149.252662 125.031506 
L 149.297078 124.243314 
L 149.385912 124.445164 
L 149.430328 124.54092 
L 149.474745 125.320814 
L 149.519162 124.98266 
L 149.652411 121.66656 
L 149.785661 125.100363 
L 149.830078 124.749495 
L 149.874495 124.927581 
L 149.918911 122.775764 
L 149.963328 125.249946 
L 150.185411 122.90981 
L 150.363078 124.391622 
L 150.407494 124.421234 
L 150.496328 124.811576 
L 150.585161 122.476582 
L 150.629578 123.877832 
L 150.673994 124.675902 
L 150.762828 124.403736 
L 150.940494 122.894304 
L 151.073744 124.339824 
L 151.118161 124.109273 
L 151.162577 122.964223 
L 151.206994 123.468719 
L 151.251411 124.608916 
L 151.295827 124.359012 
L 151.340244 123.04898 
L 151.384661 124.000312 
L 151.429077 125.067671 
L 151.473494 124.15224 
L 151.517911 122.897502 
L 151.562327 122.935561 
L 151.606744 123.789417 
L 151.651161 122.36699 
L 151.695577 123.722746 
L 151.739994 124.533757 
L 151.784411 124.18214 
L 151.828827 122.675195 
L 151.873244 123.791217 
L 151.962077 125.04457 
L 152.006494 122.289891 
L 152.05091 123.228453 
L 152.095327 125.325842 
L 152.139744 123.246033 
L 152.18416 124.114562 
L 152.228577 123.330835 
L 152.31741 122.031671 
L 152.45066 124.670629 
L 152.58391 122.252163 
L 152.628327 124.994054 
L 152.672743 124.482854 
L 152.71716 122.713047 
L 152.805993 123.54517 
L 152.939243 125.424105 
L 153.11691 122.35152 
L 153.205743 122.862167 
L 153.25016 122.059095 
L 153.338993 121.945549 
L 153.38341 125.089032 
L 153.427827 121.438977 
L 153.472243 123.671379 
L 153.51666 124.074421 
L 153.561076 121.725942 
L 153.605493 124.456223 
L 153.738743 122.611388 
L 153.78316 125.977575 
L 153.827576 125.975283 
L 153.960826 122.467503 
L 154.005243 125.335252 
L 154.04966 123.909464 
L 154.094076 123.319053 
L 154.138493 123.846081 
L 154.18291 124.070414 
L 154.227326 123.988276 
L 154.271743 123.805893 
L 154.360576 124.865707 
L 154.449409 121.73097 
L 154.493826 123.993352 
L 154.582659 123.435059 
L 154.671493 123.577024 
L 154.715909 121.837972 
L 154.760326 124.390011 
L 154.849159 123.485536 
L 154.982409 124.365386 
L 155.026826 124.941665 
L 155.071242 124.200984 
L 155.115659 123.242684 
L 155.160076 124.69263 
L 155.204492 123.113453 
L 155.248909 121.74599 
L 155.337742 124.936657 
L 155.382159 123.373814 
L 155.426576 123.331179 
L 155.470992 124.344732 
L 155.515409 123.230822 
L 155.559826 123.426415 
L 155.604242 122.816603 
L 155.648659 124.528955 
L 155.693076 123.515688 
L 155.737492 123.345293 
L 155.781909 125.090361 
L 155.826325 124.758026 
L 155.959575 121.756187 
L 156.092825 124.799395 
L 156.226075 123.023589 
L 156.314909 122.728022 
L 156.359325 124.473739 
L 156.403742 123.142689 
L 156.448159 125.824487 
L 156.492575 123.370051 
L 156.536992 123.006814 
L 156.581408 123.018375 
L 156.625825 123.923125 
L 156.670242 122.368439 
L 156.714658 122.554232 
L 156.803492 124.090637 
L 156.892325 122.251319 
L 156.936742 124.88612 
L 157.025575 124.78256 
L 157.114408 123.308357 
L 157.203242 124.815882 
L 157.247658 124.761396 
L 157.292075 121.951931 
L 157.380908 123.141349 
L 157.469741 121.857739 
L 157.514158 123.405197 
L 157.602991 122.821879 
L 157.647408 122.900965 
L 157.691825 122.030252 
L 157.780658 124.015251 
L 157.825075 122.70174 
L 157.869491 123.330228 
L 157.913908 123.774271 
L 158.002741 121.495309 
L 158.135991 123.503817 
L 158.180408 123.408601 
L 158.269241 122.344838 
L 158.358074 123.587473 
L 158.402491 122.941361 
L 158.446908 122.293398 
L 158.491324 125.122893 
L 158.535741 124.786883 
L 158.713408 122.206804 
L 158.757824 124.120249 
L 158.802241 120.755284 
L 158.846658 123.273919 
L 158.891074 124.214067 
L 158.935491 123.217708 
L 158.979907 123.886485 
L 159.024324 122.737656 
L 159.068741 124.9086 
L 159.113157 122.654247 
L 159.201991 124.39272 
L 159.246407 122.669065 
L 159.290824 125.675116 
L 159.335241 123.773248 
L 159.379657 123.258871 
L 159.424074 124.048373 
L 159.468491 121.378894 
L 159.512907 123.802476 
L 159.601741 121.812849 
L 159.646157 122.259663 
L 159.690574 124.547079 
L 159.73499 121.615855 
L 159.823824 124.571801 
L 159.86824 123.080526 
L 159.912657 121.851678 
L 159.957074 123.73488 
L 160.045907 122.807406 
L 160.090324 122.405501 
L 160.13474 123.383654 
L 160.179157 121.394514 
L 160.223574 122.983792 
L 160.26799 123.987385 
L 160.312407 123.529432 
L 160.445657 121.963846 
L 160.53449 124.593322 
L 160.578907 123.607354 
L 160.623323 124.949115 
L 160.66774 123.510751 
L 160.712157 121.511394 
L 160.756573 123.751954 
L 160.80099 123.323937 
L 160.845407 124.285426 
L 160.889823 123.771582 
L 160.978657 122.020398 
L 161.023073 124.593536 
L 161.111907 124.279002 
L 161.20074 122.262981 
L 161.245156 123.316301 
L 161.289573 124.273204 
L 161.33399 124.223885 
L 161.422823 122.498788 
L 161.511656 124.414648 
L 161.556073 123.365841 
L 161.60049 123.25059 
L 161.644906 124.228991 
L 161.778156 121.190288 
L 161.86699 124.471459 
L 161.911406 121.742153 
L 161.955823 122.999341 
L 162.00024 123.230479 
L 162.044656 124.180014 
L 162.089073 123.206794 
L 162.133489 123.111312 
L 162.177906 122.668259 
L 162.222323 124.174529 
L 162.311156 124.058508 
L 162.355573 122.019348 
L 162.399989 123.730161 
L 162.444406 124.297685 
L 162.533239 122.011199 
L 162.577656 122.829231 
L 162.622073 125.09923 
L 162.666489 123.053074 
L 162.710906 122.029896 
L 162.755323 123.295247 
L 162.799739 122.582852 
L 162.888572 124.315264 
L 162.977406 122.123145 
L 163.021822 125.293845 
L 163.066239 123.400601 
L 163.110656 121.651339 
L 163.155072 122.362456 
L 163.243906 123.918762 
L 163.288322 121.810128 
L 163.332739 122.6372 
L 163.377156 124.594654 
L 163.421572 124.267935 
L 163.465989 122.761469 
L 163.510406 123.981481 
L 163.554822 124.644066 
L 163.599239 122.015803 
L 163.688072 122.535468 
L 163.732489 123.107777 
L 163.776905 121.699815 
L 163.821322 122.939115 
L 163.954572 123.654255 
L 163.998989 123.280262 
L 164.043405 121.960213 
L 164.087822 122.768476 
L 164.132239 123.380176 
L 164.176655 121.552961 
L 164.221072 122.995095 
L 164.309905 124.343753 
L 164.354322 123.203455 
L 164.398738 123.363269 
L 164.443155 124.165858 
L 164.531988 122.32935 
L 164.576405 124.599542 
L 164.620822 123.284667 
L 164.665238 122.843336 
L 164.709655 123.501529 
L 164.754072 123.889774 
L 164.798488 123.758859 
L 164.842905 121.181914 
L 164.887322 124.182787 
L 164.931738 122.493201 
L 164.976155 124.871772 
L 165.198238 122.022508 
L 165.242655 123.05006 
L 165.287071 122.786198 
L 165.331488 122.217186 
L 165.375905 124.509661 
L 165.420321 121.969103 
L 165.464738 123.808248 
L 165.553571 121.937307 
L 165.597988 123.340938 
L 165.686821 121.963263 
L 165.731238 124.813266 
L 165.820071 124.049725 
L 165.864488 125.209582 
L 165.908905 122.3185 
L 165.997738 123.223655 
L 166.042154 123.865714 
L 166.086571 123.034978 
L 166.130988 121.758664 
L 166.175404 124.600855 
L 166.264238 123.859458 
L 166.353071 121.512288 
L 166.397488 124.189848 
L 166.486321 122.987592 
L 166.530738 121.825925 
L 166.708404 124.85433 
L 166.752821 122.389596 
L 166.797237 123.869116 
L 166.841654 123.83491 
L 166.886071 122.616214 
L 166.930487 123.526933 
L 166.974904 126.572033 
L 167.019321 123.897967 
L 167.108154 122.825722 
L 167.152571 123.044076 
L 167.196987 123.935693 
L 167.241404 122.16632 
L 167.285821 123.113337 
L 167.330237 124.110808 
L 167.374654 121.533107 
L 167.419071 122.240492 
L 167.55232 124.672521 
L 167.729987 121.988954 
L 167.774404 124.835573 
L 167.81882 121.469872 
L 167.863237 124.181509 
L 167.95207 121.562451 
L 167.996487 123.324506 
L 168.174154 124.411222 
L 168.35182 121.661123 
L 168.396237 123.646639 
L 168.440653 123.482005 
L 168.529487 123.989386 
L 168.573903 121.312113 
L 168.75157 125.754665 
L 168.840403 123.357991 
L 168.88482 124.717663 
L 169.062486 122.026118 
L 169.195736 124.274697 
L 169.328986 121.966448 
L 169.506653 123.352398 
L 169.55107 121.419289 
L 169.595486 122.323296 
L 169.639903 122.41826 
L 169.728736 123.946155 
L 169.773153 123.025116 
L 169.81757 122.327403 
L 169.861986 122.89571 
L 169.906403 124.296113 
L 169.950819 122.453147 
L 169.995236 124.05426 
L 170.039653 122.952721 
L 170.084069 124.432977 
L 170.128486 123.507224 
L 170.172903 123.003537 
L 170.217319 123.158061 
L 170.306153 125.081336 
L 170.350569 123.958145 
L 170.394986 123.444054 
L 170.439403 124.062384 
L 170.483819 123.707545 
L 170.528236 122.275691 
L 170.572653 123.109046 
L 170.661486 125.259248 
L 170.705902 123.567632 
L 170.794736 121.417465 
L 170.927986 123.787502 
L 171.105652 122.00401 
L 171.238902 124.61029 
L 171.372152 121.084846 
L 171.416569 121.395975 
L 171.683069 124.339044 
L 171.771902 121.397909 
L 171.816319 124.370577 
L 171.860735 123.776516 
L 171.905152 121.327188 
L 171.993985 121.470238 
L 172.038402 124.475711 
L 172.082819 120.981927 
L 172.438152 125.407873 
L 172.526985 122.836002 
L 172.571402 123.415557 
L 172.660235 121.605469 
L 172.704652 123.512149 
L 172.793485 123.233622 
L 172.882318 124.439686 
L 173.059985 122.438982 
L 173.104401 123.563497 
L 173.148818 123.018992 
L 173.193235 121.988024 
L 173.237651 124.337227 
L 173.282068 121.174334 
L 173.326485 123.650015 
L 173.415318 121.876101 
L 173.459735 123.513134 
L 173.504151 123.091074 
L 173.548568 122.585324 
L 173.637401 122.763714 
L 173.681818 123.568876 
L 173.726235 123.175083 
L 173.770651 121.654087 
L 173.815068 124.374221 
L 173.859484 123.465947 
L 173.903901 121.80989 
L 173.948318 122.355046 
L 173.992734 122.951655 
L 174.037151 121.505517 
L 174.081568 123.051158 
L 174.170401 122.697014 
L 174.259234 124.359141 
L 174.303651 122.309516 
L 174.348068 123.410163 
L 174.392484 124.393225 
L 174.525734 121.456012 
L 174.614567 123.566251 
L 174.658984 122.539805 
L 174.703401 123.240957 
L 174.747817 123.113528 
L 174.836651 121.12892 
L 174.881067 123.502248 
L 174.969901 123.111948 
L 175.014317 121.662305 
L 175.058734 123.172245 
L 175.103151 122.204058 
L 175.191984 121.153494 
L 175.236401 124.216453 
L 175.325234 123.074083 
L 175.36965 122.828931 
L 175.414067 121.052378 
L 175.458484 124.043084 
L 175.5029 121.024759 
L 175.591734 123.184167 
L 175.63615 122.719935 
L 175.680567 121.850728 
L 175.724984 122.93358 
L 175.7694 122.73873 
L 175.813817 123.0015 
L 175.90265 123.507126 
L 175.947067 123.245671 
L 175.991484 120.898205 
L 176.080317 122.070084 
L 176.213567 122.754923 
L 176.3024 123.348882 
L 176.346817 122.166441 
L 176.43565 122.293063 
L 176.480067 123.54701 
L 176.524483 120.040694 
L 176.5689 124.036807 
L 176.613317 121.124331 
L 176.657733 123.310162 
L 176.746567 122.814952 
L 176.790983 123.059066 
L 176.8354 122.286348 
L 176.879816 123.151707 
L 176.924233 122.558045 
L 177.057483 122.920365 
L 177.146316 122.145622 
L 177.190733 123.22499 
L 177.23515 123.025487 
L 177.279566 122.36438 
L 177.323983 122.944423 
L 177.3684 123.644869 
L 177.412816 123.009225 
L 177.457233 122.836118 
L 177.546066 122.810535 
L 177.6349 124.515801 
L 177.679316 122.315606 
L 177.768149 122.707091 
L 177.812566 123.467349 
L 177.856983 122.50711 
L 177.945816 123.297097 
L 177.990233 121.144575 
L 178.034649 121.514891 
L 178.123483 124.130985 
L 178.167899 121.469024 
L 178.212316 123.164328 
L 178.256733 123.010293 
L 178.301149 124.313643 
L 178.345566 123.09938 
L 178.389983 123.300838 
L 178.434399 122.536304 
L 178.478816 122.593681 
L 178.567649 124.058387 
L 178.700899 121.03639 
L 178.745316 121.748259 
L 178.789732 124.239805 
L 178.834149 123.493038 
L 179.011816 121.544103 
L 179.100649 122.870307 
L 179.145066 122.354046 
L 179.189482 122.25681 
L 179.278315 121.474385 
L 179.322732 124.199778 
L 179.411565 120.011967 
L 179.455982 121.714174 
L 179.500399 122.726417 
L 179.544815 120.637224 
L 179.589232 124.246049 
L 179.678065 123.503115 
L 179.722482 121.369147 
L 179.766899 122.313777 
L 179.811315 122.689408 
L 179.855732 121.999579 
L 179.900149 122.677284 
L 179.944565 123.078365 
L 179.988982 121.536745 
L 180.033398 122.242586 
L 180.166648 124.755564 
L 180.255482 122.031013 
L 180.299898 122.968217 
L 180.344315 122.969831 
L 180.388732 121.80747 
L 180.433148 124.993134 
L 180.477565 124.604617 
L 180.521982 121.816434 
L 180.610815 122.717515 
L 180.655232 122.529222 
L 180.699648 124.176794 
L 180.744065 120.348376 
L 180.788481 122.748008 
L 180.921731 125.107896 
L 180.966148 123.085919 
L 181.054981 123.213361 
L 181.099398 122.539723 
L 181.143815 119.942494 
L 181.188231 121.915878 
L 181.232648 122.911461 
L 181.321481 123.966618 
L 181.365898 119.24576 
L 181.410315 124.055327 
L 181.499148 123.194828 
L 181.543565 123.009013 
L 181.587981 120.474608 
L 181.632398 122.892247 
L 181.676814 122.064239 
L 181.765648 123.920989 
L 181.854481 123.973109 
L 181.943314 121.417468 
L 181.987731 123.525561 
L 182.076564 123.368581 
L 182.120981 122.172543 
L 182.165398 123.588141 
L 182.209814 123.416164 
L 182.254231 122.489657 
L 182.298648 123.227993 
L 182.343064 125.110222 
L 182.387481 124.060905 
L 182.431897 121.760767 
L 182.476314 123.630552 
L 182.520731 122.947016 
L 182.565147 123.253084 
L 182.609564 123.436653 
L 182.698397 121.570261 
L 182.787231 121.744167 
L 182.831647 121.324636 
L 182.920481 124.682238 
L 182.964897 123.180282 
L 183.009314 122.057447 
L 183.053731 124.401805 
L 183.098147 123.542181 
L 183.142564 121.554976 
L 183.18698 122.547435 
L 183.231397 122.717124 
L 183.275814 122.347621 
L 183.409064 125.387405 
L 183.497897 121.804099 
L 183.542314 123.410567 
L 183.58673 124.892843 
L 183.631147 123.166064 
L 183.675564 123.616679 
L 183.71998 123.309872 
L 183.764397 123.318925 
L 183.808814 124.071474 
L 183.85323 122.77604 
L 183.897647 122.982747 
L 183.942063 124.101743 
L 183.98648 122.669643 
L 184.030897 122.414302 
L 184.075313 123.103747 
L 184.164147 121.850845 
L 184.208563 122.313588 
L 184.297397 123.50689 
L 184.341813 121.183147 
L 184.430647 121.879673 
L 184.475063 124.758933 
L 184.51948 124.067562 
L 184.563897 121.132671 
L 184.608313 123.829059 
L 184.697146 122.62726 
L 184.741563 124.156297 
L 184.78598 123.310049 
L 184.830396 122.422253 
L 184.963646 127.842514 
L 185.008063 126.553429 
L 185.05248 126.763589 
L 185.141313 126.728772 
L 185.18573 127.659922 
L 185.230146 126.072191 
L 185.31898 126.719742 
L 185.45223 125.656801 
L 185.674313 127.537951 
L 185.807563 124.505065 
L 185.940813 127.160081 
L 186.029646 125.624674 
L 186.118479 126.355382 
L 186.162896 126.812152 
L 186.207313 125.654328 
L 186.251729 125.741609 
L 186.296146 127.388072 
L 186.340562 126.409749 
L 186.384979 125.512497 
L 186.429396 126.722224 
L 186.473812 126.300445 
L 186.518229 126.620369 
L 186.562646 127.610197 
L 186.607062 127.183648 
L 186.651479 125.924026 
L 186.740312 126.032016 
L 186.829146 127.677739 
L 186.873562 126.986267 
L 186.962396 126.157749 
L 187.051229 128.64585 
L 187.140062 126.234503 
L 187.184479 126.379853 
L 187.228895 125.411353 
L 187.273312 126.748412 
L 187.317729 127.788395 
L 187.362145 126.920566 
L 187.406562 125.287227 
L 187.450979 127.157182 
L 187.539812 126.062013 
L 187.584229 127.638668 
L 187.673062 127.519022 
L 187.717479 127.569184 
L 187.761895 128.262448 
L 187.806312 127.477523 
L 187.850728 127.236022 
L 187.939562 127.05528 
L 187.983978 128.330573 
L 188.117228 127.077921 
L 188.161645 127.265759 
L 188.206062 128.119944 
L 188.250478 125.384635 
L 188.339312 126.264368 
L 188.383728 127.715242 
L 188.428145 126.929425 
L 188.516978 126.174093 
L 188.561395 126.446971 
L 188.605811 126.562422 
L 188.694645 127.955138 
L 188.739061 125.706514 
L 188.783478 126.766371 
L 188.872311 126.548103 
L 188.961145 127.937592 
L 189.005561 127.356956 
L 189.049978 127.51793 
L 189.094395 127.908135 
L 189.183228 126.27157 
L 189.227645 126.316921 
L 189.316478 128.651918 
L 189.405311 127.538459 
L 189.449728 127.392316 
L 189.494144 128.252872 
L 189.582978 124.518425 
L 189.627394 127.06901 
L 189.671811 127.486953 
L 189.716228 126.436778 
L 189.805061 126.512095 
L 189.849478 126.316841 
L 189.893894 127.630847 
L 189.938311 127.607837 
L 190.027144 124.833674 
L 190.071561 129.008643 
L 190.160394 127.597117 
L 190.204811 127.39081 
L 190.249227 127.595484 
L 190.293644 127.91536 
L 190.338061 126.440826 
L 190.382477 126.762615 
L 190.515727 127.433746 
L 190.560144 125.331546 
L 190.604561 126.897552 
L 190.648977 126.761785 
L 190.693394 127.224496 
L 190.737811 126.632889 
L 190.782227 126.578005 
L 190.915477 127.656726 
L 191.00431 125.113699 
L 191.048727 128.176154 
L 191.13756 127.457241 
L 191.226394 126.762934 
L 191.27081 127.977211 
L 191.315227 126.031467 
L 191.40406 126.804653 
L 191.448477 128.062859 
L 191.492894 127.392307 
L 191.626144 126.620285 
L 191.67056 126.764065 
L 191.714977 127.880562 
L 191.759393 126.589881 
L 191.80381 127.575835 
L 191.848227 127.597429 
L 191.892643 125.528108 
L 191.93706 128.025558 
L 192.025893 126.490366 
L 192.07031 127.995134 
L 192.114727 126.172274 
L 192.247977 127.434235 
L 192.292393 125.985319 
L 192.33681 127.430267 
L 192.381227 127.226187 
L 192.425643 127.481951 
L 192.558893 127.37581 
L 192.60331 128.11233 
L 192.647726 126.656888 
L 192.73656 127.088187 
L 192.780976 127.195302 
L 192.825393 126.72946 
L 192.86981 127.837033 
L 192.914226 127.158766 
L 192.958643 126.616367 
L 193.00306 128.404382 
L 193.047476 125.86729 
L 193.091893 127.521727 
L 193.180726 126.749046 
L 193.225143 128.201375 
L 193.26956 127.697286 
L 193.358393 126.14826 
L 193.402809 126.633331 
L 193.447226 126.68572 
L 193.491643 127.007978 
L 193.536059 126.648889 
L 193.580476 126.730712 
L 193.624893 127.216261 
L 193.669309 126.118198 
L 193.713726 127.44863 
L 193.758143 126.563429 
L 193.802559 126.812837 
L 193.846976 127.954013 
L 193.891393 126.661207 
L 193.980226 127.51832 
L 194.024643 127.494494 
L 194.157892 126.233281 
L 194.291142 127.155856 
L 194.335559 126.936101 
L 194.379976 128.20522 
L 194.424392 126.737158 
L 194.468809 126.507465 
L 194.513226 127.416657 
L 194.557642 126.267809 
L 194.602059 126.314639 
L 194.646476 128.49902 
L 194.690892 126.980478 
L 194.735309 126.560979 
L 194.779726 128.395303 
L 194.824142 126.398192 
L 194.868559 126.457497 
L 194.957392 128.459408 
L 195.046225 124.845067 
L 195.090642 126.518202 
L 195.179475 128.101814 
L 195.223892 127.724429 
L 195.268309 128.083046 
L 195.312725 127.601229 
L 195.357142 127.681409 
L 195.445975 126.797115 
L 195.490392 127.240385 
L 195.534809 127.353372 
L 195.579225 128.608075 
L 195.623642 125.491784 
L 195.668058 127.910891 
L 195.756892 126.676946 
L 195.801308 127.630717 
L 195.845725 127.548697 
L 195.978975 126.838805 
L 196.023392 128.6941 
L 196.112225 128.183133 
L 196.245475 126.014557 
L 196.334308 127.822019 
L 196.378725 127.62171 
L 196.423141 125.475811 
L 196.467558 126.438709 
L 196.600808 127.611184 
L 196.689641 126.021529 
L 196.778475 127.004983 
L 196.822891 127.087769 
L 196.867308 125.642285 
L 196.911725 127.230793 
L 196.956141 126.217115 
L 197.000558 127.22923 
L 197.044975 126.834233 
L 197.089391 125.980675 
L 197.133808 127.072663 
L 197.178224 127.245934 
L 197.311474 125.73599 
L 197.355891 127.554451 
L 197.400308 127.081459 
L 197.489141 126.346577 
L 197.533558 126.968285 
L 197.577974 126.765314 
L 197.622391 126.300749 
L 197.711224 128.284726 
L 197.755641 126.872623 
L 197.844474 125.403488 
L 197.933308 128.685884 
L 197.977724 125.438026 
L 198.066557 126.02969 
L 198.199807 127.551338 
L 198.244224 126.173284 
L 198.288641 127.975766 
L 198.421891 126.443648 
L 198.466307 128.444302 
L 198.555141 127.63756 
L 198.599557 126.019923 
L 198.643974 127.825649 
L 198.688391 126.750952 
L 198.732807 127.775716 
L 198.82164 127.268759 
L 198.866057 126.611312 
L 198.910474 127.134552 
L 198.95489 127.415001 
L 199.043724 126.590792 
L 199.132557 126.647419 
L 199.176974 128.578816 
L 199.22139 127.845049 
L 199.265807 126.650348 
L 199.310224 127.158389 
L 199.399057 128.262822 
L 199.443474 125.336774 
L 199.48789 128.083669 
L 199.62114 126.7066 
L 199.709973 126.580262 
L 199.75439 129.17367 
L 199.932057 126.3187 
L 200.065307 127.9665 
L 200.15414 126.224057 
L 200.28739 128.772361 
L 200.376223 126.859745 
L 200.42064 128.601898 
L 200.509473 127.73571 
L 200.642723 125.218599 
L 200.775973 128.135929 
L 200.82039 126.481585 
L 200.909223 127.188219 
L 200.95364 127.223521 
L 201.131306 125.997517 
L 201.220139 127.805487 
L 201.264556 127.477557 
L 201.308973 128.246404 
L 201.353389 128.00883 
L 201.531056 127.060274 
L 201.575473 127.677965 
L 201.619889 127.121327 
L 201.708723 126.415123 
L 201.753139 127.724886 
L 201.797556 124.507491 
L 201.886389 125.602545 
L 201.930806 128.036338 
L 201.975222 126.20805 
L 202.019639 125.206658 
L 202.152889 128.249227 
L 202.241722 128.479165 
L 202.286139 126.877245 
L 202.330556 127.434365 
L 202.463806 126.078628 
L 202.597056 126.594667 
L 202.685889 127.520157 
L 202.730305 125.186893 
L 202.774722 128.007917 
L 202.819139 128.202524 
L 202.952389 124.910794 
L 203.130055 128.865213 
L 203.174472 126.401295 
L 203.218889 127.583385 
L 203.263305 127.764251 
L 203.352139 126.701787 
L 203.396555 127.059859 
L 203.440972 127.43692 
L 203.485388 125.929428 
L 203.529805 127.324651 
L 203.574222 127.165563 
L 203.618638 127.282851 
L 203.663055 127.572711 
L 203.707472 126.788829 
L 203.751888 128.582293 
L 203.840722 127.835356 
L 203.885138 127.011744 
L 203.929555 127.824016 
L 203.973972 128.021129 
L 204.018388 127.710283 
L 204.062805 127.944986 
L 204.151638 128.607018 
L 204.284888 124.957376 
L 204.418138 127.29848 
L 204.462555 127.900111 
L 204.551388 127.939842 
L 204.595805 126.317638 
L 204.640221 128.038801 
L 204.684638 127.796676 
L 204.817888 124.98833 
L 204.862305 128.295608 
L 204.951138 127.47269 
L 205.039971 128.001776 
L 205.084388 127.629989 
L 205.173221 126.679891 
L 205.217638 126.727785 
L 205.262054 127.401181 
L 205.306471 126.846951 
L 205.395304 127.361571 
L 205.528554 124.429926 
L 205.484138 127.510024 
L 205.572971 126.079687 
L 205.706221 127.077061 
L 205.750638 126.098726 
L 205.795054 126.474515 
L 205.928304 128.030895 
L 206.105971 127.094365 
L 206.150387 127.265758 
L 206.194804 127.376012 
L 206.328054 125.886762 
L 206.416887 127.926804 
L 206.461304 126.520422 
L 206.505721 126.120505 
L 206.550137 127.263886 
L 206.594554 126.040063 
L 206.63897 126.198529 
L 206.683387 128.271012 
L 206.727804 126.825339 
L 206.816637 126.140343 
L 206.90547 127.781326 
L 206.949887 125.975172 
L 206.994304 126.974106 
L 207.083137 127.372376 
L 207.17197 126.786885 
L 207.216387 127.636901 
L 207.260804 127.252948 
L 207.30522 126.908836 
L 207.349637 125.680613 
L 207.394053 126.672603 
L 207.43847 126.479884 
L 207.482887 127.735608 
L 207.57172 127.152824 
L 207.616137 128.346249 
L 207.70497 128.032169 
L 207.749387 126.861618 
L 207.83822 127.109205 
L 207.882637 127.951274 
L 207.927053 127.379487 
L 208.193553 126.145085 
L 208.23797 127.688029 
L 208.326803 127.261595 
L 208.415636 126.899054 
L 208.460053 128.619841 
L 208.50447 125.576527 
L 208.593303 126.707991 
L 208.63772 126.987024 
L 208.682136 125.626664 
L 208.726553 127.076941 
L 208.77097 126.64987 
L 208.815386 126.802988 
L 208.859803 127.563295 
L 208.904219 126.568082 
L 208.948636 127.552878 
L 209.037469 127.093709 
L 209.081886 127.823635 
L 209.126303 127.187257 
L 209.392803 125.697763 
L 209.437219 127.466581 
L 209.481636 127.404145 
L 209.526053 126.098375 
L 209.570469 127.572461 
L 209.659303 127.23459 
L 209.703719 128.307824 
L 209.748136 126.534155 
L 209.836969 126.592715 
L 209.881386 128.165008 
L 209.925802 126.63607 
L 209.970219 126.211682 
L 210.014636 127.092398 
L 210.059052 126.646256 
L 210.103469 125.577631 
L 210.147886 126.970439 
L 210.192302 127.658476 
L 210.236719 125.820765 
L 210.281136 126.703978 
L 210.325552 128.197572 
L 210.369969 126.447526 
L 210.547635 128.172206 
L 210.636469 125.819411 
L 210.680885 126.495271 
L 210.725302 127.098116 
L 210.769719 126.166943 
L 210.814135 127.472741 
L 210.858552 126.573123 
L 210.902969 127.119429 
L 210.947385 126.901479 
L 210.991802 125.488295 
L 211.036219 127.442959 
L 211.080635 127.581784 
L 211.125052 125.453121 
L 211.213885 126.026476 
L 211.347135 128.185606 
L 211.391552 126.733931 
L 211.435968 126.825939 
L 211.480385 128.233633 
L 211.524802 127.258679 
L 211.569218 126.333931 
L 211.702468 127.830344 
L 211.746885 126.748054 
L 211.791302 127.772484 
L 211.835718 127.660961 
L 211.968968 125.803865 
L 212.057801 128.003713 
L 212.102218 126.85587 
L 212.191051 125.987556 
L 212.279885 125.86305 
L 212.368718 127.44485 
L 212.413135 127.457931 
L 212.457551 128.05103 
L 212.501968 126.160882 
L 212.590801 126.769494 
L 212.635218 128.291814 
L 212.679635 127.681592 
L 212.724051 126.799759 
L 212.812884 126.816421 
L 212.857301 127.656715 
L 212.901718 126.799066 
L 212.946134 126.862963 
L 212.990551 125.776495 
L 213.034968 126.898031 
L 213.123801 128.550828 
L 213.212634 129.447892 
L 213.257051 126.028942 
L 213.301468 127.19544 
L 213.345884 127.003012 
L 213.390301 126.567603 
L 213.434718 127.581141 
L 213.479134 126.74358 
L 213.523551 126.611513 
L 213.612384 127.170614 
L 213.656801 126.850744 
L 213.701217 126.88928 
L 213.745634 127.417807 
L 213.790051 127.008974 
L 213.834467 126.905998 
L 213.878884 128.584851 
L 213.923301 127.359472 
L 213.967717 125.594183 
L 214.012134 128.757979 
L 214.100967 127.923194 
L 214.145384 126.269645 
L 214.189801 126.574038 
L 214.278634 127.306243 
L 214.323051 125.798572 
L 214.367467 127.952419 
L 214.545134 126.164718 
L 214.58955 127.828023 
L 214.678384 127.066222 
L 214.811634 125.985443 
L 214.85605 127.559228 
L 214.900467 127.463482 
L 214.944884 126.033699 
L 214.9893 127.661928 
L 215.033717 126.188131 
L 215.078134 127.230404 
L 215.12255 125.507327 
L 215.166967 127.082103 
L 215.2558 126.474552 
L 215.300217 127.762625 
L 215.344633 126.473128 
L 215.38905 126.623371 
L 215.433467 128.097839 
L 215.477883 127.386145 
L 215.5223 127.281816 
L 215.566717 127.335493 
L 215.611133 127.74906 
L 215.699967 125.730264 
L 215.7888 126.386732 
L 215.833217 128.042135 
L 215.877633 126.358646 
L 215.92205 127.366318 
L 215.966466 127.135451 
L 216.010883 127.35741 
L 216.0553 128.262539 
L 216.144133 126.28447 
L 216.18855 128.856999 
L 216.232966 126.758871 
L 216.277383 126.913255 
L 216.3218 127.519154 
L 216.366216 127.293379 
L 216.410633 127.13935 
L 216.45505 125.905798 
L 216.543883 126.029261 
L 216.721549 127.799062 
L 216.899216 124.257284 
L 216.943633 127.160606 
L 216.988049 125.784021 
L 217.032466 125.20378 
L 217.121299 128.158809 
L 217.210133 127.330353 
L 217.298966 126.456373 
L 217.343383 125.360771 
L 217.387799 127.495735 
L 217.432216 127.340278 
L 217.476633 125.811114 
L 217.521049 126.571395 
L 217.609882 127.779931 
L 217.654299 127.561835 
L 217.698716 124.212329 
L 217.743132 125.38845 
L 217.965216 128.10614 
L 218.098466 126.370232 
L 218.142882 126.819519 
L 218.187299 126.285013 
L 218.320549 127.360987 
L 218.409382 127.05048 
L 218.542632 126.302203 
L 218.720299 127.985356 
L 218.809132 125.49501 
L 218.853549 125.524367 
L 218.942382 127.99124 
L 218.986799 126.592123 
L 219.031215 128.227021 
L 219.075632 127.241435 
L 219.120048 127.256474 
L 219.164465 128.313327 
L 219.208882 127.682985 
L 219.342132 125.558575 
L 219.386548 126.741838 
L 219.430965 127.416442 
L 219.475382 126.169497 
L 219.519798 126.976062 
L 219.564215 127.609091 
L 219.608632 126.130287 
L 219.697465 126.769587 
L 219.741882 127.809687 
L 219.786298 124.835853 
L 219.830715 126.13969 
L 219.963965 127.343196 
L 220.097215 125.967939 
L 220.141631 127.770529 
L 220.230465 127.724023 
L 220.274881 127.858398 
L 220.363715 125.337254 
L 220.408131 127.573751 
L 220.496965 127.095601 
L 220.630214 126.709271 
L 220.674631 124.41873 
L 220.719048 128.196983 
L 220.763464 125.75703 
L 220.807881 125.882195 
L 220.852298 125.348774 
L 220.896714 126.518021 
L 220.941131 125.090034 
L 220.985548 126.44013 
L 221.074381 125.783425 
L 221.252048 129.839406 
L 221.296464 128.912006 
L 221.385298 129.344232 
L 221.474131 129.444604 
L 221.518547 128.644322 
L 221.607381 129.306648 
L 221.651797 128.578129 
L 221.740631 130.161696 
L 221.873881 128.264382 
L 221.918297 128.769832 
L 221.962714 128.157265 
L 222.007131 128.107498 
L 222.140381 131.056441 
L 222.229214 129.443729 
L 222.27363 129.477169 
L 222.362464 130.106774 
L 222.451297 127.930316 
L 222.495714 128.407853 
L 222.54013 128.639896 
L 222.584547 130.469731 
L 222.67338 129.835511 
L 222.717797 129.121546 
L 222.762214 130.211997 
L 222.80663 128.644031 
L 222.851047 128.687033 
L 222.984297 130.263306 
L 223.07313 128.375056 
L 223.117547 129.12926 
L 223.20638 130.053 
L 223.295213 129.891809 
L 223.33963 129.910534 
L 223.384047 129.121703 
L 223.428463 130.195287 
L 223.47288 129.389785 
L 223.517297 129.10102 
L 223.561713 129.81298 
L 223.60613 129.345597 
L 223.650547 128.643405 
L 223.694963 129.455149 
L 223.783796 130.17742 
L 223.917046 128.818877 
L 223.961463 129.354292 
L 224.00588 129.315091 
L 224.13913 128.266692 
L 224.183546 129.614209 
L 224.27238 129.233232 
L 224.361213 129.140782 
L 224.40563 129.735224 
L 224.450046 127.907379 
L 224.494463 130.113113 
L 224.538879 128.404085 
L 224.583296 129.708275 
L 224.627713 128.242496 
L 224.672129 129.220402 
L 224.716546 128.560502 
L 224.760963 129.798138 
L 224.805379 129.723149 
L 224.849796 128.712816 
L 224.894213 128.936573 
L 224.983046 130.252377 
L 225.027463 129.586756 
L 225.160713 129.267945 
L 225.205129 130.077519 
L 225.249546 129.634956 
L 225.338379 129.71774 
L 225.382796 128.934922 
L 225.427212 127.988471 
L 225.471629 130.258522 
L 225.560462 129.560216 
L 225.604879 128.241802 
L 225.649296 129.971255 
L 225.693712 131.304985 
L 225.738129 129.059067 
L 225.826962 129.860297 
L 225.915796 128.839431 
L 226.004629 129.07684 
L 226.049046 129.02622 
L 226.093462 130.716251 
L 226.137879 129.174599 
L 226.182295 129.744936 
L 226.226712 128.496717 
L 226.315545 128.645815 
L 226.404379 129.572778 
L 226.448795 128.970507 
L 226.493212 129.183884 
L 226.626462 128.472728 
L 226.670879 129.709431 
L 226.715295 127.535726 
L 226.759712 129.56145 
L 226.804129 129.664291 
L 226.892962 128.913518 
L 226.937378 128.927493 
L 226.981795 130.369608 
L 227.026212 128.803911 
L 227.159462 130.603423 
L 227.203878 129.883007 
L 227.292712 128.586028 
L 227.337128 129.783002 
L 227.381545 129.365769 
L 227.425962 127.519721 
L 227.514795 128.147389 
L 227.692461 129.795595 
L 227.825711 127.67001 
L 227.958961 129.060721 
L 228.003378 128.195851 
L 228.047795 128.852275 
L 228.181045 130.366133 
L 228.225461 128.47299 
L 228.314295 128.745356 
L 228.358711 128.037472 
L 228.491961 129.529447 
L 228.714044 129.408425 
L 228.758461 130.184593 
L 228.847294 130.08356 
L 228.891711 128.23169 
L 228.936128 129.609457 
L 228.980544 129.893832 
L 229.024961 127.827559 
L 229.069378 129.716421 
L 229.113794 129.166562 
L 229.158211 129.24142 
L 229.291461 130.329899 
L 229.335877 130.01762 
L 229.380294 128.516087 
L 229.424711 130.443402 
L 229.513544 128.927042 
L 229.557961 129.213746 
L 229.602377 129.985958 
L 229.646794 129.110889 
L 229.735627 129.910131 
L 229.780044 129.482052 
L 229.824461 129.389421 
L 229.868877 129.640462 
L 229.913294 128.739817 
L 230.002127 129.13583 
L 230.046544 129.608468 
L 230.09096 128.487544 
L 230.135377 128.49374 
L 230.179794 130.225501 
L 230.268627 129.905228 
L 230.313044 130.018942 
L 230.35746 130.521826 
L 230.401877 129.201131 
L 230.446294 129.671928 
L 230.49071 130.823652 
L 230.535127 128.703037 
L 230.62396 129.360886 
L 230.668377 129.43986 
L 230.712794 128.490076 
L 230.75721 129.11471 
L 230.801627 129.064338 
L 230.89046 129.786224 
L 231.02371 128.630656 
L 231.112543 129.47611 
L 231.15696 130.576286 
L 231.201377 128.527262 
L 231.29021 129.299618 
L 231.334627 128.611219 
L 231.379043 128.622324 
L 231.42346 130.571202 
L 231.467877 128.642226 
L 231.601126 129.858098 
L 231.68996 128.275062 
L 231.734376 130.427542 
L 231.82321 129.409686 
L 231.867626 129.624887 
L 231.912043 128.822662 
L 232.000876 129.049555 
L 232.045293 128.463501 
L 232.08971 128.703607 
L 232.178543 130.42967 
L 232.22296 129.555622 
L 232.267376 128.901068 
L 232.311793 129.739904 
L 232.445043 128.702008 
L 232.489459 129.849037 
L 232.533876 128.211527 
L 232.711543 130.077835 
L 232.889209 128.34706 
L 232.978043 130.290762 
L 233.022459 128.732238 
L 233.111293 129.139331 
L 233.155709 130.759483 
L 233.200126 129.060004 
L 233.244542 127.80823 
L 233.288959 129.266055 
L 233.333376 128.708439 
L 233.377792 129.927518 
L 233.466626 129.554986 
L 233.511042 129.031475 
L 233.599876 129.049535 
L 233.688709 128.195473 
L 233.733126 130.167015 
L 233.777542 129.609805 
L 233.821959 128.305133 
L 233.866376 129.66016 
L 233.910792 128.927634 
L 233.999625 128.70974 
L 234.088459 130.420241 
L 234.177292 128.612774 
L 234.221709 130.442034 
L 234.266125 130.353396 
L 234.310542 129.46156 
L 234.354959 129.86042 
L 234.399375 130.429353 
L 234.443792 128.632959 
L 234.532625 129.379341 
L 234.621459 128.927861 
L 234.665875 129.062903 
L 234.754708 130.014177 
L 234.799125 128.74466 
L 234.887958 128.860466 
L 234.932375 128.813264 
L 235.065625 130.280991 
L 235.065625 130.280991 
" style="fill:none;stroke:#1f77b4;stroke-linecap:square;stroke-width:1.5;"/>
   </g>
   <g id="patch_3">
    <path d="M 39.765625 139.699219 
L 39.765625 3.799219 
" style="fill:none;stroke:#000000;stroke-linecap:square;stroke-linejoin:miter;stroke-width:0.8;"/>
   </g>
   <g id="patch_4">
    <path d="M 235.065625 139.699219 
L 235.065625 3.799219 
" style="fill:none;stroke:#000000;stroke-linecap:square;stroke-linejoin:miter;stroke-width:0.8;"/>
   </g>
   <g id="patch_5">
    <path d="M 39.765625 139.699219 
L 235.065625 139.699219 
" style="fill:none;stroke:#000000;stroke-linecap:square;stroke-linejoin:miter;stroke-width:0.8;"/>
   </g>
   <g id="patch_6">
    <path d="M 39.765625 3.799219 
L 235.065625 3.799219 
" style="fill:none;stroke:#000000;stroke-linecap:square;stroke-linejoin:miter;stroke-width:0.8;"/>
   </g>
   <g id="legend_1">
    <g id="patch_7">
     <path d="M 172.790625 26.477344 
L 228.065625 26.477344 
Q 230.065625 26.477344 230.065625 24.477344 
L 230.065625 10.799219 
Q 230.065625 8.799219 228.065625 8.799219 
L 172.790625 8.799219 
Q 170.790625 8.799219 170.790625 10.799219 
L 170.790625 24.477344 
Q 170.790625 26.477344 172.790625 26.477344 
z
" style="fill:#ffffff;opacity:0.8;stroke:#cccccc;stroke-linejoin:miter;"/>
    </g>
    <g id="line2d_20">
     <path d="M 174.790625 16.897656 
L 194.790625 16.897656 
" style="fill:none;stroke:#1f77b4;stroke-linecap:square;stroke-width:1.5;"/>
    </g>
    <g id="line2d_21"/>
    <g id="text_12">
     <!-- train -->
     <defs>
      <path d="M 34.28125 27.484375 
Q 23.390625 27.484375 19.1875 25 
Q 14.984375 22.515625 14.984375 16.5 
Q 14.984375 11.71875 18.140625 8.90625 
Q 21.296875 6.109375 26.703125 6.109375 
Q 34.1875 6.109375 38.703125 11.40625 
Q 43.21875 16.703125 43.21875 25.484375 
L 43.21875 27.484375 
z
M 52.203125 31.203125 
L 52.203125 0 
L 43.21875 0 
L 43.21875 8.296875 
Q 40.140625 3.328125 35.546875 0.953125 
Q 30.953125 -1.421875 24.3125 -1.421875 
Q 15.921875 -1.421875 10.953125 3.296875 
Q 6 8.015625 6 15.921875 
Q 6 25.140625 12.171875 29.828125 
Q 18.359375 34.515625 30.609375 34.515625 
L 43.21875 34.515625 
L 43.21875 35.40625 
Q 43.21875 41.609375 39.140625 45 
Q 35.0625 48.390625 27.6875 48.390625 
Q 23 48.390625 18.546875 47.265625 
Q 14.109375 46.140625 10.015625 43.890625 
L 10.015625 52.203125 
Q 14.9375 54.109375 19.578125 55.046875 
Q 24.21875 56 28.609375 56 
Q 40.484375 56 46.34375 49.84375 
Q 52.203125 43.703125 52.203125 31.203125 
z
" id="DejaVuSans-97"/>
      <path d="M 54.890625 33.015625 
L 54.890625 0 
L 45.90625 0 
L 45.90625 32.71875 
Q 45.90625 40.484375 42.875 44.328125 
Q 39.84375 48.1875 33.796875 48.1875 
Q 26.515625 48.1875 22.3125 43.546875 
Q 18.109375 38.921875 18.109375 30.90625 
L 18.109375 0 
L 9.078125 0 
L 9.078125 54.6875 
L 18.109375 54.6875 
L 18.109375 46.1875 
Q 21.34375 51.125 25.703125 53.5625 
Q 30.078125 56 35.796875 56 
Q 45.21875 56 50.046875 50.171875 
Q 54.890625 44.34375 54.890625 33.015625 
z
" id="DejaVuSans-110"/>
     </defs>
     <g transform="translate(202.790625 20.397656)scale(0.1 -0.1)">
      <use xlink:href="#DejaVuSans-116"/>
      <use x="39.208984" xlink:href="#DejaVuSans-114"/>
      <use x="80.322266" xlink:href="#DejaVuSans-97"/>
      <use x="141.601562" xlink:href="#DejaVuSans-105"/>
      <use x="169.384766" xlink:href="#DejaVuSans-110"/>
     </g>
    </g>
   </g>
  </g>
 </g>
 <defs>
  <clipPath id="pcb52536a2b">
   <rect height="135.9" width="195.3" x="39.765625" y="3.799219"/>
  </clipPath>
 </defs>
</svg>
