<?xml version="1.0" encoding="utf-8" standalone="no"?>
<!DOCTYPE svg PUBLIC "-//W3C//DTD SVG 1.1//EN"
  "http://www.w3.org/Graphics/SVG/1.1/DTD/svg11.dtd">
<!-- Created with matplotlib (https://matplotlib.org/) -->
<svg height="170.055469pt" version="1.1" viewBox="0 0 250.971875 170.055469" width="250.971875pt" xmlns="http://www.w3.org/2000/svg" xmlns:xlink="http://www.w3.org/1999/xlink">
 <defs>
  <style type="text/css">
*{stroke-linecap:butt;stroke-linejoin:round;}
  </style>
 </defs>
 <g id="figure_1">
  <g id="patch_1">
   <path d="M 0 170.055469 
L 250.971875 170.055469 
L 250.971875 0 
L 0 0 
z
" style="fill:#ffffff;"/>
  </g>
  <g id="axes_1">
   <g id="patch_2">
    <path d="M 39.765625 139.699219 
L 235.065625 139.699219 
L 235.065625 3.799219 
L 39.765625 3.799219 
z
" style="fill:#ffffff;"/>
   </g>
   <g id="matplotlib.axis_1">
    <g id="xtick_1">
     <g id="line2d_1">
      <path clip-path="url(#p7e194573c6)" d="M 78.731825 139.699219 
L 78.731825 3.799219 
" style="fill:none;stroke:#b0b0b0;stroke-linecap:square;stroke-width:0.8;"/>
     </g>
     <g id="line2d_2">
      <defs>
       <path d="M 0 0 
L 0 3.5 
" id="mef0e643e70" style="stroke:#000000;stroke-width:0.8;"/>
      </defs>
      <g>
       <use style="stroke:#000000;stroke-width:0.8;" x="78.731825" xlink:href="#mef0e643e70" y="139.699219"/>
      </g>
     </g>
     <g id="text_1">
      <!-- 10000 -->
      <defs>
       <path d="M 12.40625 8.296875 
L 28.515625 8.296875 
L 28.515625 63.921875 
L 10.984375 60.40625 
L 10.984375 69.390625 
L 28.421875 72.90625 
L 38.28125 72.90625 
L 38.28125 8.296875 
L 54.390625 8.296875 
L 54.390625 0 
L 12.40625 0 
z
" id="DejaVuSans-49"/>
       <path d="M 31.78125 66.40625 
Q 24.171875 66.40625 20.328125 58.90625 
Q 16.5 51.421875 16.5 36.375 
Q 16.5 21.390625 20.328125 13.890625 
Q 24.171875 6.390625 31.78125 6.390625 
Q 39.453125 6.390625 43.28125 13.890625 
Q 47.125 21.390625 47.125 36.375 
Q 47.125 51.421875 43.28125 58.90625 
Q 39.453125 66.40625 31.78125 66.40625 
z
M 31.78125 74.21875 
Q 44.046875 74.21875 50.515625 64.515625 
Q 56.984375 54.828125 56.984375 36.375 
Q 56.984375 17.96875 50.515625 8.265625 
Q 44.046875 -1.421875 31.78125 -1.421875 
Q 19.53125 -1.421875 13.0625 8.265625 
Q 6.59375 17.96875 6.59375 36.375 
Q 6.59375 54.828125 13.0625 64.515625 
Q 19.53125 74.21875 31.78125 74.21875 
z
" id="DejaVuSans-48"/>
      </defs>
      <g transform="translate(62.825575 154.297656)scale(0.1 -0.1)">
       <use xlink:href="#DejaVuSans-49"/>
       <use x="63.623047" xlink:href="#DejaVuSans-48"/>
       <use x="127.246094" xlink:href="#DejaVuSans-48"/>
       <use x="190.869141" xlink:href="#DejaVuSans-48"/>
       <use x="254.492188" xlink:href="#DejaVuSans-48"/>
      </g>
     </g>
    </g>
    <g id="xtick_2">
     <g id="line2d_3">
      <path clip-path="url(#p7e194573c6)" d="M 117.815275 139.699219 
L 117.815275 3.799219 
" style="fill:none;stroke:#b0b0b0;stroke-linecap:square;stroke-width:0.8;"/>
     </g>
     <g id="line2d_4">
      <g>
       <use style="stroke:#000000;stroke-width:0.8;" x="117.815275" xlink:href="#mef0e643e70" y="139.699219"/>
      </g>
     </g>
     <g id="text_2">
      <!-- 20000 -->
      <defs>
       <path d="M 19.1875 8.296875 
L 53.609375 8.296875 
L 53.609375 0 
L 7.328125 0 
L 7.328125 8.296875 
Q 12.9375 14.109375 22.625 23.890625 
Q 32.328125 33.6875 34.8125 36.53125 
Q 39.546875 41.84375 41.421875 45.53125 
Q 43.3125 49.21875 43.3125 52.78125 
Q 43.3125 58.59375 39.234375 62.25 
Q 35.15625 65.921875 28.609375 65.921875 
Q 23.96875 65.921875 18.8125 64.3125 
Q 13.671875 62.703125 7.8125 59.421875 
L 7.8125 69.390625 
Q 13.765625 71.78125 18.9375 73 
Q 24.125 74.21875 28.421875 74.21875 
Q 39.75 74.21875 46.484375 68.546875 
Q 53.21875 62.890625 53.21875 53.421875 
Q 53.21875 48.921875 51.53125 44.890625 
Q 49.859375 40.875 45.40625 35.40625 
Q 44.1875 33.984375 37.640625 27.21875 
Q 31.109375 20.453125 19.1875 8.296875 
z
" id="DejaVuSans-50"/>
      </defs>
      <g transform="translate(101.909025 154.297656)scale(0.1 -0.1)">
       <use xlink:href="#DejaVuSans-50"/>
       <use x="63.623047" xlink:href="#DejaVuSans-48"/>
       <use x="127.246094" xlink:href="#DejaVuSans-48"/>
       <use x="190.869141" xlink:href="#DejaVuSans-48"/>
       <use x="254.492188" xlink:href="#DejaVuSans-48"/>
      </g>
     </g>
    </g>
    <g id="xtick_3">
     <g id="line2d_5">
      <path clip-path="url(#p7e194573c6)" d="M 156.898725 139.699219 
L 156.898725 3.799219 
" style="fill:none;stroke:#b0b0b0;stroke-linecap:square;stroke-width:0.8;"/>
     </g>
     <g id="line2d_6">
      <g>
       <use style="stroke:#000000;stroke-width:0.8;" x="156.898725" xlink:href="#mef0e643e70" y="139.699219"/>
      </g>
     </g>
     <g id="text_3">
      <!-- 30000 -->
      <defs>
       <path d="M 40.578125 39.3125 
Q 47.65625 37.796875 51.625 33 
Q 55.609375 28.21875 55.609375 21.1875 
Q 55.609375 10.40625 48.1875 4.484375 
Q 40.765625 -1.421875 27.09375 -1.421875 
Q 22.515625 -1.421875 17.65625 -0.515625 
Q 12.796875 0.390625 7.625 2.203125 
L 7.625 11.71875 
Q 11.71875 9.328125 16.59375 8.109375 
Q 21.484375 6.890625 26.8125 6.890625 
Q 36.078125 6.890625 40.9375 10.546875 
Q 45.796875 14.203125 45.796875 21.1875 
Q 45.796875 27.640625 41.28125 31.265625 
Q 36.765625 34.90625 28.71875 34.90625 
L 20.21875 34.90625 
L 20.21875 43.015625 
L 29.109375 43.015625 
Q 36.375 43.015625 40.234375 45.921875 
Q 44.09375 48.828125 44.09375 54.296875 
Q 44.09375 59.90625 40.109375 62.90625 
Q 36.140625 65.921875 28.71875 65.921875 
Q 24.65625 65.921875 20.015625 65.03125 
Q 15.375 64.15625 9.8125 62.3125 
L 9.8125 71.09375 
Q 15.4375 72.65625 20.34375 73.4375 
Q 25.25 74.21875 29.59375 74.21875 
Q 40.828125 74.21875 47.359375 69.109375 
Q 53.90625 64.015625 53.90625 55.328125 
Q 53.90625 49.265625 50.4375 45.09375 
Q 46.96875 40.921875 40.578125 39.3125 
z
" id="DejaVuSans-51"/>
      </defs>
      <g transform="translate(140.992475 154.297656)scale(0.1 -0.1)">
       <use xlink:href="#DejaVuSans-51"/>
       <use x="63.623047" xlink:href="#DejaVuSans-48"/>
       <use x="127.246094" xlink:href="#DejaVuSans-48"/>
       <use x="190.869141" xlink:href="#DejaVuSans-48"/>
       <use x="254.492188" xlink:href="#DejaVuSans-48"/>
      </g>
     </g>
    </g>
    <g id="xtick_4">
     <g id="line2d_7">
      <path clip-path="url(#p7e194573c6)" d="M 195.982175 139.699219 
L 195.982175 3.799219 
" style="fill:none;stroke:#b0b0b0;stroke-linecap:square;stroke-width:0.8;"/>
     </g>
     <g id="line2d_8">
      <g>
       <use style="stroke:#000000;stroke-width:0.8;" x="195.982175" xlink:href="#mef0e643e70" y="139.699219"/>
      </g>
     </g>
     <g id="text_4">
      <!-- 40000 -->
      <defs>
       <path d="M 37.796875 64.3125 
L 12.890625 25.390625 
L 37.796875 25.390625 
z
M 35.203125 72.90625 
L 47.609375 72.90625 
L 47.609375 25.390625 
L 58.015625 25.390625 
L 58.015625 17.1875 
L 47.609375 17.1875 
L 47.609375 0 
L 37.796875 0 
L 37.796875 17.1875 
L 4.890625 17.1875 
L 4.890625 26.703125 
z
" id="DejaVuSans-52"/>
      </defs>
      <g transform="translate(180.075925 154.297656)scale(0.1 -0.1)">
       <use xlink:href="#DejaVuSans-52"/>
       <use x="63.623047" xlink:href="#DejaVuSans-48"/>
       <use x="127.246094" xlink:href="#DejaVuSans-48"/>
       <use x="190.869141" xlink:href="#DejaVuSans-48"/>
       <use x="254.492188" xlink:href="#DejaVuSans-48"/>
      </g>
     </g>
    </g>
    <g id="xtick_5">
     <g id="line2d_9">
      <path clip-path="url(#p7e194573c6)" d="M 235.065625 139.699219 
L 235.065625 3.799219 
" style="fill:none;stroke:#b0b0b0;stroke-linecap:square;stroke-width:0.8;"/>
     </g>
     <g id="line2d_10">
      <g>
       <use style="stroke:#000000;stroke-width:0.8;" x="235.065625" xlink:href="#mef0e643e70" y="139.699219"/>
      </g>
     </g>
     <g id="text_5">
      <!-- 50000 -->
      <defs>
       <path d="M 10.796875 72.90625 
L 49.515625 72.90625 
L 49.515625 64.59375 
L 19.828125 64.59375 
L 19.828125 46.734375 
Q 21.96875 47.46875 24.109375 47.828125 
Q 26.265625 48.1875 28.421875 48.1875 
Q 40.625 48.1875 47.75 41.5 
Q 54.890625 34.8125 54.890625 23.390625 
Q 54.890625 11.625 47.5625 5.09375 
Q 40.234375 -1.421875 26.90625 -1.421875 
Q 22.3125 -1.421875 17.546875 -0.640625 
Q 12.796875 0.140625 7.71875 1.703125 
L 7.71875 11.625 
Q 12.109375 9.234375 16.796875 8.0625 
Q 21.484375 6.890625 26.703125 6.890625 
Q 35.15625 6.890625 40.078125 11.328125 
Q 45.015625 15.765625 45.015625 23.390625 
Q 45.015625 31 40.078125 35.4375 
Q 35.15625 39.890625 26.703125 39.890625 
Q 22.75 39.890625 18.8125 39.015625 
Q 14.890625 38.140625 10.796875 36.28125 
z
" id="DejaVuSans-53"/>
      </defs>
      <g transform="translate(219.159375 154.297656)scale(0.1 -0.1)">
       <use xlink:href="#DejaVuSans-53"/>
       <use x="63.623047" xlink:href="#DejaVuSans-48"/>
       <use x="127.246094" xlink:href="#DejaVuSans-48"/>
       <use x="190.869141" xlink:href="#DejaVuSans-48"/>
       <use x="254.492188" xlink:href="#DejaVuSans-48"/>
      </g>
     </g>
    </g>
    <g id="text_6">
     <!-- iter -->
     <defs>
      <path d="M 9.421875 54.6875 
L 18.40625 54.6875 
L 18.40625 0 
L 9.421875 0 
z
M 9.421875 75.984375 
L 18.40625 75.984375 
L 18.40625 64.59375 
L 9.421875 64.59375 
z
" id="DejaVuSans-105"/>
      <path d="M 18.3125 70.21875 
L 18.3125 54.6875 
L 36.8125 54.6875 
L 36.8125 47.703125 
L 18.3125 47.703125 
L 18.3125 18.015625 
Q 18.3125 11.328125 20.140625 9.421875 
Q 21.96875 7.515625 27.59375 7.515625 
L 36.8125 7.515625 
L 36.8125 0 
L 27.59375 0 
Q 17.1875 0 13.234375 3.875 
Q 9.28125 7.765625 9.28125 18.015625 
L 9.28125 47.703125 
L 2.6875 47.703125 
L 2.6875 54.6875 
L 9.28125 54.6875 
L 9.28125 70.21875 
z
" id="DejaVuSans-116"/>
      <path d="M 56.203125 29.59375 
L 56.203125 25.203125 
L 14.890625 25.203125 
Q 15.484375 15.921875 20.484375 11.0625 
Q 25.484375 6.203125 34.421875 6.203125 
Q 39.59375 6.203125 44.453125 7.46875 
Q 49.3125 8.734375 54.109375 11.28125 
L 54.109375 2.78125 
Q 49.265625 0.734375 44.1875 -0.34375 
Q 39.109375 -1.421875 33.890625 -1.421875 
Q 20.796875 -1.421875 13.15625 6.1875 
Q 5.515625 13.8125 5.515625 26.8125 
Q 5.515625 40.234375 12.765625 48.109375 
Q 20.015625 56 32.328125 56 
Q 43.359375 56 49.78125 48.890625 
Q 56.203125 41.796875 56.203125 29.59375 
z
M 47.21875 32.234375 
Q 47.125 39.59375 43.09375 43.984375 
Q 39.0625 48.390625 32.421875 48.390625 
Q 24.90625 48.390625 20.390625 44.140625 
Q 15.875 39.890625 15.1875 32.171875 
z
" id="DejaVuSans-101"/>
      <path d="M 41.109375 46.296875 
Q 39.59375 47.171875 37.8125 47.578125 
Q 36.03125 48 33.890625 48 
Q 26.265625 48 22.1875 43.046875 
Q 18.109375 38.09375 18.109375 28.8125 
L 18.109375 0 
L 9.078125 0 
L 9.078125 54.6875 
L 18.109375 54.6875 
L 18.109375 46.1875 
Q 20.953125 51.171875 25.484375 53.578125 
Q 30.03125 56 36.53125 56 
Q 37.453125 56 38.578125 55.875 
Q 39.703125 55.765625 41.0625 55.515625 
z
" id="DejaVuSans-114"/>
     </defs>
     <g transform="translate(128.934375 167.975781)scale(0.1 -0.1)">
      <use xlink:href="#DejaVuSans-105"/>
      <use x="27.783203" xlink:href="#DejaVuSans-116"/>
      <use x="66.992188" xlink:href="#DejaVuSans-101"/>
      <use x="128.515625" xlink:href="#DejaVuSans-114"/>
     </g>
    </g>
   </g>
   <g id="matplotlib.axis_2">
    <g id="ytick_1">
     <g id="line2d_11">
      <path clip-path="url(#p7e194573c6)" d="M 39.765625 139.699219 
L 235.065625 139.699219 
" style="fill:none;stroke:#b0b0b0;stroke-linecap:square;stroke-width:0.8;"/>
     </g>
     <g id="line2d_12">
      <defs>
       <path d="M 0 0 
L -3.5 0 
" id="m6b8fca11c6" style="stroke:#000000;stroke-width:0.8;"/>
      </defs>
      <g>
       <use style="stroke:#000000;stroke-width:0.8;" x="39.765625" xlink:href="#m6b8fca11c6" y="139.699219"/>
      </g>
     </g>
     <g id="text_7">
      <!-- 0 -->
      <g transform="translate(26.403125 143.498437)scale(0.1 -0.1)">
       <use xlink:href="#DejaVuSans-48"/>
      </g>
     </g>
    </g>
    <g id="ytick_2">
     <g id="line2d_13">
      <path clip-path="url(#p7e194573c6)" d="M 39.765625 105.724219 
L 235.065625 105.724219 
" style="fill:none;stroke:#b0b0b0;stroke-linecap:square;stroke-width:0.8;"/>
     </g>
     <g id="line2d_14">
      <g>
       <use style="stroke:#000000;stroke-width:0.8;" x="39.765625" xlink:href="#m6b8fca11c6" y="105.724219"/>
      </g>
     </g>
     <g id="text_8">
      <!-- 50 -->
      <g transform="translate(20.040625 109.523438)scale(0.1 -0.1)">
       <use xlink:href="#DejaVuSans-53"/>
       <use x="63.623047" xlink:href="#DejaVuSans-48"/>
      </g>
     </g>
    </g>
    <g id="ytick_3">
     <g id="line2d_15">
      <path clip-path="url(#p7e194573c6)" d="M 39.765625 71.749219 
L 235.065625 71.749219 
" style="fill:none;stroke:#b0b0b0;stroke-linecap:square;stroke-width:0.8;"/>
     </g>
     <g id="line2d_16">
      <g>
       <use style="stroke:#000000;stroke-width:0.8;" x="39.765625" xlink:href="#m6b8fca11c6" y="71.749219"/>
      </g>
     </g>
     <g id="text_9">
      <!-- 100 -->
      <g transform="translate(13.678125 75.548437)scale(0.1 -0.1)">
       <use xlink:href="#DejaVuSans-49"/>
       <use x="63.623047" xlink:href="#DejaVuSans-48"/>
       <use x="127.246094" xlink:href="#DejaVuSans-48"/>
      </g>
     </g>
    </g>
    <g id="ytick_4">
     <g id="line2d_17">
      <path clip-path="url(#p7e194573c6)" d="M 39.765625 37.774219 
L 235.065625 37.774219 
" style="fill:none;stroke:#b0b0b0;stroke-linecap:square;stroke-width:0.8;"/>
     </g>
     <g id="line2d_18">
      <g>
       <use style="stroke:#000000;stroke-width:0.8;" x="39.765625" xlink:href="#m6b8fca11c6" y="37.774219"/>
      </g>
     </g>
     <g id="text_10">
      <!-- 150 -->
      <g transform="translate(13.678125 41.573437)scale(0.1 -0.1)">
       <use xlink:href="#DejaVuSans-49"/>
       <use x="63.623047" xlink:href="#DejaVuSans-53"/>
       <use x="127.246094" xlink:href="#DejaVuSans-48"/>
      </g>
     </g>
    </g>
    <g id="ytick_5">
     <g id="line2d_19">
      <path clip-path="url(#p7e194573c6)" d="M 39.765625 3.799219 
L 235.065625 3.799219 
" style="fill:none;stroke:#b0b0b0;stroke-linecap:square;stroke-width:0.8;"/>
     </g>
     <g id="line2d_20">
      <g>
       <use style="stroke:#000000;stroke-width:0.8;" x="39.765625" xlink:href="#m6b8fca11c6" y="3.799219"/>
      </g>
     </g>
     <g id="text_11">
      <!-- 200 -->
      <g transform="translate(13.678125 7.598438)scale(0.1 -0.1)">
       <use xlink:href="#DejaVuSans-50"/>
       <use x="63.623047" xlink:href="#DejaVuSans-48"/>
       <use x="127.246094" xlink:href="#DejaVuSans-48"/>
      </g>
     </g>
    </g>
    <g id="text_12">
     <!-- perplexity -->
     <defs>
      <path d="M 18.109375 8.203125 
L 18.109375 -20.796875 
L 9.078125 -20.796875 
L 9.078125 54.6875 
L 18.109375 54.6875 
L 18.109375 46.390625 
Q 20.953125 51.265625 25.265625 53.625 
Q 29.59375 56 35.59375 56 
Q 45.5625 56 51.78125 48.09375 
Q 58.015625 40.1875 58.015625 27.296875 
Q 58.015625 14.40625 51.78125 6.484375 
Q 45.5625 -1.421875 35.59375 -1.421875 
Q 29.59375 -1.421875 25.265625 0.953125 
Q 20.953125 3.328125 18.109375 8.203125 
z
M 48.6875 27.296875 
Q 48.6875 37.203125 44.609375 42.84375 
Q 40.53125 48.484375 33.40625 48.484375 
Q 26.265625 48.484375 22.1875 42.84375 
Q 18.109375 37.203125 18.109375 27.296875 
Q 18.109375 17.390625 22.1875 11.75 
Q 26.265625 6.109375 33.40625 6.109375 
Q 40.53125 6.109375 44.609375 11.75 
Q 48.6875 17.390625 48.6875 27.296875 
z
" id="DejaVuSans-112"/>
      <path d="M 9.421875 75.984375 
L 18.40625 75.984375 
L 18.40625 0 
L 9.421875 0 
z
" id="DejaVuSans-108"/>
      <path d="M 54.890625 54.6875 
L 35.109375 28.078125 
L 55.90625 0 
L 45.3125 0 
L 29.390625 21.484375 
L 13.484375 0 
L 2.875 0 
L 24.125 28.609375 
L 4.6875 54.6875 
L 15.28125 54.6875 
L 29.78125 35.203125 
L 44.28125 54.6875 
z
" id="DejaVuSans-120"/>
      <path d="M 32.171875 -5.078125 
Q 28.375 -14.84375 24.75 -17.8125 
Q 21.140625 -20.796875 15.09375 -20.796875 
L 7.90625 -20.796875 
L 7.90625 -13.28125 
L 13.1875 -13.28125 
Q 16.890625 -13.28125 18.9375 -11.515625 
Q 21 -9.765625 23.484375 -3.21875 
L 25.09375 0.875 
L 2.984375 54.6875 
L 12.5 54.6875 
L 29.59375 11.921875 
L 46.6875 54.6875 
L 56.203125 54.6875 
z
" id="DejaVuSans-121"/>
     </defs>
     <g transform="translate(7.598438 96.875781)rotate(-90)scale(0.1 -0.1)">
      <use xlink:href="#DejaVuSans-112"/>
      <use x="63.476562" xlink:href="#DejaVuSans-101"/>
      <use x="125" xlink:href="#DejaVuSans-114"/>
      <use x="166.113281" xlink:href="#DejaVuSans-112"/>
      <use x="229.589844" xlink:href="#DejaVuSans-108"/>
      <use x="257.373047" xlink:href="#DejaVuSans-101"/>
      <use x="317.146484" xlink:href="#DejaVuSans-120"/>
      <use x="376.326172" xlink:href="#DejaVuSans-105"/>
      <use x="404.109375" xlink:href="#DejaVuSans-116"/>
      <use x="443.318359" xlink:href="#DejaVuSans-121"/>
     </g>
    </g>
   </g>
   <g id="line2d_21">
    <path clip-path="url(#p7e194573c6)" d="M 43.787857 -1 
L 43.79122 -0.457271 
L 43.804232 -1 
M 43.848958 -1 
L 43.908471 5.369242 
L 43.947554 3.377208 
L 43.960954 -1 
M 44.017887 -1 
L 44.025721 1.103324 
L 44.039073 -1 
M 44.078152 -1 
L 44.182055 7.386361 
L 44.260222 0.247042 
L 44.299305 7.189673 
L 44.377472 1.664805 
L 44.416556 -0.289905 
L 44.494722 10.385755 
L 44.533806 8.305985 
L 44.572889 2.64456 
L 44.611973 13.190744 
L 44.69014 8.796194 
L 44.729223 6.380622 
L 44.768307 9.370167 
L 44.80739 15.238602 
L 44.885557 11.297067 
L 44.92464 5.978744 
L 44.963724 13.530263 
L 45.002807 14.4307 
L 45.041891 5.604526 
L 45.080974 15.268284 
L 45.120058 12.143744 
L 45.159141 17.690312 
L 45.198225 17.328995 
L 45.237308 12.744981 
L 45.276391 16.729102 
L 45.315475 20.563465 
L 45.354558 16.280298 
L 45.432725 20.478841 
L 45.471809 9.728578 
L 45.510892 23.368018 
L 45.589059 21.710938 
L 45.628143 10.163063 
L 45.667226 23.963447 
L 45.706309 17.152916 
L 45.745393 10.855592 
L 45.784476 22.434052 
L 45.82356 15.179256 
L 45.901727 27.12117 
L 45.94081 22.972128 
L 46.018977 21.927851 
L 46.097144 27.586574 
L 46.136227 22.420932 
L 46.175311 25.785953 
L 46.214394 28.235007 
L 46.253478 21.434208 
L 46.292561 31.461501 
L 46.331645 33.5101 
L 46.409812 24.682008 
L 46.448895 24.767175 
L 46.487978 29.650323 
L 46.527062 24.700509 
L 46.566145 27.119578 
L 46.644312 27.169763 
L 46.683396 23.166839 
L 46.800646 33.133463 
L 46.95698 25.575214 
L 47.113314 38.764533 
L 47.269647 27.861872 
L 47.425981 38.312277 
L 47.504148 35.42176 
L 47.543232 33.619865 
L 47.582315 34.380606 
L 47.621398 35.825817 
L 47.660482 30.279459 
L 47.699565 36.008919 
L 47.738649 36.911598 
L 47.777732 31.945427 
L 47.816816 37.261096 
L 47.855899 34.270429 
L 47.97315 41.045895 
L 48.012233 27.363603 
L 48.0904 33.615298 
L 48.129483 36.378713 
L 48.20765 36.374634 
L 48.324901 28.381609 
L 48.363984 40.014531 
L 48.442151 36.532757 
L 48.598485 42.828036 
L 48.715735 35.507545 
L 48.676652 43.614159 
L 48.754819 36.288229 
L 48.793902 43.420903 
L 48.872069 43.335563 
L 48.911152 38.896501 
L 48.989319 39.554228 
L 49.067486 44.367694 
L 49.10657 40.726544 
L 49.184736 45.163545 
L 49.22382 38.642172 
L 49.262903 47.537601 
L 49.301987 41.142097 
L 49.34107 41.473454 
L 49.380154 39.648444 
L 49.419237 44.108948 
L 49.458321 34.916201 
L 49.497404 41.223096 
L 49.614654 46.334405 
L 49.653738 44.395269 
L 49.692821 49.207292 
L 49.731905 43.362074 
L 49.849155 48.849872 
L 50.005489 41.873627 
L 50.044572 48.511211 
L 50.122739 45.595734 
L 50.161823 46.469744 
L 50.200906 51.496263 
L 50.23999 44.352369 
L 50.279073 42.632795 
L 50.396323 55.056018 
L 50.435407 45.871099 
L 50.513574 48.586626 
L 50.591741 45.476224 
L 50.630824 51.513421 
L 50.708991 46.709859 
L 50.904408 50.682368 
L 50.982575 53.238115 
L 51.138909 47.464677 
L 51.256159 57.729916 
L 51.295243 55.866712 
L 51.37341 45.996301 
L 51.451577 46.43353 
L 51.568827 56.348274 
L 51.646994 53.713187 
L 51.725161 53.995007 
L 51.764244 49.373128 
L 51.842411 53.398313 
L 51.881495 53.025552 
L 51.920578 53.128046 
L 51.959661 55.345177 
L 51.998745 52.751481 
L 52.037828 48.251034 
L 52.076912 53.974719 
L 52.155079 55.350712 
L 52.194162 47.443234 
L 52.233246 56.731237 
L 52.272329 51.657854 
L 52.311412 52.513405 
L 52.350496 48.944852 
L 52.389579 58.176899 
L 52.467746 55.402107 
L 52.50683 51.185134 
L 52.545913 56.777943 
L 52.584997 57.493597 
L 52.62408 51.937765 
L 52.663164 60.774985 
L 52.702247 59.747367 
L 52.74133 51.128632 
L 52.819497 54.625781 
L 52.897664 56.619092 
L 52.975831 54.199966 
L 53.014915 54.935564 
L 53.053998 60.413727 
L 53.093081 57.07824 
L 53.132165 53.744142 
L 53.171248 57.924199 
L 53.210332 54.565187 
L 53.249415 53.961667 
L 53.366666 59.652866 
L 53.405749 58.173819 
L 53.444833 49.842896 
L 53.483916 60.705197 
L 53.522999 59.285736 
L 53.601166 62.452499 
L 53.64025 56.636748 
L 53.718417 56.878872 
L 53.796584 59.371929 
L 53.835667 57.772844 
L 53.913834 58.223247 
L 53.992001 57.287403 
L 54.031084 61.556184 
L 54.109251 61.051587 
L 54.148335 54.229299 
L 54.187418 55.960904 
L 54.226502 60.517825 
L 54.265585 59.999983 
L 54.304668 54.183806 
L 54.343752 61.774571 
L 54.421919 63.668536 
L 54.578253 57.674989 
L 54.617336 58.755904 
L 54.656419 66.241632 
L 54.734586 62.908357 
L 54.851837 58.337049 
L 54.89092 65.547658 
L 54.969087 61.307875 
L 55.047254 64.404133 
L 55.164504 58.910422 
L 55.320838 68.192639 
L 55.359922 58.931236 
L 55.438088 62.824957 
L 55.516255 60.018847 
L 55.594422 60.499345 
L 55.633506 65.411699 
L 55.711673 63.82596 
L 55.750756 64.455019 
L 55.78984 63.235535 
L 55.828923 64.815643 
L 55.868006 63.662707 
L 56.02434 70.647655 
L 56.063424 59.121972 
L 56.141591 61.851646 
L 56.297924 69.194622 
L 56.337008 62.120789 
L 56.376091 63.920404 
L 56.415175 68.623232 
L 56.454258 66.641153 
L 56.571509 64.169458 
L 56.610592 66.972575 
L 56.649675 63.702473 
L 56.688759 64.759174 
L 56.845093 68.554274 
L 56.92326 67.512391 
L 57.04051 65.701104 
L 57.15776 70.316417 
L 57.275011 64.476907 
L 57.314094 70.130615 
L 57.392261 69.24238 
L 57.470428 64.659311 
L 57.509511 65.468557 
L 57.626762 70.27546 
L 57.744012 62.745659 
L 57.783095 66.925631 
L 57.822179 70.229863 
L 57.861262 64.248565 
L 57.900346 69.937872 
L 58.017596 67.047151 
L 58.05668 71.74923 
L 58.134847 70.161993 
L 58.17393 70.984198 
L 58.213013 68.969902 
L 58.252097 72.386281 
L 58.29118 69.376977 
L 58.330264 71.55252 
L 58.369347 67.552716 
L 58.408431 68.749194 
L 58.447514 64.425889 
L 58.486598 68.912812 
L 58.525681 71.310428 
L 58.564764 68.37822 
L 58.642931 69.24259 
L 58.682015 65.475984 
L 58.721098 73.558937 
L 58.760182 72.554409 
L 58.799265 66.327918 
L 58.838349 70.640691 
L 58.877432 72.48528 
L 58.916516 71.822542 
L 59.033766 68.864056 
L 59.072849 72.642898 
L 59.151016 72.49297 
L 59.268267 68.187946 
L 59.30735 70.419814 
L 59.346433 70.802972 
L 59.385517 70.411734 
L 59.4246 68.961762 
L 59.463684 71.633917 
L 59.541851 73.149346 
L 59.580934 66.710341 
L 59.620018 70.460065 
L 59.659101 77.688061 
L 59.698185 71.859247 
L 59.737268 69.26391 
L 59.776351 70.02572 
L 59.815435 74.405092 
L 59.854518 71.838802 
L 59.932685 68.614888 
L 59.971769 71.227152 
L 60.010852 70.288864 
L 60.167186 75.043158 
L 60.245353 70.919612 
L 60.284436 74.227029 
L 60.32352 74.29784 
L 60.362603 73.354986 
L 60.44077 77.027857 
L 60.479854 74.462738 
L 60.518937 73.577778 
L 60.55802 75.394602 
L 60.597104 74.701532 
L 60.636187 68.890194 
L 60.675271 76.847267 
L 60.714354 72.80351 
L 60.831605 75.040284 
L 60.870688 73.486648 
L 60.909771 78.581885 
L 60.948855 70.612364 
L 61.105189 75.276566 
L 61.183356 72.182412 
L 61.339689 80.764872 
L 61.261523 72.067204 
L 61.378773 79.176341 
L 61.417856 75.392225 
L 61.496023 77.437173 
L 61.535107 79.113523 
L 61.57419 79.077659 
L 61.652357 73.873023 
L 61.69144 75.746429 
L 61.730524 77.94898 
L 61.769607 75.673745 
L 61.886858 73.71569 
L 62.043192 78.383127 
L 62.082275 78.640219 
L 62.121358 75.932996 
L 62.160442 77.440995 
L 62.199525 79.624849 
L 62.238609 77.451714 
L 62.316776 77.573769 
L 62.355859 74.055344 
L 62.473109 78.285992 
L 62.512193 77.626762 
L 62.551276 72.58106 
L 62.629443 72.746799 
L 62.668527 80.18401 
L 62.746694 76.140153 
L 62.824861 81.399505 
L 62.863944 78.156773 
L 62.903027 76.916771 
L 62.942111 78.617403 
L 62.981194 78.8284 
L 63.059361 75.342085 
L 63.137528 77.223152 
L 63.176612 82.864902 
L 63.215695 75.815129 
L 63.254778 79.399764 
L 63.332945 73.284184 
L 63.372029 81.42816 
L 63.450196 80.136204 
L 63.489279 73.902498 
L 63.528363 76.601937 
L 63.567446 81.525483 
L 63.60653 78.321357 
L 63.645613 76.741902 
L 63.801947 80.491065 
L 63.84103 79.078381 
L 63.880114 73.400046 
L 63.919197 78.565831 
L 63.958281 78.618777 
L 63.997364 77.328363 
L 64.036447 79.095953 
L 64.075531 79.712354 
L 64.153698 76.989931 
L 64.192781 81.857592 
L 64.270948 78.924313 
L 64.310032 78.451119 
L 64.505449 82.795199 
L 64.583616 80.564167 
L 64.622699 85.694456 
L 64.661783 78.720653 
L 64.700866 79.194273 
L 64.73995 74.782996 
L 64.779033 82.880686 
L 64.818116 77.859174 
L 64.896283 83.024915 
L 64.97445 82.462618 
L 65.052617 78.98544 
L 65.091701 82.659716 
L 65.130784 80.811828 
L 65.169868 78.738396 
L 65.208951 83.268538 
L 65.287118 81.059715 
L 65.326201 80.824109 
L 65.365285 79.164129 
L 65.443452 79.278494 
L 65.482535 82.639032 
L 65.521619 78.157311 
L 65.560702 77.752821 
L 65.677952 82.299084 
L 65.756119 78.542772 
L 65.795203 80.737893 
L 65.834286 80.744028 
L 65.87337 81.971598 
L 65.951537 81.640241 
L 65.99062 80.715664 
L 66.029703 81.758272 
L 66.068787 81.472468 
L 66.146954 83.807959 
L 66.186037 81.472737 
L 66.264204 81.769914 
L 66.303288 82.248269 
L 66.342371 81.640866 
L 66.381454 78.12005 
L 66.459621 80.677847 
L 66.498705 85.933418 
L 66.576872 85.118493 
L 66.615955 78.952091 
L 66.694122 82.503704 
L 66.733206 85.766371 
L 66.772289 81.266796 
L 66.811372 83.948871 
L 66.850456 80.80262 
L 66.889539 83.410348 
L 66.967706 84.790099 
L 67.12404 78.390928 
L 67.24129 85.438404 
L 67.280374 83.576459 
L 67.319457 82.26456 
L 67.397624 85.364826 
L 67.514875 81.09512 
L 67.553958 85.248168 
L 67.593041 84.041353 
L 67.632125 77.749073 
L 67.671208 84.200548 
L 67.710292 84.112504 
L 67.749375 86.747707 
L 67.788459 85.050181 
L 67.827542 82.649632 
L 67.905709 84.059229 
L 67.944793 82.590636 
L 67.983876 84.893628 
L 68.022959 86.335408 
L 68.062043 85.455262 
L 68.101126 82.433485 
L 68.179293 84.807903 
L 68.218377 84.838236 
L 68.335627 88.020969 
L 68.37471 80.852831 
L 68.452877 86.738507 
L 68.531044 86.861399 
L 68.570128 83.473902 
L 68.648295 83.413661 
L 68.726462 87.100767 
L 68.843712 82.802585 
L 68.882795 85.145917 
L 68.921879 84.506438 
L 68.960962 79.882915 
L 69.039129 81.480939 
L 69.195463 89.93516 
L 69.39088 82.010552 
L 69.508131 88.181108 
L 69.547214 88.102406 
L 69.586297 83.160501 
L 69.664464 86.271466 
L 69.703548 88.413937 
L 69.781715 88.359218 
L 69.820798 87.980581 
L 69.898965 84.938914 
L 69.938048 87.922766 
L 69.977132 83.73118 
L 70.016215 86.035603 
L 70.055299 84.303605 
L 70.094382 90.102346 
L 70.172549 88.458423 
L 70.211633 88.332766 
L 70.250716 86.137924 
L 70.2898 88.09018 
L 70.328883 88.224291 
L 70.40705 90.387688 
L 70.446133 85.21123 
L 70.5243 87.014118 
L 70.563384 86.790925 
L 70.719717 83.513162 
L 70.836968 87.487362 
L 70.876051 86.944868 
L 70.915135 89.757254 
L 70.954218 85.946414 
L 71.032385 88.386238 
L 71.071469 85.512896 
L 71.110552 89.932234 
L 71.149635 87.191536 
L 71.188719 86.129737 
L 71.227802 89.499564 
L 71.305969 86.700022 
L 71.384136 86.639468 
L 71.54047 91.566024 
L 71.579553 89.431184 
L 71.618637 90.275485 
L 71.814054 95.407888 
L 71.931304 90.91632 
L 71.970388 96.310136 
L 72.048555 92.041785 
L 72.165805 94.876554 
L 72.204889 93.315628 
L 72.243972 90.678323 
L 72.283055 95.234807 
L 72.361222 90.634636 
L 72.400306 94.298544 
L 72.439389 93.91085 
L 72.478473 91.528789 
L 72.517556 93.197711 
L 72.55664 95.999959 
L 72.634807 89.931034 
L 72.67389 91.757861 
L 72.752057 93.947836 
L 72.79114 90.601642 
L 72.869307 91.882007 
L 72.947474 94.182681 
L 72.986558 93.258052 
L 73.025641 88.626801 
L 73.064724 90.544936 
L 73.103808 94.971755 
L 73.142891 90.352531 
L 73.181975 94.524246 
L 73.221058 95.267453 
L 73.260142 89.939718 
L 73.338309 92.999285 
L 73.377392 90.002944 
L 73.416476 94.339506 
L 73.455559 97.990262 
L 73.494642 94.69808 
L 73.611893 87.873373 
L 73.69006 92.933489 
L 73.729143 89.396185 
L 73.768227 90.395478 
L 73.885477 95.311914 
L 73.963644 94.32092 
L 74.041811 92.012076 
L 74.080894 96.745462 
L 74.119978 91.803628 
L 74.159061 95.685938 
L 74.237228 95.884142 
L 74.276311 93.260316 
L 74.315395 96.141074 
L 74.354478 92.991359 
L 74.432645 93.44126 
L 74.510812 92.077032 
L 74.549896 96.672537 
L 74.588979 91.070323 
L 74.667146 94.111901 
L 74.745313 93.096311 
L 74.784396 94.527573 
L 74.82348 91.480677 
L 74.862563 92.121147 
L 74.979814 96.100962 
L 75.05798 96.280312 
L 75.097064 91.09886 
L 75.136147 97.375657 
L 75.214314 94.769929 
L 75.253398 94.407512 
L 75.292481 92.998653 
L 75.331565 93.770593 
L 75.370648 97.488165 
L 75.448815 95.286209 
L 75.487898 94.610039 
L 75.526982 95.047466 
L 75.566065 98.24994 
L 75.605149 96.403991 
L 75.683316 97.605974 
L 75.722399 94.518829 
L 75.800566 95.271699 
L 75.839649 92.316686 
L 75.878733 94.302274 
L 75.917816 96.011543 
L 75.9569 94.15649 
L 76.035067 92.19358 
L 76.07415 95.600631 
L 76.152317 95.030507 
L 76.1914 94.123813 
L 76.269567 98.296722 
L 76.308651 92.430445 
L 76.386818 94.69997 
L 76.425901 97.361818 
L 76.464985 93.152967 
L 76.504068 95.190267 
L 76.543152 92.65417 
L 76.582235 97.914992 
L 76.660402 95.769464 
L 76.777652 92.429696 
L 76.855819 92.072181 
L 76.933986 98.101363 
L 76.973069 97.949227 
L 77.012153 98.050236 
L 77.051236 98.132441 
L 77.363904 92.785159 
L 77.481154 99.71435 
L 77.637488 93.52256 
L 77.793822 97.226373 
L 77.871989 93.206112 
L 77.911072 95.161913 
L 77.989239 97.325787 
L 78.028323 96.935304 
L 78.067406 93.151854 
L 78.10649 98.242591 
L 78.301907 94.284586 
L 78.419157 97.459519 
L 78.458241 97.27447 
L 78.536407 92.899024 
L 78.575491 97.201531 
L 78.653658 95.111126 
L 78.692741 97.853053 
L 78.731825 96.968455 
L 78.809992 94.109467 
L 78.849075 94.428006 
L 78.927242 94.245214 
L 78.966325 100.605812 
L 79.044492 95.949782 
L 79.083576 96.673159 
L 79.122659 98.395907 
L 79.161743 96.857145 
L 79.200826 96.196437 
L 79.23991 98.088519 
L 79.278993 96.662724 
L 79.318076 95.753773 
L 79.396243 96.174999 
L 79.47441 94.778299 
L 79.552577 99.114789 
L 79.591661 96.414048 
L 79.669828 97.251386 
L 79.787078 96.025173 
L 79.865245 95.563757 
L 79.943412 99.577325 
L 80.099745 91.842919 
L 80.177912 99.980136 
L 80.256079 99.225543 
L 80.334246 95.21203 
L 80.37333 97.363792 
L 80.412413 97.001146 
L 80.451497 95.118628 
L 80.49058 100.583673 
L 80.568747 99.018143 
L 80.60783 99.701978 
L 80.725081 93.885532 
L 80.685997 100.33124 
L 80.803248 95.817839 
L 80.881414 99.491541 
L 80.920498 94.261529 
L 80.998665 97.547371 
L 81.037748 97.617039 
L 81.076832 99.070087 
L 81.115915 98.602228 
L 81.154999 96.77631 
L 81.194082 97.088796 
L 81.233166 98.908445 
L 81.272249 95.024325 
L 81.311332 100.119203 
L 81.350416 100.599484 
L 81.545833 95.324322 
L 81.584917 101.558436 
L 81.624 94.592951 
L 81.663083 98.933695 
L 81.702167 96.211264 
L 81.780334 97.034209 
L 81.819417 96.215902 
L 81.897584 100.619123 
L 81.936668 98.963314 
L 81.975751 95.710301 
L 82.014835 99.328345 
L 82.053918 96.565786 
L 82.093001 96.028655 
L 82.132085 99.087225 
L 82.210252 98.73255 
L 82.288419 97.105335 
L 82.327502 100.746971 
L 82.405669 98.8902 
L 82.522919 95.326273 
L 82.562003 98.712141 
L 82.64017 98.701465 
L 82.718337 95.165379 
L 82.75742 95.997109 
L 82.796504 99.913637 
L 82.87467 96.715686 
L 82.952837 101.710913 
L 82.991921 99.040039 
L 83.031004 97.956579 
L 83.070088 99.12779 
L 83.109171 100.266001 
L 83.148255 100.024785 
L 83.304588 97.746853 
L 83.382755 101.245606 
L 83.421839 101.00936 
L 83.500006 102.380339 
L 83.539089 97.81982 
L 83.656339 103.100004 
L 83.695423 98.119692 
L 83.77359 101.876103 
L 83.89084 97.725142 
L 83.929924 103.210532 
L 84.00809 98.814363 
L 84.047174 102.207199 
L 84.086257 97.839807 
L 84.164424 99.512338 
L 84.242591 98.689658 
L 84.281675 102.535233 
L 84.398925 96.857902 
L 84.438008 102.045893 
L 84.516175 101.382752 
L 84.594342 101.979046 
L 84.633426 98.612007 
L 84.672509 99.808584 
L 84.750676 96.140809 
L 84.90701 100.796469 
L 84.946093 98.445259 
L 84.985177 100.317564 
L 85.02426 101.007764 
L 85.063344 100.644653 
L 85.219677 95.800441 
L 85.258761 101.129862 
L 85.297844 94.537272 
L 85.336928 101.014593 
L 85.376011 99.103189 
L 85.415095 103.361687 
L 85.493262 99.861071 
L 85.571428 100.344396 
L 85.610512 100.068831 
L 85.649595 97.658257 
L 85.688679 100.942076 
L 85.727762 103.677605 
L 85.766846 97.493232 
L 85.845013 100.043938 
L 85.92318 101.649203 
L 85.962263 98.898396 
L 86.04043 99.009243 
L 86.079513 100.950522 
L 86.15768 100.845567 
L 86.196764 96.053171 
L 86.235847 100.82477 
L 86.274931 101.514684 
L 86.431264 97.817059 
L 86.587598 101.531255 
L 86.626682 98.935451 
L 86.704849 100.843806 
L 86.743932 101.211 
L 86.900266 99.181565 
L 87.017516 101.964074 
L 87.095683 100.565981 
L 87.17385 103.383621 
L 87.212933 97.19508 
L 87.2911 99.179352 
L 87.369267 103.355852 
L 87.408351 101.930812 
L 87.447434 102.396857 
L 87.525601 99.264176 
L 87.564684 100.505609 
L 87.642851 104.05692 
L 87.681935 100.660651 
L 87.760102 101.243826 
L 87.799185 102.180492 
L 87.838269 101.515125 
L 87.877352 98.580479 
L 87.955519 101.025307 
L 88.033686 99.368694 
L 88.111853 99.593982 
L 88.19002 102.895799 
L 88.229103 102.338421 
L 88.42452 97.797554 
L 88.502687 104.150355 
L 88.580854 100.004612 
L 88.619938 100.201497 
L 88.698104 98.45996 
L 88.737188 102.71508 
L 88.815355 102.2065 
L 88.854438 102.190053 
L 88.893522 105.566443 
L 88.932605 99.732845 
L 88.971689 101.834566 
L 89.010772 100.811749 
L 89.088939 98.425457 
L 89.206189 102.566606 
L 89.245273 100.596515 
L 89.284356 101.315207 
L 89.32344 104.227831 
L 89.362523 100.167399 
L 89.401607 100.921945 
L 89.44069 99.885056 
L 89.479773 98.132462 
L 89.636107 102.77649 
L 89.753358 98.200648 
L 89.792441 101.486662 
L 89.831525 100.909221 
L 89.870608 98.15714 
L 89.909691 100.949303 
L 89.948775 100.99921 
L 89.987858 103.219466 
L 90.026942 97.489097 
L 90.105109 101.976504 
L 90.183276 103.857084 
L 90.300526 100.001131 
L 90.339609 100.670321 
L 90.417776 104.051379 
L 90.45686 101.41364 
L 90.495943 100.359551 
L 90.535027 101.214789 
L 90.57411 103.615163 
L 90.652277 102.50243 
L 90.69136 103.050465 
L 90.769527 100.199794 
L 90.808611 102.594391 
L 90.886778 104.346228 
L 90.964945 98.472398 
L 91.004028 100.89522 
L 91.043111 100.536045 
L 91.121278 103.073625 
L 91.160362 101.2156 
L 91.199445 100.05919 
L 91.277612 98.424927 
L 91.316696 103.86759 
L 91.355779 101.725624 
L 91.433946 102.561581 
L 91.473029 103.385429 
L 91.512113 101.283831 
L 91.551196 103.955615 
L 91.59028 104.933074 
L 91.746614 99.582656 
L 91.785697 103.24759 
L 91.82478 100.536838 
L 91.863864 99.647786 
L 91.981114 104.124403 
L 92.020198 101.689351 
L 92.059281 103.501539 
L 92.098365 103.978032 
L 92.137448 101.778836 
L 92.176532 106.17336 
L 92.254698 104.65236 
L 92.332865 101.155793 
L 92.371949 102.102546 
L 92.411032 103.776502 
L 92.450116 103.465869 
L 92.489199 99.167176 
L 92.528283 99.989193 
L 92.567366 103.095129 
L 92.645533 101.093515 
L 92.801867 103.515918 
L 92.84095 101.591719 
L 92.880034 103.579429 
L 92.919117 102.874045 
L 92.958201 102.475497 
L 92.997284 103.341846 
L 93.036367 101.203622 
L 93.075451 106.942766 
L 93.153618 102.671199 
L 93.192701 103.719355 
L 93.231785 101.029117 
L 93.309952 101.217332 
L 93.349035 105.339223 
L 93.388118 102.133066 
L 93.427202 99.817127 
L 93.505369 100.869454 
L 93.661703 105.8572 
L 93.700786 102.037995 
L 93.73987 106.264488 
L 93.778953 103.978747 
L 93.85712 105.039321 
L 93.896203 101.737846 
L 93.935287 104.056411 
L 93.97437 102.099069 
L 94.013454 99.02117 
L 94.052537 103.316791 
L 94.130704 102.108277 
L 94.208871 101.855817 
L 94.287038 103.529381 
L 94.365205 100.924146 
L 94.443372 104.667983 
L 94.482455 104.59244 
L 94.521539 103.807151 
L 94.560622 99.309456 
L 94.599705 101.370447 
L 94.638789 106.077944 
L 94.716956 105.150355 
L 94.795123 100.971286 
L 94.834206 103.122394 
L 94.87329 105.007926 
L 94.951456 103.676973 
L 94.99054 104.996455 
L 95.029623 100.582912 
L 95.10779 103.737777 
L 95.146874 102.314394 
L 95.185957 104.621926 
L 95.225041 104.005615 
L 95.264124 104.608014 
L 95.303208 106.050977 
L 95.342291 104.503408 
L 95.381374 105.311501 
L 95.498625 100.253736 
L 95.576792 104.177154 
L 95.615875 100.540076 
L 95.654959 105.815208 
L 95.694042 101.743272 
L 95.733126 104.033163 
L 95.811292 103.805747 
L 95.850376 100.754899 
L 95.889459 105.136439 
L 95.928543 104.681664 
L 95.967626 101.83151 
L 96.045793 103.806972 
L 96.084877 102.945256 
L 96.163043 101.630059 
L 96.24121 105.460134 
L 96.358461 101.436947 
L 96.475711 105.744624 
L 96.514795 104.222073 
L 96.553878 104.604087 
L 96.592961 106.852908 
L 96.632045 103.458164 
L 96.710212 103.72705 
L 96.749295 101.775644 
L 96.866546 106.806272 
L 96.905629 105.037141 
L 96.944712 104.958461 
L 96.983796 100.845713 
L 97.061963 104.309796 
L 97.101046 104.374916 
L 97.14013 104.215843 
L 97.218297 104.43723 
L 97.25738 102.83434 
L 97.37463 103.353004 
L 97.413714 101.482266 
L 97.452797 103.60448 
L 97.491881 105.929208 
L 97.530964 105.255452 
L 97.570048 103.100361 
L 97.609131 105.663925 
L 97.648215 105.979168 
L 97.765465 102.869814 
L 97.804548 106.039888 
L 97.843632 103.186249 
L 97.882715 100.913345 
L 97.921799 106.459984 
L 97.999966 105.71809 
L 98.078133 103.13986 
L 98.117216 105.277865 
L 98.195383 106.103809 
L 98.27355 102.748729 
L 98.429884 105.585662 
L 98.468967 102.574366 
L 98.50805 102.742275 
L 98.547134 105.67121 
L 98.625301 105.539578 
L 98.664384 105.239096 
L 98.781635 103.354506 
L 98.859802 104.225503 
L 98.898885 102.052816 
L 98.977052 103.300298 
L 99.016135 103.935074 
L 99.055219 100.191433 
L 99.094302 104.661951 
L 99.133386 102.056217 
L 99.211553 105.737316 
L 99.250636 101.908663 
L 99.328803 104.335026 
L 99.367886 103.134761 
L 99.40697 105.526054 
L 99.446053 104.160865 
L 99.485137 103.105883 
L 99.563304 106.440694 
L 99.602387 105.120649 
L 99.641471 104.029895 
L 99.680554 105.637314 
L 99.719637 104.245782 
L 99.875971 106.459349 
L 99.915055 105.911132 
L 99.954138 106.470061 
L 100.032305 106.158115 
L 100.071388 103.910808 
L 100.110472 104.19179 
L 100.149555 108.148509 
L 100.188639 106.283818 
L 100.266806 104.55625 
L 100.305889 108.71255 
L 100.344973 102.196697 
L 100.462223 106.941027 
L 100.501306 105.199715 
L 100.54039 105.672651 
L 100.579473 105.220289 
L 100.618557 105.113243 
L 100.65764 101.745948 
L 100.696724 108.674402 
L 100.735807 102.632749 
L 100.774891 101.371871 
L 100.813974 107.436893 
L 100.892141 103.55815 
L 100.970308 102.573017 
L 101.009391 106.819845 
L 101.165725 104.089747 
L 101.282975 108.874752 
L 101.400226 102.651242 
L 101.478393 101.89886 
L 101.517476 106.490371 
L 101.67381 104.408119 
L 101.712893 106.939113 
L 101.751977 105.799756 
L 101.79106 102.303293 
L 101.830144 106.20228 
L 101.869227 105.917826 
L 101.908311 107.292708 
L 102.025561 103.036324 
L 102.064644 106.923786 
L 102.142811 103.678889 
L 102.260062 106.480674 
L 102.338229 105.023694 
L 102.377312 106.910749 
L 102.455479 106.373337 
L 102.572729 105.391474 
L 102.611813 105.743637 
L 102.650896 103.65162 
L 102.68998 103.795789 
L 102.80723 106.873453 
L 102.885397 104.169206 
L 102.92448 108.439362 
L 103.002647 107.205063 
L 103.041731 108.364417 
L 103.119898 104.454826 
L 103.158981 104.960617 
L 103.198064 107.835806 
L 103.237148 107.025466 
L 103.276231 104.788986 
L 103.315315 108.409874 
L 103.393482 107.205691 
L 103.432565 104.272059 
L 103.471649 107.688282 
L 103.510732 106.210067 
L 103.549816 106.326987 
L 103.667066 111.173133 
L 103.784316 110.414416 
L 103.8234 111.004707 
L 103.901567 112.074258 
L 103.94065 109.098208 
L 103.979733 110.626249 
L 104.018817 110.043334 
L 104.096984 107.726546 
L 104.136067 108.346445 
L 104.175151 110.546858 
L 104.214234 107.632816 
L 104.370568 111.05859 
L 104.409651 109.054062 
L 104.487818 110.050889 
L 104.565985 111.460532 
L 104.644152 110.818988 
L 104.683236 109.747028 
L 104.722319 111.659541 
L 104.761402 112.080383 
L 104.995903 108.421986 
L 105.034987 108.511229 
L 105.07407 111.188478 
L 105.152237 111.005006 
L 105.230404 107.966735 
L 105.308571 107.998152 
L 105.464905 112.021884 
L 105.503988 107.445879 
L 105.582155 108.177282 
L 105.621238 112.632662 
L 105.660322 108.169675 
L 105.699405 110.527915 
L 105.738489 110.126478 
L 105.777572 107.191521 
L 105.816656 110.376057 
L 105.933906 110.9033 
L 105.972989 108.542115 
L 106.012073 111.720971 
L 106.168407 109.402038 
L 106.246574 111.750096 
L 106.285657 109.646627 
L 106.32474 109.342525 
L 106.363824 110.502871 
L 106.441991 109.581537 
L 106.520158 109.30451 
L 106.598325 111.811145 
L 106.676492 108.420104 
L 106.715575 111.861254 
L 106.754658 108.146922 
L 106.793742 111.532434 
L 106.832825 110.25971 
L 106.871909 112.103796 
L 106.910992 112.296852 
L 107.067326 107.160505 
L 107.184576 110.749132 
L 107.262743 109.047425 
L 107.34091 111.712824 
L 107.419077 107.721844 
L 107.458161 108.302389 
L 107.497244 111.779987 
L 107.575411 111.378972 
L 107.614494 112.066555 
L 107.770828 108.645068 
L 107.888078 110.485815 
L 107.927162 109.749253 
L 107.966245 109.822211 
L 108.005329 113.045109 
L 108.044412 109.184146 
L 108.083496 110.621573 
L 108.200746 111.40748 
L 108.23983 111.230233 
L 108.35708 109.651757 
L 108.396163 109.965332 
L 108.435247 111.52453 
L 108.47433 108.408 
L 108.552497 110.939864 
L 108.630664 111.656753 
L 108.669747 109.560314 
L 108.747914 112.929739 
L 108.786998 110.584207 
L 108.865165 111.444457 
L 109.021499 106.023014 
L 109.060582 111.529613 
L 109.138749 109.166176 
L 109.177832 110.979955 
L 109.216916 109.746567 
L 109.255999 109.349309 
L 109.295083 112.153036 
L 109.37325 110.134662 
L 109.451416 111.980974 
L 109.4905 108.835432 
L 109.568667 110.55614 
L 109.60775 110.414202 
L 109.646834 112.611111 
L 109.685917 109.974678 
L 109.725001 109.044106 
L 109.764084 111.04533 
L 109.803168 109.575923 
L 109.842251 109.102918 
L 109.959501 112.017552 
L 110.154919 108.236651 
L 110.233085 111.552252 
L 110.350336 111.452961 
L 110.389419 108.599607 
L 110.467586 108.801436 
L 110.50667 108.756714 
L 110.663003 112.73728 
L 110.702087 110.021106 
L 110.780254 110.181298 
L 110.819337 110.795896 
L 110.858421 110.144082 
L 110.897504 109.847183 
L 110.936588 110.963886 
L 110.975671 108.61494 
L 111.014754 109.770781 
L 111.053838 110.986351 
L 111.092921 109.745367 
L 111.132005 110.894296 
L 111.249255 109.357242 
L 111.288339 109.746109 
L 111.366506 112.68621 
L 111.405589 110.791401 
L 111.444672 111.144974 
L 111.483756 108.459147 
L 111.522839 110.402605 
L 111.561923 111.918845 
L 111.64009 111.574782 
L 111.679173 110.039321 
L 111.718257 112.966679 
L 111.796423 112.276603 
L 111.952757 108.437574 
L 112.030924 111.360113 
L 112.070008 109.978507 
L 112.109091 109.854757 
L 112.226341 113.066654 
L 112.304508 109.157444 
L 112.343592 112.618506 
L 112.617176 108.900192 
L 112.656259 110.904545 
L 112.734426 109.738334 
L 112.89076 112.052558 
L 112.929844 112.180604 
L 112.968927 107.269702 
L 113.047094 108.768358 
L 113.164344 111.519199 
L 113.203428 109.336295 
L 113.281595 110.4567 
L 113.320678 110.645601 
L 113.359761 112.816853 
L 113.398845 109.92118 
L 113.437928 109.886839 
L 113.477012 110.111331 
L 113.516095 108.861201 
L 113.555179 110.120209 
L 113.594262 113.200186 
L 113.672429 112.786163 
L 113.789679 105.338319 
L 113.828763 111.881482 
L 113.90693 108.923797 
L 113.985097 113.663474 
L 114.02418 110.56502 
L 114.063264 106.919404 
L 114.102347 111.87983 
L 114.180514 110.820679 
L 114.297764 109.056717 
L 114.336848 110.376264 
L 114.415015 109.66746 
L 114.454098 109.444369 
L 114.493182 113.080081 
L 114.532265 111.117126 
L 114.571348 109.115614 
L 114.610432 111.20021 
L 114.688599 110.948925 
L 114.766766 112.70322 
L 114.844933 109.130937 
L 114.884016 112.552833 
L 114.923099 111.346016 
L 115.04035 105.63755 
L 115.1576 111.284633 
L 115.235767 110.717374 
L 115.313934 111.286783 
L 115.353017 111.261804 
L 115.392101 109.394359 
L 115.470268 109.977768 
L 115.509351 110.052195 
L 115.548435 112.515129 
L 115.626602 111.652226 
L 115.743852 108.973105 
L 115.822019 108.488082 
L 115.900186 110.665351 
L 115.939269 107.782075 
L 115.978353 111.247912 
L 116.017436 109.09272 
L 116.05652 112.499562 
L 116.134686 109.970026 
L 116.17377 111.99914 
L 116.251937 111.69738 
L 116.330104 109.582653 
L 116.486437 109.740835 
L 116.525521 112.794253 
L 116.603688 112.474321 
L 116.720938 107.169091 
L 116.838189 113.671207 
L 116.994522 108.818881 
L 117.033606 111.644173 
L 117.111773 111.559793 
L 117.150856 111.677816 
L 117.229023 109.817763 
L 117.30719 112.273456 
L 117.346273 111.954473 
L 117.385357 111.001525 
L 117.42444 112.407897 
L 117.463524 111.294817 
L 117.502607 111.569194 
L 117.619858 108.247041 
L 117.737108 113.024884 
L 117.776191 109.864242 
L 117.893442 112.37087 
L 117.932525 108.792534 
L 117.971609 110.77365 
L 118.010692 112.391046 
L 118.088859 111.646381 
L 118.127942 110.020031 
L 118.167026 112.095327 
L 118.206109 113.934801 
L 118.245193 111.721248 
L 118.284276 112.991034 
L 118.362443 108.099116 
L 118.44061 109.076864 
L 118.518777 112.007173 
L 118.55786 111.251828 
L 118.636027 109.516425 
L 118.675111 112.388834 
L 118.714194 111.765545 
L 118.753278 109.545144 
L 118.792361 111.780946 
L 118.831444 111.229093 
L 118.909611 111.237503 
L 118.987778 110.383023 
L 119.026862 110.363935 
L 119.065945 108.493829 
L 119.105029 111.021238 
L 119.144112 110.141653 
L 119.183196 112.726428 
L 119.222279 111.581952 
L 119.300446 112.141517 
L 119.378613 108.84104 
L 119.534947 113.657802 
L 119.613113 110.694892 
L 119.652197 111.919977 
L 119.69128 112.825471 
L 119.769447 113.407099 
L 119.808531 109.443811 
L 119.886698 112.123078 
L 119.964865 112.45008 
L 120.003948 109.477405 
L 120.043031 111.407984 
L 120.121198 111.169693 
L 120.238449 111.95168 
L 120.316616 109.159334 
L 120.355699 110.70879 
L 120.394782 111.743027 
L 120.433866 111.494821 
L 120.472949 109.645341 
L 120.551116 110.557371 
L 120.5902 111.701948 
L 120.668367 111.039596 
L 120.70745 111.137463 
L 120.785617 112.797521 
L 120.8247 107.007911 
L 120.941951 112.913075 
L 120.981034 110.998291 
L 121.020118 112.967689 
L 121.059201 110.608779 
L 121.098285 107.784541 
L 121.137368 109.991574 
L 121.176451 110.994176 
L 121.254618 110.217392 
L 121.293702 110.377294 
L 121.332785 110.26481 
L 121.450036 113.764585 
L 121.606369 110.975345 
L 121.72362 113.928269 
L 121.762703 109.179375 
L 121.84087 112.029045 
L 121.919037 113.147477 
L 121.95812 109.224293 
L 122.114454 111.773507 
L 122.153538 113.049772 
L 122.192621 110.058929 
L 122.231705 114.105073 
L 122.270788 110.245987 
L 122.388038 111.292555 
L 122.427122 112.052493 
L 122.466205 110.086094 
L 122.544372 111.225101 
L 122.583456 113.031286 
L 122.622539 111.01511 
L 122.661623 109.03476 
L 122.700706 113.350479 
L 122.778873 112.940455 
L 122.896123 111.104482 
L 122.935207 112.128198 
L 122.97429 109.306688 
L 123.052457 109.924964 
L 123.091541 110.939855 
L 123.130624 110.315675 
L 123.169707 109.764242 
L 123.208791 113.107825 
L 123.247874 112.524853 
L 123.286958 108.68814 
L 123.326041 111.639927 
L 123.365125 113.781828 
L 123.404208 113.385851 
L 123.521459 107.981045 
L 123.560542 111.207225 
L 123.599625 113.010727 
L 123.638709 112.617058 
L 123.677792 111.323319 
L 123.755959 111.621521 
L 123.795043 111.762947 
L 123.834126 110.936968 
L 123.87321 112.267276 
L 123.912293 112.129963 
L 123.951376 112.148296 
L 124.029543 112.616296 
L 124.10771 110.432758 
L 124.146794 112.790765 
L 124.224961 111.574012 
L 124.342211 110.578792 
L 124.420378 112.530329 
L 124.537628 110.163636 
L 124.576712 112.258264 
L 124.615795 111.133321 
L 124.654879 110.486932 
L 124.733045 109.451074 
L 124.811212 114.160646 
L 124.889379 110.795229 
L 124.928463 111.852576 
L 124.967546 113.54298 
L 125.00663 112.854774 
L 125.045713 109.87915 
L 125.084797 112.67474 
L 125.12388 113.281744 
L 125.24113 110.261196 
L 125.319297 113.762127 
L 125.397464 112.358161 
L 125.553798 110.497288 
L 125.592881 111.588631 
L 125.631965 111.261991 
L 125.671048 110.170955 
L 125.749215 112.828873 
L 125.788299 110.661532 
L 125.944632 113.155235 
L 125.983716 111.679992 
L 126.022799 112.502825 
L 126.061883 113.265403 
L 126.100966 109.608079 
L 126.179133 111.456826 
L 126.2573 110.642872 
L 126.413634 114.278823 
L 126.530884 111.950175 
L 126.648135 110.56791 
L 126.882635 113.49354 
L 126.960802 110.042152 
L 126.999886 111.363418 
L 127.038969 114.453918 
L 127.078052 112.559287 
L 127.195303 111.131667 
L 127.234386 111.35511 
L 127.27347 113.107633 
L 127.312553 112.164088 
L 127.351637 109.974813 
L 127.39072 113.398228 
L 127.429804 111.924239 
L 127.50797 112.845373 
L 127.586137 111.528009 
L 127.625221 112.988228 
L 127.664304 109.887935 
L 127.703388 114.375034 
L 127.781555 110.009547 
L 127.820638 111.380242 
L 127.859721 112.697721 
L 127.898805 108.713311 
L 127.937888 112.981328 
L 128.172389 108.293176 
L 128.211473 112.245405 
L 128.289639 112.102058 
L 128.328723 112.303975 
L 128.445973 110.006556 
L 128.52414 112.938394 
L 128.563224 112.234864 
L 128.602307 112.587098 
L 128.680474 109.571698 
L 128.719557 110.564498 
L 128.797724 112.028988 
L 128.836808 113.043107 
L 128.875891 112.411835 
L 129.032225 110.044887 
L 129.071308 110.952913 
L 129.110392 111.154441 
L 129.149475 110.501347 
L 129.266726 112.950293 
L 129.305809 110.84854 
L 129.383976 111.031284 
L 129.423059 114.413971 
L 129.462143 111.275577 
L 129.501226 111.252126 
L 129.54031 115.094533 
L 129.579393 113.976514 
L 129.618477 109.311223 
L 129.696644 111.693703 
L 129.735727 111.737707 
L 129.892061 113.179415 
L 130.009311 107.808968 
L 130.165645 114.430972 
L 130.243812 109.444938 
L 130.321979 111.303802 
L 130.400146 114.468769 
L 130.439229 110.735661 
L 130.478313 111.901517 
L 130.517396 114.34959 
L 130.55648 109.099016 
L 130.634646 112.908948 
L 130.67373 114.687228 
L 130.712813 113.714189 
L 130.751897 110.089389 
L 130.830064 111.936017 
L 130.947314 112.142407 
L 130.986397 113.874523 
L 131.025481 111.513219 
L 131.064564 111.924062 
L 131.103648 115.155859 
L 131.142731 112.14645 
L 131.181815 111.893 
L 131.259982 114.462634 
L 131.299065 112.452651 
L 131.338149 112.939765 
L 131.416315 111.519945 
L 131.494482 114.153574 
L 131.533566 113.332479 
L 131.650816 111.629924 
L 131.611733 113.432614 
L 131.6899 111.90757 
L 131.728983 113.642898 
L 131.768066 113.252453 
L 131.846233 109.97434 
L 131.885317 114.560508 
L 131.963484 111.168679 
L 132.002567 108.768801 
L 132.041651 111.201464 
L 132.080734 111.370984 
L 132.119818 113.262388 
L 132.197984 112.414379 
L 132.237068 111.536172 
L 132.276151 112.281695 
L 132.315235 114.754559 
L 132.354318 112.395649 
L 132.393402 112.239401 
L 132.471569 113.603164 
L 132.510652 107.649721 
L 132.588819 112.992566 
L 132.666986 112.510223 
L 132.706069 112.388561 
L 132.745153 113.134831 
L 132.784236 111.12009 
L 132.82332 114.389723 
L 132.862403 115.190113 
L 133.018737 110.784728 
L 133.05782 110.720054 
L 133.135987 112.060361 
L 133.175071 111.834716 
L 133.214154 110.53237 
L 133.331404 114.020815 
L 133.370488 111.974169 
L 133.409571 112.67363 
L 133.448655 113.774905 
L 133.565905 109.578611 
L 133.604989 110.88516 
L 133.683156 114.370525 
L 133.761322 112.460113 
L 133.800406 110.230596 
L 133.839489 113.550031 
L 133.878573 114.533845 
L 133.917656 110.25289 
L 133.995823 111.510599 
L 134.034907 114.194864 
L 134.07399 110.637567 
L 134.113073 113.673123 
L 134.152157 110.681439 
L 134.19124 114.107139 
L 134.269407 112.335517 
L 134.347574 113.056055 
L 134.386658 113.327586 
L 134.464825 110.154819 
L 134.542991 114.22282 
L 134.582075 113.697619 
L 134.660242 110.834711 
L 134.699325 113.469905 
L 134.777492 112.123856 
L 134.816576 111.858825 
L 134.855659 114.954077 
L 134.894742 112.609633 
L 135.051076 110.463463 
L 135.129243 113.97334 
L 135.20741 113.756559 
L 135.363744 111.200141 
L 135.402827 111.209654 
L 135.559161 117.337623 
L 135.637328 114.46296 
L 135.676411 118.720902 
L 135.754578 116.283791 
L 135.793662 113.706813 
L 135.832745 116.390346 
L 135.871829 119.178859 
L 135.910912 114.670925 
L 135.949996 114.134486 
L 135.989079 114.892921 
L 136.067246 118.060056 
L 136.145413 116.759139 
L 136.184496 116.894227 
L 136.22358 116.308857 
L 136.262663 116.695797 
L 136.301747 118.078442 
L 136.34083 117.398521 
L 136.45808 113.280482 
L 136.575331 117.899863 
L 136.614414 117.355274 
L 136.692581 115.284541 
L 136.731665 117.863756 
L 136.770748 116.937124 
L 136.887998 114.313111 
L 137.083416 117.026057 
L 137.161583 117.052665 
L 137.278833 114.436184 
L 137.435167 116.999933 
L 137.591501 114.393127 
L 137.669667 117.233777 
L 137.747834 116.66258 
L 137.786918 114.953202 
L 137.826001 115.312347 
L 137.865085 117.262957 
L 137.904168 117.1964 
L 137.943252 115.082355 
L 137.982335 116.512761 
L 138.021418 118.130375 
L 138.060502 117.12922 
L 138.099585 114.888327 
L 138.177752 115.85396 
L 138.216836 115.336405 
L 138.255919 116.261856 
L 138.295003 117.11182 
L 138.334086 116.516055 
L 138.37317 114.937703 
L 138.412253 115.791122 
L 138.451336 117.641619 
L 138.49042 117.142676 
L 138.529503 114.441185 
L 138.568587 115.086701 
L 138.60767 118.265795 
L 138.685837 116.866661 
L 138.764004 113.977004 
L 138.803087 114.248329 
L 138.920338 117.541597 
L 138.959421 116.524791 
L 139.037588 113.863276 
L 139.076672 117.433328 
L 139.154839 115.219868 
L 139.350256 118.070865 
L 139.50659 113.788732 
L 139.662923 116.656468 
L 139.74109 117.787424 
L 139.780174 112.597995 
L 139.858341 117.082142 
L 139.897424 113.013908 
L 139.936508 117.366357 
L 139.975591 115.422858 
L 140.014674 114.715022 
L 140.053758 114.717522 
L 140.092841 119.320533 
L 140.131925 119.030696 
L 140.249175 114.79413 
L 140.288259 118.245801 
L 140.327342 117.164686 
L 140.366425 115.015867 
L 140.444592 116.700436 
L 140.483676 116.864881 
L 140.522759 116.279466 
L 140.561843 116.804616 
L 140.600926 117.660244 
L 140.679093 114.119171 
L 140.75726 114.779023 
L 140.87451 115.887666 
L 140.913594 114.232092 
L 140.952677 117.742337 
L 141.030844 116.114732 
L 141.187178 118.19308 
L 141.382595 113.930734 
L 141.460762 117.610781 
L 141.499846 115.644255 
L 141.538929 115.067219 
L 141.578012 116.59092 
L 141.656179 116.587514 
L 141.695263 115.510596 
L 141.734346 117.227978 
L 141.77343 115.919372 
L 141.812513 115.598039 
L 141.851597 118.686279 
L 141.89068 117.526204 
L 142.00793 114.159953 
L 142.125181 117.873494 
L 142.164264 116.947169 
L 142.203348 116.825357 
L 142.281515 116.881756 
L 142.320598 115.605053 
L 142.398765 115.537727 
L 142.437848 119.034332 
L 142.516015 115.031256 
L 142.555099 115.214186 
L 142.594182 117.427253 
L 142.633266 115.014606 
L 142.672349 114.719319 
L 142.750516 116.630999 
L 142.828683 114.271543 
L 142.867766 118.00556 
L 142.945933 117.551332 
L 143.0241 115.839265 
L 143.063184 117.289365 
L 143.102267 117.234647 
L 143.14135 118.10441 
L 143.180434 114.354964 
L 143.258601 115.842091 
L 143.336768 114.262909 
L 143.375851 115.671014 
L 143.454018 114.770976 
L 143.532185 114.605734 
L 143.610352 117.041438 
L 143.766686 114.50537 
L 143.805769 113.408997 
L 143.923019 117.336021 
L 143.962103 116.322877 
L 144.04027 114.328804 
L 144.079353 115.906851 
L 144.118437 116.377531 
L 144.15752 115.536355 
L 144.196604 114.969663 
L 144.27477 117.875401 
L 144.313854 115.485331 
L 144.352937 116.111635 
L 144.392021 115.356661 
L 144.431104 114.723443 
L 144.470188 117.168274 
L 144.509271 112.384573 
L 144.548355 115.535752 
L 144.587438 117.158401 
L 144.665605 116.894129 
L 144.743772 117.782639 
L 144.782855 114.920506 
L 144.939189 118.905613 
L 145.095523 114.04578 
L 145.134606 116.537903 
L 145.17369 115.442348 
L 145.212773 114.003493 
L 145.251857 114.347709 
L 145.408191 117.510232 
L 145.486357 114.209023 
L 145.525441 116.538656 
L 145.642691 114.791196 
L 145.681775 116.156968 
L 145.720858 113.652225 
L 145.799025 116.986103 
L 145.838108 116.154314 
L 145.916275 116.891622 
L 145.955359 114.052822 
L 145.994442 117.503566 
L 146.072609 116.371478 
L 146.111693 117.741251 
L 146.150776 116.607649 
L 146.18986 113.880185 
L 146.228943 117.132248 
L 146.268026 116.010218 
L 146.30711 117.96579 
L 146.346193 116.465805 
L 146.42436 113.808677 
L 146.463444 117.546656 
L 146.541611 117.158082 
L 146.580694 117.068676 
L 146.619777 115.631745 
L 146.658861 115.844074 
L 146.737028 117.64578 
L 146.815195 114.927063 
L 146.854278 117.220285 
L 146.893362 118.012035 
L 147.049695 114.35768 
L 147.127862 113.176438 
L 147.206029 117.624077 
L 147.245113 114.480275 
L 147.32328 115.918539 
L 147.362363 117.274901 
L 147.401446 115.945812 
L 147.479613 115.979086 
L 147.596864 117.130464 
L 147.635947 113.951623 
L 147.675031 116.604574 
L 147.714114 117.458481 
L 147.792281 114.820096 
L 147.831364 115.72124 
L 147.870448 118.852908 
L 147.909531 114.994719 
L 147.948615 114.943595 
L 148.104949 117.592945 
L 148.183115 114.449184 
L 148.222199 118.14258 
L 148.261282 116.136516 
L 148.300366 114.18298 
L 148.339449 115.447406 
L 148.378533 117.143823 
L 148.417616 116.957278 
L 148.4567 114.424337 
L 148.495783 115.275241 
L 148.534867 117.6278 
L 148.57395 117.445517 
L 148.613033 115.442839 
L 148.652117 116.744349 
L 148.6912 117.820762 
L 148.730284 114.475519 
L 148.808451 115.513568 
L 148.847534 116.031139 
L 148.886618 114.291063 
L 148.964784 115.647453 
L 149.003868 116.801843 
L 149.082035 116.067986 
L 149.121118 114.630826 
L 149.160202 115.454591 
L 149.199285 116.386309 
L 149.238369 114.027435 
L 149.277452 115.428846 
L 149.355619 117.497001 
L 149.394702 116.347807 
L 149.433786 116.352971 
L 149.472869 117.571171 
L 149.511953 116.104021 
L 149.551036 115.114854 
L 149.59012 117.491822 
L 149.668287 115.876132 
L 149.785537 117.543217 
L 149.82462 113.221895 
L 149.902787 115.197712 
L 149.941871 118.287046 
L 150.020038 116.038546 
L 150.137288 113.67489 
L 150.293622 117.521885 
L 150.332705 114.271279 
L 150.410872 115.535991 
L 150.489039 115.881781 
L 150.567206 114.139914 
L 150.606289 118.665712 
L 150.684456 117.251292 
L 150.72354 118.851224 
L 150.762623 115.173374 
L 150.84079 116.111622 
L 150.879874 117.269201 
L 150.918957 115.793043 
L 150.95804 114.588998 
L 150.997124 117.288828 
L 151.075291 116.646147 
L 151.114374 116.947785 
L 151.192541 117.059957 
L 151.231625 114.452099 
L 151.348875 116.785714 
L 151.387958 115.921932 
L 151.427042 117.253026 
L 151.466125 118.178628 
L 151.505209 114.987463 
L 151.583376 116.643479 
L 151.622459 115.730896 
L 151.661543 116.403169 
L 151.700626 120.715786 
L 151.739709 117.32485 
L 151.85696 115.616846 
L 151.896043 117.256614 
L 151.935127 114.928594 
L 152.013294 117.367177 
L 152.052377 114.481591 
L 152.130544 116.078776 
L 152.169627 115.840929 
L 152.208711 118.506484 
L 152.286878 117.046217 
L 152.365045 114.512996 
L 152.404128 118.572497 
L 152.443212 113.66607 
L 152.482295 117.310848 
L 152.560462 114.252422 
L 152.599545 116.171942 
L 152.755879 118.309939 
L 152.912213 113.848733 
L 152.951296 117.07775 
L 153.029463 114.463578 
L 153.068547 117.304565 
L 153.10763 114.048062 
L 153.146714 116.939849 
L 153.185797 116.051027 
L 153.224881 117.682096 
L 153.263964 119.090883 
L 153.303047 117.684532 
L 153.342131 116.135928 
L 153.381214 117.95361 
L 153.420298 117.024736 
L 153.459381 117.369817 
L 153.498465 116.975677 
L 153.537548 114.868289 
L 153.576632 116.733428 
L 153.654799 117.651813 
L 153.772049 114.02658 
L 153.850216 116.422251 
L 153.928383 116.151611 
L 153.967466 114.254812 
L 154.00655 115.060057 
L 154.1238 116.948096 
L 154.162883 115.069545 
L 154.24105 115.650887 
L 154.280134 117.853198 
L 154.319217 115.157519 
L 154.358301 117.471825 
L 154.436468 117.929246 
L 154.514634 116.001735 
L 154.553718 115.611051 
L 154.631885 118.349599 
L 154.670968 117.795769 
L 154.827302 115.756028 
L 154.749135 117.823629 
L 154.866385 115.981134 
L 154.944552 118.541606 
L 154.983636 116.429892 
L 155.061803 114.42639 
L 155.13997 113.385392 
L 155.179053 116.694203 
L 155.335387 114.42389 
L 155.452637 118.463093 
L 155.608971 113.939525 
L 155.804388 117.64032 
L 155.882555 116.916976 
L 155.921639 114.474396 
L 155.960722 117.634606 
L 155.999806 117.143975 
L 156.117056 114.062658 
L 156.156139 117.846997 
L 156.195223 113.630897 
L 156.50789 118.978903 
L 156.546974 117.186668 
L 156.703308 114.612438 
L 156.859641 117.113302 
L 156.898725 117.984007 
L 156.937808 116.624746 
L 157.015975 116.730804 
L 157.055059 115.46293 
L 157.094142 116.812387 
L 157.133226 116.333183 
L 157.211392 117.248443 
L 157.250476 113.320699 
L 157.289559 116.318284 
L 157.367726 115.522108 
L 157.40681 116.610553 
L 157.445893 116.265644 
L 157.484977 115.407422 
L 157.52406 115.870094 
L 157.602227 117.083794 
L 157.64131 116.338447 
L 157.680394 114.334341 
L 157.719477 118.196879 
L 157.758561 116.712871 
L 157.797644 114.797371 
L 157.836728 115.91916 
L 157.875811 116.418239 
L 157.914895 114.463439 
L 157.953978 116.42226 
L 157.993061 116.52758 
L 158.032145 116.181996 
L 158.110312 117.375589 
L 158.149395 114.96409 
L 158.188479 117.121426 
L 158.227562 117.884017 
L 158.344813 114.028003 
L 158.422979 117.118462 
L 158.462063 115.414945 
L 158.54023 116.299663 
L 158.618397 113.607842 
L 158.65748 116.637228 
L 158.735647 115.633594 
L 158.813814 116.102221 
L 158.891981 114.062496 
L 158.931064 113.757353 
L 158.970148 117.679802 
L 159.048315 116.34907 
L 159.087398 116.611303 
L 159.165565 117.231377 
L 159.204648 113.837251 
L 159.282815 116.111119 
L 159.321899 115.684604 
L 159.360982 114.836743 
L 159.400066 116.090328 
L 159.478233 116.374435 
L 159.517316 117.040236 
L 159.556399 116.671392 
L 159.634566 113.582195 
L 159.751817 115.04941 
L 159.869067 116.665678 
L 159.947234 115.811728 
L 159.986317 116.098266 
L 160.064484 116.860808 
L 160.103568 113.472624 
L 160.142651 118.027755 
L 160.181735 113.298197 
L 160.220818 116.794575 
L 160.259902 115.387491 
L 160.298985 116.482691 
L 160.338068 116.600527 
L 160.377152 115.114508 
L 160.455319 115.839787 
L 160.494402 116.329196 
L 160.533486 115.77043 
L 160.572569 116.168827 
L 160.650736 115.602218 
L 160.68982 116.481259 
L 160.728903 116.008637 
L 160.767986 115.572513 
L 160.846153 116.802663 
L 160.885237 115.72114 
L 160.92432 116.279646 
L 161.080654 118.188822 
L 161.158821 115.395056 
L 161.197904 116.066211 
L 161.236988 116.972354 
L 161.276071 115.513068 
L 161.315155 116.393499 
L 161.354238 116.913898 
L 161.393322 114.447983 
L 161.432405 114.867241 
L 161.510572 117.196221 
L 161.549655 114.250834 
L 161.627822 116.239784 
L 161.666906 117.980868 
L 161.705989 116.358462 
L 161.745073 116.482535 
L 161.82324 115.706603 
L 161.901406 117.523266 
L 162.018657 114.004819 
L 162.05774 115.2427 
L 162.096824 118.562148 
L 162.174991 116.026008 
L 162.253158 114.595377 
L 162.292241 115.022023 
L 162.370408 116.153263 
L 162.409491 115.670316 
L 162.448575 114.963243 
L 162.526742 114.762451 
L 162.565825 117.801037 
L 162.643992 113.018077 
L 162.683075 115.256841 
L 162.722159 116.171151 
L 162.761242 113.171318 
L 162.800326 117.772787 
L 162.917576 114.684766 
L 162.95666 116.056068 
L 162.995743 116.253369 
L 163.034827 115.544095 
L 163.07391 116.513004 
L 163.112993 116.807496 
L 163.19116 115.040441 
L 163.230244 116.198727 
L 163.308411 118.56174 
L 163.347494 115.209367 
L 163.425661 115.992316 
L 163.464744 116.164904 
L 163.503828 114.897248 
L 163.542911 118.407566 
L 163.581995 117.85627 
L 163.621078 114.737464 
L 163.699245 115.316635 
L 163.777412 118.308471 
L 163.816496 112.988067 
L 163.894662 117.267741 
L 163.933746 116.566124 
L 163.972829 118.909528 
L 164.011913 116.409736 
L 164.050996 116.194541 
L 164.09008 117.114894 
L 164.129163 115.802629 
L 164.168247 112.679595 
L 164.20733 115.643725 
L 164.246413 116.554043 
L 164.32458 117.668678 
L 164.363664 111.756209 
L 164.402747 117.940861 
L 164.480914 116.660352 
L 164.559081 113.388124 
L 164.715415 117.50302 
L 164.871749 114.48924 
L 164.949916 117.269492 
L 164.988999 116.446278 
L 165.028082 114.991275 
L 165.067166 116.918007 
L 165.106249 117.107311 
L 165.145333 115.953082 
L 165.184416 116.946315 
L 165.2235 119.189703 
L 165.262583 117.478314 
L 165.301667 114.54669 
L 165.34075 118.184858 
L 165.379834 116.084844 
L 165.458 116.753382 
L 165.536167 114.377869 
L 165.653418 114.478054 
L 165.731585 118.417727 
L 165.770668 116.213831 
L 165.809751 115.108114 
L 165.848835 118.308655 
L 165.887918 117.01944 
L 165.927002 114.818099 
L 166.005169 115.775524 
L 166.044252 115.781009 
L 166.161503 119.721872 
L 166.239669 115.322904 
L 166.278753 116.857939 
L 166.317836 118.138834 
L 166.35692 116.790315 
L 166.396003 116.583275 
L 166.435087 116.973194 
L 166.47417 116.656042 
L 166.513254 118.104979 
L 166.552337 115.926329 
L 166.630504 117.855144 
L 166.669587 115.550093 
L 166.747754 116.615416 
L 166.865005 115.003792 
L 166.943172 116.819998 
L 166.982255 114.522401 
L 167.021338 117.091231 
L 167.060422 116.18113 
L 167.099505 118.474958 
L 167.138589 118.199803 
L 167.177672 114.730174 
L 167.255839 116.028634 
L 167.334006 117.763596 
L 167.373089 116.659431 
L 167.412173 115.550705 
L 167.529423 121.183517 
L 167.60759 119.750452 
L 167.646674 121.769958 
L 167.724841 121.285009 
L 167.763924 119.051361 
L 167.842091 120.881532 
L 167.959341 118.614938 
L 167.998425 118.822659 
L 168.154758 121.344358 
L 168.232925 121.411815 
L 168.272009 117.260285 
L 168.311092 120.951309 
L 168.389259 120.80122 
L 168.467426 118.406579 
L 168.545593 119.415484 
L 168.584676 120.074149 
L 168.62376 118.471999 
L 168.662843 119.220177 
L 168.701927 121.647887 
L 168.74101 119.541494 
L 168.780094 118.472138 
L 168.858261 119.278137 
L 168.936427 120.613793 
L 168.975511 120.329298 
L 169.092761 118.573641 
L 169.170928 121.072515 
L 169.210012 119.907681 
L 169.288179 118.359855 
L 169.366345 122.001186 
L 169.405429 119.362863 
L 169.444512 119.118523 
L 169.483596 119.318369 
L 169.522679 116.929838 
L 169.561763 119.475411 
L 169.600846 121.041378 
L 169.63993 119.594874 
L 169.679013 117.707607 
L 169.718096 119.796935 
L 169.75718 118.906192 
L 169.796263 118.37155 
L 169.835347 120.686197 
L 169.913514 120.165799 
L 169.991681 121.447349 
L 170.030764 120.425726 
L 170.108931 120.963674 
L 170.148014 119.484657 
L 170.187098 121.731156 
L 170.226181 119.781252 
L 170.265265 119.810388 
L 170.304348 119.322358 
L 170.343432 119.914477 
L 170.382515 121.416335 
L 170.421599 117.051832 
L 170.499765 118.255881 
L 170.538849 120.95772 
L 170.617016 119.355881 
L 170.656099 118.370628 
L 170.734266 118.538355 
L 170.812433 120.904999 
L 170.851517 118.663192 
L 170.929683 119.631307 
L 170.968767 118.786542 
L 171.046934 120.959856 
L 171.086017 120.201424 
L 171.125101 120.266166 
L 171.164184 121.013985 
L 171.203268 119.654227 
L 171.281434 118.559152 
L 171.359601 121.701374 
L 171.398685 120.105363 
L 171.437768 119.932158 
L 171.476852 120.035084 
L 171.515935 121.028217 
L 171.594102 115.872497 
L 171.633186 119.816801 
L 171.672269 119.973586 
L 171.750436 120.043068 
L 171.828603 118.433255 
L 171.90677 120.151379 
L 171.984937 115.989012 
L 172.02402 122.157967 
L 172.102187 120.112227 
L 172.180354 120.009257 
L 172.219437 120.788622 
L 172.258521 118.837192 
L 172.336688 119.483265 
L 172.375771 120.394569 
L 172.414855 119.717737 
L 172.453938 117.139354 
L 172.493021 119.132292 
L 172.571188 119.479659 
L 172.649355 118.541996 
L 172.688439 118.905652 
L 172.766606 119.738416 
L 172.844772 116.317881 
L 172.883856 121.360127 
L 172.962023 119.912469 
L 173.04019 119.023996 
L 173.079273 120.837857 
L 173.118357 117.558374 
L 173.235607 120.893298 
L 173.27469 119.598073 
L 173.431024 118.652897 
L 173.587358 120.661811 
L 173.626441 117.835904 
L 173.665525 120.967758 
L 173.704608 119.501166 
L 173.743692 118.702605 
L 173.782775 120.795317 
L 173.821859 117.68505 
L 173.860942 119.312521 
L 173.939109 119.566328 
L 173.978193 118.535759 
L 174.056359 119.679081 
L 174.095443 119.612125 
L 174.17361 119.370607 
L 174.251777 120.215495 
L 174.29086 118.695462 
L 174.329944 120.564454 
L 174.369027 119.289914 
L 174.447194 118.680844 
L 174.603528 121.367213 
L 174.642611 117.989068 
L 174.720778 119.561397 
L 174.759862 118.637166 
L 174.798945 121.427103 
L 174.838028 120.481888 
L 174.916195 117.846929 
L 174.994362 118.438033 
L 175.072529 119.134725 
L 175.150696 119.406206 
L 175.189779 117.758278 
L 175.346113 119.855389 
L 175.385197 118.597929 
L 175.42428 118.776098 
L 175.502447 120.077858 
L 175.619697 117.64695 
L 175.736948 119.420236 
L 175.776031 118.488049 
L 175.815115 121.18039 
L 175.854198 118.003752 
L 175.932365 119.673387 
L 175.971448 118.233143 
L 176.010532 118.266808 
L 176.049615 121.060601 
L 176.088699 118.842278 
L 176.127782 117.322563 
L 176.166866 121.16034 
L 176.245033 118.744031 
L 176.3232 121.355678 
L 176.401366 116.768039 
L 176.44045 118.221933 
L 176.596784 120.73727 
L 176.714034 119.316258 
L 176.753117 119.490015 
L 176.792201 119.017285 
L 176.831284 119.633276 
L 176.870368 121.332735 
L 176.909451 117.571117 
L 176.987618 119.680276 
L 177.026702 118.268605 
L 177.065785 119.503073 
L 177.104869 119.941893 
L 177.183035 119.632916 
L 177.222119 118.922974 
L 177.339369 121.419419 
L 177.45662 118.541964 
L 177.534786 120.248503 
L 177.57387 120.03666 
L 177.612953 117.386651 
L 177.69112 119.543077 
L 177.769287 120.256194 
L 177.808371 119.608242 
L 177.847454 117.513606 
L 177.925621 119.270971 
L 178.003788 116.611572 
L 178.042871 119.359779 
L 178.121038 119.350332 
L 178.199205 117.828318 
L 178.238289 118.984728 
L 178.277372 119.300673 
L 178.394622 117.553388 
L 178.433706 119.74302 
L 178.511873 118.083392 
L 178.629123 119.303172 
L 178.668207 117.690814 
L 178.70729 119.806165 
L 178.746373 120.962625 
L 178.785457 119.138015 
L 178.863624 116.865954 
L 178.941791 121.111207 
L 178.980874 116.904507 
L 179.019958 121.560196 
L 179.059041 117.922691 
L 179.176291 119.4364 
L 179.215375 118.456923 
L 179.254458 119.326463 
L 179.332625 120.028428 
L 179.371709 118.220296 
L 179.410792 120.101945 
L 179.449876 119.206818 
L 179.488959 120.359907 
L 179.528042 118.062428 
L 179.606209 119.120687 
L 179.645293 119.977479 
L 179.72346 119.65017 
L 179.762543 118.367509 
L 179.84071 119.192485 
L 179.95796 118.511692 
L 179.997044 118.666201 
L 180.036127 121.881372 
L 180.075211 120.464377 
L 180.114294 118.370038 
L 180.192461 118.999834 
L 180.231545 120.812228 
L 180.270628 116.253247 
L 180.348795 119.161592 
L 180.505129 117.927665 
L 180.544212 121.877396 
L 180.622379 120.365224 
L 180.700546 118.237126 
L 180.739629 119.796072 
L 180.817796 120.347343 
L 180.895963 118.325322 
L 181.013214 121.298005 
L 180.97413 118.129433 
L 181.052297 120.391438 
L 181.09138 119.126081 
L 181.130464 121.626811 
L 181.169547 118.855978 
L 181.208631 120.26587 
L 181.325881 116.704769 
L 181.443132 120.921687 
L 181.560382 118.965303 
L 181.599465 119.181154 
L 181.716716 117.921631 
L 181.755799 118.285138 
L 181.912133 120.621481 
L 181.951216 120.830192 
L 181.9903 119.029677 
L 182.068467 119.219493 
L 182.10755 119.193844 
L 182.146634 119.757276 
L 182.263884 117.94787 
L 182.302967 119.613847 
L 182.342051 116.074242 
L 182.420218 117.885243 
L 182.459301 120.378916 
L 182.498385 117.290848 
L 182.537468 116.433705 
L 182.654718 120.107395 
L 182.732885 121.001326 
L 182.771969 118.810387 
L 182.811052 119.798068 
L 182.850136 118.030778 
L 182.889219 118.805746 
L 182.928303 117.991836 
L 182.967386 117.606654 
L 183.00647 118.131986 
L 183.045553 118.35658 
L 183.084636 119.690736 
L 183.12372 119.605935 
L 183.162803 116.587771 
L 183.201887 119.839956 
L 183.24097 120.163877 
L 183.358221 116.309497 
L 183.397304 118.08496 
L 183.436387 118.40874 
L 183.475471 117.289161 
L 183.514554 121.512162 
L 183.592721 119.05689 
L 183.631805 119.566238 
L 183.670888 118.861175 
L 183.749055 118.149844 
L 183.788139 119.726414 
L 183.827222 117.505669 
L 183.866305 119.543744 
L 183.905389 119.013009 
L 183.944472 119.196383 
L 183.983556 120.230519 
L 184.022639 117.407403 
L 184.061723 121.661266 
L 184.178973 118.271125 
L 184.218056 119.551493 
L 184.296223 119.463215 
L 184.413474 121.407762 
L 184.530724 116.182844 
L 184.687058 120.603114 
L 184.804308 117.39907 
L 184.882475 120.687271 
L 184.921559 118.155988 
L 184.999725 116.066326 
L 185.038809 120.726024 
L 185.116976 119.782987 
L 185.156059 119.575144 
L 185.195143 119.73428 
L 185.234226 119.968313 
L 185.312393 118.048921 
L 185.351477 118.956949 
L 185.39056 119.796976 
L 185.429643 117.892955 
L 185.50781 119.433418 
L 185.625061 115.365779 
L 185.585977 119.718298 
L 185.664144 117.932935 
L 185.703228 118.8198 
L 185.781394 118.756818 
L 185.820478 117.956653 
L 185.859561 118.079216 
L 185.898645 120.88094 
L 185.976812 120.326137 
L 186.133146 118.25909 
L 186.172229 118.536749 
L 186.211312 119.686674 
L 186.250396 117.871375 
L 186.328563 117.722303 
L 186.40673 120.023078 
L 186.563063 117.433469 
L 186.602147 118.043224 
L 186.64123 120.396522 
L 186.680314 118.745541 
L 186.758481 117.703782 
L 186.836648 120.093525 
L 186.875731 117.501419 
L 186.953898 118.611046 
L 187.110232 119.381344 
L 187.149315 119.147094 
L 187.188399 119.413578 
L 187.227482 116.952677 
L 187.305649 118.670962 
L 187.461983 120.548645 
L 187.6574 118.739961 
L 187.696484 119.995946 
L 187.77465 119.319201 
L 187.813734 119.299607 
L 187.970068 117.733971 
L 188.126401 120.566005 
L 188.204568 121.161665 
L 188.243652 117.213899 
L 188.282735 119.621378 
L 188.360902 118.723438 
L 188.399986 117.391852 
L 188.439069 118.799413 
L 188.478153 118.213151 
L 188.634486 119.665643 
L 188.67357 118.582013 
L 188.751737 119.388462 
L 188.90807 117.08128 
L 189.025321 117.096305 
L 189.181655 119.986084 
L 189.259822 119.089327 
L 189.298905 120.366396 
L 189.337988 118.029884 
L 189.455239 120.086957 
L 189.494322 118.464652 
L 189.572489 119.374167 
L 189.650656 117.589396 
L 189.689739 118.410097 
L 189.767906 117.619438 
L 189.846073 120.592699 
L 189.92424 118.20636 
L 189.963324 118.814446 
L 190.002407 117.976805 
L 190.041491 121.06371 
L 190.080574 120.090295 
L 190.119657 116.717598 
L 190.197824 118.749947 
L 190.236908 117.411658 
L 190.275991 119.37408 
L 190.315075 118.512684 
L 190.354158 119.239351 
L 190.393242 118.308255 
L 190.432325 116.4648 
L 190.471408 120.08663 
L 190.549575 117.400694 
L 190.705909 119.868007 
L 190.784076 118.801839 
L 190.82316 117.79398 
L 190.862243 120.75371 
L 190.901326 119.012277 
L 190.94041 117.55315 
L 190.979493 120.005154 
L 191.018577 119.908835 
L 191.096744 118.543489 
L 191.174911 120.013657 
L 191.292161 116.86808 
L 191.370328 120.14772 
L 191.409411 119.184879 
L 191.448495 116.916903 
L 191.526662 118.761223 
L 191.565745 117.258331 
L 191.604829 117.500653 
L 191.722079 120.707301 
L 191.761162 117.048169 
L 191.839329 119.048153 
L 191.878413 121.207714 
L 191.917496 119.816159 
L 192.034746 118.276869 
L 192.07383 119.857507 
L 192.151997 119.001951 
L 192.19108 117.64346 
L 192.230164 119.117394 
L 192.308331 120.987055 
L 192.386498 121.876591 
L 192.425581 117.55221 
L 192.464664 119.500353 
L 192.542831 118.447723 
L 192.581915 119.0451 
L 192.620998 118.82539 
L 192.660082 117.409313 
L 192.699165 118.570839 
L 192.738249 119.035416 
L 192.777332 118.613729 
L 192.816415 118.600959 
L 192.972749 121.090789 
L 193.050916 117.337143 
L 193.09 121.029477 
L 193.168167 120.091745 
L 193.20725 117.878847 
L 193.285417 119.302059 
L 193.363584 117.818311 
L 193.402667 119.35056 
L 193.441751 118.770535 
L 193.559001 117.815613 
L 193.598084 120.240656 
L 193.676251 119.346041 
L 193.715335 117.720144 
L 193.793502 118.15896 
L 193.832585 119.915951 
L 193.871669 119.590518 
L 193.949836 119.918984 
L 193.988919 117.444714 
L 194.028002 119.506813 
L 194.067086 116.798773 
L 194.106169 118.938993 
L 194.145253 118.78922 
L 194.184336 118.132319 
L 194.22342 120.097609 
L 194.262503 117.882115 
L 194.301587 117.995489 
L 194.34067 120.263416 
L 194.418837 119.556232 
L 194.45792 119.4397 
L 194.497004 119.805769 
L 194.536087 119.279128 
L 194.575171 117.392702 
L 194.653338 118.449632 
L 194.692421 120.071638 
L 194.731505 117.531944 
L 194.770588 119.876117 
L 194.809671 119.140239 
L 194.848755 119.369081 
L 194.887838 121.056314 
L 194.926922 118.586105 
L 194.966005 117.403823 
L 195.005089 121.318197 
L 195.083256 118.987032 
L 195.122339 119.227499 
L 195.161422 119.148794 
L 195.317756 117.206856 
L 195.47409 120.508373 
L 195.630424 115.046134 
L 195.669507 119.230856 
L 195.747674 116.589721 
L 195.825841 120.675765 
L 195.904008 118.802292 
L 195.943091 119.174335 
L 196.021258 117.330223 
L 196.060342 119.591685 
L 196.099425 119.209962 
L 196.138509 117.167029 
L 196.177592 118.317825 
L 196.255759 119.980848 
L 196.294843 119.07489 
L 196.333926 114.830921 
L 196.412093 118.210359 
L 196.568427 120.589403 
L 196.685677 118.195899 
L 196.72476 119.05694 
L 196.763844 117.805768 
L 196.802927 118.584711 
L 196.842011 118.300846 
L 196.881094 119.707996 
L 196.959261 119.108803 
L 197.037428 118.889373 
L 197.076512 118.202538 
L 197.115595 118.944755 
L 197.154678 119.089742 
L 197.193762 119.064892 
L 197.232845 120.469735 
L 197.271929 118.796465 
L 197.350096 116.874061 
L 197.428263 120.69164 
L 197.467346 118.644467 
L 197.506429 120.865939 
L 197.545513 119.201267 
L 197.584596 118.804173 
L 197.62368 120.238016 
L 197.701847 119.084216 
L 197.780014 117.307906 
L 197.819097 118.255683 
L 197.975431 119.741273 
L 198.014514 117.513025 
L 198.092681 118.969727 
L 198.131765 120.187334 
L 198.170848 115.858584 
L 198.249015 117.775742 
L 198.288098 117.80344 
L 198.327182 119.390687 
L 198.366265 118.235357 
L 198.444432 118.000472 
L 198.522599 119.947721 
L 198.561683 119.562358 
L 198.600766 119.821066 
L 198.678933 116.991674 
L 198.718016 119.873752 
L 198.796183 118.799294 
L 198.913434 118.693379 
L 198.952517 115.440303 
L 198.991601 120.076829 
L 199.030684 117.541298 
L 199.108851 116.945732 
L 199.147934 118.475161 
L 199.187018 116.313058 
L 199.226101 118.263578 
L 199.304268 117.298754 
L 199.460602 122.591694 
L 199.616936 120.910193 
L 199.77327 122.445975 
L 199.812353 121.528865 
L 199.851436 122.449339 
L 199.89052 123.161623 
L 200.00777 120.522837 
L 200.085937 120.392062 
L 200.164104 122.628382 
L 200.203188 121.615887 
L 200.242271 124.225705 
L 200.320438 122.210411 
L 200.359521 122.199541 
L 200.437688 123.76206 
L 200.515855 120.20709 
L 200.594022 121.241116 
L 200.633105 123.961372 
L 200.711272 122.618005 
L 200.750356 122.002674 
L 200.789439 123.50348 
L 200.828523 121.277439 
L 200.867606 121.180029 
L 200.984857 123.304668 
L 201.02394 122.603329 
L 201.063023 120.90004 
L 201.14119 122.332924 
L 201.180274 123.82891 
L 201.258441 122.951295 
L 201.336608 122.37953 
L 201.375691 124.003391 
L 201.414774 122.646767 
L 201.492941 122.928592 
L 201.571108 121.798379 
L 201.688359 123.147747 
L 201.805609 121.267902 
L 201.844692 122.632569 
L 201.922859 121.59586 
L 202.001026 120.95623 
L 202.15736 122.670369 
L 202.196443 121.863408 
L 202.235527 123.553187 
L 202.27461 120.270577 
L 202.352777 121.156794 
L 202.391861 122.947753 
L 202.430944 121.064192 
L 202.470028 122.135488 
L 202.509111 121.022519 
L 202.548195 122.605038 
L 202.587278 122.877097 
L 202.665445 121.418064 
L 202.704528 122.645291 
L 202.743612 124.148479 
L 202.782695 123.201261 
L 202.860862 122.252287 
L 202.899946 122.902655 
L 202.939029 123.712824 
L 202.978112 122.795297 
L 203.017196 122.483264 
L 203.056279 123.289471 
L 203.095363 122.350099 
L 203.134446 120.511085 
L 203.17353 123.817152 
L 203.29078 121.487029 
L 203.368947 125.635903 
L 203.40803 122.243694 
L 203.447114 123.499557 
L 203.486197 123.257401 
L 203.564364 121.502903 
L 203.642531 121.60807 
L 203.681615 121.792163 
L 203.720698 124.250549 
L 203.798865 123.093306 
L 203.837948 121.583778 
L 203.916115 121.945447 
L 203.994282 122.538005 
L 204.072449 122.365158 
L 204.189699 121.350199 
L 204.228783 123.301822 
L 204.267866 119.730104 
L 204.30695 122.930583 
L 204.346033 123.492136 
L 204.463284 121.835451 
L 204.502367 124.219883 
L 204.54145 121.505068 
L 204.658701 123.947686 
L 204.697784 123.553029 
L 204.775951 121.944463 
L 204.815035 123.227939 
L 204.971368 120.154609 
L 205.127702 123.314838 
L 205.244953 120.147769 
L 205.284036 121.81402 
L 205.323119 121.861059 
L 205.362203 121.81642 
L 205.401286 121.13285 
L 205.44037 122.303047 
L 205.479453 124.023903 
L 205.55762 123.855714 
L 205.713954 120.476505 
L 205.753037 122.79762 
L 205.831204 122.604916 
L 205.870288 122.187555 
L 205.987538 123.20645 
L 206.065705 123.685092 
L 206.104788 122.328949 
L 206.143872 123.183401 
L 206.182955 121.182743 
L 206.222039 122.997048 
L 206.261122 123.27689 
L 206.300206 120.688916 
L 206.378373 122.313985 
L 206.534706 123.969742 
L 206.612873 121.263187 
L 206.69104 122.722074 
L 206.769207 121.840284 
L 206.925541 123.463451 
L 207.081875 121.714651 
L 207.199125 122.761989 
L 207.238209 121.171734 
L 207.277292 121.305183 
L 207.316375 123.792714 
L 207.394542 122.721775 
L 207.433626 123.669238 
L 207.472709 123.619169 
L 207.511793 122.461893 
L 207.550876 123.008553 
L 207.58996 124.210705 
L 207.629043 121.318627 
L 207.70721 122.277945 
L 207.746293 122.627983 
L 207.785377 121.554973 
L 207.82446 122.865169 
L 207.863544 122.176317 
L 207.902627 123.171087 
L 207.941711 123.068473 
L 208.058961 121.743953 
L 208.176211 123.636414 
L 208.215295 121.257821 
L 208.293462 122.409893 
L 208.371629 121.285019 
L 208.410712 124.512104 
L 208.488879 122.669138 
L 208.527962 121.265711 
L 208.567046 123.295801 
L 208.606129 122.353752 
L 208.645213 121.134048 
L 208.684296 123.933085 
L 208.762463 122.24079 
L 208.801547 123.103481 
L 208.84063 122.038813 
L 208.918797 122.21003 
L 208.95788 121.598236 
L 208.996964 121.640191 
L 209.075131 123.988732 
L 209.114214 122.880398 
L 209.153298 121.657408 
L 209.231465 122.244918 
L 209.309631 121.885678 
L 209.348715 123.184862 
L 209.387798 121.271706 
L 209.426882 122.230423 
L 209.544132 123.527677 
L 209.700466 120.884321 
L 209.778633 123.633388 
L 209.817716 120.759236 
L 209.895883 122.220043 
L 209.934967 124.344136 
L 209.97405 122.122854 
L 210.013134 119.507922 
L 210.0913 121.280373 
L 210.130384 123.206389 
L 210.208551 122.705061 
L 210.286718 122.810492 
L 210.325801 121.841375 
L 210.364885 122.071401 
L 210.403968 121.113571 
L 210.443051 123.674352 
L 210.482135 122.755387 
L 210.521218 120.932265 
L 210.599385 121.938642 
L 210.677552 121.702054 
L 210.755719 124.042716 
L 210.833886 121.568723 
L 210.872969 123.935637 
L 210.951136 122.576655 
L 211.029303 124.021014 
L 211.068387 121.023598 
L 211.146554 122.035042 
L 211.185637 122.471422 
L 211.22472 121.833586 
L 211.263804 121.739013 
L 211.341971 123.762516 
L 211.381054 121.339211 
L 211.459221 121.760757 
L 211.498305 121.536981 
L 211.615555 123.481536 
L 211.693722 122.065816 
L 211.732805 124.203881 
L 211.771889 121.235918 
L 211.810972 122.925349 
L 211.889139 122.018374 
L 211.928223 123.3291 
L 211.967306 121.34509 
L 212.006389 121.46166 
L 212.12364 122.693562 
L 212.162723 121.439063 
L 212.24089 122.382013 
L 212.279974 123.205609 
L 212.319057 123.092733 
L 212.358141 122.229839 
L 212.397224 122.397919 
L 212.436307 123.83933 
L 212.475391 123.268713 
L 212.514474 122.168037 
L 212.553558 124.12114 
L 212.592641 124.299781 
L 212.631725 122.280321 
L 212.670808 123.063055 
L 212.709892 124.751146 
L 212.748975 123.670151 
L 212.905309 120.251443 
L 212.983476 123.452451 
L 213.022559 122.73687 
L 213.061643 120.923371 
L 213.13981 121.98476 
L 213.178893 124.103111 
L 213.25706 123.58346 
L 213.37431 120.828283 
L 213.413394 123.195859 
L 213.491561 122.79064 
L 213.530644 122.488599 
L 213.569727 123.839404 
L 213.608811 121.57227 
L 213.647894 121.143085 
L 213.686978 121.709447 
L 213.765145 123.753984 
L 213.843312 123.53917 
L 213.882395 121.319976 
L 213.960562 121.947001 
L 214.038729 123.036623 
L 214.077812 122.897386 
L 214.116896 122.408377 
L 214.155979 123.383781 
L 214.195063 122.232016 
L 214.234146 122.148129 
L 214.27323 122.622489 
L 214.312313 118.944758 
L 214.39048 121.612172 
L 214.585897 123.575619 
L 214.624981 123.472727 
L 214.664064 122.330815 
L 214.703148 123.724287 
L 214.742231 122.726467 
L 214.781314 123.305688 
L 214.937648 121.566744 
L 214.976732 121.907321 
L 215.015815 124.211732 
L 215.093982 122.621687 
L 215.172149 124.124056 
L 215.211232 121.442416 
L 215.289399 123.1378 
L 215.328483 123.290541 
L 215.445733 121.367663 
L 215.484817 124.577637 
L 215.5239 121.356977 
L 215.562983 122.784975 
L 215.602067 123.036697 
L 215.758401 120.80183 
L 215.914734 122.909824 
L 215.953818 121.602215 
L 215.992901 122.415879 
L 216.071068 123.244095 
L 216.110152 122.312922 
L 216.188319 122.76917 
L 216.227402 122.982341 
L 216.305569 123.309021 
L 216.422819 120.570512 
L 216.579153 123.310251 
L 216.618237 121.332158 
L 216.65732 121.346192 
L 216.696403 123.654594 
L 216.77457 122.682475 
L 216.813654 121.61806 
L 216.852737 124.360758 
L 216.891821 120.949713 
L 216.930904 121.869931 
L 216.969988 120.095093 
L 217.009071 122.44256 
L 217.048155 121.468579 
L 217.087238 122.903013 
L 217.126321 120.101159 
L 217.165405 121.438848 
L 217.204488 123.430839 
L 217.282655 123.189094 
L 217.321739 121.649093 
L 217.360822 123.391454 
L 217.399906 122.365608 
L 217.438989 122.040279 
L 217.478072 120.773494 
L 217.517156 122.456861 
L 217.556239 124.19786 
L 217.595323 120.736226 
L 217.67349 122.281808 
L 217.712573 122.355675 
L 217.751657 122.096624 
L 217.79074 122.855635 
L 217.829824 121.383135 
L 217.90799 122.448915 
L 218.025241 120.903681 
L 218.064324 123.234206 
L 218.142491 122.567358 
L 218.181575 121.402906 
L 218.220658 122.677811 
L 218.259741 124.023826 
L 218.298825 123.184364 
L 218.376992 120.576099 
L 218.455159 121.586111 
L 218.494242 123.658512 
L 218.533326 121.470827 
L 218.572409 122.563485 
L 218.611493 122.705555 
L 218.650576 120.310238 
L 218.689659 123.417741 
L 218.767826 122.57773 
L 218.80691 124.197682 
L 218.885077 123.457184 
L 218.963244 121.773547 
L 219.04141 122.001112 
L 219.119577 123.807667 
L 219.197744 122.788038 
L 219.236828 122.715899 
L 219.275911 122.756874 
L 219.314995 119.969259 
L 219.354078 121.679516 
L 219.471328 123.0249 
L 219.510412 122.034057 
L 219.588579 122.738915 
L 219.627662 122.355586 
L 219.666746 124.42976 
L 219.705829 123.266491 
L 219.783996 121.070913 
L 219.901246 121.846952 
L 219.979413 122.816478 
L 220.018497 122.616775 
L 220.096664 121.130481 
L 220.135747 121.900706 
L 220.174831 123.332293 
L 220.213914 122.049723 
L 220.252997 121.388394 
L 220.292081 123.06711 
L 220.331164 122.273788 
L 220.370248 120.950457 
L 220.409331 122.79395 
L 220.448415 121.521192 
L 220.526582 123.851258 
L 220.565665 119.949345 
L 220.643832 121.978539 
L 220.682915 123.045558 
L 220.721999 121.461746 
L 220.761082 120.735316 
L 220.800166 122.111859 
L 220.878333 122.044984 
L 220.917416 122.260881 
L 220.9565 120.719384 
L 220.995583 122.937215 
L 221.034666 121.668736 
L 221.151917 123.174539 
L 221.191 121.488917 
L 221.230084 122.72713 
L 221.269167 123.170038 
L 221.347334 121.575392 
L 221.386417 124.126884 
L 221.425501 122.462801 
L 221.542751 121.465991 
L 221.581835 122.673697 
L 221.620918 121.227371 
L 221.660002 121.729486 
L 221.738169 122.430744 
L 221.777252 122.052477 
L 221.816335 121.055933 
L 221.855419 122.602418 
L 221.894502 122.507548 
L 221.972669 121.324981 
L 222.011753 123.493381 
L 222.08992 122.615061 
L 222.129003 123.284108 
L 222.168086 121.006314 
L 222.20717 121.334655 
L 222.246253 123.261789 
L 222.285337 122.74462 
L 222.363504 121.358514 
L 222.441671 123.639368 
L 222.480754 121.938472 
L 222.519838 122.013341 
L 222.558921 123.490669 
L 222.598004 121.342243 
L 222.637088 122.095953 
L 222.676171 120.624676 
L 222.715255 122.251947 
L 222.754338 122.436826 
L 222.832505 122.245013 
L 222.910672 124.133805 
L 222.949755 121.160669 
L 222.988839 124.656347 
L 223.027922 123.287583 
L 223.067006 123.092944 
L 223.145173 124.039086 
L 223.184256 123.866363 
L 223.22334 121.623472 
L 223.301507 122.724016 
L 223.34059 122.662399 
L 223.379673 121.714646 
L 223.45784 121.784738 
L 223.575091 122.542641 
L 223.614174 121.355491 
L 223.653258 124.37947 
L 223.731424 122.431307 
L 223.809591 121.225522 
L 223.848675 123.166351 
L 223.887758 121.933121 
L 223.926842 120.218885 
L 223.965925 123.230787 
L 224.005009 120.848357 
L 224.044092 120.197279 
L 224.161342 123.393741 
L 224.200426 123.018325 
L 224.278593 121.62024 
L 224.317676 123.328401 
L 224.35676 122.921036 
L 224.47401 121.539644 
L 224.513093 121.639062 
L 224.59126 123.151376 
L 224.630344 121.635173 
L 224.669427 121.741301 
L 224.825761 123.688811 
L 225.021178 121.339979 
L 225.138429 123.171038 
L 225.255679 121.344984 
L 225.294762 123.674303 
L 225.333846 122.047338 
L 225.372929 121.118646 
L 225.451096 121.75431 
L 225.529263 121.056777 
L 225.60743 122.82296 
L 225.646514 121.465287 
L 225.802847 123.286105 
L 225.841931 122.178469 
L 225.881014 124.142568 
L 225.920098 122.64759 
L 225.959181 123.465547 
L 225.998265 120.485109 
L 226.037348 121.770893 
L 226.154598 123.662164 
L 226.310932 121.445219 
L 226.350016 123.199927 
L 226.389099 121.153649 
L 226.428183 120.903713 
L 226.467266 122.816467 
L 226.545433 121.767338 
L 226.6236 121.236519 
L 226.662683 122.453561 
L 226.701767 121.646694 
L 226.74085 124.175083 
L 226.779934 122.581484 
L 226.8581 121.559858 
L 226.936267 123.507449 
L 226.975351 120.900035 
L 227.053518 122.513745 
L 227.092601 122.261795 
L 227.170768 121.011485 
L 227.209852 121.82876 
L 227.366185 124.223916 
L 227.444352 120.131561 
L 227.483436 120.990068 
L 227.639769 123.264811 
L 227.678853 121.618904 
L 227.75702 121.633855 
L 227.796103 125.146281 
L 227.835187 122.410374 
L 227.913354 121.561846 
L 227.952437 121.785118 
L 228.030604 124.491531 
L 228.069687 120.76423 
L 228.147854 123.042037 
L 228.226021 123.573765 
L 228.304188 120.606967 
L 228.382355 120.489116 
L 228.421438 124.106757 
L 228.460522 119.933346 
L 228.538689 122.145586 
L 228.577772 122.868018 
L 228.616856 120.211075 
L 228.655939 122.315324 
L 228.695023 123.599093 
L 228.734106 121.988468 
L 228.812273 122.237161 
L 228.851356 121.029601 
L 228.968607 122.701718 
L 229.046774 123.177391 
L 229.085857 121.394246 
L 229.164024 122.949159 
L 229.242191 122.745128 
L 229.320358 120.990321 
L 229.398525 122.64952 
L 229.437608 122.378738 
L 229.476692 122.559128 
L 229.554859 120.94639 
L 229.593942 121.658828 
L 229.672109 123.175315 
L 229.750276 122.209584 
L 229.789359 120.8866 
L 229.828443 122.119931 
L 229.867526 122.551953 
L 229.984776 119.849288 
L 230.02386 123.43831 
L 230.102027 122.946043 
L 230.180194 121.845662 
L 230.219277 123.327063 
L 230.258361 123.127008 
L 230.297444 121.981248 
L 230.336528 121.990431 
L 230.375611 123.073706 
L 230.414694 121.654087 
L 230.453778 122.979109 
L 230.492861 120.241339 
L 230.531945 121.079254 
L 230.571028 122.753876 
L 230.649195 122.245409 
L 230.688279 121.421912 
L 230.805529 124.094712 
L 230.883696 120.874545 
L 230.922779 123.714106 
L 231.079113 120.381155 
L 231.15728 124.470354 
L 231.196363 122.55179 
L 231.352697 124.476602 
L 231.509031 121.737129 
L 231.548114 124.067527 
L 231.626281 123.257996 
L 231.704448 122.347112 
L 231.743532 124.783925 
L 231.821699 123.193923 
L 231.860782 123.728324 
L 231.899866 125.850722 
L 231.938949 125.324725 
L 231.978032 123.416955 
L 232.056199 124.606225 
L 232.134366 123.671778 
L 232.212533 125.661607 
L 232.368867 122.816866 
L 232.40795 123.072001 
L 232.486117 125.523684 
L 232.525201 125.154378 
L 232.564284 123.563435 
L 232.642451 124.223309 
L 232.759701 122.624972 
L 232.798785 124.711027 
L 232.837868 124.33089 
L 232.876952 122.822234 
L 232.916035 124.803861 
L 232.955119 122.858764 
L 232.994202 124.70954 
L 233.072369 124.252154 
L 233.111452 124.074049 
L 233.150536 124.254756 
L 233.189619 125.221638 
L 233.228703 122.952527 
L 233.267786 124.018367 
L 233.30687 125.289755 
L 233.385037 124.743121 
L 233.42412 125.411077 
L 233.463204 124.300882 
L 233.54137 123.875264 
L 233.580454 125.471857 
L 233.619537 124.105968 
L 233.658621 123.746505 
L 233.697704 122.103629 
L 233.736788 123.571858 
L 233.775871 125.171854 
L 233.854038 124.064742 
L 233.971288 123.506043 
L 234.049455 124.330559 
L 234.088539 125.741763 
L 234.127622 123.876989 
L 234.166706 125.568542 
L 234.205789 123.486542 
L 234.283956 123.762476 
L 234.362123 125.009068 
L 234.401206 122.548069 
L 234.44029 124.190171 
L 234.479373 124.919492 
L 234.518457 124.860711 
L 234.596624 125.254641 
L 234.635707 123.347353 
L 234.713874 124.618798 
L 234.752957 123.728252 
L 234.831124 123.327114 
L 234.870208 124.493553 
L 234.948375 123.953542 
L 234.987458 124.303052 
L 235.026542 123.66045 
L 235.065625 122.00144 
L 235.065625 122.00144 
" style="fill:none;stroke:#1f77b4;stroke-linecap:square;stroke-width:1.5;"/>
   </g>
   <g id="patch_3">
    <path d="M 39.765625 139.699219 
L 39.765625 3.799219 
" style="fill:none;stroke:#000000;stroke-linecap:square;stroke-linejoin:miter;stroke-width:0.8;"/>
   </g>
   <g id="patch_4">
    <path d="M 235.065625 139.699219 
L 235.065625 3.799219 
" style="fill:none;stroke:#000000;stroke-linecap:square;stroke-linejoin:miter;stroke-width:0.8;"/>
   </g>
   <g id="patch_5">
    <path d="M 39.765625 139.699219 
L 235.065625 139.699219 
" style="fill:none;stroke:#000000;stroke-linecap:square;stroke-linejoin:miter;stroke-width:0.8;"/>
   </g>
   <g id="patch_6">
    <path d="M 39.765625 3.799219 
L 235.065625 3.799219 
" style="fill:none;stroke:#000000;stroke-linecap:square;stroke-linejoin:miter;stroke-width:0.8;"/>
   </g>
   <g id="legend_1">
    <g id="patch_7">
     <path d="M 172.790625 26.477344 
L 228.065625 26.477344 
Q 230.065625 26.477344 230.065625 24.477344 
L 230.065625 10.799219 
Q 230.065625 8.799219 228.065625 8.799219 
L 172.790625 8.799219 
Q 170.790625 8.799219 170.790625 10.799219 
L 170.790625 24.477344 
Q 170.790625 26.477344 172.790625 26.477344 
z
" style="fill:#ffffff;opacity:0.8;stroke:#cccccc;stroke-linejoin:miter;"/>
    </g>
    <g id="line2d_22">
     <path d="M 174.790625 16.897656 
L 194.790625 16.897656 
" style="fill:none;stroke:#1f77b4;stroke-linecap:square;stroke-width:1.5;"/>
    </g>
    <g id="line2d_23"/>
    <g id="text_13">
     <!-- train -->
     <defs>
      <path d="M 34.28125 27.484375 
Q 23.390625 27.484375 19.1875 25 
Q 14.984375 22.515625 14.984375 16.5 
Q 14.984375 11.71875 18.140625 8.90625 
Q 21.296875 6.109375 26.703125 6.109375 
Q 34.1875 6.109375 38.703125 11.40625 
Q 43.21875 16.703125 43.21875 25.484375 
L 43.21875 27.484375 
z
M 52.203125 31.203125 
L 52.203125 0 
L 43.21875 0 
L 43.21875 8.296875 
Q 40.140625 3.328125 35.546875 0.953125 
Q 30.953125 -1.421875 24.3125 -1.421875 
Q 15.921875 -1.421875 10.953125 3.296875 
Q 6 8.015625 6 15.921875 
Q 6 25.140625 12.171875 29.828125 
Q 18.359375 34.515625 30.609375 34.515625 
L 43.21875 34.515625 
L 43.21875 35.40625 
Q 43.21875 41.609375 39.140625 45 
Q 35.0625 48.390625 27.6875 48.390625 
Q 23 48.390625 18.546875 47.265625 
Q 14.109375 46.140625 10.015625 43.890625 
L 10.015625 52.203125 
Q 14.9375 54.109375 19.578125 55.046875 
Q 24.21875 56 28.609375 56 
Q 40.484375 56 46.34375 49.84375 
Q 52.203125 43.703125 52.203125 31.203125 
z
" id="DejaVuSans-97"/>
      <path d="M 54.890625 33.015625 
L 54.890625 0 
L 45.90625 0 
L 45.90625 32.71875 
Q 45.90625 40.484375 42.875 44.328125 
Q 39.84375 48.1875 33.796875 48.1875 
Q 26.515625 48.1875 22.3125 43.546875 
Q 18.109375 38.921875 18.109375 30.90625 
L 18.109375 0 
L 9.078125 0 
L 9.078125 54.6875 
L 18.109375 54.6875 
L 18.109375 46.1875 
Q 21.34375 51.125 25.703125 53.5625 
Q 30.078125 56 35.796875 56 
Q 45.21875 56 50.046875 50.171875 
Q 54.890625 44.34375 54.890625 33.015625 
z
" id="DejaVuSans-110"/>
     </defs>
     <g transform="translate(202.790625 20.397656)scale(0.1 -0.1)">
      <use xlink:href="#DejaVuSans-116"/>
      <use x="39.208984" xlink:href="#DejaVuSans-114"/>
      <use x="80.322266" xlink:href="#DejaVuSans-97"/>
      <use x="141.601562" xlink:href="#DejaVuSans-105"/>
      <use x="169.384766" xlink:href="#DejaVuSans-110"/>
     </g>
    </g>
   </g>
  </g>
 </g>
 <defs>
  <clipPath id="p7e194573c6">
   <rect height="135.9" width="195.3" x="39.765625" y="3.799219"/>
  </clipPath>
 </defs>
</svg>
