<?xml version="1.0" encoding="utf-8" standalone="no"?>
<!DOCTYPE svg PUBLIC "-//W3C//DTD SVG 1.1//EN"
  "http://www.w3.org/Graphics/SVG/1.1/DTD/svg11.dtd">
<!-- Created with matplotlib (https://matplotlib.org/) -->
<svg height="170.055469pt" version="1.1" viewBox="0 0 250.971875 170.055469" width="250.971875pt" xmlns="http://www.w3.org/2000/svg" xmlns:xlink="http://www.w3.org/1999/xlink">
 <defs>
  <style type="text/css">
*{stroke-linecap:butt;stroke-linejoin:round;}
  </style>
 </defs>
 <g id="figure_1">
  <g id="patch_1">
   <path d="M 0 170.055469 
L 250.971875 170.055469 
L 250.971875 0 
L 0 0 
z
" style="fill:#ffffff;"/>
  </g>
  <g id="axes_1">
   <g id="patch_2">
    <path d="M 39.765625 139.699219 
L 235.065625 139.699219 
L 235.065625 3.799219 
L 39.765625 3.799219 
z
" style="fill:#ffffff;"/>
   </g>
   <g id="matplotlib.axis_1">
    <g id="xtick_1">
     <g id="line2d_1">
      <path clip-path="url(#pb2a5630be8)" d="M 78.731825 139.699219 
L 78.731825 3.799219 
" style="fill:none;stroke:#b0b0b0;stroke-linecap:square;stroke-width:0.8;"/>
     </g>
     <g id="line2d_2">
      <defs>
       <path d="M 0 0 
L 0 3.5 
" id="m5b09ea52f9" style="stroke:#000000;stroke-width:0.8;"/>
      </defs>
      <g>
       <use style="stroke:#000000;stroke-width:0.8;" x="78.731825" xlink:href="#m5b09ea52f9" y="139.699219"/>
      </g>
     </g>
     <g id="text_1">
      <!-- 10000 -->
      <defs>
       <path d="M 12.40625 8.296875 
L 28.515625 8.296875 
L 28.515625 63.921875 
L 10.984375 60.40625 
L 10.984375 69.390625 
L 28.421875 72.90625 
L 38.28125 72.90625 
L 38.28125 8.296875 
L 54.390625 8.296875 
L 54.390625 0 
L 12.40625 0 
z
" id="DejaVuSans-49"/>
       <path d="M 31.78125 66.40625 
Q 24.171875 66.40625 20.328125 58.90625 
Q 16.5 51.421875 16.5 36.375 
Q 16.5 21.390625 20.328125 13.890625 
Q 24.171875 6.390625 31.78125 6.390625 
Q 39.453125 6.390625 43.28125 13.890625 
Q 47.125 21.390625 47.125 36.375 
Q 47.125 51.421875 43.28125 58.90625 
Q 39.453125 66.40625 31.78125 66.40625 
z
M 31.78125 74.21875 
Q 44.046875 74.21875 50.515625 64.515625 
Q 56.984375 54.828125 56.984375 36.375 
Q 56.984375 17.96875 50.515625 8.265625 
Q 44.046875 -1.421875 31.78125 -1.421875 
Q 19.53125 -1.421875 13.0625 8.265625 
Q 6.59375 17.96875 6.59375 36.375 
Q 6.59375 54.828125 13.0625 64.515625 
Q 19.53125 74.21875 31.78125 74.21875 
z
" id="DejaVuSans-48"/>
      </defs>
      <g transform="translate(62.825575 154.297656)scale(0.1 -0.1)">
       <use xlink:href="#DejaVuSans-49"/>
       <use x="63.623047" xlink:href="#DejaVuSans-48"/>
       <use x="127.246094" xlink:href="#DejaVuSans-48"/>
       <use x="190.869141" xlink:href="#DejaVuSans-48"/>
       <use x="254.492188" xlink:href="#DejaVuSans-48"/>
      </g>
     </g>
    </g>
    <g id="xtick_2">
     <g id="line2d_3">
      <path clip-path="url(#pb2a5630be8)" d="M 117.815275 139.699219 
L 117.815275 3.799219 
" style="fill:none;stroke:#b0b0b0;stroke-linecap:square;stroke-width:0.8;"/>
     </g>
     <g id="line2d_4">
      <g>
       <use style="stroke:#000000;stroke-width:0.8;" x="117.815275" xlink:href="#m5b09ea52f9" y="139.699219"/>
      </g>
     </g>
     <g id="text_2">
      <!-- 20000 -->
      <defs>
       <path d="M 19.1875 8.296875 
L 53.609375 8.296875 
L 53.609375 0 
L 7.328125 0 
L 7.328125 8.296875 
Q 12.9375 14.109375 22.625 23.890625 
Q 32.328125 33.6875 34.8125 36.53125 
Q 39.546875 41.84375 41.421875 45.53125 
Q 43.3125 49.21875 43.3125 52.78125 
Q 43.3125 58.59375 39.234375 62.25 
Q 35.15625 65.921875 28.609375 65.921875 
Q 23.96875 65.921875 18.8125 64.3125 
Q 13.671875 62.703125 7.8125 59.421875 
L 7.8125 69.390625 
Q 13.765625 71.78125 18.9375 73 
Q 24.125 74.21875 28.421875 74.21875 
Q 39.75 74.21875 46.484375 68.546875 
Q 53.21875 62.890625 53.21875 53.421875 
Q 53.21875 48.921875 51.53125 44.890625 
Q 49.859375 40.875 45.40625 35.40625 
Q 44.1875 33.984375 37.640625 27.21875 
Q 31.109375 20.453125 19.1875 8.296875 
z
" id="DejaVuSans-50"/>
      </defs>
      <g transform="translate(101.909025 154.297656)scale(0.1 -0.1)">
       <use xlink:href="#DejaVuSans-50"/>
       <use x="63.623047" xlink:href="#DejaVuSans-48"/>
       <use x="127.246094" xlink:href="#DejaVuSans-48"/>
       <use x="190.869141" xlink:href="#DejaVuSans-48"/>
       <use x="254.492188" xlink:href="#DejaVuSans-48"/>
      </g>
     </g>
    </g>
    <g id="xtick_3">
     <g id="line2d_5">
      <path clip-path="url(#pb2a5630be8)" d="M 156.898725 139.699219 
L 156.898725 3.799219 
" style="fill:none;stroke:#b0b0b0;stroke-linecap:square;stroke-width:0.8;"/>
     </g>
     <g id="line2d_6">
      <g>
       <use style="stroke:#000000;stroke-width:0.8;" x="156.898725" xlink:href="#m5b09ea52f9" y="139.699219"/>
      </g>
     </g>
     <g id="text_3">
      <!-- 30000 -->
      <defs>
       <path d="M 40.578125 39.3125 
Q 47.65625 37.796875 51.625 33 
Q 55.609375 28.21875 55.609375 21.1875 
Q 55.609375 10.40625 48.1875 4.484375 
Q 40.765625 -1.421875 27.09375 -1.421875 
Q 22.515625 -1.421875 17.65625 -0.515625 
Q 12.796875 0.390625 7.625 2.203125 
L 7.625 11.71875 
Q 11.71875 9.328125 16.59375 8.109375 
Q 21.484375 6.890625 26.8125 6.890625 
Q 36.078125 6.890625 40.9375 10.546875 
Q 45.796875 14.203125 45.796875 21.1875 
Q 45.796875 27.640625 41.28125 31.265625 
Q 36.765625 34.90625 28.71875 34.90625 
L 20.21875 34.90625 
L 20.21875 43.015625 
L 29.109375 43.015625 
Q 36.375 43.015625 40.234375 45.921875 
Q 44.09375 48.828125 44.09375 54.296875 
Q 44.09375 59.90625 40.109375 62.90625 
Q 36.140625 65.921875 28.71875 65.921875 
Q 24.65625 65.921875 20.015625 65.03125 
Q 15.375 64.15625 9.8125 62.3125 
L 9.8125 71.09375 
Q 15.4375 72.65625 20.34375 73.4375 
Q 25.25 74.21875 29.59375 74.21875 
Q 40.828125 74.21875 47.359375 69.109375 
Q 53.90625 64.015625 53.90625 55.328125 
Q 53.90625 49.265625 50.4375 45.09375 
Q 46.96875 40.921875 40.578125 39.3125 
z
" id="DejaVuSans-51"/>
      </defs>
      <g transform="translate(140.992475 154.297656)scale(0.1 -0.1)">
       <use xlink:href="#DejaVuSans-51"/>
       <use x="63.623047" xlink:href="#DejaVuSans-48"/>
       <use x="127.246094" xlink:href="#DejaVuSans-48"/>
       <use x="190.869141" xlink:href="#DejaVuSans-48"/>
       <use x="254.492188" xlink:href="#DejaVuSans-48"/>
      </g>
     </g>
    </g>
    <g id="xtick_4">
     <g id="line2d_7">
      <path clip-path="url(#pb2a5630be8)" d="M 195.982175 139.699219 
L 195.982175 3.799219 
" style="fill:none;stroke:#b0b0b0;stroke-linecap:square;stroke-width:0.8;"/>
     </g>
     <g id="line2d_8">
      <g>
       <use style="stroke:#000000;stroke-width:0.8;" x="195.982175" xlink:href="#m5b09ea52f9" y="139.699219"/>
      </g>
     </g>
     <g id="text_4">
      <!-- 40000 -->
      <defs>
       <path d="M 37.796875 64.3125 
L 12.890625 25.390625 
L 37.796875 25.390625 
z
M 35.203125 72.90625 
L 47.609375 72.90625 
L 47.609375 25.390625 
L 58.015625 25.390625 
L 58.015625 17.1875 
L 47.609375 17.1875 
L 47.609375 0 
L 37.796875 0 
L 37.796875 17.1875 
L 4.890625 17.1875 
L 4.890625 26.703125 
z
" id="DejaVuSans-52"/>
      </defs>
      <g transform="translate(180.075925 154.297656)scale(0.1 -0.1)">
       <use xlink:href="#DejaVuSans-52"/>
       <use x="63.623047" xlink:href="#DejaVuSans-48"/>
       <use x="127.246094" xlink:href="#DejaVuSans-48"/>
       <use x="190.869141" xlink:href="#DejaVuSans-48"/>
       <use x="254.492188" xlink:href="#DejaVuSans-48"/>
      </g>
     </g>
    </g>
    <g id="xtick_5">
     <g id="line2d_9">
      <path clip-path="url(#pb2a5630be8)" d="M 235.065625 139.699219 
L 235.065625 3.799219 
" style="fill:none;stroke:#b0b0b0;stroke-linecap:square;stroke-width:0.8;"/>
     </g>
     <g id="line2d_10">
      <g>
       <use style="stroke:#000000;stroke-width:0.8;" x="235.065625" xlink:href="#m5b09ea52f9" y="139.699219"/>
      </g>
     </g>
     <g id="text_5">
      <!-- 50000 -->
      <defs>
       <path d="M 10.796875 72.90625 
L 49.515625 72.90625 
L 49.515625 64.59375 
L 19.828125 64.59375 
L 19.828125 46.734375 
Q 21.96875 47.46875 24.109375 47.828125 
Q 26.265625 48.1875 28.421875 48.1875 
Q 40.625 48.1875 47.75 41.5 
Q 54.890625 34.8125 54.890625 23.390625 
Q 54.890625 11.625 47.5625 5.09375 
Q 40.234375 -1.421875 26.90625 -1.421875 
Q 22.3125 -1.421875 17.546875 -0.640625 
Q 12.796875 0.140625 7.71875 1.703125 
L 7.71875 11.625 
Q 12.109375 9.234375 16.796875 8.0625 
Q 21.484375 6.890625 26.703125 6.890625 
Q 35.15625 6.890625 40.078125 11.328125 
Q 45.015625 15.765625 45.015625 23.390625 
Q 45.015625 31 40.078125 35.4375 
Q 35.15625 39.890625 26.703125 39.890625 
Q 22.75 39.890625 18.8125 39.015625 
Q 14.890625 38.140625 10.796875 36.28125 
z
" id="DejaVuSans-53"/>
      </defs>
      <g transform="translate(219.159375 154.297656)scale(0.1 -0.1)">
       <use xlink:href="#DejaVuSans-53"/>
       <use x="63.623047" xlink:href="#DejaVuSans-48"/>
       <use x="127.246094" xlink:href="#DejaVuSans-48"/>
       <use x="190.869141" xlink:href="#DejaVuSans-48"/>
       <use x="254.492188" xlink:href="#DejaVuSans-48"/>
      </g>
     </g>
    </g>
    <g id="text_6">
     <!-- iter -->
     <defs>
      <path d="M 9.421875 54.6875 
L 18.40625 54.6875 
L 18.40625 0 
L 9.421875 0 
z
M 9.421875 75.984375 
L 18.40625 75.984375 
L 18.40625 64.59375 
L 9.421875 64.59375 
z
" id="DejaVuSans-105"/>
      <path d="M 18.3125 70.21875 
L 18.3125 54.6875 
L 36.8125 54.6875 
L 36.8125 47.703125 
L 18.3125 47.703125 
L 18.3125 18.015625 
Q 18.3125 11.328125 20.140625 9.421875 
Q 21.96875 7.515625 27.59375 7.515625 
L 36.8125 7.515625 
L 36.8125 0 
L 27.59375 0 
Q 17.1875 0 13.234375 3.875 
Q 9.28125 7.765625 9.28125 18.015625 
L 9.28125 47.703125 
L 2.6875 47.703125 
L 2.6875 54.6875 
L 9.28125 54.6875 
L 9.28125 70.21875 
z
" id="DejaVuSans-116"/>
      <path d="M 56.203125 29.59375 
L 56.203125 25.203125 
L 14.890625 25.203125 
Q 15.484375 15.921875 20.484375 11.0625 
Q 25.484375 6.203125 34.421875 6.203125 
Q 39.59375 6.203125 44.453125 7.46875 
Q 49.3125 8.734375 54.109375 11.28125 
L 54.109375 2.78125 
Q 49.265625 0.734375 44.1875 -0.34375 
Q 39.109375 -1.421875 33.890625 -1.421875 
Q 20.796875 -1.421875 13.15625 6.1875 
Q 5.515625 13.8125 5.515625 26.8125 
Q 5.515625 40.234375 12.765625 48.109375 
Q 20.015625 56 32.328125 56 
Q 43.359375 56 49.78125 48.890625 
Q 56.203125 41.796875 56.203125 29.59375 
z
M 47.21875 32.234375 
Q 47.125 39.59375 43.09375 43.984375 
Q 39.0625 48.390625 32.421875 48.390625 
Q 24.90625 48.390625 20.390625 44.140625 
Q 15.875 39.890625 15.1875 32.171875 
z
" id="DejaVuSans-101"/>
      <path d="M 41.109375 46.296875 
Q 39.59375 47.171875 37.8125 47.578125 
Q 36.03125 48 33.890625 48 
Q 26.265625 48 22.1875 43.046875 
Q 18.109375 38.09375 18.109375 28.8125 
L 18.109375 0 
L 9.078125 0 
L 9.078125 54.6875 
L 18.109375 54.6875 
L 18.109375 46.1875 
Q 20.953125 51.171875 25.484375 53.578125 
Q 30.03125 56 36.53125 56 
Q 37.453125 56 38.578125 55.875 
Q 39.703125 55.765625 41.0625 55.515625 
z
" id="DejaVuSans-114"/>
     </defs>
     <g transform="translate(128.934375 167.975781)scale(0.1 -0.1)">
      <use xlink:href="#DejaVuSans-105"/>
      <use x="27.783203" xlink:href="#DejaVuSans-116"/>
      <use x="66.992188" xlink:href="#DejaVuSans-101"/>
      <use x="128.515625" xlink:href="#DejaVuSans-114"/>
     </g>
    </g>
   </g>
   <g id="matplotlib.axis_2">
    <g id="ytick_1">
     <g id="line2d_11">
      <path clip-path="url(#pb2a5630be8)" d="M 39.765625 139.699219 
L 235.065625 139.699219 
" style="fill:none;stroke:#b0b0b0;stroke-linecap:square;stroke-width:0.8;"/>
     </g>
     <g id="line2d_12">
      <defs>
       <path d="M 0 0 
L -3.5 0 
" id="m5531a10b46" style="stroke:#000000;stroke-width:0.8;"/>
      </defs>
      <g>
       <use style="stroke:#000000;stroke-width:0.8;" x="39.765625" xlink:href="#m5531a10b46" y="139.699219"/>
      </g>
     </g>
     <g id="text_7">
      <!-- 0 -->
      <g transform="translate(26.403125 143.498437)scale(0.1 -0.1)">
       <use xlink:href="#DejaVuSans-48"/>
      </g>
     </g>
    </g>
    <g id="ytick_2">
     <g id="line2d_13">
      <path clip-path="url(#pb2a5630be8)" d="M 39.765625 105.724219 
L 235.065625 105.724219 
" style="fill:none;stroke:#b0b0b0;stroke-linecap:square;stroke-width:0.8;"/>
     </g>
     <g id="line2d_14">
      <g>
       <use style="stroke:#000000;stroke-width:0.8;" x="39.765625" xlink:href="#m5531a10b46" y="105.724219"/>
      </g>
     </g>
     <g id="text_8">
      <!-- 50 -->
      <g transform="translate(20.040625 109.523438)scale(0.1 -0.1)">
       <use xlink:href="#DejaVuSans-53"/>
       <use x="63.623047" xlink:href="#DejaVuSans-48"/>
      </g>
     </g>
    </g>
    <g id="ytick_3">
     <g id="line2d_15">
      <path clip-path="url(#pb2a5630be8)" d="M 39.765625 71.749219 
L 235.065625 71.749219 
" style="fill:none;stroke:#b0b0b0;stroke-linecap:square;stroke-width:0.8;"/>
     </g>
     <g id="line2d_16">
      <g>
       <use style="stroke:#000000;stroke-width:0.8;" x="39.765625" xlink:href="#m5531a10b46" y="71.749219"/>
      </g>
     </g>
     <g id="text_9">
      <!-- 100 -->
      <g transform="translate(13.678125 75.548437)scale(0.1 -0.1)">
       <use xlink:href="#DejaVuSans-49"/>
       <use x="63.623047" xlink:href="#DejaVuSans-48"/>
       <use x="127.246094" xlink:href="#DejaVuSans-48"/>
      </g>
     </g>
    </g>
    <g id="ytick_4">
     <g id="line2d_17">
      <path clip-path="url(#pb2a5630be8)" d="M 39.765625 37.774219 
L 235.065625 37.774219 
" style="fill:none;stroke:#b0b0b0;stroke-linecap:square;stroke-width:0.8;"/>
     </g>
     <g id="line2d_18">
      <g>
       <use style="stroke:#000000;stroke-width:0.8;" x="39.765625" xlink:href="#m5531a10b46" y="37.774219"/>
      </g>
     </g>
     <g id="text_10">
      <!-- 150 -->
      <g transform="translate(13.678125 41.573437)scale(0.1 -0.1)">
       <use xlink:href="#DejaVuSans-49"/>
       <use x="63.623047" xlink:href="#DejaVuSans-53"/>
       <use x="127.246094" xlink:href="#DejaVuSans-48"/>
      </g>
     </g>
    </g>
    <g id="ytick_5">
     <g id="line2d_19">
      <path clip-path="url(#pb2a5630be8)" d="M 39.765625 3.799219 
L 235.065625 3.799219 
" style="fill:none;stroke:#b0b0b0;stroke-linecap:square;stroke-width:0.8;"/>
     </g>
     <g id="line2d_20">
      <g>
       <use style="stroke:#000000;stroke-width:0.8;" x="39.765625" xlink:href="#m5531a10b46" y="3.799219"/>
      </g>
     </g>
     <g id="text_11">
      <!-- 200 -->
      <g transform="translate(13.678125 7.598438)scale(0.1 -0.1)">
       <use xlink:href="#DejaVuSans-50"/>
       <use x="63.623047" xlink:href="#DejaVuSans-48"/>
       <use x="127.246094" xlink:href="#DejaVuSans-48"/>
      </g>
     </g>
    </g>
    <g id="text_12">
     <!-- perplexity -->
     <defs>
      <path d="M 18.109375 8.203125 
L 18.109375 -20.796875 
L 9.078125 -20.796875 
L 9.078125 54.6875 
L 18.109375 54.6875 
L 18.109375 46.390625 
Q 20.953125 51.265625 25.265625 53.625 
Q 29.59375 56 35.59375 56 
Q 45.5625 56 51.78125 48.09375 
Q 58.015625 40.1875 58.015625 27.296875 
Q 58.015625 14.40625 51.78125 6.484375 
Q 45.5625 -1.421875 35.59375 -1.421875 
Q 29.59375 -1.421875 25.265625 0.953125 
Q 20.953125 3.328125 18.109375 8.203125 
z
M 48.6875 27.296875 
Q 48.6875 37.203125 44.609375 42.84375 
Q 40.53125 48.484375 33.40625 48.484375 
Q 26.265625 48.484375 22.1875 42.84375 
Q 18.109375 37.203125 18.109375 27.296875 
Q 18.109375 17.390625 22.1875 11.75 
Q 26.265625 6.109375 33.40625 6.109375 
Q 40.53125 6.109375 44.609375 11.75 
Q 48.6875 17.390625 48.6875 27.296875 
z
" id="DejaVuSans-112"/>
      <path d="M 9.421875 75.984375 
L 18.40625 75.984375 
L 18.40625 0 
L 9.421875 0 
z
" id="DejaVuSans-108"/>
      <path d="M 54.890625 54.6875 
L 35.109375 28.078125 
L 55.90625 0 
L 45.3125 0 
L 29.390625 21.484375 
L 13.484375 0 
L 2.875 0 
L 24.125 28.609375 
L 4.6875 54.6875 
L 15.28125 54.6875 
L 29.78125 35.203125 
L 44.28125 54.6875 
z
" id="DejaVuSans-120"/>
      <path d="M 32.171875 -5.078125 
Q 28.375 -14.84375 24.75 -17.8125 
Q 21.140625 -20.796875 15.09375 -20.796875 
L 7.90625 -20.796875 
L 7.90625 -13.28125 
L 13.1875 -13.28125 
Q 16.890625 -13.28125 18.9375 -11.515625 
Q 21 -9.765625 23.484375 -3.21875 
L 25.09375 0.875 
L 2.984375 54.6875 
L 12.5 54.6875 
L 29.59375 11.921875 
L 46.6875 54.6875 
L 56.203125 54.6875 
z
" id="DejaVuSans-121"/>
     </defs>
     <g transform="translate(7.598438 96.875781)rotate(-90)scale(0.1 -0.1)">
      <use xlink:href="#DejaVuSans-112"/>
      <use x="63.476562" xlink:href="#DejaVuSans-101"/>
      <use x="125" xlink:href="#DejaVuSans-114"/>
      <use x="166.113281" xlink:href="#DejaVuSans-112"/>
      <use x="229.589844" xlink:href="#DejaVuSans-108"/>
      <use x="257.373047" xlink:href="#DejaVuSans-101"/>
      <use x="317.146484" xlink:href="#DejaVuSans-120"/>
      <use x="376.326172" xlink:href="#DejaVuSans-105"/>
      <use x="404.109375" xlink:href="#DejaVuSans-116"/>
      <use x="443.318359" xlink:href="#DejaVuSans-121"/>
     </g>
    </g>
   </g>
   <g id="line2d_21">
    <path clip-path="url(#pb2a5630be8)" d="M 43.605366 -1 
L 43.634887 3.000598 
L 43.65687 -1 
M 43.690857 -1 
L 43.830304 5.583423 
L 43.908471 11.335235 
L 43.947554 10.707589 
L 43.983293 -1 
M 43.99122 -1 
L 44.103888 12.384253 
L 44.142971 6.007386 
L 44.182055 12.497385 
L 44.221138 11.593727 
L 44.260222 7.812533 
L 44.299305 14.402389 
L 44.416556 6.635918 
L 44.455639 16.347773 
L 44.533806 13.661493 
L 44.572889 9.900285 
L 44.611973 18.766865 
L 44.69014 15.346508 
L 44.729223 13.620614 
L 44.768307 15.612679 
L 44.80739 20.307755 
L 44.885557 18.525709 
L 44.92464 11.468723 
L 44.963724 19.626991 
L 45.002807 20.753267 
L 45.041891 13.138438 
L 45.080974 23.269718 
L 45.120058 19.121922 
L 45.159141 24.663473 
L 45.237308 20.389665 
L 45.315475 26.81148 
L 45.354558 21.203556 
L 45.393642 14.752521 
L 45.432725 29.343464 
L 45.510892 27.884985 
L 45.628143 15.429881 
L 45.667226 31.80209 
L 45.706309 22.519639 
L 45.745393 17.09464 
L 45.901727 34.086263 
L 46.018977 27.371745 
L 46.175311 35.019437 
L 46.214394 34.479762 
L 46.253478 26.248789 
L 46.292561 40.207411 
L 46.331645 39.325978 
L 46.409812 30.937384 
L 46.448895 31.432885 
L 46.487978 35.318743 
L 46.527062 30.628827 
L 46.566145 34.104977 
L 46.683396 29.629095 
L 46.800646 39.600387 
L 46.95698 31.593174 
L 47.113314 45.365544 
L 47.191481 46.336415 
L 47.269647 34.331326 
L 47.465065 44.435024 
L 47.504148 42.539663 
L 47.582315 40.559735 
L 47.621398 42.998634 
L 47.660482 37.05459 
L 47.699565 43.142354 
L 47.738649 44.191218 
L 47.777732 40.316656 
L 47.855899 41.065335 
L 47.97315 47.703189 
L 48.012233 36.457236 
L 48.0904 40.699154 
L 48.129483 45.848797 
L 48.20765 44.101365 
L 48.324901 36.511801 
L 48.363984 47.965301 
L 48.442151 44.259731 
L 48.481234 49.337721 
L 48.520318 47.516143 
L 48.559401 44.287757 
L 48.676652 51.153905 
L 48.715735 44.194227 
L 48.793902 49.191088 
L 48.832985 44.920616 
L 48.872069 52.395913 
L 48.911152 46.89021 
L 48.989319 46.710702 
L 49.067486 52.546553 
L 49.10657 48.674513 
L 49.145653 49.412985 
L 49.22382 48.271981 
L 49.262903 56.789572 
L 49.301987 47.678999 
L 49.380154 48.494301 
L 49.419237 50.916335 
L 49.458321 44.947287 
L 49.497404 49.897104 
L 49.614654 52.314847 
L 49.653738 49.398705 
L 49.692821 56.175139 
L 49.770988 51.47576 
L 49.849155 55.883634 
L 49.888239 51.160061 
L 49.927322 52.57109 
L 50.005489 50.183699 
L 50.044572 56.941764 
L 50.122739 52.534179 
L 50.161823 54.337709 
L 50.200906 59.398732 
L 50.23999 52.529751 
L 50.279073 51.622739 
L 50.396323 63.838636 
L 50.435407 53.291916 
L 50.513574 55.040799 
L 50.552657 54.523976 
L 50.591741 51.821725 
L 50.630824 58.348095 
L 50.708991 54.606835 
L 50.748074 56.57451 
L 50.787158 55.947533 
L 50.826241 54.149474 
L 50.865325 56.407255 
L 50.982575 60.458095 
L 51.060742 56.099496 
L 51.099826 57.378087 
L 51.138909 57.251081 
L 51.256159 65.607426 
L 51.217076 56.630066 
L 51.295243 64.25336 
L 51.451577 53.994708 
L 51.568827 63.067114 
L 51.60791 58.354982 
L 51.725161 62.783607 
L 51.764244 56.876649 
L 51.842411 61.436438 
L 51.920578 61.285021 
L 51.959661 63.004516 
L 51.998745 59.872223 
L 52.037828 58.126834 
L 52.115995 63.887416 
L 52.155079 62.9967 
L 52.194162 56.958369 
L 52.233246 64.368822 
L 52.272329 60.386234 
L 52.311412 61.122621 
L 52.350496 57.925569 
L 52.389579 65.934732 
L 52.467746 63.061411 
L 52.50683 59.092906 
L 52.545913 65.458259 
L 52.584997 65.769409 
L 52.62408 58.991358 
L 52.663164 68.783752 
L 52.702247 67.120891 
L 52.74133 60.152774 
L 52.819497 61.606696 
L 52.858581 64.552399 
L 52.897664 64.539877 
L 52.936748 61.930356 
L 52.975831 63.398023 
L 53.053998 68.875698 
L 53.093081 63.845182 
L 53.132165 62.343997 
L 53.171248 66.193665 
L 53.249415 63.004183 
L 53.366666 68.768237 
L 53.405749 66.798958 
L 53.444833 58.372636 
L 53.483916 68.44754 
L 53.522999 65.981037 
L 53.562083 69.69371 
L 53.601166 71.567135 
L 53.64025 64.56322 
L 53.718417 66.826022 
L 53.87475 65.021503 
L 53.913834 69.124724 
L 53.992001 65.952751 
L 54.031084 69.246972 
L 54.109251 68.082936 
L 54.148335 63.090178 
L 54.187418 63.21596 
L 54.343752 69.73379 
L 54.382835 70.032535 
L 54.421919 72.520395 
L 54.461002 70.031133 
L 54.578253 65.292072 
L 54.617336 66.648852 
L 54.656419 75.297378 
L 54.734586 71.915944 
L 54.851837 67.467482 
L 54.89092 73.589171 
L 54.930004 66.453367 
L 54.969087 70.568832 
L 55.047254 73.640454 
L 55.086337 66.375134 
L 55.164504 67.221581 
L 55.281755 71.617228 
L 55.320838 76.959236 
L 55.359922 69.036642 
L 55.399005 69.24335 
L 55.438088 70.790884 
L 55.477172 70.032439 
L 55.516255 68.781843 
L 55.555339 70.152509 
L 55.594422 69.546376 
L 55.633506 73.76301 
L 55.711673 72.876387 
L 55.78984 70.972106 
L 55.90709 77.488918 
L 55.946173 75.424062 
L 56.063424 67.597853 
L 56.02434 77.007929 
L 56.102507 69.45212 
L 56.219757 77.768465 
L 56.297924 76.077309 
L 56.337008 72.533854 
L 56.376091 73.29618 
L 56.415175 76.129306 
L 56.493342 74.591952 
L 56.532425 75.322555 
L 56.571509 72.034805 
L 56.610592 76.346643 
L 56.649675 72.347514 
L 56.845093 77.77333 
L 57.04051 74.306383 
L 57.15776 79.561258 
L 57.275011 74.249577 
L 57.314094 79.592844 
L 57.392261 77.082517 
L 57.431344 76.502259 
L 57.470428 73.992466 
L 57.509511 74.023218 
L 57.626762 78.780641 
L 57.744012 73.183435 
L 57.783095 74.95153 
L 57.861262 73.711248 
L 57.900346 78.753056 
L 58.017596 76.272032 
L 58.05668 82.964795 
L 58.134847 78.890962 
L 58.17393 80.304692 
L 58.213013 77.637494 
L 58.252097 80.448973 
L 58.29118 78.34516 
L 58.330264 80.321209 
L 58.369347 76.735468 
L 58.408431 78.238598 
L 58.447514 72.809998 
L 58.486598 78.523972 
L 58.525681 79.502255 
L 58.603848 75.834249 
L 58.682015 76.014842 
L 58.721098 83.238076 
L 58.760182 82.201856 
L 58.799265 75.999766 
L 58.838349 79.839626 
L 58.877432 81.767277 
L 58.916516 81.349809 
L 58.994682 78.499636 
L 59.033766 78.873866 
L 59.111933 78.223782 
L 59.151016 81.526965 
L 59.268267 77.491843 
L 59.30735 80.240556 
L 59.385517 79.735628 
L 59.4246 78.792545 
L 59.463684 80.029815 
L 59.541851 82.80678 
L 59.580934 75.496517 
L 59.620018 79.579266 
L 59.659101 86.372529 
L 59.698185 79.424446 
L 59.737268 79.436212 
L 59.776351 78.474056 
L 59.815435 83.43511 
L 59.893602 79.931141 
L 59.932685 77.089838 
L 59.971769 80.971876 
L 60.010852 80.295567 
L 60.089019 84.212168 
L 60.167186 83.972739 
L 60.245353 81.39683 
L 60.284436 83.109945 
L 60.362603 82.826626 
L 60.401687 84.747614 
L 60.44077 86.657752 
L 60.479854 85.121344 
L 60.636187 78.741403 
L 60.675271 84.892649 
L 60.753438 83.066944 
L 60.792521 82.716507 
L 60.870688 82.361246 
L 60.909771 90.293735 
L 60.948855 81.515082 
L 61.027022 84.08669 
L 61.066105 83.482152 
L 61.105189 85.226379 
L 61.183356 81.026241 
L 61.222439 83.82916 
L 61.261523 82.630688 
L 61.378773 88.504781 
L 61.417856 82.147333 
L 61.496023 86.216706 
L 61.57419 87.026173 
L 61.652357 82.690294 
L 61.69144 85.688131 
L 61.730524 86.317393 
L 61.769607 86.23492 
L 61.847774 82.609203 
L 61.886858 82.986611 
L 62.043192 88.25664 
L 62.082275 86.31501 
L 62.121358 84.478047 
L 62.160442 86.699502 
L 62.199525 88.902888 
L 62.238609 85.555218 
L 62.316776 86.171945 
L 62.355859 82.668235 
L 62.394943 84.620125 
L 62.473109 87.994455 
L 62.512193 87.307753 
L 62.551276 82.648626 
L 62.629443 83.317009 
L 62.668527 89.420775 
L 62.70761 82.023956 
L 62.746694 84.913134 
L 62.824861 90.333054 
L 62.863944 86.373835 
L 62.981194 88.519057 
L 63.020278 87.711727 
L 63.098445 85.330286 
L 63.137528 86.196799 
L 63.176612 91.373371 
L 63.215695 85.77024 
L 63.254778 87.153389 
L 63.332945 81.093704 
L 63.372029 90.152213 
L 63.450196 88.386063 
L 63.489279 81.207294 
L 63.528363 85.49473 
L 63.567446 90.866513 
L 63.60653 87.218859 
L 63.645613 86.328133 
L 63.684696 87.556663 
L 63.72378 87.677334 
L 63.801947 90.426719 
L 63.880114 83.562516 
L 63.958281 85.398408 
L 64.075531 89.261277 
L 64.153698 86.544758 
L 64.192781 90.46747 
L 64.270948 87.821256 
L 64.310032 86.365972 
L 64.349115 89.427836 
L 64.427282 88.334286 
L 64.466365 87.623604 
L 64.622699 93.550136 
L 64.73995 82.273781 
L 64.779033 91.426194 
L 64.8572 89.800734 
L 64.896283 92.243702 
L 64.935367 90.218994 
L 64.97445 90.049436 
L 65.052617 87.44913 
L 65.208951 92.400248 
L 65.365285 87.424343 
L 65.482535 90.729049 
L 65.560702 85.638475 
L 65.599785 88.511891 
L 65.677952 91.090732 
L 65.756119 86.914717 
L 65.795203 88.203567 
L 65.834286 90.927928 
L 65.912453 90.266529 
L 65.99062 89.856561 
L 66.029703 91.679984 
L 66.068787 90.550441 
L 66.10787 89.892556 
L 66.146954 91.361337 
L 66.186037 88.374909 
L 66.264204 90.745084 
L 66.381454 87.838657 
L 66.420538 88.568137 
L 66.498705 93.110153 
L 66.576872 92.367243 
L 66.615955 87.868426 
L 66.694122 90.92731 
L 66.733206 92.707047 
L 66.772289 90.206784 
L 66.811372 91.561508 
L 66.850456 88.209402 
L 66.889539 91.918317 
L 66.928623 90.513541 
L 67.084957 93.053532 
L 67.12404 87.364905 
L 67.202207 88.831722 
L 67.24129 94.492241 
L 67.319457 91.330817 
L 67.358541 94.45607 
L 67.397624 93.821321 
L 67.514875 89.201752 
L 67.553958 92.538997 
L 67.593041 92.469207 
L 67.632125 86.161314 
L 67.671208 92.190178 
L 67.749375 95.52295 
L 67.788459 93.244727 
L 67.866626 90.994438 
L 67.905709 92.151914 
L 67.983876 91.769456 
L 68.062043 94.318742 
L 68.101126 90.760802 
L 68.14021 92.69236 
L 68.335627 96.530423 
L 68.37471 88.025519 
L 68.413794 92.005821 
L 68.452877 95.675694 
L 68.531044 94.244276 
L 68.570128 90.394796 
L 68.648295 92.539065 
L 68.726462 95.723561 
L 68.765545 91.370639 
L 68.843712 91.962664 
L 68.882795 93.835726 
L 68.921879 91.395505 
L 68.960962 88.384565 
L 69.000046 92.091788 
L 69.039129 90.642384 
L 69.195463 98.658148 
L 69.312713 92.562254 
L 69.351797 94.450795 
L 69.39088 89.968404 
L 69.429964 94.684007 
L 69.469047 90.877625 
L 69.547214 95.985352 
L 69.586297 92.110501 
L 69.703548 96.592537 
L 69.742631 96.031871 
L 69.781715 95.792141 
L 69.820798 96.414646 
L 69.977132 92.318475 
L 70.094382 96.309362 
L 70.133466 93.989996 
L 70.172549 95.939367 
L 70.211633 96.861988 
L 70.250716 95.05127 
L 70.2898 96.108209 
L 70.328883 96.66813 
L 70.40705 98.639718 
L 70.446133 92.903083 
L 70.5243 95.759645 
L 70.563384 94.137756 
L 70.602467 94.097507 
L 70.641551 95.197929 
L 70.680634 93.604054 
L 70.758801 93.196414 
L 70.915135 96.627172 
L 70.993302 93.959192 
L 71.032385 94.826504 
L 71.071469 94.88449 
L 71.110552 97.91769 
L 71.149635 93.92955 
L 71.188719 93.106929 
L 71.227802 97.270956 
L 71.305969 93.92444 
L 71.42322 97.590611 
L 71.462303 96.065562 
L 71.501386 95.375549 
L 71.54047 99.714363 
L 71.618637 97.937837 
L 71.65772 98.012383 
L 71.814054 102.180198 
L 71.931304 97.874552 
L 71.970388 102.726496 
L 72.048555 99.021507 
L 72.165805 102.347514 
L 72.204889 101.858497 
L 72.243972 97.446778 
L 72.322139 100.02305 
L 72.361222 97.785993 
L 72.400306 101.555284 
L 72.478473 98.308373 
L 72.517556 100.228341 
L 72.55664 102.405051 
L 72.595723 97.738816 
L 72.67389 99.802214 
L 72.752057 100.535555 
L 72.79114 98.125372 
L 72.869307 98.787178 
L 72.908391 101.071876 
L 72.986558 99.516947 
L 73.025641 94.293882 
L 73.064724 97.265636 
L 73.103808 101.693008 
L 73.181975 101.662073 
L 73.221058 101.77005 
L 73.260142 96.949874 
L 73.338309 99.775683 
L 73.377392 97.596209 
L 73.416476 101.301583 
L 73.455559 104.801444 
L 73.494642 101.149101 
L 73.611893 93.296118 
L 73.69006 98.85888 
L 73.729143 95.866193 
L 73.885477 101.529245 
L 73.92456 100.591937 
L 73.963644 100.77312 
L 74.002727 99.562099 
L 74.041811 99.669774 
L 74.080894 102.901819 
L 74.119978 98.892557 
L 74.159061 102.888343 
L 74.276311 99.255416 
L 74.315395 102.608572 
L 74.393562 100.202433 
L 74.432645 99.916313 
L 74.510812 99.089694 
L 74.549896 102.735603 
L 74.588979 98.186901 
L 74.667146 100.687216 
L 74.745313 98.56574 
L 74.784396 101.210088 
L 74.82348 98.17889 
L 74.862563 99.377929 
L 74.979814 102.612447 
L 75.05798 102.880561 
L 75.097064 97.065768 
L 75.136147 102.79672 
L 75.214314 101.20916 
L 75.292481 98.996646 
L 75.331565 100.780201 
L 75.370648 104.016954 
L 75.409731 98.459346 
L 75.448815 101.648279 
L 75.487898 101.962245 
L 75.526982 101.194422 
L 75.566065 104.172159 
L 75.605149 102.690598 
L 75.683316 103.262177 
L 75.761483 100.799108 
L 75.800566 101.06698 
L 75.839649 98.988415 
L 75.878733 100.991818 
L 75.917816 101.990376 
L 76.035067 97.978253 
L 76.152317 101.620114 
L 76.1914 99.65109 
L 76.230484 103.046939 
L 76.269567 103.260955 
L 76.308651 98.316876 
L 76.386818 100.29393 
L 76.425901 103.079148 
L 76.464985 99.163898 
L 76.582235 104.107696 
L 76.660402 101.906738 
L 76.777652 98.316061 
L 76.855819 97.776174 
L 76.933986 104.922575 
L 76.973069 104.178754 
L 77.012153 104.187711 
L 77.051236 105.10461 
L 77.168487 101.975852 
L 77.20757 102.973873 
L 77.363904 98.967034 
L 77.481154 105.047963 
L 77.637488 99.545973 
L 77.676572 99.953163 
L 77.793822 103.294499 
L 77.871989 99.231258 
L 77.911072 100.077227 
L 77.989239 102.729414 
L 78.028323 102.667927 
L 78.067406 98.290499 
L 78.10649 103.471202 
L 78.145573 103.280707 
L 78.22374 99.831279 
L 78.262823 100.298943 
L 78.301907 100.40664 
L 78.34099 103.255831 
L 78.419157 102.357379 
L 78.458241 102.354669 
L 78.536407 98.852158 
L 78.692741 104.870052 
L 78.849075 99.903408 
L 78.966325 106.983435 
L 79.005409 102.897294 
L 79.044492 100.930449 
L 79.083576 102.695236 
L 79.122659 103.891831 
L 79.161743 102.904622 
L 79.23991 103.318242 
L 79.318076 101.30864 
L 79.396243 101.14371 
L 79.435327 103.797715 
L 79.47441 100.256482 
L 79.513494 102.198619 
L 79.552577 105.789915 
L 79.630744 104.030754 
L 79.787078 101.365498 
L 79.865245 100.677053 
L 79.943412 105.67025 
L 80.021579 98.096478 
L 80.099745 99.292355 
L 80.138829 99.730167 
L 80.177912 105.371956 
L 80.216996 99.707595 
L 80.256079 104.692017 
L 80.334246 100.353202 
L 80.37333 102.238868 
L 80.412413 102.75607 
L 80.451497 100.076034 
L 80.49058 105.850733 
L 80.568747 104.935969 
L 80.646914 103.684391 
L 80.685997 105.116684 
L 80.725081 99.707961 
L 80.803248 101.50358 
L 80.881414 105.04269 
L 80.920498 100.261051 
L 80.998665 103.365968 
L 81.037748 102.656251 
L 81.076832 105.222561 
L 81.115915 104.146858 
L 81.194082 102.76363 
L 81.233166 104.801568 
L 81.272249 99.942056 
L 81.311332 104.592313 
L 81.350416 106.067173 
L 81.389499 104.858981 
L 81.545833 100.887757 
L 81.584917 106.485598 
L 81.624 100.710582 
L 81.663083 106.376823 
L 81.702167 101.032515 
L 81.780334 102.078393 
L 81.819417 101.843468 
L 81.936668 105.08211 
L 81.975751 101.579284 
L 82.053918 102.906573 
L 82.093001 102.84297 
L 82.132085 104.711452 
L 82.210252 104.283126 
L 82.288419 102.256911 
L 82.327502 105.818479 
L 82.405669 103.678634 
L 82.522919 100.632458 
L 82.562003 104.435957 
L 82.64017 103.787131 
L 82.75742 99.867301 
L 82.796504 105.132411 
L 82.87467 102.561234 
L 82.913754 102.876076 
L 82.952837 106.877186 
L 83.031004 104.008307 
L 83.109171 105.545613 
L 83.148255 104.177736 
L 83.187338 103.230702 
L 83.265505 103.802998 
L 83.304588 103.515191 
L 83.382755 106.293462 
L 83.421839 105.756381 
L 83.500006 107.364832 
L 83.539089 102.07348 
L 83.656339 107.539328 
L 83.695423 103.023516 
L 83.734506 106.184498 
L 83.77359 107.091441 
L 83.851757 103.250141 
L 83.89084 103.476254 
L 83.929924 107.862701 
L 84.00809 104.374146 
L 84.047174 106.536087 
L 84.086257 101.871595 
L 84.164424 103.876941 
L 84.281675 107.534287 
L 84.398925 102.322047 
L 84.438008 107.079022 
L 84.516175 106.072138 
L 84.555259 104.617222 
L 84.594342 107.528162 
L 84.633426 103.263841 
L 84.672509 104.127668 
L 84.711593 102.983812 
L 84.750676 100.193139 
L 84.789759 105.20663 
L 84.828843 105.460981 
L 84.90701 105.819714 
L 84.946093 103.89884 
L 85.02426 106.511324 
L 85.063344 104.602022 
L 85.102427 100.93366 
L 85.180594 103.142705 
L 85.219677 100.859986 
L 85.258761 106.12164 
L 85.297844 99.210395 
L 85.336928 105.737534 
L 85.376011 103.709449 
L 85.415095 108.338038 
L 85.454178 105.512445 
L 85.493262 104.043127 
L 85.532345 104.686129 
L 85.571428 105.511772 
L 85.610512 104.651937 
L 85.649595 102.391265 
L 85.688679 106.46549 
L 85.727762 108.289533 
L 85.766846 102.511237 
L 85.845013 104.51136 
L 85.92318 106.118077 
L 85.962263 102.965868 
L 86.04043 103.844221 
L 86.15768 105.573832 
L 86.196764 102.236981 
L 86.235847 106.046775 
L 86.274931 105.91631 
L 86.353097 102.259705 
L 86.431264 102.558251 
L 86.509431 102.521842 
L 86.587598 105.545106 
L 86.626682 103.444198 
L 86.665765 103.60943 
L 86.704849 105.759844 
L 86.743932 105.651311 
L 86.783015 103.500607 
L 86.861182 103.567083 
L 86.900266 103.429784 
L 86.939349 106.490425 
L 87.017516 106.150623 
L 87.0566 104.888465 
L 87.095683 105.424551 
L 87.17385 107.389698 
L 87.212933 100.508935 
L 87.2911 103.63753 
L 87.369267 106.879315 
L 87.408351 106.40299 
L 87.447434 106.342311 
L 87.486518 105.996571 
L 87.525601 103.953055 
L 87.564684 105.452269 
L 87.603768 106.000115 
L 87.642851 108.562423 
L 87.681935 105.212772 
L 87.799185 106.948336 
L 87.877352 102.566675 
L 87.916435 105.570853 
L 87.955519 105.582256 
L 88.033686 103.425797 
L 88.111853 104.08626 
L 88.19002 107.353243 
L 88.268187 105.570231 
L 88.30727 105.6428 
L 88.42452 101.472369 
L 88.502687 108.226702 
L 88.541771 105.423351 
L 88.698104 102.427036 
L 88.854438 107.335812 
L 88.893522 110.515065 
L 88.932605 104.279426 
L 89.010772 105.152799 
L 89.088939 103.038375 
L 89.128022 106.986907 
L 89.206189 105.934432 
L 89.245273 104.616057 
L 89.284356 106.658768 
L 89.32344 108.118741 
L 89.479773 101.827489 
L 89.636107 106.864681 
L 89.753358 102.241614 
L 89.792441 105.767383 
L 89.831525 105.099306 
L 89.870608 101.879862 
L 89.909691 104.382703 
L 89.987858 107.280612 
L 90.026942 101.128596 
L 90.105109 106.069223 
L 90.183276 108.542104 
L 90.300526 105.060817 
L 90.417776 107.895818 
L 90.495943 104.691823 
L 90.535027 105.626887 
L 90.57411 108.518552 
L 90.652277 106.323981 
L 90.69136 108.31985 
L 90.730444 106.309852 
L 90.769527 104.331991 
L 90.808611 107.008226 
L 90.886778 108.41512 
L 90.964945 102.969583 
L 91.004028 105.715933 
L 91.043111 104.831962 
L 91.082195 105.93487 
L 91.121278 106.861412 
L 91.160362 105.65628 
L 91.199445 103.665627 
L 91.238529 108.025266 
L 91.277612 102.393333 
L 91.316696 107.687149 
L 91.355779 105.496913 
L 91.394863 106.19789 
L 91.473029 107.760283 
L 91.512113 105.158262 
L 91.551196 107.483425 
L 91.59028 110.073687 
L 91.629363 104.108115 
L 91.70753 105.900692 
L 91.746614 103.973873 
L 91.785697 107.513261 
L 91.82478 105.195646 
L 91.863864 104.064083 
L 91.902947 108.060458 
L 91.981114 107.479557 
L 92.020198 105.467324 
L 92.059281 107.014142 
L 92.137448 105.895536 
L 92.176532 110.463821 
L 92.332865 105.265159 
L 92.411032 107.595803 
L 92.450116 106.602392 
L 92.489199 104.298016 
L 92.528283 104.642807 
L 92.567366 106.92106 
L 92.606449 106.914566 
L 92.645533 104.807944 
L 92.684616 105.722529 
L 92.801867 107.762425 
L 92.84095 105.366821 
L 92.919117 106.535125 
L 92.997284 107.311361 
L 93.036367 105.356218 
L 93.075451 110.955876 
L 93.114534 108.960855 
L 93.231785 105.587968 
L 93.309952 105.182676 
L 93.349035 109.487061 
L 93.427202 103.845028 
L 93.505369 104.650946 
L 93.661703 109.854708 
L 93.700786 106.006654 
L 93.778953 107.296063 
L 93.818036 106.89377 
L 93.85712 108.433287 
L 93.896203 106.766263 
L 93.935287 108.169459 
L 94.013454 103.816157 
L 94.052537 106.305422 
L 94.091621 106.362717 
L 94.130704 105.664814 
L 94.169787 106.678595 
L 94.287038 107.374267 
L 94.365205 104.908381 
L 94.482455 108.961671 
L 94.521539 107.709893 
L 94.560622 102.666914 
L 94.599705 104.976112 
L 94.638789 110.318369 
L 94.716956 108.680407 
L 94.795123 105.355992 
L 94.834206 107.204757 
L 94.87329 109.178442 
L 94.912373 107.195176 
L 94.951456 107.225058 
L 94.99054 108.509632 
L 95.029623 104.924878 
L 95.10779 107.786125 
L 95.146874 106.63728 
L 95.185957 108.686544 
L 95.264124 107.872516 
L 95.303208 109.713579 
L 95.342291 107.800916 
L 95.381374 109.363384 
L 95.498625 104.215358 
L 95.654959 109.71911 
L 95.694042 105.479437 
L 95.772209 105.718166 
L 95.850376 104.767252 
L 95.889459 109.685904 
L 96.00671 105.57048 
L 96.045793 107.718597 
L 96.084877 106.783185 
L 96.12396 108.707862 
L 96.163043 104.918875 
L 96.202127 107.659538 
L 96.24121 109.592811 
L 96.280294 107.587969 
L 96.319377 107.248848 
L 96.358461 105.323835 
L 96.397544 108.715586 
L 96.475711 109.937185 
L 96.514795 108.09857 
L 96.553878 108.361702 
L 96.592961 109.863655 
L 96.632045 107.278777 
L 96.671128 105.20571 
L 96.749295 106.34639 
L 96.866546 109.967365 
L 96.905629 108.604902 
L 96.944712 108.679864 
L 96.983796 104.990302 
L 97.022879 106.274399 
L 97.061963 108.449843 
L 97.14013 107.864555 
L 97.179213 107.750163 
L 97.218297 108.406753 
L 97.335547 106.068034 
L 97.413714 105.904123 
L 97.491881 109.970659 
L 97.570048 106.988385 
L 97.648215 110.331807 
L 97.726381 106.70288 
L 97.765465 107.087289 
L 97.804548 110.738682 
L 97.843632 106.744771 
L 97.882715 104.022309 
L 97.999966 110.154747 
L 98.039049 106.432615 
L 98.117216 109.023426 
L 98.156299 108.406312 
L 98.195383 111.268092 
L 98.234466 107.099664 
L 98.27355 105.275838 
L 98.312633 109.086615 
L 98.3908 106.902656 
L 98.429884 108.857744 
L 98.468967 106.296338 
L 98.50805 106.619388 
L 98.625301 109.687387 
L 98.820718 106.563549 
L 98.859802 107.901228 
L 98.898885 106.644482 
L 98.937968 106.628634 
L 98.977052 106.424632 
L 99.016135 107.865222 
L 99.055219 103.619077 
L 99.094302 108.393772 
L 99.133386 105.658645 
L 99.211553 109.382417 
L 99.250636 105.488336 
L 99.328803 108.013216 
L 99.367886 107.448699 
L 99.40697 110.133253 
L 99.446053 107.57839 
L 99.485137 106.19968 
L 99.563304 110.226163 
L 99.602387 108.903888 
L 99.641471 107.511969 
L 99.719637 107.723029 
L 99.875971 109.9869 
L 99.954138 109.458755 
L 99.993222 110.537084 
L 100.032305 109.330803 
L 100.110472 107.209346 
L 100.149555 111.896237 
L 100.227722 108.833194 
L 100.266806 108.056587 
L 100.305889 111.701286 
L 100.344973 105.695935 
L 100.462223 110.940521 
L 100.501306 109.336461 
L 100.54039 109.764092 
L 100.579473 109.292323 
L 100.65764 106.117844 
L 100.696724 112.052278 
L 100.735807 106.106378 
L 100.774891 105.6438 
L 100.813974 111.172832 
L 100.892141 107.091764 
L 100.970308 105.760626 
L 101.009391 110.320522 
L 101.165725 107.607426 
L 101.282975 112.16813 
L 101.400226 106.250077 
L 101.517476 109.816344 
L 101.478393 106.157242 
L 101.55656 109.769736 
L 101.595643 107.690881 
L 101.67381 108.24682 
L 101.712893 110.480437 
L 101.751977 109.644023 
L 101.79106 105.36006 
L 101.830144 109.722551 
L 101.869227 109.552022 
L 101.908311 110.145726 
L 101.986478 110.960633 
L 102.025561 106.592612 
L 102.064644 110.555946 
L 102.142811 107.355316 
L 102.260062 110.020216 
L 102.338229 108.801733 
L 102.377312 110.440079 
L 102.416395 109.771058 
L 102.455479 109.016029 
L 102.494562 109.716792 
L 102.533646 109.741847 
L 102.650896 106.827616 
L 102.68998 107.722639 
L 102.768147 107.36694 
L 102.80723 110.422081 
L 102.885397 107.263769 
L 102.92448 112.14801 
L 103.002647 111.381652 
L 103.041731 112.264173 
L 103.119898 107.695929 
L 103.158981 108.098605 
L 103.198064 111.721926 
L 103.237148 110.373525 
L 103.276231 108.005191 
L 103.315315 111.878039 
L 103.393482 110.723453 
L 103.432565 106.978421 
L 103.471649 111.214158 
L 103.510732 109.875502 
L 103.549816 109.293278 
L 103.667066 114.019495 
L 103.706149 114.050936 
L 103.745233 112.95459 
L 103.784316 113.760648 
L 103.8234 115.209761 
L 103.862483 113.081434 
L 103.901567 114.483315 
L 104.0579 111.547399 
L 104.175151 113.04396 
L 104.214234 110.646653 
L 104.253318 111.577306 
L 104.370568 113.846487 
L 104.409651 112.575473 
L 104.448735 114.077127 
L 104.487818 113.832341 
L 104.526902 114.274261 
L 104.565985 115.576617 
L 104.605069 113.953509 
L 104.761402 115.169016 
L 105.034987 111.365613 
L 105.152237 114.554068 
L 105.230404 111.54741 
L 105.308571 111.789245 
L 105.347654 112.056488 
L 105.464905 115.188249 
L 105.503988 110.952477 
L 105.582155 111.553692 
L 105.621238 115.728308 
L 105.660322 110.805229 
L 105.699405 114.064735 
L 105.738489 113.233169 
L 105.777572 109.897227 
L 105.816656 113.682352 
L 105.855739 113.445448 
L 105.894823 113.539166 
L 105.933906 113.9265 
L 105.972989 111.038312 
L 106.012073 115.184738 
L 106.168407 113.104266 
L 106.246574 115.044398 
L 106.402907 112.220555 
L 106.598325 114.925625 
L 106.676492 111.729029 
L 106.793742 115.109591 
L 106.832825 113.427004 
L 106.871909 114.664875 
L 106.910992 115.711261 
L 107.067326 110.367032 
L 107.184576 114.37716 
L 107.22366 111.886207 
L 107.262743 112.43178 
L 107.34091 115.032693 
L 107.379994 110.512165 
L 107.458161 110.870052 
L 107.614494 116.148826 
L 107.731745 111.274864 
L 107.770828 111.830285 
L 107.888078 113.506629 
L 107.927162 112.702758 
L 107.966245 113.082535 
L 108.005329 116.190966 
L 108.044412 111.70106 
L 108.083496 113.673247 
L 108.161663 114.26234 
L 108.23983 114.241203 
L 108.35708 112.585308 
L 108.396163 113.035074 
L 108.435247 114.418647 
L 108.47433 111.659746 
L 108.513414 113.15299 
L 108.591581 112.76502 
L 108.630664 115.066845 
L 108.669747 111.851358 
L 108.708831 113.379782 
L 108.747914 115.702377 
L 108.826081 114.346822 
L 108.865165 114.391519 
L 109.021499 109.067921 
L 109.060582 114.550875 
L 109.138749 112.146795 
L 109.295083 114.87032 
L 109.334166 112.680625 
L 109.412333 114.086501 
L 109.451416 114.53697 
L 109.4905 111.739247 
L 109.568667 113.92056 
L 109.60775 113.717793 
L 109.646834 116.076757 
L 109.685917 113.171826 
L 109.725001 112.284914 
L 109.764084 114.646128 
L 109.803168 112.632667 
L 109.842251 112.201286 
L 109.959501 115.265411 
L 110.154919 110.921806 
L 110.233085 114.440522 
L 110.311252 113.265862 
L 110.350336 114.154979 
L 110.50667 111.132885 
L 110.663003 115.320453 
L 110.702087 112.851366 
L 110.780254 113.04849 
L 110.819337 113.765887 
L 110.858421 112.604241 
L 110.897504 112.25946 
L 110.936588 114.229888 
L 110.975671 111.390823 
L 111.014754 112.69866 
L 111.053838 114.156572 
L 111.132005 113.597537 
L 111.171088 113.372821 
L 111.210172 111.767329 
L 111.288339 112.514741 
L 111.366506 115.372763 
L 111.405589 113.0696 
L 111.444672 114.244179 
L 111.483756 111.686434 
L 111.522839 113.658015 
L 111.561923 114.780808 
L 111.601006 113.49876 
L 111.64009 114.54302 
L 111.679173 113.54965 
L 111.75734 113.230831 
L 111.796423 115.724316 
L 111.952757 111.183579 
L 112.030924 114.450808 
L 112.070008 112.751437 
L 112.109091 112.713792 
L 112.226341 115.523278 
L 112.304508 112.377156 
L 112.343592 115.568536 
L 112.421759 113.837643 
L 112.499926 113.113761 
L 112.539009 114.207068 
L 112.578092 113.088421 
L 112.617176 111.557194 
L 112.656259 113.426665 
L 112.695343 112.359336 
L 112.89076 114.430305 
L 112.929844 114.95638 
L 112.968927 110.154319 
L 113.047094 111.852717 
L 113.086177 114.522772 
L 113.164344 113.588905 
L 113.203428 111.833639 
L 113.242511 113.618171 
L 113.281595 113.88263 
L 113.320678 113.199246 
L 113.359761 115.896369 
L 113.398845 112.936695 
L 113.477012 112.776695 
L 113.516095 111.254942 
L 113.555179 111.825329 
L 113.594262 116.117599 
L 113.672429 115.877915 
L 113.789679 107.865652 
L 113.828763 114.431739 
L 113.90693 111.694369 
L 113.985097 116.511705 
L 114.02418 112.649953 
L 114.063264 109.805638 
L 114.102347 114.114889 
L 114.14143 114.321916 
L 114.219597 111.708503 
L 114.297764 111.832865 
L 114.336848 113.381034 
L 114.415015 112.570183 
L 114.454098 112.851892 
L 114.493182 116.192075 
L 114.532265 113.67628 
L 114.571348 112.025046 
L 114.610432 114.385177 
L 114.649515 115.197703 
L 114.688599 113.685162 
L 114.727682 114.167682 
L 114.766766 116.170923 
L 114.805849 114.866312 
L 114.884016 115.308417 
L 114.962183 110.54017 
L 115.001266 111.701476 
L 115.04035 108.684138 
L 115.079433 110.7456 
L 115.196684 114.769564 
L 115.235767 113.306049 
L 115.313934 113.9516 
L 115.353017 114.706301 
L 115.392101 112.042948 
L 115.470268 113.692503 
L 115.509351 112.533261 
L 115.548435 114.798985 
L 115.626602 114.452054 
L 115.665685 112.224795 
L 115.743852 112.267252 
L 115.782935 112.330759 
L 115.822019 111.184793 
L 115.861102 112.676029 
L 115.900186 113.385696 
L 115.939269 110.981144 
L 115.978353 113.438994 
L 116.017436 111.520565 
L 116.05652 114.966582 
L 116.134686 113.214298 
L 116.17377 114.731787 
L 116.251937 114.051868 
L 116.330104 112.45294 
L 116.408271 112.606615 
L 116.486437 112.144948 
L 116.525521 115.153212 
L 116.564604 112.601707 
L 116.642771 113.01806 
L 116.681855 114.467936 
L 116.720938 109.643587 
L 116.760022 113.370757 
L 116.838189 116.474134 
L 116.994522 112.027295 
L 117.111773 114.549969 
L 117.150856 114.332282 
L 117.18994 112.533692 
L 117.229023 113.070698 
L 117.30719 115.289312 
L 117.346273 114.495774 
L 117.385357 113.644842 
L 117.42444 115.075852 
L 117.463524 113.732023 
L 117.502607 114.530286 
L 117.619858 110.526578 
L 117.737108 115.517445 
L 117.776191 112.306407 
L 117.854358 113.292694 
L 117.893442 114.776241 
L 117.932525 111.195658 
L 117.971609 113.707375 
L 118.010692 115.510028 
L 118.088859 114.203028 
L 118.127942 113.280818 
L 118.167026 114.250901 
L 118.206109 116.732796 
L 118.284276 115.393234 
L 118.362443 110.611821 
L 118.44061 111.06188 
L 118.479693 114.611352 
L 118.55786 113.333722 
L 118.596944 113.312256 
L 118.636027 112.359113 
L 118.675111 115.243449 
L 118.714194 114.843753 
L 118.753278 112.264501 
L 118.831444 114.06824 
L 118.909611 114.491443 
L 118.948695 112.965117 
L 118.987778 113.632045 
L 119.026862 113.02332 
L 119.065945 110.838397 
L 119.105029 113.3742 
L 119.144112 112.805495 
L 119.183196 114.97669 
L 119.222279 113.995063 
L 119.300446 114.841323 
L 119.378613 111.313257 
L 119.534947 116.261577 
L 119.613113 113.351579 
L 119.652197 114.925468 
L 119.69128 115.643628 
L 119.808531 111.724354 
L 119.769447 115.650685 
L 119.847614 112.900926 
L 119.886698 115.122063 
L 119.964865 114.916655 
L 120.082115 111.699306 
L 120.238449 114.606579 
L 120.277532 111.10756 
L 120.355699 113.390003 
L 120.394782 114.046025 
L 120.433866 113.579705 
L 120.472949 112.702185 
L 120.551116 113.282414 
L 120.5902 114.592188 
L 120.668367 113.735453 
L 120.70745 113.512026 
L 120.746534 111.218263 
L 120.785617 116.178424 
L 120.8247 109.52987 
L 120.863784 113.427444 
L 120.941951 115.370703 
L 120.981034 114.33165 
L 121.020118 114.644165 
L 121.098285 110.309473 
L 121.137368 112.408853 
L 121.176451 113.768276 
L 121.254618 112.620982 
L 121.450036 115.884403 
L 121.489119 114.688752 
L 121.567286 114.978998 
L 121.606369 113.515184 
L 121.72362 116.255015 
L 121.762703 111.762542 
L 121.84087 114.793769 
L 121.919037 115.486525 
L 121.95812 111.81309 
L 122.153538 115.638092 
L 122.231705 116.630577 
L 122.270788 112.354728 
L 122.348955 112.332613 
L 122.427122 114.634609 
L 122.466205 112.632953 
L 122.544372 113.712845 
L 122.583456 115.851846 
L 122.622539 113.838062 
L 122.661623 111.210366 
L 122.700706 116.042692 
L 122.896123 113.975933 
L 122.935207 114.756615 
L 123.052457 111.929884 
L 123.208791 115.072366 
L 123.247874 114.816122 
L 123.286958 111.304575 
L 123.326041 114.29241 
L 123.365125 116.467752 
L 123.404208 115.752592 
L 123.521459 110.397376 
L 123.560542 114.028763 
L 123.599625 115.537488 
L 123.677792 114.291953 
L 123.716876 113.855742 
L 123.755959 114.185654 
L 123.795043 114.601157 
L 123.834126 112.771905 
L 123.87321 114.456795 
L 123.951376 114.508221 
L 124.029543 115.247708 
L 124.10771 112.938974 
L 124.146794 115.718411 
L 124.224961 114.275218 
L 124.264044 113.187545 
L 124.303128 113.24904 
L 124.381294 114.822371 
L 124.420378 114.736259 
L 124.459461 112.627746 
L 124.537628 113.009682 
L 124.576712 115.188469 
L 124.615795 113.471083 
L 124.654879 113.06495 
L 124.733045 111.439175 
L 124.811212 117.159632 
L 124.889379 113.369183 
L 124.928463 114.3108 
L 124.967546 115.651653 
L 125.00663 115.183932 
L 125.045713 112.673159 
L 125.084797 115.196591 
L 125.12388 116.545804 
L 125.24113 112.848344 
L 125.319297 116.371608 
L 125.397464 114.845329 
L 125.475631 115.316171 
L 125.553798 112.828688 
L 125.631965 114.176182 
L 125.671048 112.91528 
L 125.710132 113.794146 
L 125.749215 115.359278 
L 125.788299 113.233855 
L 125.827382 114.369969 
L 125.866466 114.470221 
L 125.944632 115.655628 
L 125.983716 113.935063 
L 126.022799 114.75995 
L 126.061883 116.119587 
L 126.100966 112.094114 
L 126.179133 114.071974 
L 126.2573 113.381312 
L 126.413634 116.300513 
L 126.569968 113.069029 
L 126.491801 116.476763 
L 126.648135 113.483713 
L 126.687218 113.605729 
L 126.882635 116.179009 
L 126.960802 112.613529 
L 126.999886 113.666303 
L 127.038969 117.034027 
L 127.078052 115.007369 
L 127.195303 113.313833 
L 127.27347 115.714929 
L 127.312553 114.68267 
L 127.351637 112.822678 
L 127.39072 115.605097 
L 127.429804 113.634224 
L 127.468887 115.636351 
L 127.50797 114.970951 
L 127.547054 113.924266 
L 127.586137 113.999157 
L 127.625221 115.158118 
L 127.664304 112.035732 
L 127.703388 116.81788 
L 127.781555 112.621883 
L 127.820638 113.789275 
L 127.859721 114.79656 
L 127.898805 111.564536 
L 127.937888 115.106732 
L 127.976972 115.271596 
L 128.172389 110.610046 
L 128.250556 114.852829 
L 128.289639 114.538363 
L 128.328723 114.766542 
L 128.445973 111.865717 
L 128.52414 114.978817 
L 128.563224 114.262013 
L 128.602307 115.03903 
L 128.680474 112.393383 
L 128.719557 113.281507 
L 128.875891 115.064658 
L 129.032225 112.821236 
L 129.071308 113.573208 
L 129.110392 113.830533 
L 129.149475 112.802293 
L 129.188559 114.053893 
L 129.266726 115.27341 
L 129.344893 113.127421 
L 129.383976 113.289233 
L 129.54031 117.291631 
L 129.618477 112.095166 
L 129.735727 113.574948 
L 129.892061 115.834665 
L 130.009311 110.214157 
L 130.165645 117.009583 
L 130.243812 111.828665 
L 130.321979 113.582147 
L 130.400146 116.603634 
L 130.439229 112.835029 
L 130.478313 114.330092 
L 130.517396 116.773243 
L 130.55648 111.437407 
L 130.634646 115.624137 
L 130.67373 116.753745 
L 130.712813 115.622769 
L 130.751897 112.462954 
L 130.830064 113.818464 
L 130.986397 116.556065 
L 131.025481 113.981746 
L 131.064564 114.546779 
L 131.103648 117.279946 
L 131.142731 114.816268 
L 131.181815 114.016313 
L 131.220898 115.461962 
L 131.259982 116.853386 
L 131.377232 114.001801 
L 131.494482 116.45159 
L 131.533566 116.078804 
L 131.611733 116.361007 
L 131.6899 113.889701 
L 131.728983 116.390401 
L 131.768066 115.758911 
L 131.846233 112.004609 
L 131.885317 117.180422 
L 131.963484 113.667495 
L 132.002567 111.321113 
L 132.041651 112.870532 
L 132.119818 115.754567 
L 132.197984 114.452385 
L 132.276151 114.20435 
L 132.315235 116.199598 
L 132.354318 114.965128 
L 132.393402 114.340713 
L 132.432485 111.462223 
L 132.471569 116.808701 
L 132.510652 109.325266 
L 132.549735 114.049281 
L 132.588819 115.660193 
L 132.627902 111.989173 
L 132.706069 114.423705 
L 132.745153 115.395992 
L 132.784236 112.894116 
L 132.82332 116.94813 
L 132.862403 117.436344 
L 133.05782 112.791328 
L 133.175071 114.754195 
L 133.214154 113.334035 
L 133.253238 116.442676 
L 133.292321 113.205511 
L 133.331404 116.386739 
L 133.370488 114.07213 
L 133.448655 115.352868 
L 133.565905 112.256835 
L 133.604989 113.359341 
L 133.644072 113.865058 
L 133.683156 116.45038 
L 133.761322 114.344937 
L 133.800406 111.901 
L 133.839489 115.61213 
L 133.878573 117.124605 
L 133.917656 112.319412 
L 133.995823 113.878152 
L 134.034907 115.86161 
L 134.07399 112.949549 
L 134.113073 115.714937 
L 134.152157 113.003448 
L 134.19124 116.412931 
L 134.269407 114.089974 
L 134.347574 115.601782 
L 134.386658 115.415757 
L 134.464825 112.083518 
L 134.542991 116.281388 
L 134.582075 115.441756 
L 134.660242 113.392518 
L 134.699325 116.041071 
L 134.777492 114.702861 
L 134.816576 114.469677 
L 134.855659 117.183498 
L 134.894742 115.834857 
L 135.011993 113.002866 
L 135.051076 113.27416 
L 135.09016 113.85786 
L 135.129243 116.403162 
L 135.20741 115.446581 
L 135.246494 115.195241 
L 135.402827 113.487525 
L 135.559161 119.410844 
L 135.637328 116.558032 
L 135.676411 120.619784 
L 135.754578 118.798632 
L 135.793662 116.072295 
L 135.832745 118.495526 
L 135.871829 121.008024 
L 135.910912 116.618163 
L 135.949996 116.24189 
L 136.067246 120.095369 
L 136.145413 118.739692 
L 136.22358 118.511883 
L 136.301747 120.311688 
L 136.34083 119.604571 
L 136.45808 115.11341 
L 136.497164 117.587444 
L 136.536247 117.545192 
L 136.575331 119.927106 
L 136.653498 119.167593 
L 136.692581 116.920308 
L 136.731665 119.89463 
L 136.927082 116.656016 
L 137.083416 118.788158 
L 137.161583 119.141716 
L 137.200666 119.2512 
L 137.278833 116.676802 
L 137.317916 118.569345 
L 137.435167 119.447675 
L 137.591501 116.725189 
L 137.747834 118.807531 
L 137.786918 117.222937 
L 137.826001 117.669979 
L 137.904168 119.272317 
L 137.943252 117.379779 
L 137.982335 118.325117 
L 138.021418 120.037078 
L 138.060502 119.123113 
L 138.099585 116.904071 
L 138.177752 118.280934 
L 138.216836 117.258949 
L 138.255919 118.218409 
L 138.295003 119.155944 
L 138.334086 118.659744 
L 138.37317 116.956612 
L 138.412253 118.042757 
L 138.451336 120.357131 
L 138.49042 119.680712 
L 138.529503 116.85514 
L 138.568587 117.829465 
L 138.60767 119.829073 
L 138.646754 117.526801 
L 138.685837 119.004729 
L 138.803087 116.277349 
L 138.920338 119.150829 
L 138.959421 118.435238 
L 139.037588 115.771616 
L 139.076672 119.848308 
L 139.154839 116.684345 
L 139.350256 120.42226 
L 139.50659 116.106945 
L 139.545673 117.092954 
L 139.584756 116.77257 
L 139.62384 116.168647 
L 139.702007 115.845258 
L 139.74109 119.751888 
L 139.780174 114.610516 
L 139.819257 118.484604 
L 139.858341 119.126504 
L 139.897424 115.202593 
L 139.936508 119.422012 
L 139.975591 117.750808 
L 140.014674 116.314774 
L 140.053758 116.55454 
L 140.092841 121.458236 
L 140.131925 120.990103 
L 140.249175 117.207095 
L 140.288259 120.411437 
L 140.327342 118.687969 
L 140.366425 117.441342 
L 140.405509 118.27829 
L 140.600926 119.625031 
L 140.679093 116.275841 
L 140.75726 116.397035 
L 140.87451 118.377109 
L 140.913594 116.009216 
L 140.952677 119.51855 
L 140.991761 117.788439 
L 141.069928 118.21323 
L 141.109011 117.83004 
L 141.187178 120.03035 
L 141.226261 119.358686 
L 141.382595 115.53617 
L 141.460762 119.447526 
L 141.499846 117.898875 
L 141.538929 117.355028 
L 141.578012 118.918926 
L 141.656179 117.969313 
L 141.695263 117.482712 
L 141.851597 120.358286 
L 141.89068 120.053502 
L 142.00793 115.774929 
L 142.125181 119.63574 
L 142.164264 118.966822 
L 142.242431 117.436863 
L 142.359681 119.415803 
L 142.398765 117.827655 
L 142.437848 121.05096 
L 142.476932 117.68394 
L 142.555099 117.379797 
L 142.594182 118.873313 
L 142.633266 116.464296 
L 142.750516 118.486386 
L 142.828683 115.348333 
L 142.945933 119.906472 
L 143.0241 117.881501 
L 143.14135 120.041895 
L 143.180434 116.125432 
L 143.258601 117.894382 
L 143.336768 115.900066 
L 143.375851 118.07048 
L 143.454018 116.570513 
L 143.532185 116.270329 
L 143.610352 119.21183 
L 143.766686 116.001811 
L 143.805769 115.920232 
L 143.923019 118.586272 
L 144.04027 115.887503 
L 144.118437 118.34292 
L 144.15752 117.614137 
L 144.196604 116.740673 
L 144.235687 119.925002 
L 144.313854 117.38485 
L 144.352937 118.675196 
L 144.392021 117.618264 
L 144.431104 116.653687 
L 144.470188 119.087225 
L 144.509271 114.335067 
L 144.548355 117.980086 
L 144.587438 118.961318 
L 144.626522 117.774652 
L 144.665605 118.725959 
L 144.743772 119.654982 
L 144.782855 116.908154 
L 144.861022 119.255011 
L 144.900106 116.850569 
L 144.939189 120.338255 
L 144.978273 118.777212 
L 145.017356 118.294506 
L 145.056439 118.866415 
L 145.095523 115.880362 
L 145.17369 117.455105 
L 145.212773 116.051555 
L 145.251857 116.392608 
L 145.408191 119.942624 
L 145.486357 116.181475 
L 145.525441 118.488876 
L 145.642691 117.038385 
L 145.681775 118.369225 
L 145.720858 115.406142 
L 145.759942 116.832923 
L 145.799025 118.483725 
L 145.838108 118.276469 
L 145.916275 118.290352 
L 145.955359 116.198493 
L 146.033526 119.854796 
L 146.072609 118.200651 
L 146.111693 119.898342 
L 146.150776 118.573903 
L 146.18986 115.703623 
L 146.228943 119.051735 
L 146.30711 119.524441 
L 146.42436 116.403092 
L 146.463444 119.938463 
L 146.541611 119.162886 
L 146.580694 118.931287 
L 146.619777 116.83016 
L 146.658861 117.778873 
L 146.737028 119.357096 
L 146.815195 116.705601 
L 146.893362 119.600799 
L 146.932445 117.878657 
L 146.971529 118.002432 
L 147.010612 118.752932 
L 147.127862 115.056725 
L 147.206029 119.436944 
L 147.245113 116.404919 
L 147.362363 119.559061 
L 147.44053 117.432927 
L 147.479613 117.590159 
L 147.596864 119.128054 
L 147.635947 116.234425 
L 147.675031 118.55243 
L 147.714114 119.446095 
L 147.753198 116.715094 
L 147.831364 117.594621 
L 147.870448 120.632754 
L 147.909531 117.163412 
L 147.948615 117.020913 
L 148.104949 119.651872 
L 148.183115 116.310223 
L 148.222199 120.123161 
L 148.261282 118.522632 
L 148.300366 115.666974 
L 148.339449 117.579014 
L 148.378533 118.779397 
L 148.417616 118.424398 
L 148.4567 116.425091 
L 148.495783 117.135458 
L 148.534867 119.50692 
L 148.613033 117.734191 
L 148.6912 119.842442 
L 148.730284 115.919541 
L 148.808451 117.581266 
L 148.847534 118.042623 
L 148.886618 115.959716 
L 148.964784 117.509074 
L 149.042951 118.424385 
L 149.082035 117.755545 
L 149.121118 116.195338 
L 149.160202 117.313272 
L 149.199285 117.762815 
L 149.238369 115.252646 
L 149.277452 117.702941 
L 149.355619 119.68915 
L 149.394702 118.011461 
L 149.433786 118.10504 
L 149.472869 119.309395 
L 149.511953 117.723899 
L 149.551036 116.993027 
L 149.59012 119.468459 
L 149.668287 117.594915 
L 149.746453 118.931051 
L 149.785537 118.689614 
L 149.82462 115.304068 
L 149.863704 119.169511 
L 149.902787 116.796742 
L 149.941871 120.167752 
L 150.020038 117.765888 
L 150.059121 117.886996 
L 150.137288 116.453356 
L 150.293622 119.641351 
L 150.332705 116.165566 
L 150.410872 118.425295 
L 150.567206 116.128011 
L 150.606289 120.444335 
L 150.684456 119.063503 
L 150.72354 120.784628 
L 150.762623 116.56689 
L 150.84079 117.842682 
L 150.879874 118.606318 
L 150.918957 118.169677 
L 150.95804 116.331151 
L 150.997124 119.944549 
L 151.075291 119.115117 
L 151.114374 118.488776 
L 151.153458 116.062683 
L 151.192541 119.051176 
L 151.231625 116.241162 
L 151.348875 118.563367 
L 151.387958 118.364604 
L 151.466125 120.19491 
L 151.505209 117.277843 
L 151.583376 118.392692 
L 151.622459 117.645862 
L 151.661543 118.034222 
L 151.700626 122.505291 
L 151.739709 118.931904 
L 151.85696 117.340615 
L 151.896043 119.516452 
L 151.935127 116.514423 
L 151.97421 117.796608 
L 152.013294 119.423416 
L 152.052377 116.231493 
L 152.130544 118.003452 
L 152.169627 118.02926 
L 152.208711 120.075279 
L 152.286878 118.694405 
L 152.365045 116.475072 
L 152.404128 120.165006 
L 152.443212 115.458648 
L 152.482295 119.589097 
L 152.560462 116.198839 
L 152.599545 118.108708 
L 152.755879 119.550301 
L 152.912213 115.643793 
L 153.068547 119.258724 
L 153.10763 116.13 
L 153.185797 117.797524 
L 153.263964 121.237465 
L 153.303047 119.533556 
L 153.342131 118.317532 
L 153.381214 119.90414 
L 153.420298 119.090035 
L 153.459381 119.62927 
L 153.537548 116.856839 
L 153.576632 118.283449 
L 153.654799 119.084031 
L 153.772049 116.155304 
L 153.811132 117.359012 
L 153.850216 118.449856 
L 153.889299 116.683604 
L 153.928383 117.72559 
L 153.967466 116.400379 
L 154.00655 117.041809 
L 154.1238 119.03978 
L 154.162883 117.276396 
L 154.24105 118.216135 
L 154.280134 119.54553 
L 154.319217 117.161946 
L 154.358301 118.982806 
L 154.397384 118.48051 
L 154.436468 119.128407 
L 154.475551 118.961886 
L 154.553718 117.318964 
L 154.631885 120.266262 
L 154.670968 119.000008 
L 154.710052 118.731219 
L 154.749135 119.629561 
L 154.788219 118.340076 
L 154.827302 117.440607 
L 154.866385 118.434415 
L 154.944552 120.229489 
L 155.061803 116.268457 
L 155.13997 115.835189 
L 155.179053 118.582182 
L 155.296303 116.652652 
L 155.335387 117.257897 
L 155.413554 116.968287 
L 155.452637 120.283759 
L 155.608971 116.060164 
L 155.843472 119.222142 
L 155.882555 118.913192 
L 155.921639 116.135133 
L 155.960722 119.429764 
L 156.038889 115.803132 
L 156.117056 115.836592 
L 156.156139 120.165361 
L 156.195223 115.444599 
L 156.27339 118.121187 
L 156.351557 117.796594 
L 156.39064 117.027878 
L 156.50789 121.010599 
L 156.586057 117.65916 
L 156.664224 117.966467 
L 156.703308 116.507143 
L 156.742391 118.368633 
L 156.781475 117.879908 
L 156.820558 117.938795 
L 156.898725 119.802612 
L 156.976892 119.449521 
L 157.172309 116.640304 
L 157.211392 118.955337 
L 157.250476 115.589204 
L 157.289559 118.635639 
L 157.367726 116.900877 
L 157.40681 118.452586 
L 157.484977 117.284417 
L 157.52406 117.235752 
L 157.602227 118.55653 
L 157.64131 118.161914 
L 157.680394 116.122264 
L 157.719477 120.064716 
L 157.758561 118.588201 
L 157.797644 115.95522 
L 157.875811 117.757906 
L 157.914895 116.082909 
L 157.953978 118.065906 
L 158.032145 117.863706 
L 158.110312 119.42211 
L 158.149395 116.631892 
L 158.188479 118.60024 
L 158.227562 119.946211 
L 158.344813 115.87356 
L 158.422979 118.667434 
L 158.462063 117.365115 
L 158.54023 118.519954 
L 158.618397 115.446257 
L 158.65748 118.972171 
L 158.735647 117.711242 
L 158.931064 115.568096 
L 158.970148 119.217103 
L 159.048315 118.225567 
L 159.087398 118.475153 
L 159.165565 119.29482 
L 159.204648 115.550813 
L 159.282815 117.760306 
L 159.321899 117.650544 
L 159.360982 116.448122 
L 159.400066 117.821131 
L 159.439149 117.614198 
L 159.478233 117.674746 
L 159.556399 118.447234 
L 159.595483 118.345546 
L 159.634566 115.260196 
L 159.712733 116.701239 
L 159.869067 119.115289 
L 159.908151 118.186498 
L 160.025401 117.037339 
L 160.064484 118.551429 
L 160.103568 115.028498 
L 160.142651 119.276582 
L 160.181735 115.851751 
L 160.220818 118.556709 
L 160.298985 118.106252 
L 160.338068 118.349973 
L 160.377152 116.613005 
L 160.455319 117.980336 
L 160.533486 118.017923 
L 160.650736 116.883779 
L 160.68982 118.51579 
L 160.767986 117.447904 
L 160.846153 118.974311 
L 160.92432 118.333958 
L 160.963404 118.457048 
L 161.002487 117.893248 
L 161.041571 118.652071 
L 161.080654 119.676791 
L 161.158821 116.795147 
L 161.197904 117.579038 
L 161.236988 118.629479 
L 161.315155 118.063572 
L 161.354238 118.499759 
L 161.393322 115.964029 
L 161.471489 117.836214 
L 161.510572 119.139482 
L 161.549655 116.142447 
L 161.627822 117.73909 
L 161.666906 119.643074 
L 161.705989 118.470265 
L 161.82324 117.494941 
L 161.901406 119.008239 
L 161.979573 118.755055 
L 162.018657 115.506043 
L 162.05774 116.738091 
L 162.096824 119.883936 
L 162.174991 117.477176 
L 162.292241 116.357589 
L 162.370408 117.958621 
L 162.409491 117.480629 
L 162.448575 116.973609 
L 162.526742 116.31085 
L 162.565825 119.874913 
L 162.643992 114.549403 
L 162.683075 116.878743 
L 162.800326 119.934486 
L 162.761242 115.560461 
L 162.839409 119.008712 
L 162.878493 118.667202 
L 162.917576 116.661364 
L 162.995743 117.336772 
L 163.034827 117.304711 
L 163.112993 118.262616 
L 163.152077 116.371364 
L 163.230244 117.836401 
L 163.308411 120.652213 
L 163.347494 116.560236 
L 163.425661 118.129929 
L 163.464744 118.037583 
L 163.503828 116.364967 
L 163.542911 120.242343 
L 163.581995 119.765263 
L 163.621078 116.337697 
L 163.699245 117.233265 
L 163.738329 117.313363 
L 163.777412 119.609341 
L 163.816496 114.573956 
L 163.855579 117.775734 
L 163.972829 120.661612 
L 164.168247 114.931846 
L 164.246413 117.951654 
L 164.32458 119.400926 
L 164.363664 113.316741 
L 164.402747 119.629022 
L 164.480914 118.001431 
L 164.519998 118.362223 
L 164.559081 115.108713 
L 164.598165 118.509177 
L 164.637248 117.265661 
L 164.715415 119.219641 
L 164.754498 117.818883 
L 164.793582 119.129699 
L 164.832665 117.986697 
L 164.871749 116.551735 
L 164.910832 118.942101 
L 164.988999 118.454589 
L 165.028082 116.946581 
L 165.067166 118.747239 
L 165.106249 118.722312 
L 165.145333 117.560683 
L 165.184416 118.478891 
L 165.2235 121.05848 
L 165.262583 119.348284 
L 165.301667 115.953549 
L 165.34075 119.549824 
L 165.379834 118.412733 
L 165.418917 118.109401 
L 165.458 118.699711 
L 165.536167 116.539439 
L 165.614334 116.864497 
L 165.653418 116.354151 
L 165.731585 119.919972 
L 165.770668 118.390529 
L 165.809751 117.110184 
L 165.848835 120.181104 
L 165.887918 119.153603 
L 165.927002 116.489509 
L 166.005169 117.999024 
L 166.044252 117.419824 
L 166.161503 120.898616 
L 166.239669 117.054691 
L 166.278753 118.784498 
L 166.317836 120.507348 
L 166.35692 118.250581 
L 166.513254 119.623891 
L 166.552337 117.826321 
L 166.59142 118.302798 
L 166.630504 119.44782 
L 166.669587 117.447815 
L 166.747754 118.530205 
L 166.825921 116.583787 
L 166.865005 117.205362 
L 166.943172 118.617353 
L 166.982255 116.688642 
L 167.021338 118.872525 
L 167.060422 117.235982 
L 167.099505 120.138918 
L 167.138589 119.974179 
L 167.177672 116.513673 
L 167.255839 117.946962 
L 167.294923 118.118576 
L 167.334006 119.620384 
L 167.373089 118.618006 
L 167.412173 117.226443 
L 167.529423 122.817881 
L 167.60759 121.652716 
L 167.646674 123.276447 
L 167.724841 122.855052 
L 167.763924 120.771952 
L 167.842091 122.128333 
L 167.959341 120.494875 
L 168.154758 123.034109 
L 168.232925 123.116589 
L 168.272009 119.12992 
L 168.389259 122.593632 
L 168.467426 120.236054 
L 168.545593 121.149889 
L 168.584676 121.797948 
L 168.62376 120.309082 
L 168.662843 120.878675 
L 168.701927 123.18624 
L 168.74101 121.200144 
L 168.780094 120.182058 
L 168.858261 120.73552 
L 168.936427 122.546394 
L 168.975511 121.710476 
L 169.053678 121.860944 
L 169.092761 120.528732 
L 169.170928 122.696164 
L 169.210012 121.41899 
L 169.288179 120.083888 
L 169.366345 123.82761 
L 169.405429 121.427972 
L 169.522679 118.531768 
L 169.600846 122.717405 
L 169.63993 121.342631 
L 169.679013 119.542282 
L 169.718096 121.850163 
L 169.75718 120.820137 
L 169.796263 119.842283 
L 169.835347 122.335043 
L 169.913514 122.037949 
L 169.991681 123.089765 
L 170.148014 121.238077 
L 170.187098 123.367516 
L 170.226181 121.499379 
L 170.304348 120.983568 
L 170.343432 121.30107 
L 170.382515 122.979077 
L 170.421599 119.190231 
L 170.499765 119.849384 
L 170.538849 122.289705 
L 170.617016 121.022164 
L 170.656099 120.193808 
L 170.734266 120.237152 
L 170.812433 122.33586 
L 170.851517 120.414104 
L 170.929683 121.480635 
L 170.968767 120.206881 
L 171.00785 122.03721 
L 171.046934 122.531387 
L 171.086017 121.974068 
L 171.125101 121.931345 
L 171.164184 122.701988 
L 171.203268 121.711812 
L 171.242351 120.191707 
L 171.281434 120.311051 
L 171.359601 123.344659 
L 171.398685 121.75944 
L 171.437768 121.652446 
L 171.476852 121.847463 
L 171.515935 122.660271 
L 171.594102 117.5064 
L 171.633186 121.157087 
L 171.672269 121.781799 
L 171.828603 119.792374 
L 171.867686 121.924047 
L 171.945853 120.287751 
L 171.984937 117.843538 
L 172.02402 123.554554 
L 172.102187 122.034309 
L 172.180354 121.650031 
L 172.219437 122.146913 
L 172.258521 120.151604 
L 172.336688 121.035617 
L 172.375771 121.818558 
L 172.414855 121.33048 
L 172.453938 118.59925 
L 172.493021 120.7867 
L 172.571188 121.542618 
L 172.610272 120.768586 
L 172.688439 121.294016 
L 172.766606 122.332638 
L 172.805689 121.442384 
L 172.844772 119.051198 
L 172.883856 123.786794 
L 172.962023 122.370405 
L 173.04019 121.143687 
L 173.079273 123.355864 
L 173.118357 120.441224 
L 173.235607 123.316788 
L 173.27469 122.190798 
L 173.391941 121.023238 
L 173.431024 121.436644 
L 173.509191 120.810128 
L 173.587358 123.344031 
L 173.626441 120.171884 
L 173.665525 123.557352 
L 173.704608 121.851997 
L 173.743692 121.267086 
L 173.782775 123.003379 
L 173.821859 120.429116 
L 173.860942 121.984378 
L 173.939109 122.431528 
L 173.978193 121.128847 
L 174.134526 122.576058 
L 174.17361 121.935091 
L 174.212693 122.093553 
L 174.251777 123.181907 
L 174.29086 121.362161 
L 174.329944 123.028788 
L 174.447194 121.573394 
L 174.486277 123.163423 
L 174.525361 122.043853 
L 174.564444 121.581296 
L 174.603528 123.9522 
L 174.642611 120.806749 
L 174.681695 122.661804 
L 174.759862 121.800172 
L 174.798945 123.625343 
L 174.877112 122.316888 
L 174.916195 120.368986 
L 174.994362 121.22375 
L 175.150696 122.345536 
L 175.189779 120.363405 
L 175.267946 121.272125 
L 175.346113 123.444517 
L 175.385197 121.237051 
L 175.463364 123.082328 
L 175.619697 120.931081 
L 175.658781 121.694227 
L 175.736948 122.137731 
L 175.776031 121.60701 
L 175.815115 124.01326 
L 175.854198 121.041157 
L 175.893282 121.276135 
L 175.932365 122.502009 
L 175.971448 120.815922 
L 176.010532 120.909234 
L 176.049615 123.927841 
L 176.088699 121.976513 
L 176.127782 120.904896 
L 176.166866 123.886353 
L 176.245033 121.539495 
L 176.3232 124.008733 
L 176.401366 119.701657 
L 176.44045 121.402325 
L 176.596784 123.611391 
L 176.753117 122.145275 
L 176.792201 122.026612 
L 176.870368 124.427266 
L 176.909451 120.609994 
L 176.987618 122.957395 
L 177.026702 121.56049 
L 177.065785 122.378317 
L 177.104869 122.931383 
L 177.143952 122.18484 
L 177.183035 122.391368 
L 177.222119 121.729219 
L 177.261202 124.25012 
L 177.339369 124.101026 
L 177.45662 121.051664 
L 177.534786 123.081261 
L 177.57387 122.307905 
L 177.612953 120.516738 
L 177.652037 121.309244 
L 177.769287 123.011236 
L 177.808371 122.769645 
L 177.847454 120.80262 
L 177.925621 121.744977 
L 177.964704 121.849285 
L 178.003788 120.135706 
L 178.042871 122.293304 
L 178.081955 120.595109 
L 178.121038 122.440057 
L 178.160122 121.984589 
L 178.199205 120.714648 
L 178.238289 121.999415 
L 178.277372 122.257301 
L 178.316455 121.792931 
L 178.394622 120.282109 
L 178.433706 122.901187 
L 178.511873 121.509238 
L 178.550956 121.402263 
L 178.59004 122.263406 
L 178.629123 121.752508 
L 178.668207 120.814485 
L 178.70729 122.500496 
L 178.746373 123.464537 
L 178.785457 121.831069 
L 178.863624 120.163319 
L 178.941791 124.274158 
L 178.980874 119.989226 
L 179.019958 124.281645 
L 179.059041 120.733013 
L 179.176291 122.66736 
L 179.215375 121.541167 
L 179.254458 122.718464 
L 179.332625 122.868721 
L 179.371709 121.217379 
L 179.410792 123.72032 
L 179.528042 121.343249 
L 179.567126 123.409937 
L 179.645293 123.269764 
L 179.762543 121.138938 
L 179.84071 122.421502 
L 179.879794 121.90855 
L 179.918877 121.572603 
L 179.95796 122.147389 
L 179.997044 121.823203 
L 180.036127 124.268597 
L 180.075211 123.614035 
L 180.114294 121.471306 
L 180.192461 122.374644 
L 180.231545 123.840924 
L 180.270628 119.83625 
L 180.348795 122.217309 
L 180.426962 121.390866 
L 180.544212 125.001551 
L 180.505129 121.221835 
L 180.583296 123.187694 
L 180.622379 123.039637 
L 180.700546 121.487694 
L 180.778713 121.515242 
L 180.817796 123.399056 
L 180.85688 122.185362 
L 180.895963 121.026914 
L 180.935047 123.022906 
L 180.97413 121.487354 
L 181.013214 124.613977 
L 181.09138 122.488941 
L 181.130464 123.985296 
L 181.169547 122.06165 
L 181.208631 123.294731 
L 181.325881 119.733488 
L 181.443132 123.774044 
L 181.482215 122.216966 
L 181.560382 122.509093 
L 181.716716 120.849139 
L 181.755799 121.020773 
L 181.912133 123.812121 
L 181.951216 123.72803 
L 182.068467 122.143651 
L 182.146634 123.184499 
L 182.263884 121.638568 
L 182.302967 123.112863 
L 182.342051 118.818847 
L 182.420218 120.464868 
L 182.459301 123.336537 
L 182.498385 120.666126 
L 182.537468 119.520856 
L 182.654718 123.52244 
L 182.693802 122.915816 
L 182.732885 124.13062 
L 182.850136 120.963421 
L 182.889219 121.691687 
L 182.928303 120.796423 
L 183.12372 122.662363 
L 183.162803 119.776143 
L 183.201887 123.058323 
L 183.24097 123.36107 
L 183.358221 119.652602 
L 183.397304 121.422007 
L 183.436387 121.771328 
L 183.475471 121.179753 
L 183.514554 124.293798 
L 183.592721 122.899825 
L 183.631805 123.028619 
L 183.749055 121.599103 
L 183.788139 122.385314 
L 183.827222 120.576226 
L 183.866305 122.870936 
L 183.905389 121.962441 
L 183.983556 122.827181 
L 184.022639 121.113793 
L 184.061723 124.911143 
L 184.13989 122.951044 
L 184.178973 121.499658 
L 184.218056 123.106783 
L 184.25714 123.198026 
L 184.296223 122.495969 
L 184.335307 123.278 
L 184.413474 124.350118 
L 184.530724 119.358843 
L 184.569808 122.038548 
L 184.608891 121.881043 
L 184.687058 123.610571 
L 184.804308 121.048189 
L 184.882475 123.537776 
L 184.999725 119.506249 
L 185.038809 123.937535 
L 185.116976 122.832837 
L 185.156059 122.789695 
L 185.195143 123.33562 
L 185.234226 122.938915 
L 185.312393 121.625061 
L 185.351477 121.944792 
L 185.39056 122.950738 
L 185.429643 121.528308 
L 185.468727 122.113357 
L 185.50781 122.829838 
L 185.546894 121.714441 
L 185.585977 122.757305 
L 185.625061 119.121049 
L 185.664144 121.401795 
L 185.703228 122.233069 
L 185.781394 122.177574 
L 185.820478 121.222378 
L 185.859561 121.654216 
L 185.898645 123.704135 
L 185.976812 123.5645 
L 186.250396 121.114506 
L 186.328563 120.90114 
L 186.40673 123.029165 
L 186.563063 120.336151 
L 186.64123 123.704806 
L 186.719397 121.312326 
L 186.758481 121.128755 
L 186.836648 122.913176 
L 186.875731 120.63355 
L 186.953898 122.156463 
L 186.992981 122.335261 
L 187.032065 122.216559 
L 187.071148 122.141161 
L 187.110232 123.10133 
L 187.149315 122.245285 
L 187.188399 122.246131 
L 187.227482 120.512229 
L 187.305649 121.447832 
L 187.461983 123.949926 
L 187.579233 121.972962 
L 187.618317 122.535338 
L 187.6574 122.307266 
L 187.696484 123.527922 
L 187.735567 122.733512 
L 187.891901 121.275485 
L 187.970068 121.056625 
L 188.009151 123.202646 
L 188.048235 121.98646 
L 188.087318 122.895044 
L 188.165485 122.062239 
L 188.204568 124.262936 
L 188.243652 120.524778 
L 188.321819 121.91104 
L 188.360902 121.964614 
L 188.399986 120.720605 
L 188.439069 122.184561 
L 188.478153 121.818837 
L 188.517236 122.153383 
L 188.556319 123.364013 
L 188.595403 121.54143 
L 188.634486 122.594501 
L 188.712653 122.149118 
L 188.751737 122.963967 
L 188.79082 122.404421 
L 188.90807 120.266612 
L 189.025321 120.355964 
L 189.181655 122.976853 
L 189.220738 122.954641 
L 189.259822 122.519463 
L 189.298905 123.505119 
L 189.337988 121.619093 
L 189.416155 121.722842 
L 189.455239 123.763278 
L 189.494322 121.885008 
L 189.533406 121.564835 
L 189.572489 122.43988 
L 189.611573 122.022679 
L 189.650656 120.699637 
L 189.689739 122.077659 
L 189.728823 122.987996 
L 189.767906 120.34164 
L 189.80699 121.893263 
L 189.846073 124.109919 
L 189.885157 121.62885 
L 189.92424 121.617895 
L 190.041491 123.846112 
L 190.002407 121.474995 
L 190.080574 122.998176 
L 190.119657 120.415295 
L 190.197824 122.029874 
L 190.236908 120.823475 
L 190.275991 122.657447 
L 190.432325 120.275784 
L 190.471408 122.960659 
L 190.510492 122.420046 
L 190.549575 120.396725 
L 190.627742 121.475114 
L 190.705909 123.18615 
L 190.744993 122.970116 
L 190.82316 121.608531 
L 190.862243 124.081338 
L 190.901326 122.676087 
L 190.94041 121.302306 
L 190.979493 123.161782 
L 191.096744 121.825065 
L 191.174911 123.35459 
L 191.292161 120.537206 
L 191.331244 123.500791 
L 191.409411 122.336032 
L 191.487578 120.569733 
L 191.526662 122.370215 
L 191.565745 120.619993 
L 191.604829 120.835332 
L 191.722079 123.398149 
L 191.761162 120.791397 
L 191.839329 122.176939 
L 191.878413 124.166616 
L 191.917496 123.112153 
L 191.95658 121.947141 
L 191.995663 123.166588 
L 192.034746 122.097432 
L 192.07383 123.041066 
L 192.112913 121.956119 
L 192.151997 121.827921 
L 192.19108 120.601488 
L 192.230164 122.399448 
L 192.308331 124.152143 
L 192.386498 125.113289 
L 192.425581 120.577417 
L 192.464664 122.916348 
L 192.542831 121.591745 
L 192.581915 122.798883 
L 192.620998 122.006559 
L 192.660082 121.55785 
L 192.699165 121.889608 
L 192.855499 122.541623 
L 192.894582 122.008727 
L 192.933666 122.469684 
L 192.972749 124.286999 
L 193.011833 122.658524 
L 193.050916 120.641256 
L 193.09 124.527797 
L 193.168167 123.551154 
L 193.20725 121.031534 
L 193.285417 122.824411 
L 193.3245 122.638467 
L 193.363584 121.360096 
L 193.402667 123.006992 
L 193.441751 122.22605 
L 193.559001 120.891987 
L 193.598084 123.132977 
L 193.676251 122.549312 
L 193.754418 121.113938 
L 193.793502 121.601686 
L 193.871669 123.228157 
L 193.910752 120.935442 
L 193.988919 121.085084 
L 194.028002 122.703899 
L 194.067086 120.185771 
L 194.106169 122.543483 
L 194.145253 121.697585 
L 194.184336 121.759297 
L 194.22342 123.033709 
L 194.262503 121.324047 
L 194.301587 121.613962 
L 194.34067 123.46758 
L 194.418837 122.655441 
L 194.45792 122.666598 
L 194.497004 123.008707 
L 194.575171 120.838294 
L 194.653338 121.252149 
L 194.692421 123.480443 
L 194.770588 122.853377 
L 194.848755 122.582207 
L 194.887838 124.201776 
L 194.926922 122.288268 
L 194.966005 121.052273 
L 195.005089 124.62809 
L 195.083256 122.147523 
L 195.122339 122.905212 
L 195.200506 122.405019 
L 195.278673 122.440932 
L 195.317756 120.68784 
L 195.395923 123.568915 
L 195.47409 123.182651 
L 195.630424 118.730804 
L 195.669507 122.269638 
L 195.747674 119.850977 
L 195.825841 123.650061 
L 195.904008 122.332935 
L 195.943091 122.163832 
L 196.021258 120.560253 
L 196.060342 123.035451 
L 196.099425 123.034273 
L 196.138509 120.811598 
L 196.177592 121.602308 
L 196.216676 123.417861 
L 196.294843 122.802566 
L 196.333926 118.437271 
L 196.412093 121.404316 
L 196.568427 123.864175 
L 196.685677 121.093875 
L 196.72476 122.108333 
L 196.802927 121.874214 
L 196.959261 122.381408 
L 197.076512 121.317985 
L 197.232845 123.864641 
L 197.311012 120.282556 
L 197.350096 120.507442 
L 197.389179 123.983699 
L 197.467346 121.726514 
L 197.506429 123.702234 
L 197.584596 122.161402 
L 197.62368 123.835368 
L 197.701847 122.699998 
L 197.780014 120.494837 
L 197.819097 121.99522 
L 197.858181 122.595493 
L 197.897264 121.84513 
L 197.936347 121.967953 
L 197.975431 122.931965 
L 198.014514 121.384077 
L 198.053598 122.681504 
L 198.092681 122.0164 
L 198.131765 123.367474 
L 198.170848 119.235051 
L 198.249015 121.20597 
L 198.327182 122.247259 
L 198.405349 121.490363 
L 198.444432 121.093696 
L 198.483516 123.179807 
L 198.561683 122.945672 
L 198.600766 123.368029 
L 198.678933 120.28549 
L 198.718016 122.716747 
L 198.796183 122.875666 
L 198.835267 122.059039 
L 198.87435 122.434985 
L 198.913434 122.115402 
L 198.952517 119.032678 
L 198.991601 123.319518 
L 199.030684 120.549151 
L 199.069767 120.604498 
L 199.108851 120.283256 
L 199.147934 121.433491 
L 199.187018 119.839062 
L 199.226101 121.410753 
L 199.304268 120.763412 
L 199.460602 125.114514 
L 199.499685 123.490431 
L 199.577852 124.19885 
L 199.616936 123.396139 
L 199.656019 124.421715 
L 199.695103 123.619443 
L 199.77327 124.501814 
L 199.812353 123.55899 
L 199.851436 125.093351 
L 199.89052 125.304665 
L 200.00777 123.03741 
L 200.046854 123.645753 
L 200.085937 122.822786 
L 200.125021 123.189888 
L 200.242271 126.473888 
L 200.320438 124.314819 
L 200.359521 124.580781 
L 200.398605 124.678291 
L 200.437688 125.821725 
L 200.476772 124.254774 
L 200.515855 122.111625 
L 200.594022 123.421552 
L 200.633105 125.913182 
L 200.711272 124.88483 
L 200.789439 125.247284 
L 200.867606 123.111062 
L 200.984857 125.346472 
L 201.02394 124.221735 
L 201.063023 122.962891 
L 201.102107 124.307453 
L 201.14119 124.383503 
L 201.180274 125.487335 
L 201.258441 125.024891 
L 201.336608 124.296464 
L 201.375691 125.968346 
L 201.414774 124.443937 
L 201.453858 124.209723 
L 201.492941 124.763336 
L 201.532025 124.388701 
L 201.571108 123.681338 
L 201.610192 124.514247 
L 201.688359 125.239463 
L 201.805609 123.358591 
L 201.844692 124.469494 
L 201.883776 124.087074 
L 202.001026 122.819281 
L 202.15736 125.138833 
L 202.235527 125.471723 
L 202.27461 122.055356 
L 202.391861 125.230668 
L 202.509111 123.164199 
L 202.587278 125.009143 
L 202.626361 123.281273 
L 202.704528 124.607977 
L 202.743612 125.665664 
L 202.782695 124.818275 
L 202.860862 124.167277 
L 202.899946 124.663148 
L 202.939029 125.555551 
L 202.978112 124.742268 
L 203.017196 124.436299 
L 203.056279 125.037114 
L 203.095363 124.07781 
L 203.134446 122.356234 
L 203.17353 125.552355 
L 203.251697 124.774585 
L 203.29078 122.852251 
L 203.329864 125.456673 
L 203.368947 126.978666 
L 203.40803 124.113974 
L 203.486197 124.874897 
L 203.564364 123.105132 
L 203.642531 123.596485 
L 203.681615 123.885247 
L 203.720698 126.24797 
L 203.798865 124.995741 
L 203.837948 123.485647 
L 203.916115 123.886251 
L 203.994282 124.711806 
L 204.033366 123.954705 
L 204.072449 124.074149 
L 204.189699 123.56679 
L 204.228783 125.083214 
L 204.267866 122.052409 
L 204.30695 124.553785 
L 204.346033 125.29851 
L 204.385117 123.969679 
L 204.4242 124.187644 
L 204.463284 123.80142 
L 204.502367 126.022238 
L 204.54145 123.491036 
L 204.658701 126.004909 
L 204.697784 125.359282 
L 204.893202 122.241109 
L 204.971368 122.179528 
L 205.049535 125.118895 
L 205.244953 121.965868 
L 205.323119 124.078903 
L 205.362203 123.653127 
L 205.401286 122.770363 
L 205.44037 123.772649 
L 205.55762 125.670759 
L 205.713954 122.1741 
L 205.753037 124.901051 
L 205.831204 124.330339 
L 205.870288 124.39652 
L 205.909371 124.817886 
L 205.948455 124.272079 
L 205.987538 124.733089 
L 206.026622 124.281298 
L 206.065705 125.429656 
L 206.143872 125.183591 
L 206.182955 123.02234 
L 206.222039 124.67346 
L 206.261122 124.995407 
L 206.300206 122.442202 
L 206.339289 125.070289 
L 206.378373 124.238119 
L 206.534706 125.498227 
L 206.57379 124.996787 
L 206.612873 123.055405 
L 206.651957 125.820131 
L 206.69104 124.459991 
L 206.730124 123.490301 
L 206.769207 123.800084 
L 206.847374 123.691358 
L 206.925541 125.083364 
L 207.081875 122.993624 
L 207.199125 124.649946 
L 207.238209 123.022615 
L 207.277292 123.371396 
L 207.316375 125.554213 
L 207.355459 123.353203 
L 207.394542 124.702781 
L 207.472709 125.643349 
L 207.511793 124.076141 
L 207.550876 124.723202 
L 207.58996 126.436441 
L 207.629043 122.773772 
L 207.70721 124.318894 
L 207.746293 124.745355 
L 207.785377 123.257441 
L 207.863544 124.299124 
L 207.902627 125.063806 
L 207.941711 125.046006 
L 208.058961 123.566887 
L 208.176211 126.402643 
L 208.215295 123.496025 
L 208.293462 124.104577 
L 208.332545 123.84766 
L 208.371629 122.845509 
L 208.410712 126.546619 
L 208.488879 124.3636 
L 208.527962 123.472212 
L 208.567046 125.166313 
L 208.606129 124.252306 
L 208.645213 122.849542 
L 208.684296 125.652135 
L 208.762463 124.247502 
L 208.801547 124.642412 
L 208.84063 123.583861 
L 208.918797 124.327283 
L 208.95788 123.499178 
L 208.996964 123.527214 
L 209.075131 125.92985 
L 209.114214 124.643631 
L 209.153298 123.68087 
L 209.192381 124.896791 
L 209.231465 124.255843 
L 209.309631 123.887851 
L 209.348715 125.03583 
L 209.387798 123.074688 
L 209.426882 124.077693 
L 209.544132 125.266844 
L 209.700466 122.796846 
L 209.778633 125.616193 
L 209.817716 122.850521 
L 209.895883 124.080083 
L 209.934967 126.329983 
L 209.97405 123.86918 
L 210.013134 121.85301 
L 210.052217 124.280862 
L 210.0913 123.013822 
L 210.130384 125.189202 
L 210.208551 124.663297 
L 210.403968 122.711791 
L 210.443051 125.314478 
L 210.482135 124.511175 
L 210.521218 122.853773 
L 210.560302 124.648938 
L 210.599385 123.614825 
L 210.677552 123.113259 
L 210.755719 126.070884 
L 210.833886 123.20924 
L 210.872969 125.665739 
L 210.912053 125.527432 
L 210.951136 124.478843 
L 210.99022 124.753446 
L 211.029303 125.985087 
L 211.068387 122.867809 
L 211.146554 124.430112 
L 211.22472 123.514408 
L 211.263804 123.91926 
L 211.341971 125.30375 
L 211.381054 123.5013 
L 211.459221 123.623747 
L 211.498305 123.706188 
L 211.615555 125.235894 
L 211.693722 123.864225 
L 211.732805 125.812308 
L 211.771889 123.032771 
L 211.810972 124.688673 
L 211.889139 123.845586 
L 211.928223 124.634685 
L 211.967306 123.368214 
L 212.006389 123.310549 
L 212.12364 124.453617 
L 212.162723 123.378198 
L 212.201807 124.489988 
L 212.24089 123.982577 
L 212.319057 124.942505 
L 212.397224 123.771881 
L 212.436307 125.573543 
L 212.514474 124.477314 
L 212.592641 125.979791 
L 212.631725 123.785929 
L 212.670808 124.661994 
L 212.709892 126.326955 
L 212.748975 125.585862 
L 212.905309 122.466304 
L 212.983476 125.219266 
L 213.022559 124.852993 
L 213.061643 122.67318 
L 213.13981 123.848429 
L 213.178893 126.081842 
L 213.25706 125.522177 
L 213.37431 122.652951 
L 213.491561 125.182196 
L 213.569727 125.66062 
L 213.647894 123.247556 
L 213.686978 123.339285 
L 213.765145 125.595974 
L 213.843312 125.363451 
L 213.882395 122.970029 
L 213.960562 123.654763 
L 214.038729 124.872064 
L 214.077812 124.542003 
L 214.116896 124.177658 
L 214.155979 125.281334 
L 214.195063 123.974151 
L 214.234146 124.050075 
L 214.27323 124.462317 
L 214.312313 120.957855 
L 214.39048 123.202176 
L 214.585897 125.29231 
L 214.664064 124.483605 
L 214.742231 124.57122 
L 214.781314 125.026676 
L 214.859481 123.102142 
L 214.898565 124.901702 
L 214.937648 123.737983 
L 214.976732 123.318619 
L 215.015815 126.255938 
L 215.093982 124.50704 
L 215.172149 125.931936 
L 215.211232 123.250419 
L 215.289399 124.947076 
L 215.328483 124.902259 
L 215.445733 123.467481 
L 215.484817 126.341677 
L 215.5239 122.979669 
L 215.562983 124.829337 
L 215.602067 124.634619 
L 215.64115 123.16191 
L 215.680234 124.883446 
L 215.719317 124.652535 
L 215.758401 122.639911 
L 215.836568 123.91412 
L 215.875651 122.998037 
L 215.914734 124.356241 
L 215.953818 123.42781 
L 216.031985 125.294552 
L 216.071068 125.128411 
L 216.110152 123.912443 
L 216.188319 124.793209 
L 216.227402 125.122576 
L 216.305569 125.456856 
L 216.422819 122.591324 
L 216.579153 125.24735 
L 216.618237 122.965542 
L 216.65732 123.032695 
L 216.696403 125.358911 
L 216.77457 124.662969 
L 216.813654 123.531135 
L 216.852737 126.1187 
L 216.891821 122.68298 
L 216.969988 122.201302 
L 217.009071 123.777669 
L 217.048155 123.569327 
L 217.087238 124.59014 
L 217.126321 122.057078 
L 217.165405 123.380939 
L 217.204488 124.995993 
L 217.282655 124.600812 
L 217.321739 123.435766 
L 217.360822 124.980356 
L 217.399906 124.275488 
L 217.438989 124.067295 
L 217.478072 122.507793 
L 217.517156 124.582128 
L 217.556239 125.666889 
L 217.595323 122.522137 
L 217.67349 123.591932 
L 217.79074 124.621392 
L 217.829824 123.26839 
L 217.90799 124.363767 
L 218.025241 122.762924 
L 218.064324 124.651459 
L 218.142491 124.597054 
L 218.181575 123.214654 
L 218.220658 124.668195 
L 218.259741 125.937737 
L 218.298825 125.213235 
L 218.376992 122.185641 
L 218.455159 123.786592 
L 218.494242 125.141474 
L 218.533326 123.192708 
L 218.572409 124.423431 
L 218.611493 124.656001 
L 218.650576 122.302772 
L 218.689659 125.216825 
L 218.767826 124.60194 
L 218.80691 126.096181 
L 218.885077 125.512982 
L 219.04141 123.546483 
L 219.080494 124.342127 
L 219.119577 125.542387 
L 219.197744 124.771462 
L 219.236828 124.322366 
L 219.275911 124.626254 
L 219.314995 121.935158 
L 219.354078 123.772471 
L 219.471328 124.563585 
L 219.510412 123.98033 
L 219.549495 124.849932 
L 219.588579 124.677515 
L 219.627662 123.94032 
L 219.666746 126.022645 
L 219.744913 124.33331 
L 219.783996 122.9702 
L 219.823079 124.788145 
L 219.862163 123.908085 
L 219.901246 123.407714 
L 219.94033 124.128235 
L 219.979413 124.651294 
L 220.018497 123.955944 
L 220.096664 122.78628 
L 220.135747 123.494435 
L 220.174831 124.918353 
L 220.213914 123.51615 
L 220.252997 122.800856 
L 220.292081 124.883022 
L 220.370248 123.44337 
L 220.448415 123.037555 
L 220.526582 125.721907 
L 220.565665 121.729301 
L 220.643832 123.883687 
L 220.682915 125.369056 
L 220.721999 123.244854 
L 220.761082 122.728119 
L 220.800166 123.90884 
L 220.878333 123.524893 
L 220.917416 123.86427 
L 220.9565 122.625143 
L 220.995583 125.119721 
L 221.07375 124.311901 
L 221.112833 123.777621 
L 221.151917 125.101108 
L 221.191 123.375055 
L 221.230084 124.705196 
L 221.269167 124.966507 
L 221.347334 123.624166 
L 221.386417 125.86634 
L 221.425501 124.254565 
L 221.542751 123.111566 
L 221.581835 124.461735 
L 221.660002 123.444716 
L 221.738169 124.225512 
L 221.777252 124.012744 
L 221.816335 122.826914 
L 221.855419 124.261207 
L 221.894502 124.43244 
L 221.972669 123.35308 
L 222.011753 124.998453 
L 222.08992 124.676984 
L 222.129003 124.856352 
L 222.168086 123.191078 
L 222.20717 123.615771 
L 222.246253 124.84855 
L 222.285337 124.433524 
L 222.363504 123.08936 
L 222.441671 125.685525 
L 222.480754 123.865922 
L 222.519838 123.809857 
L 222.558921 125.026233 
L 222.598004 123.489368 
L 222.637088 124.061041 
L 222.676171 122.309837 
L 222.715255 124.028476 
L 222.754338 124.149772 
L 222.832505 124.074571 
L 222.910672 125.87702 
L 222.949755 122.451576 
L 222.988839 126.250994 
L 223.027922 125.066942 
L 223.067006 124.926081 
L 223.184256 125.892528 
L 223.22334 123.476312 
L 223.301507 124.465318 
L 223.34059 125.003194 
L 223.379673 123.776581 
L 223.45784 123.963732 
L 223.496924 123.79841 
L 223.536007 123.924519 
L 223.575091 124.191425 
L 223.614174 122.936372 
L 223.653258 125.885585 
L 223.731424 124.81429 
L 223.809591 123.030784 
L 223.848675 124.694044 
L 223.887758 124.032194 
L 223.926842 121.750328 
L 223.965925 125.250023 
L 224.005009 122.41031 
L 224.044092 122.514223 
L 224.161342 125.517149 
L 224.200426 124.731176 
L 224.239509 124.650063 
L 224.278593 123.72422 
L 224.317676 125.137838 
L 224.35676 124.934907 
L 224.434927 124.943305 
L 224.513093 122.982539 
L 224.552177 124.662543 
L 224.59126 124.503975 
L 224.630344 123.230208 
L 224.669427 123.612879 
L 224.747594 125.769079 
L 224.825761 125.352661 
L 225.021178 122.778022 
L 225.138429 124.793374 
L 225.216596 125.078342 
L 225.255679 123.132985 
L 225.294762 125.623914 
L 225.333846 124.120254 
L 225.49018 122.459761 
L 225.60743 124.323817 
L 225.685597 123.725313 
L 225.72468 123.563462 
L 225.763764 123.603275 
L 225.881014 125.694209 
L 225.998265 122.496827 
L 226.037348 123.403563 
L 226.154598 125.282458 
L 226.310932 123.105274 
L 226.350016 125.049513 
L 226.389099 123.269024 
L 226.428183 122.74783 
L 226.506349 124.578263 
L 226.584516 124.227566 
L 226.6236 123.03063 
L 226.662683 124.454804 
L 226.701767 123.359037 
L 226.74085 125.891437 
L 226.779934 124.48488 
L 226.819017 123.259578 
L 226.8581 123.620711 
L 226.936267 124.926115 
L 226.975351 122.946294 
L 227.014434 124.951275 
L 227.053518 124.284609 
L 227.170768 122.80293 
L 227.209852 123.519617 
L 227.366185 125.792269 
L 227.444352 122.254435 
L 227.483436 122.819125 
L 227.522519 124.684626 
L 227.600686 124.454619 
L 227.639769 124.842701 
L 227.75702 123.467486 
L 227.796103 126.803869 
L 227.835187 124.08799 
L 227.952437 123.291011 
L 228.030604 125.903822 
L 228.069687 122.212923 
L 228.147854 124.630514 
L 228.186938 124.051156 
L 228.226021 125.550604 
L 228.265105 123.285866 
L 228.304188 122.742272 
L 228.382355 122.12522 
L 228.421438 125.67112 
L 228.460522 121.956075 
L 228.499605 125.716114 
L 228.538689 123.740867 
L 228.577772 124.629985 
L 228.616856 122.178616 
L 228.655939 124.096028 
L 228.695023 125.55673 
L 228.734106 123.874675 
L 228.812273 124.009742 
L 228.851356 123.036624 
L 228.929523 124.465027 
L 228.968607 124.35562 
L 229.00769 123.018547 
L 229.046774 125.24025 
L 229.085857 123.364987 
L 229.164024 124.717235 
L 229.242191 124.350631 
L 229.320358 122.782052 
L 229.359441 124.655924 
L 229.437608 124.136588 
L 229.476692 124.545677 
L 229.554859 123.005178 
L 229.593942 123.346379 
L 229.672109 124.874988 
L 229.711192 124.183717 
L 229.750276 123.902799 
L 229.789359 122.48207 
L 229.828443 124.289314 
L 229.867526 124.328973 
L 229.984776 122.031409 
L 230.02386 125.448143 
L 230.102027 124.765207 
L 230.14111 124.002678 
L 230.180194 124.064338 
L 230.219277 125.286792 
L 230.258361 124.921148 
L 230.414694 123.243384 
L 230.453778 124.166861 
L 230.492861 122.012201 
L 230.531945 122.743213 
L 230.571028 124.494851 
L 230.649195 124.152716 
L 230.688279 123.362565 
L 230.766445 122.861682 
L 230.805529 125.939451 
L 230.883696 122.945932 
L 230.922779 125.568207 
L 231.079113 122.627997 
L 231.15728 126.216298 
L 231.196363 124.167915 
L 231.27453 124.141043 
L 231.352697 125.467988 
L 231.509031 122.835205 
L 231.548114 125.203301 
L 231.626281 124.858938 
L 231.665365 125.314882 
L 231.704448 123.331316 
L 231.743532 125.884445 
L 231.821699 124.248542 
L 231.860782 125.017157 
L 231.899866 126.971441 
L 231.938949 126.306151 
L 231.978032 124.481023 
L 232.056199 125.780113 
L 232.134366 124.361656 
L 232.212533 126.803052 
L 232.2907 126.446368 
L 232.40795 123.919758 
L 232.486117 126.487036 
L 232.525201 126.384462 
L 232.681535 124.545288 
L 232.759701 124.081998 
L 232.798785 125.632592 
L 232.837868 125.423514 
L 232.916035 125.680221 
L 232.955119 124.056837 
L 232.994202 125.595407 
L 233.033286 124.038866 
L 233.072369 125.489224 
L 233.111452 125.287245 
L 233.150536 125.445904 
L 233.189619 126.215661 
L 233.228703 124.13672 
L 233.267786 125.179575 
L 233.42412 126.785763 
L 233.54137 124.493437 
L 233.580454 126.521306 
L 233.658621 124.934245 
L 233.697704 123.129529 
L 233.736788 124.673257 
L 233.775871 126.221079 
L 233.814955 124.601663 
L 233.854038 125.098411 
L 233.893121 125.279529 
L 234.010372 124.681946 
L 234.166706 126.663998 
L 234.205789 124.282244 
L 234.283956 125.235087 
L 234.323039 125.238354 
L 234.362123 126.448731 
L 234.401206 123.801429 
L 234.44029 125.150203 
L 234.479373 126.037608 
L 234.518457 125.940891 
L 234.596624 126.103944 
L 234.635707 124.27386 
L 234.67479 125.84596 
L 234.713874 125.761009 
L 234.752957 124.415642 
L 234.831124 124.712454 
L 234.870208 125.810288 
L 234.909291 124.946966 
L 234.948375 124.853184 
L 234.987458 125.171415 
L 235.026542 124.629884 
L 235.065625 122.914758 
L 235.065625 122.914758 
" style="fill:none;stroke:#1f77b4;stroke-linecap:square;stroke-width:1.5;"/>
   </g>
   <g id="patch_3">
    <path d="M 39.765625 139.699219 
L 39.765625 3.799219 
" style="fill:none;stroke:#000000;stroke-linecap:square;stroke-linejoin:miter;stroke-width:0.8;"/>
   </g>
   <g id="patch_4">
    <path d="M 235.065625 139.699219 
L 235.065625 3.799219 
" style="fill:none;stroke:#000000;stroke-linecap:square;stroke-linejoin:miter;stroke-width:0.8;"/>
   </g>
   <g id="patch_5">
    <path d="M 39.765625 139.699219 
L 235.065625 139.699219 
" style="fill:none;stroke:#000000;stroke-linecap:square;stroke-linejoin:miter;stroke-width:0.8;"/>
   </g>
   <g id="patch_6">
    <path d="M 39.765625 3.799219 
L 235.065625 3.799219 
" style="fill:none;stroke:#000000;stroke-linecap:square;stroke-linejoin:miter;stroke-width:0.8;"/>
   </g>
   <g id="legend_1">
    <g id="patch_7">
     <path d="M 172.790625 26.477344 
L 228.065625 26.477344 
Q 230.065625 26.477344 230.065625 24.477344 
L 230.065625 10.799219 
Q 230.065625 8.799219 228.065625 8.799219 
L 172.790625 8.799219 
Q 170.790625 8.799219 170.790625 10.799219 
L 170.790625 24.477344 
Q 170.790625 26.477344 172.790625 26.477344 
z
" style="fill:#ffffff;opacity:0.8;stroke:#cccccc;stroke-linejoin:miter;"/>
    </g>
    <g id="line2d_22">
     <path d="M 174.790625 16.897656 
L 194.790625 16.897656 
" style="fill:none;stroke:#1f77b4;stroke-linecap:square;stroke-width:1.5;"/>
    </g>
    <g id="line2d_23"/>
    <g id="text_13">
     <!-- train -->
     <defs>
      <path d="M 34.28125 27.484375 
Q 23.390625 27.484375 19.1875 25 
Q 14.984375 22.515625 14.984375 16.5 
Q 14.984375 11.71875 18.140625 8.90625 
Q 21.296875 6.109375 26.703125 6.109375 
Q 34.1875 6.109375 38.703125 11.40625 
Q 43.21875 16.703125 43.21875 25.484375 
L 43.21875 27.484375 
z
M 52.203125 31.203125 
L 52.203125 0 
L 43.21875 0 
L 43.21875 8.296875 
Q 40.140625 3.328125 35.546875 0.953125 
Q 30.953125 -1.421875 24.3125 -1.421875 
Q 15.921875 -1.421875 10.953125 3.296875 
Q 6 8.015625 6 15.921875 
Q 6 25.140625 12.171875 29.828125 
Q 18.359375 34.515625 30.609375 34.515625 
L 43.21875 34.515625 
L 43.21875 35.40625 
Q 43.21875 41.609375 39.140625 45 
Q 35.0625 48.390625 27.6875 48.390625 
Q 23 48.390625 18.546875 47.265625 
Q 14.109375 46.140625 10.015625 43.890625 
L 10.015625 52.203125 
Q 14.9375 54.109375 19.578125 55.046875 
Q 24.21875 56 28.609375 56 
Q 40.484375 56 46.34375 49.84375 
Q 52.203125 43.703125 52.203125 31.203125 
z
" id="DejaVuSans-97"/>
      <path d="M 54.890625 33.015625 
L 54.890625 0 
L 45.90625 0 
L 45.90625 32.71875 
Q 45.90625 40.484375 42.875 44.328125 
Q 39.84375 48.1875 33.796875 48.1875 
Q 26.515625 48.1875 22.3125 43.546875 
Q 18.109375 38.921875 18.109375 30.90625 
L 18.109375 0 
L 9.078125 0 
L 9.078125 54.6875 
L 18.109375 54.6875 
L 18.109375 46.1875 
Q 21.34375 51.125 25.703125 53.5625 
Q 30.078125 56 35.796875 56 
Q 45.21875 56 50.046875 50.171875 
Q 54.890625 44.34375 54.890625 33.015625 
z
" id="DejaVuSans-110"/>
     </defs>
     <g transform="translate(202.790625 20.397656)scale(0.1 -0.1)">
      <use xlink:href="#DejaVuSans-116"/>
      <use x="39.208984" xlink:href="#DejaVuSans-114"/>
      <use x="80.322266" xlink:href="#DejaVuSans-97"/>
      <use x="141.601562" xlink:href="#DejaVuSans-105"/>
      <use x="169.384766" xlink:href="#DejaVuSans-110"/>
     </g>
    </g>
   </g>
  </g>
 </g>
 <defs>
  <clipPath id="pb2a5630be8">
   <rect height="135.9" width="195.3" x="39.765625" y="3.799219"/>
  </clipPath>
 </defs>
</svg>
