<?xml version="1.0" encoding="utf-8" standalone="no"?>
<!DOCTYPE svg PUBLIC "-//W3C//DTD SVG 1.1//EN"
  "http://www.w3.org/Graphics/SVG/1.1/DTD/svg11.dtd">
<!-- Created with matplotlib (https://matplotlib.org/) -->
<svg height="170.055469pt" version="1.1" viewBox="0 0 250.971875 170.055469" width="250.971875pt" xmlns="http://www.w3.org/2000/svg" xmlns:xlink="http://www.w3.org/1999/xlink">
 <defs>
  <style type="text/css">
*{stroke-linecap:butt;stroke-linejoin:round;}
  </style>
 </defs>
 <g id="figure_1">
  <g id="patch_1">
   <path d="M 0 170.055469 
L 250.971875 170.055469 
L 250.971875 0 
L 0 0 
z
" style="fill:#ffffff;"/>
  </g>
  <g id="axes_1">
   <g id="patch_2">
    <path d="M 39.765625 139.699219 
L 235.065625 139.699219 
L 235.065625 3.799219 
L 39.765625 3.799219 
z
" style="fill:#ffffff;"/>
   </g>
   <g id="matplotlib.axis_1">
    <g id="xtick_1">
     <g id="line2d_1">
      <path clip-path="url(#pb517ebde36)" d="M 78.731825 139.699219 
L 78.731825 3.799219 
" style="fill:none;stroke:#b0b0b0;stroke-linecap:square;stroke-width:0.8;"/>
     </g>
     <g id="line2d_2">
      <defs>
       <path d="M 0 0 
L 0 3.5 
" id="m635e7a103f" style="stroke:#000000;stroke-width:0.8;"/>
      </defs>
      <g>
       <use style="stroke:#000000;stroke-width:0.8;" x="78.731825" xlink:href="#m635e7a103f" y="139.699219"/>
      </g>
     </g>
     <g id="text_1">
      <!-- 10000 -->
      <defs>
       <path d="M 12.40625 8.296875 
L 28.515625 8.296875 
L 28.515625 63.921875 
L 10.984375 60.40625 
L 10.984375 69.390625 
L 28.421875 72.90625 
L 38.28125 72.90625 
L 38.28125 8.296875 
L 54.390625 8.296875 
L 54.390625 0 
L 12.40625 0 
z
" id="DejaVuSans-49"/>
       <path d="M 31.78125 66.40625 
Q 24.171875 66.40625 20.328125 58.90625 
Q 16.5 51.421875 16.5 36.375 
Q 16.5 21.390625 20.328125 13.890625 
Q 24.171875 6.390625 31.78125 6.390625 
Q 39.453125 6.390625 43.28125 13.890625 
Q 47.125 21.390625 47.125 36.375 
Q 47.125 51.421875 43.28125 58.90625 
Q 39.453125 66.40625 31.78125 66.40625 
z
M 31.78125 74.21875 
Q 44.046875 74.21875 50.515625 64.515625 
Q 56.984375 54.828125 56.984375 36.375 
Q 56.984375 17.96875 50.515625 8.265625 
Q 44.046875 -1.421875 31.78125 -1.421875 
Q 19.53125 -1.421875 13.0625 8.265625 
Q 6.59375 17.96875 6.59375 36.375 
Q 6.59375 54.828125 13.0625 64.515625 
Q 19.53125 74.21875 31.78125 74.21875 
z
" id="DejaVuSans-48"/>
      </defs>
      <g transform="translate(62.825575 154.297656)scale(0.1 -0.1)">
       <use xlink:href="#DejaVuSans-49"/>
       <use x="63.623047" xlink:href="#DejaVuSans-48"/>
       <use x="127.246094" xlink:href="#DejaVuSans-48"/>
       <use x="190.869141" xlink:href="#DejaVuSans-48"/>
       <use x="254.492188" xlink:href="#DejaVuSans-48"/>
      </g>
     </g>
    </g>
    <g id="xtick_2">
     <g id="line2d_3">
      <path clip-path="url(#pb517ebde36)" d="M 117.815275 139.699219 
L 117.815275 3.799219 
" style="fill:none;stroke:#b0b0b0;stroke-linecap:square;stroke-width:0.8;"/>
     </g>
     <g id="line2d_4">
      <g>
       <use style="stroke:#000000;stroke-width:0.8;" x="117.815275" xlink:href="#m635e7a103f" y="139.699219"/>
      </g>
     </g>
     <g id="text_2">
      <!-- 20000 -->
      <defs>
       <path d="M 19.1875 8.296875 
L 53.609375 8.296875 
L 53.609375 0 
L 7.328125 0 
L 7.328125 8.296875 
Q 12.9375 14.109375 22.625 23.890625 
Q 32.328125 33.6875 34.8125 36.53125 
Q 39.546875 41.84375 41.421875 45.53125 
Q 43.3125 49.21875 43.3125 52.78125 
Q 43.3125 58.59375 39.234375 62.25 
Q 35.15625 65.921875 28.609375 65.921875 
Q 23.96875 65.921875 18.8125 64.3125 
Q 13.671875 62.703125 7.8125 59.421875 
L 7.8125 69.390625 
Q 13.765625 71.78125 18.9375 73 
Q 24.125 74.21875 28.421875 74.21875 
Q 39.75 74.21875 46.484375 68.546875 
Q 53.21875 62.890625 53.21875 53.421875 
Q 53.21875 48.921875 51.53125 44.890625 
Q 49.859375 40.875 45.40625 35.40625 
Q 44.1875 33.984375 37.640625 27.21875 
Q 31.109375 20.453125 19.1875 8.296875 
z
" id="DejaVuSans-50"/>
      </defs>
      <g transform="translate(101.909025 154.297656)scale(0.1 -0.1)">
       <use xlink:href="#DejaVuSans-50"/>
       <use x="63.623047" xlink:href="#DejaVuSans-48"/>
       <use x="127.246094" xlink:href="#DejaVuSans-48"/>
       <use x="190.869141" xlink:href="#DejaVuSans-48"/>
       <use x="254.492188" xlink:href="#DejaVuSans-48"/>
      </g>
     </g>
    </g>
    <g id="xtick_3">
     <g id="line2d_5">
      <path clip-path="url(#pb517ebde36)" d="M 156.898725 139.699219 
L 156.898725 3.799219 
" style="fill:none;stroke:#b0b0b0;stroke-linecap:square;stroke-width:0.8;"/>
     </g>
     <g id="line2d_6">
      <g>
       <use style="stroke:#000000;stroke-width:0.8;" x="156.898725" xlink:href="#m635e7a103f" y="139.699219"/>
      </g>
     </g>
     <g id="text_3">
      <!-- 30000 -->
      <defs>
       <path d="M 40.578125 39.3125 
Q 47.65625 37.796875 51.625 33 
Q 55.609375 28.21875 55.609375 21.1875 
Q 55.609375 10.40625 48.1875 4.484375 
Q 40.765625 -1.421875 27.09375 -1.421875 
Q 22.515625 -1.421875 17.65625 -0.515625 
Q 12.796875 0.390625 7.625 2.203125 
L 7.625 11.71875 
Q 11.71875 9.328125 16.59375 8.109375 
Q 21.484375 6.890625 26.8125 6.890625 
Q 36.078125 6.890625 40.9375 10.546875 
Q 45.796875 14.203125 45.796875 21.1875 
Q 45.796875 27.640625 41.28125 31.265625 
Q 36.765625 34.90625 28.71875 34.90625 
L 20.21875 34.90625 
L 20.21875 43.015625 
L 29.109375 43.015625 
Q 36.375 43.015625 40.234375 45.921875 
Q 44.09375 48.828125 44.09375 54.296875 
Q 44.09375 59.90625 40.109375 62.90625 
Q 36.140625 65.921875 28.71875 65.921875 
Q 24.65625 65.921875 20.015625 65.03125 
Q 15.375 64.15625 9.8125 62.3125 
L 9.8125 71.09375 
Q 15.4375 72.65625 20.34375 73.4375 
Q 25.25 74.21875 29.59375 74.21875 
Q 40.828125 74.21875 47.359375 69.109375 
Q 53.90625 64.015625 53.90625 55.328125 
Q 53.90625 49.265625 50.4375 45.09375 
Q 46.96875 40.921875 40.578125 39.3125 
z
" id="DejaVuSans-51"/>
      </defs>
      <g transform="translate(140.992475 154.297656)scale(0.1 -0.1)">
       <use xlink:href="#DejaVuSans-51"/>
       <use x="63.623047" xlink:href="#DejaVuSans-48"/>
       <use x="127.246094" xlink:href="#DejaVuSans-48"/>
       <use x="190.869141" xlink:href="#DejaVuSans-48"/>
       <use x="254.492188" xlink:href="#DejaVuSans-48"/>
      </g>
     </g>
    </g>
    <g id="xtick_4">
     <g id="line2d_7">
      <path clip-path="url(#pb517ebde36)" d="M 195.982175 139.699219 
L 195.982175 3.799219 
" style="fill:none;stroke:#b0b0b0;stroke-linecap:square;stroke-width:0.8;"/>
     </g>
     <g id="line2d_8">
      <g>
       <use style="stroke:#000000;stroke-width:0.8;" x="195.982175" xlink:href="#m635e7a103f" y="139.699219"/>
      </g>
     </g>
     <g id="text_4">
      <!-- 40000 -->
      <defs>
       <path d="M 37.796875 64.3125 
L 12.890625 25.390625 
L 37.796875 25.390625 
z
M 35.203125 72.90625 
L 47.609375 72.90625 
L 47.609375 25.390625 
L 58.015625 25.390625 
L 58.015625 17.1875 
L 47.609375 17.1875 
L 47.609375 0 
L 37.796875 0 
L 37.796875 17.1875 
L 4.890625 17.1875 
L 4.890625 26.703125 
z
" id="DejaVuSans-52"/>
      </defs>
      <g transform="translate(180.075925 154.297656)scale(0.1 -0.1)">
       <use xlink:href="#DejaVuSans-52"/>
       <use x="63.623047" xlink:href="#DejaVuSans-48"/>
       <use x="127.246094" xlink:href="#DejaVuSans-48"/>
       <use x="190.869141" xlink:href="#DejaVuSans-48"/>
       <use x="254.492188" xlink:href="#DejaVuSans-48"/>
      </g>
     </g>
    </g>
    <g id="xtick_5">
     <g id="line2d_9">
      <path clip-path="url(#pb517ebde36)" d="M 235.065625 139.699219 
L 235.065625 3.799219 
" style="fill:none;stroke:#b0b0b0;stroke-linecap:square;stroke-width:0.8;"/>
     </g>
     <g id="line2d_10">
      <g>
       <use style="stroke:#000000;stroke-width:0.8;" x="235.065625" xlink:href="#m635e7a103f" y="139.699219"/>
      </g>
     </g>
     <g id="text_5">
      <!-- 50000 -->
      <defs>
       <path d="M 10.796875 72.90625 
L 49.515625 72.90625 
L 49.515625 64.59375 
L 19.828125 64.59375 
L 19.828125 46.734375 
Q 21.96875 47.46875 24.109375 47.828125 
Q 26.265625 48.1875 28.421875 48.1875 
Q 40.625 48.1875 47.75 41.5 
Q 54.890625 34.8125 54.890625 23.390625 
Q 54.890625 11.625 47.5625 5.09375 
Q 40.234375 -1.421875 26.90625 -1.421875 
Q 22.3125 -1.421875 17.546875 -0.640625 
Q 12.796875 0.140625 7.71875 1.703125 
L 7.71875 11.625 
Q 12.109375 9.234375 16.796875 8.0625 
Q 21.484375 6.890625 26.703125 6.890625 
Q 35.15625 6.890625 40.078125 11.328125 
Q 45.015625 15.765625 45.015625 23.390625 
Q 45.015625 31 40.078125 35.4375 
Q 35.15625 39.890625 26.703125 39.890625 
Q 22.75 39.890625 18.8125 39.015625 
Q 14.890625 38.140625 10.796875 36.28125 
z
" id="DejaVuSans-53"/>
      </defs>
      <g transform="translate(219.159375 154.297656)scale(0.1 -0.1)">
       <use xlink:href="#DejaVuSans-53"/>
       <use x="63.623047" xlink:href="#DejaVuSans-48"/>
       <use x="127.246094" xlink:href="#DejaVuSans-48"/>
       <use x="190.869141" xlink:href="#DejaVuSans-48"/>
       <use x="254.492188" xlink:href="#DejaVuSans-48"/>
      </g>
     </g>
    </g>
    <g id="text_6">
     <!-- iter -->
     <defs>
      <path d="M 9.421875 54.6875 
L 18.40625 54.6875 
L 18.40625 0 
L 9.421875 0 
z
M 9.421875 75.984375 
L 18.40625 75.984375 
L 18.40625 64.59375 
L 9.421875 64.59375 
z
" id="DejaVuSans-105"/>
      <path d="M 18.3125 70.21875 
L 18.3125 54.6875 
L 36.8125 54.6875 
L 36.8125 47.703125 
L 18.3125 47.703125 
L 18.3125 18.015625 
Q 18.3125 11.328125 20.140625 9.421875 
Q 21.96875 7.515625 27.59375 7.515625 
L 36.8125 7.515625 
L 36.8125 0 
L 27.59375 0 
Q 17.1875 0 13.234375 3.875 
Q 9.28125 7.765625 9.28125 18.015625 
L 9.28125 47.703125 
L 2.6875 47.703125 
L 2.6875 54.6875 
L 9.28125 54.6875 
L 9.28125 70.21875 
z
" id="DejaVuSans-116"/>
      <path d="M 56.203125 29.59375 
L 56.203125 25.203125 
L 14.890625 25.203125 
Q 15.484375 15.921875 20.484375 11.0625 
Q 25.484375 6.203125 34.421875 6.203125 
Q 39.59375 6.203125 44.453125 7.46875 
Q 49.3125 8.734375 54.109375 11.28125 
L 54.109375 2.78125 
Q 49.265625 0.734375 44.1875 -0.34375 
Q 39.109375 -1.421875 33.890625 -1.421875 
Q 20.796875 -1.421875 13.15625 6.1875 
Q 5.515625 13.8125 5.515625 26.8125 
Q 5.515625 40.234375 12.765625 48.109375 
Q 20.015625 56 32.328125 56 
Q 43.359375 56 49.78125 48.890625 
Q 56.203125 41.796875 56.203125 29.59375 
z
M 47.21875 32.234375 
Q 47.125 39.59375 43.09375 43.984375 
Q 39.0625 48.390625 32.421875 48.390625 
Q 24.90625 48.390625 20.390625 44.140625 
Q 15.875 39.890625 15.1875 32.171875 
z
" id="DejaVuSans-101"/>
      <path d="M 41.109375 46.296875 
Q 39.59375 47.171875 37.8125 47.578125 
Q 36.03125 48 33.890625 48 
Q 26.265625 48 22.1875 43.046875 
Q 18.109375 38.09375 18.109375 28.8125 
L 18.109375 0 
L 9.078125 0 
L 9.078125 54.6875 
L 18.109375 54.6875 
L 18.109375 46.1875 
Q 20.953125 51.171875 25.484375 53.578125 
Q 30.03125 56 36.53125 56 
Q 37.453125 56 38.578125 55.875 
Q 39.703125 55.765625 41.0625 55.515625 
z
" id="DejaVuSans-114"/>
     </defs>
     <g transform="translate(128.934375 167.975781)scale(0.1 -0.1)">
      <use xlink:href="#DejaVuSans-105"/>
      <use x="27.783203" xlink:href="#DejaVuSans-116"/>
      <use x="66.992188" xlink:href="#DejaVuSans-101"/>
      <use x="128.515625" xlink:href="#DejaVuSans-114"/>
     </g>
    </g>
   </g>
   <g id="matplotlib.axis_2">
    <g id="ytick_1">
     <g id="line2d_11">
      <path clip-path="url(#pb517ebde36)" d="M 39.765625 139.699219 
L 235.065625 139.699219 
" style="fill:none;stroke:#b0b0b0;stroke-linecap:square;stroke-width:0.8;"/>
     </g>
     <g id="line2d_12">
      <defs>
       <path d="M 0 0 
L -3.5 0 
" id="mded6ba9cd2" style="stroke:#000000;stroke-width:0.8;"/>
      </defs>
      <g>
       <use style="stroke:#000000;stroke-width:0.8;" x="39.765625" xlink:href="#mded6ba9cd2" y="139.699219"/>
      </g>
     </g>
     <g id="text_7">
      <!-- 0 -->
      <g transform="translate(26.403125 143.498437)scale(0.1 -0.1)">
       <use xlink:href="#DejaVuSans-48"/>
      </g>
     </g>
    </g>
    <g id="ytick_2">
     <g id="line2d_13">
      <path clip-path="url(#pb517ebde36)" d="M 39.765625 105.724219 
L 235.065625 105.724219 
" style="fill:none;stroke:#b0b0b0;stroke-linecap:square;stroke-width:0.8;"/>
     </g>
     <g id="line2d_14">
      <g>
       <use style="stroke:#000000;stroke-width:0.8;" x="39.765625" xlink:href="#mded6ba9cd2" y="105.724219"/>
      </g>
     </g>
     <g id="text_8">
      <!-- 50 -->
      <g transform="translate(20.040625 109.523438)scale(0.1 -0.1)">
       <use xlink:href="#DejaVuSans-53"/>
       <use x="63.623047" xlink:href="#DejaVuSans-48"/>
      </g>
     </g>
    </g>
    <g id="ytick_3">
     <g id="line2d_15">
      <path clip-path="url(#pb517ebde36)" d="M 39.765625 71.749219 
L 235.065625 71.749219 
" style="fill:none;stroke:#b0b0b0;stroke-linecap:square;stroke-width:0.8;"/>
     </g>
     <g id="line2d_16">
      <g>
       <use style="stroke:#000000;stroke-width:0.8;" x="39.765625" xlink:href="#mded6ba9cd2" y="71.749219"/>
      </g>
     </g>
     <g id="text_9">
      <!-- 100 -->
      <g transform="translate(13.678125 75.548437)scale(0.1 -0.1)">
       <use xlink:href="#DejaVuSans-49"/>
       <use x="63.623047" xlink:href="#DejaVuSans-48"/>
       <use x="127.246094" xlink:href="#DejaVuSans-48"/>
      </g>
     </g>
    </g>
    <g id="ytick_4">
     <g id="line2d_17">
      <path clip-path="url(#pb517ebde36)" d="M 39.765625 37.774219 
L 235.065625 37.774219 
" style="fill:none;stroke:#b0b0b0;stroke-linecap:square;stroke-width:0.8;"/>
     </g>
     <g id="line2d_18">
      <g>
       <use style="stroke:#000000;stroke-width:0.8;" x="39.765625" xlink:href="#mded6ba9cd2" y="37.774219"/>
      </g>
     </g>
     <g id="text_10">
      <!-- 150 -->
      <g transform="translate(13.678125 41.573437)scale(0.1 -0.1)">
       <use xlink:href="#DejaVuSans-49"/>
       <use x="63.623047" xlink:href="#DejaVuSans-53"/>
       <use x="127.246094" xlink:href="#DejaVuSans-48"/>
      </g>
     </g>
    </g>
    <g id="ytick_5">
     <g id="line2d_19">
      <path clip-path="url(#pb517ebde36)" d="M 39.765625 3.799219 
L 235.065625 3.799219 
" style="fill:none;stroke:#b0b0b0;stroke-linecap:square;stroke-width:0.8;"/>
     </g>
     <g id="line2d_20">
      <g>
       <use style="stroke:#000000;stroke-width:0.8;" x="39.765625" xlink:href="#mded6ba9cd2" y="3.799219"/>
      </g>
     </g>
     <g id="text_11">
      <!-- 200 -->
      <g transform="translate(13.678125 7.598438)scale(0.1 -0.1)">
       <use xlink:href="#DejaVuSans-50"/>
       <use x="63.623047" xlink:href="#DejaVuSans-48"/>
       <use x="127.246094" xlink:href="#DejaVuSans-48"/>
      </g>
     </g>
    </g>
    <g id="text_12">
     <!-- perplexity -->
     <defs>
      <path d="M 18.109375 8.203125 
L 18.109375 -20.796875 
L 9.078125 -20.796875 
L 9.078125 54.6875 
L 18.109375 54.6875 
L 18.109375 46.390625 
Q 20.953125 51.265625 25.265625 53.625 
Q 29.59375 56 35.59375 56 
Q 45.5625 56 51.78125 48.09375 
Q 58.015625 40.1875 58.015625 27.296875 
Q 58.015625 14.40625 51.78125 6.484375 
Q 45.5625 -1.421875 35.59375 -1.421875 
Q 29.59375 -1.421875 25.265625 0.953125 
Q 20.953125 3.328125 18.109375 8.203125 
z
M 48.6875 27.296875 
Q 48.6875 37.203125 44.609375 42.84375 
Q 40.53125 48.484375 33.40625 48.484375 
Q 26.265625 48.484375 22.1875 42.84375 
Q 18.109375 37.203125 18.109375 27.296875 
Q 18.109375 17.390625 22.1875 11.75 
Q 26.265625 6.109375 33.40625 6.109375 
Q 40.53125 6.109375 44.609375 11.75 
Q 48.6875 17.390625 48.6875 27.296875 
z
" id="DejaVuSans-112"/>
      <path d="M 9.421875 75.984375 
L 18.40625 75.984375 
L 18.40625 0 
L 9.421875 0 
z
" id="DejaVuSans-108"/>
      <path d="M 54.890625 54.6875 
L 35.109375 28.078125 
L 55.90625 0 
L 45.3125 0 
L 29.390625 21.484375 
L 13.484375 0 
L 2.875 0 
L 24.125 28.609375 
L 4.6875 54.6875 
L 15.28125 54.6875 
L 29.78125 35.203125 
L 44.28125 54.6875 
z
" id="DejaVuSans-120"/>
      <path d="M 32.171875 -5.078125 
Q 28.375 -14.84375 24.75 -17.8125 
Q 21.140625 -20.796875 15.09375 -20.796875 
L 7.90625 -20.796875 
L 7.90625 -13.28125 
L 13.1875 -13.28125 
Q 16.890625 -13.28125 18.9375 -11.515625 
Q 21 -9.765625 23.484375 -3.21875 
L 25.09375 0.875 
L 2.984375 54.6875 
L 12.5 54.6875 
L 29.59375 11.921875 
L 46.6875 54.6875 
L 56.203125 54.6875 
z
" id="DejaVuSans-121"/>
     </defs>
     <g transform="translate(7.598438 96.875781)rotate(-90)scale(0.1 -0.1)">
      <use xlink:href="#DejaVuSans-112"/>
      <use x="63.476562" xlink:href="#DejaVuSans-101"/>
      <use x="125" xlink:href="#DejaVuSans-114"/>
      <use x="166.113281" xlink:href="#DejaVuSans-112"/>
      <use x="229.589844" xlink:href="#DejaVuSans-108"/>
      <use x="257.373047" xlink:href="#DejaVuSans-101"/>
      <use x="317.146484" xlink:href="#DejaVuSans-120"/>
      <use x="376.326172" xlink:href="#DejaVuSans-105"/>
      <use x="404.109375" xlink:href="#DejaVuSans-116"/>
      <use x="443.318359" xlink:href="#DejaVuSans-121"/>
     </g>
    </g>
   </g>
   <g id="line2d_21">
    <path clip-path="url(#pb517ebde36)" d="M 43.605132 -1 
L 43.634887 3.870314 
L 43.656562 -1 
M 43.702916 -1 
L 43.713053 0.369986 
L 43.735517 -1 
M 43.758833 -1 
L 43.908471 9.990107 
L 43.978213 -1 
M 43.995934 -1 
L 44.103888 10.616465 
L 44.142971 5.514482 
L 44.182055 12.471122 
L 44.221138 9.470454 
L 44.260222 5.733279 
L 44.299305 13.961587 
L 44.338389 9.688208 
L 44.416556 5.782946 
L 44.494722 17.086648 
L 44.533806 13.703784 
L 44.572889 8.78605 
L 44.611973 16.820715 
L 44.729223 11.388242 
L 44.80739 19.1237 
L 44.885557 15.830315 
L 44.92464 8.338004 
L 44.963724 16.594194 
L 45.002807 19.452497 
L 45.041891 11.866392 
L 45.080974 21.262391 
L 45.120058 17.629321 
L 45.159141 22.599501 
L 45.198225 20.935767 
L 45.237308 18.122239 
L 45.276391 21.28236 
L 45.315475 24.269942 
L 45.354558 19.117005 
L 45.393642 12.328889 
L 45.432725 26.266692 
L 45.510892 25.399782 
L 45.628143 15.360937 
L 45.667226 27.680876 
L 45.706309 22.142303 
L 45.745393 14.644925 
L 45.784476 25.969798 
L 45.82356 19.574634 
L 45.901727 29.949487 
L 45.94081 27.845321 
L 45.979894 29.714067 
L 46.018977 25.107131 
L 46.05806 29.110442 
L 46.136227 28.100107 
L 46.214394 32.304717 
L 46.253478 23.850131 
L 46.292561 36.866748 
L 46.331645 37.100749 
L 46.409812 28.646898 
L 46.448895 28.948807 
L 46.487978 34.445263 
L 46.527062 27.267367 
L 46.566145 30.292143 
L 46.644312 31.537087 
L 46.683396 27.689721 
L 46.800646 37.790638 
L 46.95698 29.218912 
L 47.113314 43.053021 
L 47.191481 43.141838 
L 47.269647 31.583823 
L 47.308731 31.420341 
L 47.425981 42.451732 
L 47.504148 39.826623 
L 47.660482 33.504705 
L 47.738649 42.605112 
L 47.816816 40.405931 
L 47.855899 37.756666 
L 47.894983 42.528868 
L 47.97315 44.485581 
L 48.012233 33.844158 
L 48.0904 38.289672 
L 48.129483 40.695918 
L 48.168567 37.675894 
L 48.20765 40.461137 
L 48.324901 33.838371 
L 48.363984 44.784922 
L 48.442151 39.339791 
L 48.598485 46.932317 
L 48.676652 46.947072 
L 48.754819 40.791784 
L 48.872069 48.46391 
L 48.911152 43.245891 
L 48.989319 44.377569 
L 49.067486 48.973814 
L 49.10657 45.893637 
L 49.145653 45.963427 
L 49.184736 49.262657 
L 49.22382 42.622919 
L 49.262903 52.487467 
L 49.301987 45.178508 
L 49.34107 45.698265 
L 49.380154 44.434192 
L 49.458321 41.518181 
L 49.536488 49.536498 
L 49.575571 47.620876 
L 49.653738 48.502788 
L 49.692821 54.35626 
L 49.731905 49.790092 
L 49.770988 47.647821 
L 49.810072 49.292582 
L 49.849155 52.20277 
L 49.888239 46.918707 
L 50.044572 53.103063 
L 50.083656 52.450132 
L 50.122739 50.715763 
L 50.161823 51.505173 
L 50.200906 55.181078 
L 50.23999 49.602732 
L 50.279073 47.881712 
L 50.396323 59.518337 
L 50.435407 49.98736 
L 50.513574 51.730076 
L 50.591741 48.502447 
L 50.630824 56.264001 
L 50.708991 51.80051 
L 50.748074 53.44165 
L 50.826241 52.238989 
L 50.982575 56.883047 
L 51.021659 52.809158 
L 51.099826 53.407201 
L 51.138909 52.971983 
L 51.256159 61.775979 
L 51.217076 52.825092 
L 51.295243 60.637925 
L 51.451577 51.468435 
L 51.568827 60.458054 
L 51.60791 54.929884 
L 51.725161 59.539019 
L 51.764244 53.722812 
L 51.842411 57.51078 
L 51.881495 57.430208 
L 51.959661 60.849016 
L 52.037828 54.316136 
L 52.076912 57.314821 
L 52.115995 60.166207 
L 52.155079 59.43297 
L 52.194162 52.070518 
L 52.233246 60.258284 
L 52.272329 56.335355 
L 52.311412 56.75859 
L 52.350496 53.824081 
L 52.389579 62.619092 
L 52.467746 59.163418 
L 52.50683 56.386197 
L 52.584997 63.198736 
L 52.62408 57.063564 
L 52.663164 65.354048 
L 52.702247 64.491257 
L 52.74133 55.943764 
L 52.819497 58.44561 
L 52.858581 61.602729 
L 52.897664 61.124937 
L 52.975831 58.109135 
L 53.053998 65.085019 
L 53.093081 61.547367 
L 53.132165 58.829269 
L 53.171248 62.103501 
L 53.210332 60.96752 
L 53.249415 58.738095 
L 53.288499 61.929659 
L 53.366666 64.749663 
L 53.405749 62.451562 
L 53.444833 55.438576 
L 53.483916 65.066916 
L 53.522999 64.797546 
L 53.601166 67.747093 
L 53.64025 61.020861 
L 53.718417 62.107768 
L 53.7575 63.717718 
L 53.835667 62.444864 
L 53.87475 62.341306 
L 54.031084 66.909377 
L 54.109251 65.39851 
L 54.148335 59.275155 
L 54.187418 59.692712 
L 54.226502 64.928761 
L 54.265585 63.675987 
L 54.304668 59.968073 
L 54.343752 66.423412 
L 54.421919 69.036763 
L 54.578253 62.365871 
L 54.617336 63.889904 
L 54.656419 70.310143 
L 54.695503 63.468363 
L 54.734586 68.21741 
L 54.851837 62.868512 
L 54.89092 71.321495 
L 54.969087 66.153652 
L 55.008171 69.412627 
L 55.047254 68.978055 
L 55.164504 63.054664 
L 55.320838 72.963597 
L 55.359922 64.427893 
L 55.438088 67.950725 
L 55.516255 64.292015 
L 55.594422 65.41398 
L 55.711673 70.047455 
L 55.78984 67.909031 
L 55.828923 69.258067 
L 55.868006 69.094589 
L 55.90709 73.909111 
L 55.946173 72.70665 
L 56.063424 64.272582 
L 56.02434 74.178296 
L 56.102507 65.208853 
L 56.219757 74.423044 
L 56.297924 73.193748 
L 56.337008 68.357018 
L 56.376091 69.575802 
L 56.415175 73.481466 
L 56.493342 70.227923 
L 56.532425 70.726161 
L 56.571509 68.531084 
L 56.610592 72.152329 
L 56.649675 69.013807 
L 56.845093 73.726157 
L 57.001426 71.205731 
L 57.04051 70.181817 
L 57.15776 75.598239 
L 57.275011 70.206239 
L 57.314094 74.791561 
L 57.392261 73.469338 
L 57.470428 70.307638 
L 57.509511 70.98786 
L 57.626762 74.861623 
L 57.744012 70.43121 
L 57.783095 71.650817 
L 57.822179 75.520909 
L 57.861262 70.560836 
L 57.900346 75.410969 
L 58.017596 72.287354 
L 58.05668 77.703292 
L 58.134847 73.932982 
L 58.213013 72.684644 
L 58.252097 76.835613 
L 58.330264 76.959999 
L 58.447514 70.073444 
L 58.525681 75.452243 
L 58.564764 74.185223 
L 58.603848 73.434445 
L 58.721098 78.941915 
L 58.682015 72.340653 
L 58.760182 77.269762 
L 58.799265 72.268562 
L 58.838349 76.480266 
L 58.877432 77.917161 
L 58.916516 77.099635 
L 58.955599 73.957093 
L 59.033766 74.698968 
L 59.111933 74.576382 
L 59.151016 77.74611 
L 59.268267 73.666995 
L 59.346433 76.335746 
L 59.385517 76.211432 
L 59.4246 74.831964 
L 59.463684 76.686905 
L 59.541851 79.028762 
L 59.580934 72.165421 
L 59.620018 76.097718 
L 59.659101 83.420869 
L 59.698185 75.469483 
L 59.737268 75.396898 
L 59.776351 75.87384 
L 59.815435 79.329616 
L 59.893602 76.766374 
L 59.932685 73.796288 
L 59.971769 77.33631 
L 60.010852 76.585556 
L 60.167186 80.380497 
L 60.245353 77.561978 
L 60.284436 79.918255 
L 60.32352 80.102 
L 60.362603 78.973806 
L 60.44077 83.030247 
L 60.479854 80.076579 
L 60.518937 79.031473 
L 60.55802 80.00679 
L 60.597104 80.127866 
L 60.636187 75.608885 
L 60.675271 81.824896 
L 60.714354 79.282409 
L 60.753438 78.907991 
L 60.792521 79.558972 
L 60.870688 79.077125 
L 60.909771 85.306561 
L 60.948855 76.4867 
L 61.027022 80.446183 
L 61.183356 77.290044 
L 61.339689 85.821546 
L 61.378773 84.638469 
L 61.417856 80.058855 
L 61.496023 83.435376 
L 61.57419 84.418706 
L 61.652357 80.392038 
L 61.69144 82.32254 
L 61.730524 83.442384 
L 61.769607 83.398951 
L 61.886858 79.731043 
L 62.043192 84.635569 
L 62.121358 81.79145 
L 62.160442 83.219618 
L 62.199525 85.170492 
L 62.238609 82.360512 
L 62.316776 83.185594 
L 62.355859 79.359196 
L 62.394943 82.798928 
L 62.434026 82.602846 
L 62.473109 84.031051 
L 62.512193 83.243614 
L 62.551276 78.171458 
L 62.629443 79.75836 
L 62.668527 85.601911 
L 62.70761 79.339283 
L 62.746694 81.311294 
L 62.824861 86.730452 
L 62.863944 82.978976 
L 62.903027 82.465988 
L 62.942111 83.331034 
L 62.981194 84.414825 
L 63.020278 83.903978 
L 63.059361 81.870386 
L 63.137528 83.498527 
L 63.176612 88.917166 
L 63.215695 83.029782 
L 63.254778 84.754076 
L 63.332945 78.837821 
L 63.372029 86.844227 
L 63.450196 85.654491 
L 63.489279 79.201851 
L 63.528363 82.460457 
L 63.567446 87.355924 
L 63.645613 83.315078 
L 63.801947 87.388977 
L 63.880114 80.212539 
L 63.958281 84.190807 
L 64.075531 85.901392 
L 64.153698 83.956648 
L 64.192781 87.758824 
L 64.270948 84.727989 
L 64.310032 83.688859 
L 64.349115 85.513228 
L 64.388199 86.689092 
L 64.427282 86.397831 
L 64.466365 85.238458 
L 64.622699 90.175415 
L 64.73995 80.501645 
L 64.779033 88.164146 
L 64.8572 87.814961 
L 64.896283 88.860419 
L 64.935367 87.542371 
L 65.052617 85.522436 
L 65.130784 88.383816 
L 65.169868 84.978477 
L 65.208951 89.937557 
L 65.365285 85.581527 
L 65.404368 86.225241 
L 65.443452 85.465149 
L 65.482535 89.412092 
L 65.521619 85.104511 
L 65.560702 83.19867 
L 65.677952 87.702171 
L 65.756119 85.268967 
L 65.795203 86.448073 
L 65.951537 88.277442 
L 65.99062 86.922867 
L 66.029703 88.58114 
L 66.10787 87.985531 
L 66.146954 89.028229 
L 66.186037 86.47421 
L 66.264204 88.033775 
L 66.342371 86.539161 
L 66.381454 84.774924 
L 66.420538 86.572864 
L 66.459621 86.941097 
L 66.498705 91.301921 
L 66.576872 90.179083 
L 66.615955 85.68269 
L 66.694122 88.161714 
L 66.733206 91.392835 
L 66.772289 87.086646 
L 66.811372 90.052581 
L 66.850456 86.979805 
L 66.928623 89.043355 
L 67.00679 88.686014 
L 67.045873 91.524494 
L 67.084957 90.178062 
L 67.12404 84.690413 
L 67.202207 87.167161 
L 67.24129 92.385607 
L 67.319457 88.373394 
L 67.397624 92.425774 
L 67.514875 87.923273 
L 67.553958 91.306686 
L 67.593041 90.051497 
L 67.632125 83.572628 
L 67.671208 89.532483 
L 67.710292 90.270726 
L 67.749375 93.138118 
L 67.788459 91.251371 
L 67.827542 88.854268 
L 67.905709 89.796712 
L 67.944793 89.48171 
L 67.983876 89.856556 
L 68.062043 91.796714 
L 68.101126 88.205965 
L 68.179293 91.12734 
L 68.218377 90.507733 
L 68.296544 94.260478 
L 68.335627 93.600766 
L 68.37471 86.592791 
L 68.413794 90.114432 
L 68.452877 93.728211 
L 68.491961 89.837402 
L 68.531044 92.31995 
L 68.570128 89.075236 
L 68.648295 90.250538 
L 68.726462 93.363508 
L 68.765545 89.150576 
L 68.843712 89.448221 
L 68.882795 89.805979 
L 68.921879 89.378786 
L 68.960962 87.126016 
L 69.000046 89.600727 
L 69.039129 87.359781 
L 69.195463 96.097909 
L 69.312713 90.261135 
L 69.351797 93.54239 
L 69.39088 87.974991 
L 69.429964 92.186769 
L 69.469047 89.266294 
L 69.508131 92.997481 
L 69.547214 93.031671 
L 69.586297 89.225526 
L 69.664464 92.335206 
L 69.742631 94.811993 
L 69.781715 93.770938 
L 69.820798 93.655822 
L 69.898965 90.704868 
L 69.938048 93.979939 
L 69.977132 90.059188 
L 70.016215 92.26552 
L 70.055299 89.848408 
L 70.094382 95.177846 
L 70.172549 93.185243 
L 70.211633 94.554113 
L 70.250716 92.774443 
L 70.2898 93.571189 
L 70.328883 93.746483 
L 70.367966 91.296654 
L 70.40705 96.37336 
L 70.446133 90.891926 
L 70.5243 94.257338 
L 70.563384 92.33531 
L 70.719717 91.115216 
L 70.915135 95.120097 
L 70.993302 91.616343 
L 71.032385 93.299758 
L 71.071469 92.455066 
L 71.110552 95.593528 
L 71.149635 92.542791 
L 71.188719 91.300576 
L 71.227802 95.698678 
L 71.305969 92.150102 
L 71.345053 92.525997 
L 71.384136 92.325258 
L 71.54047 97.600637 
L 71.579553 95.38227 
L 71.65772 96.501846 
L 71.814054 100.77031 
L 71.931304 96.249846 
L 71.970388 100.980582 
L 72.048555 98.018554 
L 72.087638 99.465899 
L 72.126722 97.501533 
L 72.165805 99.169723 
L 72.204889 98.659613 
L 72.243972 95.182846 
L 72.283055 99.384644 
L 72.322139 97.510386 
L 72.361222 96.067845 
L 72.400306 98.546815 
L 72.439389 98.401088 
L 72.478473 96.561488 
L 72.517556 97.883853 
L 72.55664 100.621546 
L 72.595723 96.24274 
L 72.634807 94.968525 
L 72.752057 98.495017 
L 72.79114 95.996537 
L 72.869307 97.097365 
L 72.908391 98.768724 
L 72.986558 98.063401 
L 73.025641 92.472756 
L 73.064724 95.433081 
L 73.103808 99.588465 
L 73.142891 95.421343 
L 73.181975 99.392101 
L 73.221058 100.156708 
L 73.260142 95.254826 
L 73.338309 97.885638 
L 73.377392 95.924625 
L 73.416476 99.531201 
L 73.455559 103.100037 
L 73.494642 99.590576 
L 73.611893 91.962774 
L 73.650976 96.327915 
L 73.69006 97.432238 
L 73.729143 93.728695 
L 73.768227 95.58557 
L 73.885477 99.296132 
L 73.92456 99.099191 
L 73.963644 98.832352 
L 74.002727 97.073261 
L 74.041811 97.098945 
L 74.080894 100.980344 
L 74.119978 96.494853 
L 74.159061 100.847611 
L 74.237228 101.049933 
L 74.276311 97.346677 
L 74.315395 101.096925 
L 74.393562 97.998239 
L 74.471729 99.364749 
L 74.549896 101.019633 
L 74.588979 96.610635 
L 74.667146 99.704094 
L 74.706229 97.559139 
L 74.745313 96.707218 
L 74.784396 99.527326 
L 74.82348 95.76402 
L 74.862563 97.994965 
L 74.979814 100.155605 
L 75.05798 100.445294 
L 75.097064 95.420773 
L 75.136147 102.041334 
L 75.214314 99.363835 
L 75.292481 97.528985 
L 75.331565 98.434511 
L 75.370648 101.483122 
L 75.409731 97.004855 
L 75.448815 99.579688 
L 75.526982 98.859594 
L 75.566065 102.726597 
L 75.644232 99.899327 
L 75.683316 101.882894 
L 75.722399 99.338184 
L 75.761483 99.344067 
L 75.800566 99.49008 
L 75.839649 96.922844 
L 75.878733 99.159351 
L 75.917816 100.208603 
L 75.9569 98.659552 
L 76.035067 96.886908 
L 76.113234 99.775733 
L 76.152317 99.570734 
L 76.1914 98.096133 
L 76.269567 102.596726 
L 76.308651 96.994931 
L 76.386818 98.168372 
L 76.425901 101.834183 
L 76.504068 99.383112 
L 76.543152 97.523382 
L 76.582235 102.619232 
L 76.660402 100.543244 
L 76.777652 97.120993 
L 76.855819 96.326186 
L 76.933986 103.487732 
L 77.09032 101.860362 
L 77.363904 97.42231 
L 77.481154 103.631082 
L 77.637488 97.489646 
L 77.793822 101.965 
L 77.871989 97.560534 
L 77.911072 98.204946 
L 77.989239 101.65021 
L 78.028323 100.724525 
L 78.067406 96.565458 
L 78.10649 103.040644 
L 78.22374 97.887551 
L 78.301907 98.970563 
L 78.34099 101.824015 
L 78.419157 100.954239 
L 78.458241 100.502687 
L 78.536407 97.050224 
L 78.692741 102.804749 
L 78.809992 98.103029 
L 78.849075 98.20226 
L 78.966325 105.268258 
L 79.044492 99.725816 
L 79.083576 101.956456 
L 79.122659 102.178366 
L 79.200826 100.251556 
L 79.23991 102.252419 
L 79.278993 100.121052 
L 79.318076 99.871601 
L 79.396243 99.533171 
L 79.435327 101.962116 
L 79.47441 99.154437 
L 79.513494 99.656224 
L 79.552577 104.066811 
L 79.630744 102.190773 
L 79.787078 99.939822 
L 79.865245 99.754166 
L 79.943412 103.863962 
L 80.021579 96.055517 
L 80.099745 97.484283 
L 80.138829 97.903717 
L 80.177912 103.522118 
L 80.256079 103.040771 
L 80.334246 98.294504 
L 80.37333 101.27099 
L 80.412413 101.329694 
L 80.451497 99.663588 
L 80.49058 104.561296 
L 80.568747 103.14858 
L 80.646914 102.412618 
L 80.685997 104.143258 
L 80.725081 98.118302 
L 80.803248 100.065143 
L 80.881414 103.291192 
L 80.920498 99.051637 
L 80.998665 101.545146 
L 81.076832 103.119248 
L 81.115915 102.836691 
L 81.194082 101.347788 
L 81.233166 102.763668 
L 81.272249 98.400541 
L 81.311332 103.072726 
L 81.350416 104.735619 
L 81.389499 103.564116 
L 81.545833 99.209085 
L 81.584917 105.191184 
L 81.663083 104.541154 
L 81.702167 99.701599 
L 81.780334 100.748041 
L 81.819417 100.793403 
L 81.858501 101.319657 
L 81.897584 104.599743 
L 81.936668 103.221705 
L 81.975751 100.063633 
L 82.014835 103.655023 
L 82.053918 100.562116 
L 82.093001 100.651916 
L 82.210252 103.008198 
L 82.288419 100.553175 
L 82.327502 103.715498 
L 82.405669 102.54508 
L 82.522919 99.477933 
L 82.562003 103.206803 
L 82.64017 102.061149 
L 82.718337 99.297561 
L 82.75742 99.385231 
L 82.796504 104.084872 
L 82.87467 101.06951 
L 82.952837 105.57915 
L 82.991921 103.34566 
L 83.031004 102.464071 
L 83.070088 103.047536 
L 83.109171 103.539759 
L 83.148255 103.387316 
L 83.265505 101.744415 
L 83.304588 101.999495 
L 83.343672 102.573861 
L 83.382755 105.398251 
L 83.421839 104.222163 
L 83.460922 101.97126 
L 83.500006 106.25561 
L 83.539089 101.853354 
L 83.578173 104.734907 
L 83.617256 104.399218 
L 83.656339 106.315429 
L 83.695423 102.563709 
L 83.77359 105.662991 
L 83.89084 102.122114 
L 83.929924 106.338712 
L 84.00809 102.951051 
L 84.047174 105.643171 
L 84.086257 101.049045 
L 84.203508 105.974915 
L 84.281675 106.193303 
L 84.359842 101.466 
L 84.398925 101.119012 
L 84.438008 105.231422 
L 84.516175 104.484203 
L 84.555259 103.164074 
L 84.594342 105.623138 
L 84.633426 102.155767 
L 84.672509 103.185315 
L 84.750676 98.75052 
L 84.828843 103.798976 
L 84.867926 103.029437 
L 85.02426 105.259772 
L 85.219677 98.395396 
L 85.258761 105.435424 
L 85.297844 97.970162 
L 85.336928 104.78385 
L 85.376011 102.949364 
L 85.415095 106.741651 
L 85.493262 103.974995 
L 85.649595 101.434666 
L 85.727762 107.652535 
L 85.766846 100.472384 
L 85.845013 103.642186 
L 85.92318 104.799203 
L 85.962263 102.221426 
L 86.04043 102.6431 
L 86.15768 105.198135 
L 86.196764 100.830224 
L 86.235847 105.029453 
L 86.314014 103.19315 
L 86.431264 101.292917 
L 86.587598 104.463256 
L 86.626682 102.808719 
L 86.704849 104.028127 
L 86.743932 104.524508 
L 86.783015 102.453373 
L 86.822099 104.561138 
L 86.861182 102.540382 
L 86.900266 102.572261 
L 86.939349 105.638005 
L 87.017516 105.097204 
L 87.0566 103.908018 
L 87.095683 104.113827 
L 87.17385 106.443257 
L 87.212933 100.583941 
L 87.2911 102.557721 
L 87.369267 106.341677 
L 87.447434 105.862614 
L 87.525601 102.772916 
L 87.564684 104.748266 
L 87.603768 104.925054 
L 87.642851 107.296098 
L 87.681935 104.265448 
L 87.721018 104.175404 
L 87.799185 105.18191 
L 87.877352 101.34632 
L 87.916435 104.373905 
L 87.955519 105.164626 
L 88.033686 102.848294 
L 88.111853 103.012791 
L 88.19002 106.442375 
L 88.229103 105.329404 
L 88.42452 100.377923 
L 88.502687 106.834328 
L 88.541771 103.505523 
L 88.580854 103.735777 
L 88.698104 101.356491 
L 88.815355 106.156516 
L 88.854438 105.918029 
L 88.893522 109.741536 
L 88.932605 104.163245 
L 88.971689 105.108378 
L 89.010772 103.918385 
L 89.088939 101.494563 
L 89.128022 105.97155 
L 89.206189 105.54603 
L 89.245273 103.634288 
L 89.284356 105.715623 
L 89.32344 107.355229 
L 89.479773 101.539342 
L 89.636107 105.322007 
L 89.753358 100.980774 
L 89.792441 104.761087 
L 89.831525 103.955209 
L 89.870608 100.983289 
L 89.909691 104.049903 
L 89.948775 104.308754 
L 89.987858 105.971544 
L 90.026942 100.805768 
L 90.105109 104.551509 
L 90.183276 107.194311 
L 90.222359 105.052759 
L 90.261442 105.587855 
L 90.300526 104.044751 
L 90.339609 104.418115 
L 90.417776 106.660469 
L 90.45686 104.982145 
L 90.495943 103.460857 
L 90.535027 103.830908 
L 90.57411 107.008505 
L 90.652277 105.339991 
L 90.69136 106.622731 
L 90.730444 104.83401 
L 90.769527 103.476008 
L 90.808611 105.848518 
L 90.886778 107.370341 
L 90.964945 101.59974 
L 91.004028 104.661884 
L 91.043111 103.642782 
L 91.082195 105.162121 
L 91.121278 105.98226 
L 91.160362 105.005968 
L 91.238529 106.364367 
L 91.277612 101.160514 
L 91.316696 106.852784 
L 91.394863 105.708813 
L 91.473029 107.221483 
L 91.512113 104.169224 
L 91.551196 106.825483 
L 91.59028 108.78372 
L 91.746614 102.527257 
L 91.785697 107.148469 
L 91.82478 104.304314 
L 91.863864 103.11748 
L 91.981114 107.092799 
L 92.020198 104.446091 
L 92.059281 106.476249 
L 92.098365 108.194094 
L 92.137448 104.505555 
L 92.176532 109.210203 
L 92.215615 106.148244 
L 92.254698 107.919295 
L 92.293782 105.031276 
L 92.332865 103.933505 
L 92.371949 105.512666 
L 92.411032 106.439466 
L 92.450116 105.864121 
L 92.489199 103.221409 
L 92.528283 104.177682 
L 92.567366 106.137304 
L 92.606449 105.997296 
L 92.645533 103.985703 
L 92.684616 105.505081 
L 92.801867 106.853755 
L 92.84095 104.718141 
L 92.919117 105.848205 
L 92.958201 105.485126 
L 92.997284 106.669659 
L 93.036367 103.626967 
L 93.075451 110.275716 
L 93.153618 105.272532 
L 93.192701 107.411927 
L 93.231785 104.509931 
L 93.270868 106.153487 
L 93.309952 104.219353 
L 93.349035 108.268035 
L 93.388118 104.520778 
L 93.427202 102.69582 
L 93.505369 104.052656 
L 93.661703 108.897598 
L 93.700786 105.748064 
L 93.778953 106.859767 
L 93.818036 106.095532 
L 93.85712 108.228694 
L 93.896203 105.555112 
L 93.935287 107.262086 
L 94.013454 103.36628 
L 94.052537 105.753971 
L 94.130704 105.397006 
L 94.287038 106.759474 
L 94.365205 104.180789 
L 94.482455 107.550548 
L 94.521539 107.00907 
L 94.560622 102.137521 
L 94.599705 104.530618 
L 94.638789 109.484891 
L 94.716956 107.445565 
L 94.756039 106.970013 
L 94.795123 104.915956 
L 94.834206 106.179148 
L 94.87329 108.412405 
L 94.912373 106.812787 
L 94.951456 106.062519 
L 94.99054 108.023201 
L 95.029623 104.023905 
L 95.10779 106.65443 
L 95.146874 105.357628 
L 95.185957 107.740452 
L 95.225041 107.376412 
L 95.264124 107.470487 
L 95.303208 108.714992 
L 95.342291 106.806107 
L 95.381374 108.44005 
L 95.498625 103.618111 
L 95.537708 106.937583 
L 95.576792 106.621722 
L 95.615875 103.819923 
L 95.654959 108.439024 
L 95.694042 105.27052 
L 95.733126 107.192867 
L 95.811292 107.1639 
L 95.850376 104.287028 
L 95.889459 108.906864 
L 96.00671 105.024457 
L 96.084877 106.32801 
L 96.12396 108.225793 
L 96.163043 105.081679 
L 96.202127 106.66471 
L 96.24121 108.350219 
L 96.280294 107.02755 
L 96.358461 104.529476 
L 96.475711 109.545227 
L 96.514795 107.226089 
L 96.553878 107.541021 
L 96.592961 109.292736 
L 96.632045 106.682277 
L 96.671128 104.385651 
L 96.749295 105.074951 
L 96.866546 109.394162 
L 96.905629 107.929086 
L 96.944712 107.703979 
L 96.983796 104.180421 
L 97.022879 105.311941 
L 97.061963 107.707144 
L 97.14013 107.330055 
L 97.179213 107.037572 
L 97.218297 107.390562 
L 97.25738 105.179575 
L 97.335547 105.896975 
L 97.37463 106.887598 
L 97.413714 104.759629 
L 97.452797 106.663364 
L 97.491881 108.995049 
L 97.530964 108.227116 
L 97.570048 106.178103 
L 97.609131 108.839685 
L 97.648215 109.649332 
L 97.726381 105.736044 
L 97.765465 106.058656 
L 97.804548 109.597912 
L 97.843632 106.00642 
L 97.882715 103.13453 
L 97.921799 109.579007 
L 97.999966 108.689117 
L 98.039049 106.159482 
L 98.078133 107.050203 
L 98.195383 109.861915 
L 98.27355 104.859731 
L 98.312633 108.731913 
L 98.468967 105.232373 
L 98.50805 105.482872 
L 98.547134 108.596395 
L 98.625301 108.559074 
L 98.820718 106.006216 
L 98.859802 107.230693 
L 98.898885 105.952422 
L 98.937968 106.33983 
L 98.977052 105.642651 
L 99.016135 107.820677 
L 99.055219 103.270363 
L 99.133386 104.987744 
L 99.211553 108.761673 
L 99.250636 104.905368 
L 99.289719 109.152347 
L 99.328803 107.082837 
L 99.367886 106.12821 
L 99.40697 108.55101 
L 99.446053 107.12354 
L 99.485137 105.381104 
L 99.52422 108.159998 
L 99.563304 109.455074 
L 99.602387 108.038698 
L 99.680554 108.66752 
L 99.719637 107.002766 
L 99.875971 109.739899 
L 100.110472 106.731836 
L 100.149555 111.17049 
L 100.227722 108.101963 
L 100.266806 107.56279 
L 100.305889 110.818136 
L 100.344973 105.12162 
L 100.462223 110.387428 
L 100.501306 108.243175 
L 100.54039 108.857282 
L 100.579473 108.13471 
L 100.65764 105.708354 
L 100.696724 111.91251 
L 100.735807 105.055074 
L 100.774891 104.838544 
L 100.813974 110.633703 
L 100.892141 106.456127 
L 100.970308 105.207805 
L 101.009391 109.613265 
L 101.165725 106.570978 
L 101.282975 111.486268 
L 101.400226 106.162398 
L 101.439309 107.37665 
L 101.478393 105.564644 
L 101.517476 109.30428 
L 101.595643 107.290088 
L 101.712893 109.972406 
L 101.751977 109.41066 
L 101.79106 105.564211 
L 101.869227 108.472676 
L 101.908311 109.742265 
L 101.986478 110.835092 
L 102.025561 106.201752 
L 102.064644 109.815776 
L 102.103728 107.977233 
L 102.142811 106.755976 
L 102.260062 109.676522 
L 102.338229 107.95524 
L 102.377312 109.659305 
L 102.455479 108.785132 
L 102.494562 109.033372 
L 102.533646 108.966062 
L 102.68998 106.285088 
L 102.80723 109.286262 
L 102.885397 107.111129 
L 102.92448 111.787777 
L 103.002647 110.289593 
L 103.041731 111.060684 
L 103.119898 107.419921 
L 103.158981 107.42795 
L 103.198064 111.293091 
L 103.237148 110.215989 
L 103.276231 107.158122 
L 103.315315 111.447733 
L 103.432565 106.714058 
L 103.588899 113.264903 
L 103.627982 112.138612 
L 103.706149 112.971149 
L 103.784316 112.839127 
L 103.8234 113.563476 
L 103.862483 112.748233 
L 103.901567 114.292937 
L 103.94065 112.216188 
L 104.018817 112.962111 
L 104.096984 111.081563 
L 104.136067 111.235343 
L 104.175151 112.932414 
L 104.214234 109.513546 
L 104.292401 111.867148 
L 104.331485 110.959125 
L 104.448735 113.459798 
L 104.487818 112.820445 
L 104.526902 113.52344 
L 104.565985 114.443264 
L 104.605069 113.257898 
L 104.644152 113.83879 
L 104.683236 112.806262 
L 104.722319 114.528197 
L 104.761402 114.763896 
L 104.917736 111.579115 
L 104.95682 112.312282 
L 104.995903 111.247028 
L 105.034987 111.028863 
L 105.152237 113.721991 
L 105.230404 110.85666 
L 105.269487 113.207527 
L 105.308571 111.149401 
L 105.347654 111.315902 
L 105.425821 111.24903 
L 105.464905 114.397232 
L 105.503988 110.490111 
L 105.582155 111.242596 
L 105.621238 115.375301 
L 105.660322 110.292623 
L 105.699405 113.417335 
L 105.738489 112.756356 
L 105.777572 109.721134 
L 105.816656 112.850446 
L 105.855739 113.437587 
L 105.894823 112.488833 
L 105.933906 113.009352 
L 105.972989 110.382629 
L 106.012073 114.36375 
L 106.168407 112.327459 
L 106.246574 114.446493 
L 106.32474 111.545903 
L 106.363824 113.769439 
L 106.520158 111.44877 
L 106.598325 114.012159 
L 106.637408 111.86718 
L 106.676492 110.816811 
L 106.715575 114.327814 
L 106.793742 113.811695 
L 106.832825 112.975645 
L 106.871909 113.31615 
L 106.910992 115.061253 
L 107.067326 109.654518 
L 107.184576 113.782773 
L 107.262743 111.666974 
L 107.301827 113.042194 
L 107.34091 114.442171 
L 107.379994 110.154122 
L 107.458161 110.484627 
L 107.614494 115.022316 
L 107.731745 110.616836 
L 107.770828 111.030355 
L 107.888078 112.767336 
L 107.927162 111.778101 
L 107.966245 112.749487 
L 108.005329 115.548275 
L 108.044412 111.038656 
L 108.200746 113.936097 
L 108.396163 111.966922 
L 108.435247 113.358664 
L 108.47433 110.674642 
L 108.513414 112.529699 
L 108.630664 114.128834 
L 108.669747 111.509492 
L 108.708831 112.470471 
L 108.747914 115.425786 
L 108.826081 113.588718 
L 108.865165 113.528889 
L 109.021499 108.425644 
L 109.060582 113.512503 
L 109.138749 111.372645 
L 109.295083 114.260062 
L 109.334166 112.339537 
L 109.412333 113.640139 
L 109.451416 113.799127 
L 109.4905 111.102848 
L 109.568667 113.236915 
L 109.60775 112.84012 
L 109.646834 115.361659 
L 109.685917 112.472206 
L 109.725001 111.668478 
L 109.764084 114.08494 
L 109.803168 112.201645 
L 109.842251 111.875111 
L 109.959501 114.195598 
L 110.154919 110.345252 
L 110.350336 114.303499 
L 110.467586 110.883779 
L 110.50667 110.900495 
L 110.663003 114.780128 
L 110.780254 112.35062 
L 110.819337 112.553071 
L 110.897504 111.629591 
L 110.936588 113.753334 
L 110.975671 111.503181 
L 111.014754 111.729919 
L 111.132005 113.535895 
L 111.210172 111.724293 
L 111.288339 111.749554 
L 111.366506 114.60331 
L 111.405589 112.886713 
L 111.444672 113.175411 
L 111.483756 111.005989 
L 111.522839 113.164286 
L 111.561923 114.088898 
L 111.601006 112.846633 
L 111.64009 113.834253 
L 111.679173 112.72653 
L 111.75734 112.438645 
L 111.796423 114.997524 
L 111.952757 110.477859 
L 112.030924 113.443991 
L 112.070008 112.410107 
L 112.109091 112.266758 
L 112.226341 115.237166 
L 112.304508 111.579218 
L 112.343592 115.00492 
L 112.421759 113.080155 
L 112.460842 112.221461 
L 112.499926 112.310072 
L 112.539009 113.741696 
L 112.578092 111.901152 
L 112.617176 110.641305 
L 112.656259 113.149622 
L 112.734426 112.338866 
L 112.89076 114.266359 
L 112.929844 114.220087 
L 112.968927 109.428563 
L 113.047094 110.888425 
L 113.164344 113.486275 
L 113.203428 111.086119 
L 113.281595 112.876036 
L 113.320678 112.955817 
L 113.359761 114.798917 
L 113.398845 111.738449 
L 113.477012 112.623082 
L 113.516095 110.599171 
L 113.555179 111.816586 
L 113.672429 115.312721 
L 113.789679 107.642003 
L 113.828763 114.090724 
L 113.90693 110.8903 
L 113.985097 115.589183 
L 114.02418 112.252763 
L 114.063264 108.565302 
L 114.102347 113.205951 
L 114.180514 113.201304 
L 114.297764 110.800614 
L 114.336848 113.305546 
L 114.415015 111.931779 
L 114.454098 111.564719 
L 114.493182 115.945088 
L 114.532265 112.678035 
L 114.571348 110.599731 
L 114.610432 113.39295 
L 114.688599 112.603466 
L 114.766766 114.927879 
L 115.04035 107.620517 
L 115.079433 110.249177 
L 115.196684 114.307051 
L 115.235767 112.897719 
L 115.274851 113.032704 
L 115.353017 113.805437 
L 115.392101 111.726758 
L 115.470268 112.528414 
L 115.509351 112.004811 
L 115.548435 114.025707 
L 115.626602 113.864198 
L 115.704768 114.033381 
L 115.743852 111.241091 
L 115.822019 111.135137 
L 115.900186 112.540156 
L 115.939269 109.941793 
L 115.978353 112.838404 
L 116.017436 110.971033 
L 116.05652 114.565993 
L 116.134686 113.063674 
L 116.17377 114.093151 
L 116.212853 113.2029 
L 116.29102 113.156244 
L 116.408271 111.316262 
L 116.525521 114.689095 
L 116.603688 114.496616 
L 116.720938 109.427355 
L 116.838189 116.245097 
L 116.955439 111.520126 
L 116.994522 111.708549 
L 117.150856 114.034763 
L 117.18994 112.457196 
L 117.268106 113.72345 
L 117.30719 114.970707 
L 117.346273 113.684573 
L 117.385357 113.526365 
L 117.42444 114.153437 
L 117.463524 113.9753 
L 117.580774 111.304065 
L 117.619858 110.080968 
L 117.658941 111.670591 
L 117.698024 111.28095 
L 117.737108 115.385241 
L 117.815275 113.198772 
L 117.854358 113.118337 
L 117.893442 114.189363 
L 117.932525 110.629563 
L 117.971609 113.280458 
L 118.010692 114.637675 
L 118.049775 113.79242 
L 118.127942 112.392984 
L 118.206109 115.845409 
L 118.284276 115.027308 
L 118.362443 109.592504 
L 118.44061 110.725541 
L 118.518777 114.034695 
L 118.55786 113.081794 
L 118.636027 112.188338 
L 118.675111 114.592527 
L 118.714194 114.346326 
L 118.753278 111.536487 
L 118.831444 113.24074 
L 118.948695 112.549857 
L 118.987778 113.075498 
L 119.026862 112.124003 
L 119.065945 110.357413 
L 119.105029 112.881658 
L 119.144112 112.638242 
L 119.183196 114.696271 
L 119.222279 113.52638 
L 119.300446 114.364211 
L 119.378613 110.397178 
L 119.534947 115.821113 
L 119.613113 112.157313 
L 119.652197 114.419879 
L 119.69128 114.858507 
L 119.769447 115.133497 
L 119.808531 110.834874 
L 119.964865 114.743834 
L 120.082115 111.466843 
L 120.238449 114.411752 
L 120.277532 111.592973 
L 120.355699 112.946515 
L 120.394782 113.947874 
L 120.433866 112.758239 
L 120.512033 112.20031 
L 120.5902 113.629011 
L 120.668367 113.428157 
L 120.70745 113.384425 
L 120.746534 111.050544 
L 120.785617 115.685169 
L 120.8247 109.104672 
L 120.863784 112.998696 
L 120.941951 115.058239 
L 121.098285 109.249345 
L 121.176451 112.959436 
L 121.215535 112.088504 
L 121.293702 112.709425 
L 121.332785 112.600892 
L 121.450036 115.590745 
L 121.489119 114.571553 
L 121.606369 112.532056 
L 121.72362 115.640165 
L 121.762703 111.580407 
L 121.84087 114.434046 
L 121.919037 114.56078 
L 121.95812 111.34593 
L 122.153538 115.114647 
L 122.192621 111.753387 
L 122.231705 115.81085 
L 122.270788 112.019543 
L 122.309872 112.267355 
L 122.348955 111.58 
L 122.427122 114.219305 
L 122.466205 111.896086 
L 122.583456 115.60266 
L 122.661623 110.646123 
L 122.700706 115.399205 
L 122.778873 114.723293 
L 122.817956 114.683425 
L 122.896123 113.119706 
L 122.935207 114.543726 
L 123.052457 111.464363 
L 123.208791 114.570483 
L 123.247874 114.634783 
L 123.286958 110.775157 
L 123.326041 114.060585 
L 123.365125 115.935521 
L 123.404208 115.434832 
L 123.521459 110.384133 
L 123.560542 113.425767 
L 123.599625 115.269798 
L 123.638709 114.777804 
L 123.755959 113.425695 
L 123.795043 113.540882 
L 123.834126 112.580028 
L 123.87321 113.966405 
L 123.912293 113.815858 
L 123.99046 113.593833 
L 124.029543 115.388447 
L 124.10771 112.204148 
L 124.146794 115.20279 
L 124.224961 113.322806 
L 124.264044 112.662669 
L 124.303128 113.114171 
L 124.342211 113.27074 
L 124.381294 114.319905 
L 124.420378 114.096266 
L 124.537628 112.432393 
L 124.576712 114.763275 
L 124.654879 112.902274 
L 124.693962 114.647934 
L 124.733045 111.213858 
L 124.772129 113.704004 
L 124.811212 115.978237 
L 124.850296 113.364057 
L 124.889379 113.280097 
L 124.967546 115.165919 
L 125.00663 114.435053 
L 125.045713 112.2527 
L 125.084797 114.733664 
L 125.12388 115.795154 
L 125.24113 112.173169 
L 125.319297 115.748562 
L 125.397464 114.12974 
L 125.436548 113.402032 
L 125.475631 114.968805 
L 125.514714 114.00523 
L 125.553798 112.531022 
L 125.631965 113.280228 
L 125.671048 112.367312 
L 125.710132 113.601575 
L 125.749215 115.084906 
L 125.788299 113.097583 
L 125.827382 114.234238 
L 125.866466 114.064695 
L 125.905549 115.082915 
L 125.944632 115.01532 
L 125.983716 113.573393 
L 126.022799 114.007947 
L 126.061883 115.432911 
L 126.100966 111.342314 
L 126.179133 113.371207 
L 126.218217 113.34095 
L 126.2573 112.748766 
L 126.413634 116.030569 
L 126.530884 113.993606 
L 126.569968 112.908551 
L 126.648135 113.535882 
L 126.726301 113.866019 
L 126.804468 113.795335 
L 126.843552 115.278602 
L 126.882635 115.383847 
L 126.960802 112.181918 
L 126.999886 113.839348 
L 127.038969 116.673429 
L 127.078052 114.073886 
L 127.117136 112.948043 
L 127.195303 113.3675 
L 127.27347 115.143329 
L 127.312553 114.293559 
L 127.351637 112.459995 
L 127.39072 115.372814 
L 127.429804 112.949678 
L 127.468887 114.906609 
L 127.547054 113.446714 
L 127.586137 113.503187 
L 127.625221 114.84879 
L 127.664304 111.519164 
L 127.703388 115.892349 
L 127.781555 112.400881 
L 127.820638 112.755414 
L 127.859721 114.531306 
L 127.898805 111.07665 
L 127.937888 114.440032 
L 127.976972 114.522953 
L 128.094222 111.601309 
L 128.172389 110.552455 
L 128.211473 114.01545 
L 128.250556 114.182188 
L 128.328723 114.047236 
L 128.445973 111.480872 
L 128.602307 114.800322 
L 128.680474 111.614459 
L 128.719557 112.966174 
L 128.758641 113.005934 
L 128.836808 115.080551 
L 128.875891 114.577925 
L 129.032225 111.981485 
L 129.071308 112.554895 
L 129.266726 114.986035 
L 129.383976 112.701976 
L 129.54031 116.759354 
L 129.579393 115.9788 
L 129.618477 111.559405 
L 129.696644 113.378622 
L 129.735727 113.50143 
L 129.774811 114.987117 
L 129.852977 114.521638 
L 129.892061 115.201916 
L 130.009311 110.195212 
L 130.165645 116.631098 
L 130.243812 112.06127 
L 130.321979 113.142571 
L 130.400146 116.264065 
L 130.439229 112.890498 
L 130.478313 114.253252 
L 130.517396 116.63212 
L 130.55648 110.913508 
L 130.634646 115.098256 
L 130.67373 116.403502 
L 130.712813 115.113455 
L 130.751897 112.212758 
L 130.830064 113.778262 
L 130.869147 113.713227 
L 130.908231 113.747553 
L 130.947314 113.828043 
L 131.025481 113.728261 
L 131.103648 116.522644 
L 131.181815 114.369807 
L 131.220898 114.901183 
L 131.259982 116.547298 
L 131.299065 113.819261 
L 131.338149 115.347736 
L 131.377232 113.595588 
L 131.455399 114.352104 
L 131.494482 116.443064 
L 131.533566 115.586944 
L 131.650816 113.282953 
L 131.611733 115.976969 
L 131.6899 113.561561 
L 131.728983 115.824288 
L 131.768066 115.024032 
L 131.846233 111.938067 
L 131.885317 117.026215 
L 131.963484 113.569954 
L 132.002567 111.097217 
L 132.041651 112.386731 
L 132.119818 115.519564 
L 132.197984 114.334612 
L 132.237068 114.008809 
L 132.276151 114.40844 
L 132.315235 116.063208 
L 132.354318 114.597863 
L 132.432485 111.579193 
L 132.471569 116.008658 
L 132.510652 108.916818 
L 132.549735 113.42997 
L 132.588819 115.14449 
L 132.627902 111.707254 
L 132.706069 114.012423 
L 132.745153 115.036368 
L 132.784236 112.715099 
L 132.82332 116.625883 
L 132.862403 116.902709 
L 133.05782 112.662068 
L 133.175071 114.457316 
L 133.214154 112.563255 
L 133.253238 115.96148 
L 133.292321 113.44794 
L 133.331404 116.146688 
L 133.409571 114.454435 
L 133.448655 115.171447 
L 133.565905 112.400413 
L 133.604989 112.85875 
L 133.683156 116.401531 
L 133.761322 114.518747 
L 133.800406 112.405707 
L 133.839489 115.326362 
L 133.878573 116.914408 
L 133.917656 112.147525 
L 133.995823 113.685452 
L 134.034907 115.867762 
L 134.07399 112.954578 
L 134.113073 115.538882 
L 134.152157 112.578637 
L 134.19124 115.789302 
L 134.230324 115.527024 
L 134.269407 113.81471 
L 134.308491 114.174788 
L 134.347574 115.485006 
L 134.386658 115.350747 
L 134.464825 112.031874 
L 134.542991 115.981733 
L 134.582075 115.606634 
L 134.621158 112.807917 
L 134.660242 113.165026 
L 134.699325 115.688973 
L 134.777492 114.752198 
L 134.816576 113.763452 
L 134.855659 116.872541 
L 134.894742 115.367028 
L 135.051076 112.78669 
L 135.129243 115.738536 
L 135.246494 114.553584 
L 135.32466 115.019975 
L 135.402827 113.076759 
L 135.559161 118.769451 
L 135.637328 116.249163 
L 135.676411 120.388939 
L 135.754578 118.258337 
L 135.793662 115.594316 
L 135.832745 118.117074 
L 135.871829 120.91244 
L 135.910912 116.423268 
L 135.949996 115.887234 
L 135.989079 116.687459 
L 136.067246 119.276691 
L 136.106329 118.779471 
L 136.145413 118.326556 
L 136.22358 118.36982 
L 136.262663 118.370651 
L 136.301747 119.766532 
L 136.34083 119.086667 
L 136.45808 114.84669 
L 136.497164 117.117697 
L 136.536247 117.296307 
L 136.575331 119.563513 
L 136.653498 118.802574 
L 136.692581 116.558322 
L 136.731665 119.513076 
L 136.887998 115.948779 
L 136.927082 116.252149 
L 137.083416 118.426521 
L 137.161583 118.801753 
L 137.200666 118.65025 
L 137.278833 116.451939 
L 137.317916 118.234885 
L 137.396083 118.163889 
L 137.435167 118.7866 
L 137.591501 115.722418 
L 137.669667 118.770533 
L 137.747834 118.656703 
L 137.826001 117.025478 
L 137.904168 118.853699 
L 137.943252 116.755032 
L 137.982335 118.305252 
L 138.021418 119.652479 
L 138.060502 118.600017 
L 138.099585 116.448345 
L 138.177752 117.343818 
L 138.216836 116.568167 
L 138.255919 117.476291 
L 138.295003 119.009714 
L 138.334086 118.02391 
L 138.37317 116.861869 
L 138.412253 117.58642 
L 138.451336 119.861239 
L 138.49042 119.303537 
L 138.529503 116.756863 
L 138.568587 117.177886 
L 138.60767 119.603999 
L 138.646754 116.745102 
L 138.685837 118.562304 
L 138.803087 115.792317 
L 138.920338 119.236187 
L 138.959421 117.855947 
L 139.037588 115.781214 
L 139.076672 118.846262 
L 139.154839 116.511854 
L 139.350256 120.000734 
L 139.50659 115.839656 
L 139.662923 118.529218 
L 139.74109 119.364447 
L 139.780174 114.222196 
L 139.936508 118.992176 
L 140.014674 116.128299 
L 140.053758 116.542448 
L 140.092841 120.815523 
L 140.131925 120.801787 
L 140.249175 116.601327 
L 140.288259 120.29638 
L 140.327342 118.561783 
L 140.366425 117.084241 
L 140.405509 117.947484 
L 140.444592 118.781801 
L 140.522759 118.211635 
L 140.600926 119.067807 
L 140.679093 115.64478 
L 140.718177 117.873274 
L 140.75726 115.984228 
L 140.835427 116.701646 
L 140.87451 117.911574 
L 140.913594 115.622214 
L 140.952677 119.004165 
L 140.991761 117.283907 
L 141.148094 118.607898 
L 141.187178 119.33842 
L 141.226261 118.733785 
L 141.304428 119.210707 
L 141.382595 115.547297 
L 141.460762 119.22047 
L 141.499846 117.473605 
L 141.538929 117.047214 
L 141.578012 118.519791 
L 141.656179 118.016721 
L 141.695263 117.538323 
L 141.734346 119.21694 
L 141.77343 117.663587 
L 141.812513 117.527342 
L 141.851597 119.927709 
L 141.89068 118.781245 
L 142.00793 115.787578 
L 142.125181 119.232936 
L 142.164264 118.611078 
L 142.242431 117.320322 
L 142.359681 119.236539 
L 142.398765 117.526872 
L 142.437848 121.111853 
L 142.476932 117.294176 
L 142.516015 116.791211 
L 142.555099 117.02742 
L 142.594182 118.45778 
L 142.633266 116.352227 
L 142.672349 116.45119 
L 142.750516 118.150565 
L 142.828683 115.484924 
L 142.945933 119.151549 
L 143.0241 117.499127 
L 143.14135 119.437853 
L 143.180434 115.707866 
L 143.258601 117.181522 
L 143.336768 115.40639 
L 143.375851 117.819231 
L 143.454018 116.04892 
L 143.610352 118.449751 
L 143.649435 116.437874 
L 143.688519 116.852028 
L 143.727602 118.185254 
L 143.766686 115.923728 
L 143.805769 115.36052 
L 143.923019 118.249973 
L 143.962103 117.966278 
L 144.04027 115.872059 
L 144.079353 117.650725 
L 144.118437 118.054605 
L 144.196604 116.658449 
L 144.27477 119.734579 
L 144.313854 117.25764 
L 144.352937 117.974749 
L 144.392021 117.104898 
L 144.431104 116.366896 
L 144.470188 118.296238 
L 144.509271 113.854072 
L 144.548355 117.049105 
L 144.587438 118.397175 
L 144.665605 118.286447 
L 144.704688 117.066107 
L 144.743772 119.427725 
L 144.782855 116.546015 
L 144.821939 118.480475 
L 144.861022 118.665355 
L 144.900106 116.666631 
L 144.939189 120.312619 
L 144.978273 118.105426 
L 145.017356 117.953936 
L 145.056439 118.234579 
L 145.095523 115.820902 
L 145.134606 118.280282 
L 145.17369 117.106405 
L 145.212773 115.443666 
L 145.251857 116.168017 
L 145.330024 115.345623 
L 145.408191 119.312062 
L 145.486357 115.766315 
L 145.525441 117.896925 
L 145.642691 116.232212 
L 145.681775 118.173668 
L 145.720858 115.361635 
L 145.759942 116.954084 
L 145.799025 118.202997 
L 145.838108 117.852743 
L 145.916275 118.159825 
L 145.955359 115.687152 
L 146.111693 119.890053 
L 146.18986 115.970245 
L 146.268026 117.852742 
L 146.30711 119.252398 
L 146.346193 118.227454 
L 146.42436 115.757581 
L 146.463444 119.367635 
L 146.541611 118.367296 
L 146.580694 118.279589 
L 146.619777 116.779677 
L 146.658861 117.60677 
L 146.737028 119.184066 
L 146.815195 116.535914 
L 146.854278 118.506168 
L 146.893362 119.224428 
L 147.049695 115.818377 
L 147.127862 114.748784 
L 147.206029 118.784084 
L 147.245113 116.030842 
L 147.32328 117.637028 
L 147.362363 118.997322 
L 147.401446 117.405676 
L 147.44053 116.796839 
L 147.479613 117.297398 
L 147.596864 118.361173 
L 147.635947 115.645422 
L 147.675031 118.473642 
L 147.714114 118.926034 
L 147.792281 116.302395 
L 147.831364 116.921792 
L 147.870448 120.327107 
L 147.909531 117.032167 
L 147.948615 116.406952 
L 148.104949 119.169178 
L 148.183115 115.88327 
L 148.222199 119.651671 
L 148.261282 118.345699 
L 148.300366 115.63768 
L 148.339449 116.903647 
L 148.378533 118.549694 
L 148.417616 118.501652 
L 148.4567 116.427339 
L 148.495783 117.176618 
L 148.534867 119.201389 
L 148.57395 119.127322 
L 148.613033 117.278263 
L 148.652117 118.411951 
L 148.6912 119.124057 
L 148.730284 115.538837 
L 148.808451 116.927152 
L 148.847534 117.683555 
L 148.886618 115.654708 
L 148.925701 117.473197 
L 148.964784 117.470976 
L 149.003868 118.311988 
L 149.042951 117.9118 
L 149.121118 116.328518 
L 149.160202 116.875649 
L 149.199285 117.757902 
L 149.238369 115.562702 
L 149.277452 116.994227 
L 149.355619 118.973031 
L 149.472869 118.769737 
L 149.551036 116.874312 
L 149.59012 119.132514 
L 149.629203 117.608037 
L 149.668287 117.05466 
L 149.785537 118.564294 
L 149.82462 114.91476 
L 149.863704 118.753471 
L 149.902787 116.139347 
L 149.941871 119.610601 
L 150.020038 117.274226 
L 150.059121 117.252931 
L 150.098205 117.535417 
L 150.137288 115.951441 
L 150.176371 117.921094 
L 150.215455 117.207025 
L 150.254538 116.369004 
L 150.293622 119.176774 
L 150.332705 115.739438 
L 150.371789 118.876508 
L 150.449956 116.202372 
L 150.489039 117.830303 
L 150.567206 115.577024 
L 150.606289 120.518317 
L 150.684456 118.868597 
L 150.72354 120.840203 
L 150.762623 116.581347 
L 150.84079 117.826022 
L 150.879874 118.624816 
L 150.918957 117.597427 
L 150.95804 115.657983 
L 150.997124 119.24054 
L 151.075291 118.047654 
L 151.114374 117.664976 
L 151.153458 115.765421 
L 151.192541 119.189786 
L 151.231625 115.993998 
L 151.427042 119.114032 
L 151.466125 119.572772 
L 151.505209 117.041035 
L 151.583376 118.307914 
L 151.622459 117.682667 
L 151.661543 117.924151 
L 151.700626 122.077737 
L 151.739709 119.002531 
L 151.778793 117.02511 
L 151.85696 117.54467 
L 151.896043 118.909803 
L 151.935127 116.407614 
L 152.013294 118.907058 
L 152.052377 116.104196 
L 152.130544 117.861833 
L 152.169627 117.622227 
L 152.208711 119.440422 
L 152.247794 117.481711 
L 152.286878 118.509182 
L 152.365045 115.945233 
L 152.404128 119.860022 
L 152.443212 115.51876 
L 152.482295 119.327581 
L 152.560462 115.741506 
L 152.599545 117.644215 
L 152.716796 119.424762 
L 152.755879 119.204113 
L 152.912213 115.491768 
L 153.068547 119.264905 
L 153.10763 115.547542 
L 153.185797 117.295273 
L 153.263964 120.996571 
L 153.303047 118.901724 
L 153.342131 117.882018 
L 153.381214 119.684333 
L 153.420298 118.697536 
L 153.459381 119.499989 
L 153.498465 118.670012 
L 153.537548 116.797584 
L 153.576632 118.317346 
L 153.654799 118.962203 
L 153.772049 115.681022 
L 153.850216 117.754891 
L 153.889299 116.620173 
L 153.928383 117.288116 
L 153.967466 115.990277 
L 154.00655 116.723877 
L 154.1238 118.95795 
L 154.201967 117.048872 
L 154.24105 117.550115 
L 154.280134 119.005136 
L 154.319217 117.144491 
L 154.358301 118.9295 
L 154.397384 117.495937 
L 154.436468 119.369683 
L 154.475551 118.114287 
L 154.553718 117.469295 
L 154.631885 119.71762 
L 154.670968 118.602027 
L 154.710052 118.241106 
L 154.749135 119.209161 
L 154.788219 118.041856 
L 154.827302 117.058964 
L 154.866385 118.011376 
L 154.905469 118.322521 
L 154.944552 120.074479 
L 154.983636 118.056952 
L 155.061803 115.730985 
L 155.13997 115.392458 
L 155.179053 118.682337 
L 155.296303 116.029532 
L 155.335387 116.398924 
L 155.452637 119.746334 
L 155.413554 116.192072 
L 155.491721 117.888832 
L 155.530804 118.114346 
L 155.608971 115.306457 
L 155.648054 116.559097 
L 155.687138 115.425086 
L 155.843472 119.110652 
L 155.882555 118.452471 
L 155.921639 115.53949 
L 155.960722 118.787381 
L 155.999806 118.630283 
L 156.038889 115.364042 
L 156.117056 115.797558 
L 156.156139 119.586974 
L 156.195223 115.298426 
L 156.234306 115.774891 
L 156.27339 117.656428 
L 156.351557 117.119541 
L 156.39064 117.161255 
L 156.50789 120.473719 
L 156.703308 116.310078 
L 156.859641 118.974677 
L 156.898725 119.489241 
L 157.055059 116.86121 
L 157.094142 118.506008 
L 157.133226 117.842892 
L 157.211392 118.866192 
L 157.250476 114.822636 
L 157.289559 118.422583 
L 157.367726 116.804753 
L 157.40681 118.282311 
L 157.484977 117.356913 
L 157.52406 116.972437 
L 157.563144 117.592116 
L 157.602227 118.172552 
L 157.64131 117.545136 
L 157.680394 115.693483 
L 157.719477 119.887731 
L 157.758561 117.892835 
L 157.797644 115.927568 
L 157.836728 116.95452 
L 157.875811 117.64529 
L 157.914895 115.836994 
L 157.953978 117.740325 
L 157.993061 117.009947 
L 158.032145 117.208843 
L 158.071228 119.245863 
L 158.110312 119.20734 
L 158.149395 116.899476 
L 158.188479 118.360115 
L 158.227562 119.304111 
L 158.344813 115.968925 
L 158.422979 118.299173 
L 158.462063 117.176505 
L 158.54023 117.698851 
L 158.618397 115.318532 
L 158.65748 118.532568 
L 158.735647 117.258218 
L 158.77473 116.044971 
L 158.813814 117.46801 
L 158.852897 116.796314 
L 158.931064 115.020852 
L 158.970148 119.169918 
L 159.048315 117.306793 
L 159.087398 118.018778 
L 159.165565 118.880854 
L 159.204648 115.112599 
L 159.282815 117.806889 
L 159.321899 117.349274 
L 159.360982 116.5161 
L 159.400066 117.572585 
L 159.478233 117.274375 
L 159.556399 118.320489 
L 159.595483 117.931571 
L 159.634566 114.929558 
L 159.712733 116.572984 
L 159.869067 118.608974 
L 159.908151 118.013452 
L 160.025401 116.9138 
L 160.064484 118.319861 
L 160.103568 114.79498 
L 160.142651 119.122971 
L 160.181735 115.695521 
L 160.220818 118.747425 
L 160.298985 117.876216 
L 160.338068 117.952839 
L 160.377152 116.219336 
L 160.416235 118.337355 
L 160.455319 117.53352 
L 160.533486 117.424824 
L 160.572569 117.825745 
L 160.611653 117.289858 
L 160.650736 117.262516 
L 160.68982 118.233849 
L 160.728903 118.130862 
L 160.767986 117.295393 
L 160.80707 118.178457 
L 160.846153 118.360825 
L 160.885237 117.56681 
L 160.92432 118.226052 
L 160.963404 118.426234 
L 161.002487 117.514942 
L 161.041571 118.005208 
L 161.080654 119.392476 
L 161.119737 116.976212 
L 161.158821 117.057827 
L 161.236988 118.370759 
L 161.354238 118.10577 
L 161.393322 115.281599 
L 161.471489 117.593012 
L 161.510572 118.719582 
L 161.549655 116.092611 
L 161.627822 117.66089 
L 161.666906 118.913065 
L 161.745073 117.857202 
L 161.82324 117.316553 
L 161.901406 118.995712 
L 161.979573 118.493348 
L 162.018657 115.785192 
L 162.05774 116.592686 
L 162.096824 119.490032 
L 162.135907 118.473697 
L 162.214074 116.078376 
L 162.292241 116.350599 
L 162.409491 117.469469 
L 162.448575 116.358769 
L 162.526742 115.980395 
L 162.565825 119.220183 
L 162.643992 114.611484 
L 162.683075 116.541244 
L 162.722159 117.79561 
L 162.761242 115.037935 
L 162.800326 119.609928 
L 162.917576 116.281322 
L 162.95666 117.551078 
L 163.034827 116.776565 
L 163.112993 118.113105 
L 163.19116 116.105466 
L 163.230244 117.578251 
L 163.308411 120.417132 
L 163.347494 116.466424 
L 163.425661 117.900242 
L 163.503828 116.538489 
L 163.542911 120.117047 
L 163.581995 120.019893 
L 163.621078 116.403713 
L 163.699245 117.387345 
L 163.738329 117.336287 
L 163.777412 119.451117 
L 163.816496 114.517763 
L 163.855579 117.228349 
L 163.972829 120.493363 
L 164.050996 117.816878 
L 164.09008 118.398324 
L 164.129163 118.115574 
L 164.168247 113.96345 
L 164.20733 117.172808 
L 164.246413 117.783307 
L 164.32458 118.944552 
L 164.363664 113.394297 
L 164.402747 119.532584 
L 164.480914 117.93564 
L 164.519998 117.455328 
L 164.559081 114.808909 
L 164.598165 117.896643 
L 164.637248 116.788593 
L 164.715415 118.954458 
L 164.754498 117.372644 
L 164.793582 118.974833 
L 164.832665 117.456931 
L 164.871749 115.743629 
L 164.910832 118.752607 
L 164.988999 118.514139 
L 165.028082 117.078217 
L 165.067166 118.319356 
L 165.106249 118.457943 
L 165.145333 117.39475 
L 165.184416 118.03268 
L 165.2235 120.07692 
L 165.262583 119.211147 
L 165.301667 116.280103 
L 165.34075 119.335634 
L 165.379834 117.76172 
L 165.458 118.162326 
L 165.653418 116.157839 
L 165.731585 119.704207 
L 165.770668 117.89468 
L 165.809751 116.692415 
L 165.848835 119.846311 
L 165.887918 119.061296 
L 165.927002 116.306478 
L 166.005169 117.909992 
L 166.044252 117.259934 
L 166.161503 120.940625 
L 166.239669 116.545974 
L 166.278753 118.686139 
L 166.317836 120.017767 
L 166.35692 118.027693 
L 166.513254 119.490851 
L 166.552337 117.539962 
L 166.59142 117.8537 
L 166.630504 119.46936 
L 166.669587 117.201761 
L 166.708671 117.261309 
L 166.747754 118.42076 
L 166.786838 116.88509 
L 166.825921 116.292545 
L 166.865005 116.996379 
L 166.943172 118.341502 
L 166.982255 116.122181 
L 167.021338 118.542219 
L 167.060422 117.163988 
L 167.099505 119.950216 
L 167.138589 119.753546 
L 167.177672 116.019344 
L 167.255839 117.918678 
L 167.294923 117.542595 
L 167.334006 119.446649 
L 167.373089 118.450734 
L 167.412173 117.072452 
L 167.529423 122.781347 
L 167.568507 121.379928 
L 167.60759 121.647888 
L 167.646674 122.687231 
L 167.724841 122.391813 
L 167.763924 120.523438 
L 167.842091 122.06287 
L 167.959341 120.079574 
L 168.154758 122.71015 
L 168.232925 122.815212 
L 168.272009 118.681332 
L 168.389259 122.279684 
L 168.467426 119.84133 
L 168.545593 120.907849 
L 168.584676 121.442582 
L 168.62376 119.951198 
L 168.662843 120.618487 
L 168.701927 122.44174 
L 168.74101 121.542731 
L 168.780094 119.560248 
L 168.858261 120.653017 
L 168.936427 122.36223 
L 168.975511 121.745295 
L 169.053678 121.990343 
L 169.092761 120.348057 
L 169.170928 122.566461 
L 169.210012 121.725719 
L 169.288179 120.38219 
L 169.366345 123.77304 
L 169.405429 121.145383 
L 169.483596 121.281634 
L 169.522679 119.329689 
L 169.600846 122.713256 
L 169.63993 121.344725 
L 169.679013 119.88989 
L 169.718096 121.837434 
L 169.796263 120.352542 
L 169.835347 122.568661 
L 169.913514 122.204002 
L 169.991681 123.330861 
L 170.148014 121.590418 
L 170.187098 123.648483 
L 170.226181 121.839216 
L 170.265265 121.833228 
L 170.304348 121.549105 
L 170.343432 121.966932 
L 170.382515 123.492149 
L 170.421599 119.647769 
L 170.499765 120.004663 
L 170.538849 122.929958 
L 170.617016 121.11168 
L 170.656099 120.702962 
L 170.734266 120.932632 
L 170.77335 122.964381 
L 170.812433 122.57968 
L 170.851517 120.671277 
L 170.929683 122.039869 
L 170.968767 121.396025 
L 171.046934 122.981902 
L 171.086017 121.922483 
L 171.164184 123.039764 
L 171.281434 120.708028 
L 171.359601 123.803906 
L 171.437768 122.350756 
L 171.476852 122.444116 
L 171.515935 123.726737 
L 171.594102 118.037427 
L 171.633186 121.987795 
L 171.672269 122.132981 
L 171.828603 120.432296 
L 171.867686 122.554255 
L 171.945853 121.205875 
L 171.984937 118.666475 
L 172.02402 124.489817 
L 172.102187 122.765119 
L 172.14127 122.396356 
L 172.180354 122.678327 
L 172.219437 123.015428 
L 172.258521 120.840461 
L 172.336688 121.670403 
L 172.375771 122.448367 
L 172.414855 122.040423 
L 172.453938 119.235918 
L 172.532105 121.490751 
L 172.571188 121.808846 
L 172.649355 120.872831 
L 172.688439 121.282132 
L 172.766606 122.394105 
L 172.844772 118.948515 
L 172.883856 123.617782 
L 172.962023 122.276725 
L 173.04019 121.773287 
L 173.079273 123.261669 
L 173.118357 120.277832 
L 173.196524 121.455208 
L 173.235607 123.457926 
L 173.313774 121.853791 
L 173.391941 120.747455 
L 173.431024 121.459302 
L 173.509191 121.230684 
L 173.587358 122.917721 
L 173.626441 120.180568 
L 173.665525 123.318417 
L 173.704608 121.739998 
L 173.743692 121.017369 
L 173.782775 123.120028 
L 173.821859 120.185164 
L 173.860942 121.497013 
L 173.900026 121.289416 
L 173.939109 122.478749 
L 173.978193 120.610141 
L 174.017276 121.808095 
L 174.056359 121.78411 
L 174.095443 122.511522 
L 174.134526 122.260261 
L 174.17361 121.782461 
L 174.212693 122.137043 
L 174.251777 122.946156 
L 174.29086 121.232865 
L 174.369027 121.6415 
L 174.447194 121.356978 
L 174.486277 123.014645 
L 174.525361 121.835772 
L 174.564444 121.507214 
L 174.603528 123.77468 
L 174.642611 120.525321 
L 174.681695 122.411895 
L 174.759862 121.445191 
L 174.798945 123.733765 
L 174.838028 122.939343 
L 174.955279 120.892887 
L 174.994362 120.989444 
L 175.150696 121.745034 
L 175.189779 120.329385 
L 175.228863 122.114286 
L 175.267946 121.208373 
L 175.346113 122.677533 
L 175.385197 121.40298 
L 175.42428 121.540439 
L 175.463364 122.919507 
L 175.502447 122.628364 
L 175.619697 120.448986 
L 175.736948 122.090644 
L 175.776031 121.349832 
L 175.815115 123.505993 
L 175.854198 120.825756 
L 175.893282 120.839025 
L 175.932365 122.366402 
L 175.971448 120.98456 
L 176.010532 120.727084 
L 176.049615 123.859593 
L 176.088699 121.706876 
L 176.127782 120.441066 
L 176.166866 123.326191 
L 176.245033 121.237071 
L 176.3232 123.799398 
L 176.401366 119.389797 
L 176.44045 121.097262 
L 176.596784 123.210639 
L 176.753117 121.865739 
L 176.792201 121.800404 
L 176.870368 123.924229 
L 176.909451 119.924028 
L 176.987618 122.425426 
L 177.026702 121.084356 
L 177.065785 122.253126 
L 177.104869 122.63019 
L 177.222119 121.23663 
L 177.261202 123.849417 
L 177.339369 123.501346 
L 177.45662 120.752104 
L 177.534786 122.840885 
L 177.57387 122.351345 
L 177.612953 119.877815 
L 177.652037 120.849653 
L 177.769287 122.821847 
L 177.808371 122.337121 
L 177.847454 120.395076 
L 177.925621 121.233325 
L 177.964704 121.889105 
L 178.003788 119.86292 
L 178.081955 120.747836 
L 178.121038 122.156613 
L 178.160122 121.622038 
L 178.199205 120.53708 
L 178.238289 121.777792 
L 178.277372 122.133955 
L 178.394622 120.086101 
L 178.433706 122.310208 
L 178.511873 120.929659 
L 178.59004 121.891343 
L 178.629123 121.358808 
L 178.668207 120.731647 
L 178.746373 123.686186 
L 178.785457 121.777963 
L 178.863624 119.645 
L 178.941791 123.930629 
L 178.980874 119.726664 
L 179.019958 124.161835 
L 179.059041 120.870209 
L 179.176291 122.429149 
L 179.215375 121.198974 
L 179.254458 122.699187 
L 179.293542 122.221916 
L 179.332625 122.657988 
L 179.371709 121.009174 
L 179.410792 123.365751 
L 179.449876 121.800419 
L 179.488959 122.828425 
L 179.528042 120.79619 
L 179.567126 123.005667 
L 179.606209 121.495016 
L 179.645293 122.565748 
L 179.72346 122.183835 
L 179.762543 121.207137 
L 179.84071 121.90366 
L 179.918877 121.056258 
L 179.997044 121.23718 
L 180.036127 124.086812 
L 180.075211 123.188827 
L 180.114294 121.410431 
L 180.192461 122.19949 
L 180.231545 123.703614 
L 180.270628 119.266549 
L 180.348795 121.93464 
L 180.426962 121.023842 
L 180.544212 124.377963 
L 180.583296 122.80403 
L 180.622379 123.115119 
L 180.700546 120.86435 
L 180.778713 121.006471 
L 180.817796 123.263274 
L 180.85688 121.828895 
L 180.895963 120.9692 
L 181.013214 124.313662 
L 180.97413 120.960926 
L 181.052297 123.100738 
L 181.130464 123.815763 
L 181.169547 121.639696 
L 181.208631 123.09704 
L 181.247714 121.366499 
L 181.325881 119.060672 
L 181.443132 123.650821 
L 181.482215 121.265756 
L 181.560382 121.86837 
L 181.599465 121.998043 
L 181.755799 120.754914 
L 181.912133 123.60436 
L 181.951216 123.554944 
L 182.068467 121.923623 
L 182.146634 122.604324 
L 182.263884 121.336067 
L 182.302967 122.448621 
L 182.342051 118.445862 
L 182.420218 120.339142 
L 182.459301 122.712432 
L 182.498385 120.282138 
L 182.537468 119.215864 
L 182.654718 123.68452 
L 182.732885 123.86729 
L 182.771969 121.379981 
L 182.811052 122.425602 
L 182.850136 120.304044 
L 182.928303 120.511846 
L 183.12372 122.395621 
L 183.162803 119.400078 
L 183.201887 122.743924 
L 183.24097 123.31979 
L 183.358221 118.920188 
L 183.397304 121.514427 
L 183.475471 120.845076 
L 183.514554 124.274018 
L 183.553638 120.811898 
L 183.592721 122.13866 
L 183.631805 122.720993 
L 183.749055 121.389896 
L 183.788139 122.308593 
L 183.827222 120.345777 
L 183.866305 122.473597 
L 183.905389 121.51122 
L 183.983556 122.606327 
L 184.022639 120.824281 
L 184.061723 124.238748 
L 184.13989 122.913761 
L 184.178973 122.091187 
L 184.218056 122.766069 
L 184.25714 122.912886 
L 184.296223 122.397707 
L 184.335307 123.025543 
L 184.37439 123.245757 
L 184.413474 124.316888 
L 184.530724 118.973839 
L 184.687058 123.421358 
L 184.804308 120.537255 
L 184.882475 123.218177 
L 184.999725 119.373022 
L 185.038809 123.429648 
L 185.116976 122.288672 
L 185.156059 122.393937 
L 185.195143 123.006101 
L 185.234226 122.579934 
L 185.312393 120.90277 
L 185.351477 121.700176 
L 185.39056 122.469916 
L 185.429643 121.294059 
L 185.585977 122.613717 
L 185.625061 118.371835 
L 185.703228 121.926805 
L 185.820478 120.782018 
L 185.859561 121.133762 
L 185.898645 123.411121 
L 185.976812 123.16733 
L 186.015895 123.018353 
L 186.133146 121.528105 
L 186.172229 121.875879 
L 186.211312 122.216647 
L 186.328563 120.32742 
L 186.40673 122.905894 
L 186.445813 121.369174 
L 186.484897 120.559124 
L 186.563063 120.479241 
L 186.64123 123.484924 
L 186.758481 120.808385 
L 186.836648 122.751523 
L 186.875731 120.032106 
L 186.953898 121.842576 
L 186.992981 122.087467 
L 187.032065 121.693627 
L 187.071148 121.190114 
L 187.110232 122.846892 
L 187.188399 122.083298 
L 187.227482 120.002751 
L 187.305649 121.307666 
L 187.461983 123.506339 
L 187.579233 121.477682 
L 187.618317 122.183843 
L 187.6574 122.234099 
L 187.696484 122.552481 
L 187.735567 122.428313 
L 187.891901 121.236904 
L 187.930984 121.654167 
L 187.970068 120.802601 
L 188.126401 123.32691 
L 188.204568 123.721357 
L 188.243652 120.081555 
L 188.282735 122.223128 
L 188.360902 121.440673 
L 188.399986 120.287997 
L 188.439069 121.926149 
L 188.478153 121.104626 
L 188.556319 122.518488 
L 188.67357 122.09672 
L 188.712653 121.456103 
L 188.751737 122.760916 
L 188.79082 122.169476 
L 188.90807 119.989166 
L 188.986237 120.479861 
L 189.025321 120.247532 
L 189.181655 122.717512 
L 189.220738 122.725641 
L 189.259822 122.478608 
L 189.298905 123.156129 
L 189.416155 121.004561 
L 189.455239 123.384082 
L 189.533406 121.606738 
L 189.572489 121.987907 
L 189.611573 121.538518 
L 189.650656 120.017681 
L 189.689739 121.335329 
L 189.728823 122.546249 
L 189.767906 120.509905 
L 189.846073 123.436132 
L 189.92424 121.460922 
L 190.041491 123.525781 
L 190.002407 121.090534 
L 190.080574 122.388937 
L 190.119657 119.890839 
L 190.197824 121.693814 
L 190.236908 120.461258 
L 190.275991 122.418076 
L 190.315075 121.411508 
L 190.354158 122.076568 
L 190.393242 121.805717 
L 190.432325 119.696708 
L 190.471408 123.063584 
L 190.549575 119.946036 
L 190.627742 120.919222 
L 190.744993 122.873498 
L 190.82316 121.500225 
L 190.862243 123.599857 
L 190.901326 122.09604 
L 190.94041 120.865469 
L 190.979493 123.121545 
L 191.096744 121.184074 
L 191.174911 122.826577 
L 191.292161 120.009728 
L 191.331244 123.449812 
L 191.409411 121.813696 
L 191.448495 120.297639 
L 191.487578 120.299498 
L 191.565745 120.274633 
L 191.643912 122.736313 
L 191.682995 122.311878 
L 191.722079 123.626819 
L 191.761162 120.543739 
L 191.839329 122.179527 
L 191.878413 124.139071 
L 191.917496 122.76078 
L 192.034746 121.489423 
L 192.07383 122.620747 
L 192.151997 121.6724 
L 192.19108 120.343755 
L 192.230164 121.691151 
L 192.308331 123.972709 
L 192.386498 125.241329 
L 192.425581 120.484268 
L 192.464664 122.184196 
L 192.542831 121.363239 
L 192.581915 122.168849 
L 192.620998 121.19588 
L 192.660082 120.95216 
L 192.855499 122.598767 
L 192.894582 121.342565 
L 192.933666 122.075387 
L 192.972749 124.157204 
L 193.011833 122.622243 
L 193.050916 120.101062 
L 193.09 124.363503 
L 193.129083 121.525577 
L 193.168167 123.183161 
L 193.20725 120.91588 
L 193.246333 121.058307 
L 193.285417 122.162695 
L 193.3245 122.018764 
L 193.363584 120.781348 
L 193.402667 122.469966 
L 193.559001 120.768585 
L 193.598084 122.956024 
L 193.676251 121.562915 
L 193.715335 121.443323 
L 193.754418 120.83713 
L 193.793502 120.923128 
L 193.871669 122.602966 
L 193.988919 120.653126 
L 194.028002 122.547871 
L 194.067086 119.770185 
L 194.106169 122.39331 
L 194.184336 121.374404 
L 194.22342 122.939191 
L 194.262503 121.066472 
L 194.301587 120.897724 
L 194.34067 123.283595 
L 194.418837 122.225738 
L 194.45792 122.056337 
L 194.497004 122.901013 
L 194.536087 121.976281 
L 194.575171 120.520854 
L 194.614254 122.224153 
L 194.653338 120.932605 
L 194.692421 123.188662 
L 194.731505 120.79715 
L 194.770588 122.499539 
L 194.848755 122.343891 
L 194.887838 123.732641 
L 194.926922 121.906646 
L 194.966005 120.461997 
L 195.005089 124.226766 
L 195.083256 122.220293 
L 195.200506 122.166218 
L 195.317756 120.377153 
L 195.395923 123.195511 
L 195.47409 122.972705 
L 195.630424 117.986507 
L 195.669507 122.121327 
L 195.747674 119.702288 
L 195.825841 123.134359 
L 195.904008 121.826771 
L 195.943091 121.869348 
L 196.021258 119.925104 
L 196.099425 122.678985 
L 196.138509 120.626843 
L 196.216676 122.968044 
L 196.294843 122.330492 
L 196.333926 117.997316 
L 196.412093 120.913807 
L 196.568427 123.361387 
L 196.685677 121.03768 
L 196.72476 121.82153 
L 196.763844 120.944768 
L 196.802927 121.372818 
L 196.881094 122.029351 
L 196.959261 121.873103 
L 197.076512 120.754496 
L 197.232845 123.119336 
L 197.311012 119.795984 
L 197.350096 120.025463 
L 197.389179 123.681286 
L 197.467346 121.239293 
L 197.506429 123.572977 
L 197.584596 121.942188 
L 197.62368 123.316897 
L 197.662763 122.426565 
L 197.780014 120.240977 
L 197.819097 121.244383 
L 197.975431 122.380457 
L 198.014514 120.619839 
L 198.092681 121.33299 
L 198.131765 122.930414 
L 198.170848 118.661303 
L 198.249015 120.938173 
L 198.288098 120.93975 
L 198.327182 122.034461 
L 198.366265 121.254907 
L 198.444432 120.993469 
L 198.522599 122.948317 
L 198.561683 122.843684 
L 198.600766 123.178218 
L 198.678933 120.17171 
L 198.718016 122.832575 
L 198.796183 122.51185 
L 198.952517 118.420799 
L 198.991601 123.100209 
L 199.069767 119.89108 
L 199.108851 120.171096 
L 199.147934 121.315269 
L 199.187018 119.521968 
L 199.226101 120.778102 
L 199.304268 119.911659 
L 199.460602 124.919427 
L 199.499685 122.936137 
L 199.577852 124.031037 
L 199.616936 123.110432 
L 199.656019 124.213213 
L 199.695103 123.238725 
L 199.851436 124.833719 
L 199.89052 125.290113 
L 200.00777 122.723402 
L 200.085937 122.238816 
L 200.164104 124.597429 
L 200.203188 123.279767 
L 200.242271 126.387847 
L 200.320438 124.378889 
L 200.359521 124.293426 
L 200.437688 125.699963 
L 200.515855 122.503944 
L 200.594022 123.166359 
L 200.633105 125.719993 
L 200.711272 124.713467 
L 200.789439 125.240787 
L 200.867606 122.834516 
L 200.984857 125.101027 
L 201.02394 124.24029 
L 201.063023 122.775691 
L 201.102107 123.728136 
L 201.180274 125.287925 
L 201.258441 124.911832 
L 201.336608 123.98475 
L 201.375691 125.685591 
L 201.414774 124.304539 
L 201.453858 123.992953 
L 201.492941 124.606339 
L 201.532025 124.140644 
L 201.571108 123.326691 
L 201.610192 124.220672 
L 201.688359 124.90745 
L 201.805609 123.304015 
L 201.844692 124.421777 
L 201.883776 124.134516 
L 202.001026 122.681474 
L 202.15736 124.844219 
L 202.235527 125.096508 
L 202.27461 121.922233 
L 202.391861 125.099039 
L 202.430944 122.982247 
L 202.509111 123.222453 
L 202.548195 124.66902 
L 202.587278 124.529101 
L 202.626361 122.99418 
L 202.665445 123.118423 
L 202.743612 125.528008 
L 202.782695 124.708766 
L 202.860862 124.112672 
L 202.899946 124.36429 
L 202.939029 125.340335 
L 202.978112 125.07753 
L 203.134446 122.105749 
L 203.17353 125.224992 
L 203.251697 124.609675 
L 203.29078 122.642193 
L 203.329864 125.082065 
L 203.368947 127.115595 
L 203.40803 123.900669 
L 203.447114 125.169071 
L 203.525281 124.323461 
L 203.564364 122.922595 
L 203.642531 123.472005 
L 203.720698 125.920012 
L 203.798865 124.659204 
L 203.837948 123.157149 
L 203.916115 123.763191 
L 203.994282 124.261675 
L 204.033366 123.980211 
L 204.072449 123.963332 
L 204.189699 122.910729 
L 204.228783 125.149895 
L 204.267866 122.079128 
L 204.30695 124.533035 
L 204.346033 125.103223 
L 204.385117 123.534781 
L 204.463284 123.809821 
L 204.502367 125.689697 
L 204.54145 123.638945 
L 204.658701 125.890199 
L 204.697784 125.28876 
L 204.893202 121.996381 
L 205.049535 124.47372 
L 205.088619 124.224393 
L 205.127702 124.836707 
L 205.166786 124.039432 
L 205.205869 123.850697 
L 205.244953 121.891242 
L 205.284036 123.280761 
L 205.323119 123.69123 
L 205.362203 123.581086 
L 205.401286 122.614587 
L 205.44037 123.523466 
L 205.55762 125.452046 
L 205.713954 122.095362 
L 205.753037 124.598601 
L 205.831204 124.355619 
L 205.870288 124.176394 
L 205.909371 124.768774 
L 205.987538 124.447798 
L 206.026622 124.152515 
L 206.065705 125.427976 
L 206.143872 124.835198 
L 206.182955 123.052891 
L 206.222039 124.497963 
L 206.261122 124.750516 
L 206.300206 122.208957 
L 206.339289 124.794677 
L 206.378373 123.908091 
L 206.495623 124.909513 
L 206.534706 125.582725 
L 206.57379 124.646529 
L 206.612873 122.91316 
L 206.651957 125.771234 
L 206.730124 123.584214 
L 206.769207 123.652262 
L 206.808291 125.18802 
L 206.847374 123.580605 
L 206.886457 123.991629 
L 206.925541 124.70752 
L 206.964624 124.480537 
L 207.042791 124.622044 
L 207.081875 123.142291 
L 207.199125 124.346067 
L 207.238209 122.808445 
L 207.277292 122.846335 
L 207.316375 125.400838 
L 207.394542 124.675466 
L 207.472709 125.545834 
L 207.511793 123.936917 
L 207.550876 124.74325 
L 207.58996 126.057875 
L 207.629043 122.956166 
L 207.70721 123.899597 
L 207.746293 124.445122 
L 207.785377 122.985534 
L 207.863544 123.849582 
L 207.941711 125.036055 
L 208.058961 123.251571 
L 208.176211 126.010892 
L 208.215295 122.979684 
L 208.293462 124.020655 
L 208.371629 123.02298 
L 208.410712 126.469398 
L 208.488879 124.20854 
L 208.567046 125.079501 
L 208.645213 122.670213 
L 208.684296 125.340663 
L 208.762463 124.216902 
L 208.801547 124.501496 
L 208.95788 123.300151 
L 208.996964 123.064338 
L 209.075131 125.692972 
L 209.114214 124.630762 
L 209.153298 123.472275 
L 209.192381 124.734133 
L 209.231465 124.066737 
L 209.309631 123.521258 
L 209.348715 124.787789 
L 209.387798 122.383427 
L 209.465965 124.09072 
L 209.544132 124.903951 
L 209.700466 122.758351 
L 209.778633 125.055816 
L 209.817716 122.724265 
L 209.895883 123.578305 
L 209.934967 125.939574 
L 209.97405 123.692405 
L 210.013134 121.583014 
L 210.052217 123.837961 
L 210.0913 123.006463 
L 210.130384 124.818696 
L 210.208551 124.517794 
L 210.403968 122.364172 
L 210.443051 125.193709 
L 210.482135 124.753009 
L 210.521218 122.412923 
L 210.599385 123.215733 
L 210.677552 123.125958 
L 210.755719 125.839268 
L 210.833886 123.117885 
L 210.872969 125.373854 
L 210.912053 125.483285 
L 210.951136 124.043924 
L 210.99022 124.824946 
L 211.029303 125.626469 
L 211.068387 122.922812 
L 211.146554 123.959182 
L 211.22472 123.431619 
L 211.263804 123.570227 
L 211.341971 125.17244 
L 211.459221 123.185184 
L 211.498305 123.426066 
L 211.615555 125.570981 
L 211.693722 123.607838 
L 211.732805 125.684625 
L 211.771889 122.51173 
L 211.810972 124.435737 
L 211.889139 123.628951 
L 211.928223 124.682065 
L 211.967306 123.420387 
L 212.006389 123.132127 
L 212.045473 124.703801 
L 212.12364 124.205915 
L 212.162723 123.027159 
L 212.201807 123.891888 
L 212.279974 124.881881 
L 212.319057 124.725868 
L 212.358141 123.415353 
L 212.397224 123.689764 
L 212.436307 125.401808 
L 212.475391 124.960896 
L 212.514474 123.766401 
L 212.553558 125.513856 
L 212.592641 125.803873 
L 212.631725 123.773803 
L 212.670808 124.439824 
L 212.709892 125.846099 
L 212.748975 125.219141 
L 212.905309 122.148184 
L 212.983476 125.118313 
L 213.022559 124.49487 
L 213.061643 122.636232 
L 213.13981 123.479518 
L 213.178893 125.861815 
L 213.25706 125.511627 
L 213.37431 122.331461 
L 213.413394 124.775192 
L 213.491561 124.753807 
L 213.569727 125.483647 
L 213.647894 123.04755 
L 213.726061 124.649846 
L 213.765145 125.506855 
L 213.804228 124.098633 
L 213.843312 124.713824 
L 213.882395 123.081426 
L 213.960562 123.530792 
L 214.038729 124.690074 
L 214.077812 124.283016 
L 214.116896 124.215387 
L 214.155979 125.022613 
L 214.195063 123.797578 
L 214.234146 123.91101 
L 214.27323 124.630722 
L 214.312313 120.722002 
L 214.39048 123.095314 
L 214.585897 124.705247 
L 214.624981 124.799772 
L 214.664064 124.194755 
L 214.703148 124.854421 
L 214.742231 124.223051 
L 214.781314 124.945529 
L 214.859481 123.159234 
L 214.898565 124.950846 
L 214.937648 123.518098 
L 214.976732 123.291361 
L 215.015815 125.970281 
L 215.093982 124.391742 
L 215.133065 125.625165 
L 215.172149 125.619661 
L 215.211232 123.013016 
L 215.289399 125.061918 
L 215.445733 122.925271 
L 215.484817 126.108163 
L 215.562983 124.762134 
L 215.64115 123.111231 
L 215.680234 124.810455 
L 215.719317 124.050253 
L 215.758401 122.692327 
L 215.797484 124.130777 
L 215.836568 123.295559 
L 215.875651 123.167251 
L 215.953818 122.992225 
L 216.031985 124.839588 
L 216.071068 125.024847 
L 216.110152 124.228084 
L 216.188319 124.477105 
L 216.227402 124.592796 
L 216.305569 125.016881 
L 216.422819 121.981955 
L 216.579153 124.785739 
L 216.65732 122.862517 
L 216.696403 125.262423 
L 216.77457 124.53531 
L 216.813654 123.249566 
L 216.852737 126.301667 
L 216.891821 122.594196 
L 216.969988 122.19539 
L 217.009071 123.964897 
L 217.087238 124.240771 
L 217.126321 122.089737 
L 217.204488 125.326836 
L 217.282655 124.490295 
L 217.321739 123.542226 
L 217.360822 125.126458 
L 217.399906 123.974501 
L 217.438989 123.883625 
L 217.478072 122.455777 
L 217.517156 124.51905 
L 217.556239 125.55042 
L 217.595323 122.451695 
L 217.67349 123.782702 
L 217.751657 123.749001 
L 217.79074 124.696679 
L 217.868907 123.104446 
L 217.90799 124.04167 
L 218.025241 122.725969 
L 218.064324 124.633674 
L 218.142491 124.55409 
L 218.181575 123.257306 
L 218.220658 124.336528 
L 218.259741 125.405688 
L 218.298825 124.945498 
L 218.376992 122.410047 
L 218.455159 123.729982 
L 218.494242 125.098155 
L 218.533326 123.060155 
L 218.572409 124.027338 
L 218.611493 124.431916 
L 218.650576 122.100914 
L 218.689659 124.877422 
L 218.767826 124.480405 
L 218.80691 125.868755 
L 218.845993 124.33265 
L 218.885077 125.364911 
L 218.963244 123.226702 
L 219.080494 123.875632 
L 219.119577 125.242553 
L 219.197744 124.551149 
L 219.236828 124.157912 
L 219.275911 124.502567 
L 219.314995 121.505934 
L 219.393162 123.9249 
L 219.471328 124.259783 
L 219.510412 123.568804 
L 219.549495 124.595806 
L 219.588579 124.644744 
L 219.627662 123.820426 
L 219.666746 125.985496 
L 219.705829 124.942418 
L 219.783996 122.719273 
L 219.862163 123.621064 
L 219.901246 123.230633 
L 219.94033 123.769759 
L 219.979413 124.492501 
L 220.018497 123.572834 
L 220.096664 122.977634 
L 220.135747 123.177583 
L 220.174831 125.217656 
L 220.213914 123.331157 
L 220.252997 122.93819 
L 220.292081 124.64998 
L 220.331164 124.18962 
L 220.409331 124.725752 
L 220.448415 122.702036 
L 220.526582 125.175682 
L 220.565665 121.516387 
L 220.643832 123.662471 
L 220.682915 125.295395 
L 220.721999 123.222122 
L 220.761082 122.583061 
L 220.878333 123.914762 
L 220.917416 123.798368 
L 220.9565 122.342032 
L 220.995583 124.870515 
L 221.034666 123.181437 
L 221.151917 124.78253 
L 221.191 123.472769 
L 221.230084 124.092475 
L 221.269167 124.815092 
L 221.308251 123.93564 
L 221.347334 123.409148 
L 221.386417 125.657508 
L 221.425501 124.036116 
L 221.542751 123.115143 
L 221.581835 123.977875 
L 221.620918 122.675751 
L 221.660002 123.337483 
L 221.738169 124.144933 
L 221.777252 123.43437 
L 221.816335 122.587944 
L 221.855419 123.759914 
L 221.894502 124.369614 
L 221.933586 123.169611 
L 221.972669 123.355398 
L 222.011753 124.848332 
L 222.08992 124.226985 
L 222.129003 124.889519 
L 222.168086 122.957905 
L 222.246253 124.419269 
L 222.285337 124.166107 
L 222.32442 122.967498 
L 222.363504 123.060742 
L 222.441671 125.42927 
L 222.480754 123.836522 
L 222.519838 123.789995 
L 222.558921 125.090476 
L 222.598004 123.3766 
L 222.637088 123.876121 
L 222.676171 122.014993 
L 222.715255 123.873748 
L 222.754338 124.083962 
L 222.832505 123.684698 
L 222.910672 125.449271 
L 222.949755 122.610889 
L 222.988839 125.989879 
L 223.027922 124.698355 
L 223.067006 124.543934 
L 223.184256 125.823421 
L 223.22334 123.049279 
L 223.301507 124.024027 
L 223.34059 124.685315 
L 223.379673 123.710261 
L 223.418757 124.302222 
L 223.496924 123.584635 
L 223.536007 124.001788 
L 223.575091 123.895763 
L 223.614174 122.723947 
L 223.653258 125.702893 
L 223.731424 124.599789 
L 223.809591 123.134663 
L 223.848675 124.301747 
L 223.887758 123.872205 
L 223.926842 121.469835 
L 223.965925 125.056769 
L 224.005009 122.486417 
L 224.044092 122.292639 
L 224.161342 124.955187 
L 224.200426 124.658419 
L 224.239509 124.468734 
L 224.278593 123.607118 
L 224.317676 124.659057 
L 224.35676 124.79631 
L 224.395843 123.115992 
L 224.47401 123.28413 
L 224.513093 123.080748 
L 224.552177 124.550852 
L 224.59126 124.442582 
L 224.630344 123.172237 
L 224.669427 123.245575 
L 224.747594 125.556846 
L 224.786678 124.081338 
L 224.825761 125.261457 
L 224.903928 124.527517 
L 225.021178 122.708562 
L 225.138429 124.606732 
L 225.216596 124.695965 
L 225.255679 123.351117 
L 225.294762 125.389659 
L 225.333846 123.653543 
L 225.49018 122.505805 
L 225.529263 122.591973 
L 225.60743 124.426386 
L 225.646514 122.812643 
L 225.72468 123.608757 
L 225.763764 123.551907 
L 225.881014 125.560826 
L 225.998265 122.248456 
L 226.037348 123.722029 
L 226.076431 124.954056 
L 226.154598 124.788279 
L 226.232765 125.056385 
L 226.310932 123.213581 
L 226.350016 124.922239 
L 226.389099 123.020412 
L 226.428183 122.530036 
L 226.506349 124.555389 
L 226.545433 123.202322 
L 226.584516 123.842619 
L 226.6236 122.488809 
L 226.662683 123.989527 
L 226.701767 123.447871 
L 226.74085 125.754315 
L 226.779934 124.276115 
L 226.819017 123.110197 
L 226.8581 123.284177 
L 226.936267 125.143068 
L 226.975351 123.071168 
L 227.053518 124.388647 
L 227.170768 122.459713 
L 227.366185 125.846451 
L 227.444352 122.112715 
L 227.483436 122.203813 
L 227.522519 124.813137 
L 227.600686 124.51671 
L 227.639769 124.716393 
L 227.717936 123.152788 
L 227.75702 123.418632 
L 227.796103 126.572794 
L 227.835187 123.784492 
L 227.952437 123.095935 
L 228.030604 126.082003 
L 228.069687 122.218688 
L 228.147854 124.426729 
L 228.186938 123.874963 
L 228.226021 125.189242 
L 228.265105 123.136993 
L 228.304188 122.512918 
L 228.382355 121.824227 
L 228.421438 125.731871 
L 228.460522 121.753775 
L 228.538689 123.733248 
L 228.577772 124.622629 
L 228.616856 122.051307 
L 228.655939 124.160606 
L 228.695023 125.746747 
L 228.734106 123.750945 
L 228.812273 123.884274 
L 228.851356 123.112549 
L 228.968607 124.307473 
L 229.00769 122.922484 
L 229.046774 125.034375 
L 229.085857 123.181764 
L 229.203107 124.661197 
L 229.242191 124.069779 
L 229.320358 122.658076 
L 229.359441 124.41344 
L 229.437608 123.987707 
L 229.476692 124.148606 
L 229.554859 122.685908 
L 229.593942 123.483585 
L 229.672109 124.531373 
L 229.711192 124.119071 
L 229.750276 123.780097 
L 229.789359 122.337112 
L 229.828443 124.33748 
L 229.90661 122.944343 
L 229.984776 121.860064 
L 230.02386 125.25274 
L 230.102027 124.651657 
L 230.180194 123.430015 
L 230.219277 124.816331 
L 230.258361 124.748889 
L 230.297444 123.526201 
L 230.336528 123.751126 
L 230.375611 124.903665 
L 230.414694 123.315268 
L 230.453778 124.321388 
L 230.492861 121.68746 
L 230.531945 122.641219 
L 230.571028 124.279913 
L 230.649195 123.699875 
L 230.688279 122.824153 
L 230.766445 122.793876 
L 230.805529 125.600008 
L 230.883696 122.452657 
L 230.922779 125.624939 
L 231.000946 123.577411 
L 231.079113 122.270064 
L 231.15728 126.027522 
L 231.196363 123.854487 
L 231.352697 125.523505 
L 231.509031 122.826898 
L 231.587198 122.75624 
L 231.665365 125.285859 
L 231.704448 123.35658 
L 231.743532 125.858599 
L 231.782615 124.820094 
L 231.821699 124.224828 
L 231.860782 125.016317 
L 231.899866 126.967373 
L 231.938949 126.225078 
L 231.978032 124.441121 
L 232.056199 125.504769 
L 232.134366 124.537553 
L 232.212533 126.629345 
L 232.2907 126.273487 
L 232.368867 123.758943 
L 232.40795 123.790924 
L 232.486117 126.336602 
L 232.525201 126.235576 
L 232.681535 124.433499 
L 232.759701 123.978152 
L 232.798785 125.652597 
L 232.837868 125.500393 
L 232.916035 125.621117 
L 232.955119 123.790089 
L 232.994202 125.46352 
L 233.072369 125.282336 
L 233.189619 126.115527 
L 233.228703 123.955928 
L 233.267786 124.833075 
L 233.30687 126.409052 
L 233.345953 124.81616 
L 233.385037 125.34976 
L 233.42412 126.551038 
L 233.463204 125.307366 
L 233.54137 124.397316 
L 233.580454 126.519465 
L 233.658621 125.240833 
L 233.697704 122.794829 
L 233.736788 124.83723 
L 233.775871 125.908603 
L 233.814955 124.258666 
L 233.854038 125.169755 
L 233.893121 125.273874 
L 233.932205 124.687891 
L 234.010372 124.716149 
L 234.088539 126.463115 
L 234.166706 126.365901 
L 234.205789 124.223971 
L 234.283956 125.045858 
L 234.323039 125.1228 
L 234.362123 126.430057 
L 234.401206 123.664934 
L 234.44029 125.132499 
L 234.479373 126.12386 
L 234.518457 125.795542 
L 234.596624 126.113937 
L 234.635707 124.329288 
L 234.67479 125.706724 
L 234.752957 124.782142 
L 234.792041 124.548529 
L 234.831124 124.637422 
L 234.870208 125.743325 
L 234.948375 124.925869 
L 234.987458 125.353235 
L 235.026542 124.823957 
L 235.065625 123.133458 
L 235.065625 123.133458 
" style="fill:none;stroke:#1f77b4;stroke-linecap:square;stroke-width:1.5;"/>
   </g>
   <g id="patch_3">
    <path d="M 39.765625 139.699219 
L 39.765625 3.799219 
" style="fill:none;stroke:#000000;stroke-linecap:square;stroke-linejoin:miter;stroke-width:0.8;"/>
   </g>
   <g id="patch_4">
    <path d="M 235.065625 139.699219 
L 235.065625 3.799219 
" style="fill:none;stroke:#000000;stroke-linecap:square;stroke-linejoin:miter;stroke-width:0.8;"/>
   </g>
   <g id="patch_5">
    <path d="M 39.765625 139.699219 
L 235.065625 139.699219 
" style="fill:none;stroke:#000000;stroke-linecap:square;stroke-linejoin:miter;stroke-width:0.8;"/>
   </g>
   <g id="patch_6">
    <path d="M 39.765625 3.799219 
L 235.065625 3.799219 
" style="fill:none;stroke:#000000;stroke-linecap:square;stroke-linejoin:miter;stroke-width:0.8;"/>
   </g>
   <g id="legend_1">
    <g id="patch_7">
     <path d="M 172.790625 26.477344 
L 228.065625 26.477344 
Q 230.065625 26.477344 230.065625 24.477344 
L 230.065625 10.799219 
Q 230.065625 8.799219 228.065625 8.799219 
L 172.790625 8.799219 
Q 170.790625 8.799219 170.790625 10.799219 
L 170.790625 24.477344 
Q 170.790625 26.477344 172.790625 26.477344 
z
" style="fill:#ffffff;opacity:0.8;stroke:#cccccc;stroke-linejoin:miter;"/>
    </g>
    <g id="line2d_22">
     <path d="M 174.790625 16.897656 
L 194.790625 16.897656 
" style="fill:none;stroke:#1f77b4;stroke-linecap:square;stroke-width:1.5;"/>
    </g>
    <g id="line2d_23"/>
    <g id="text_13">
     <!-- train -->
     <defs>
      <path d="M 34.28125 27.484375 
Q 23.390625 27.484375 19.1875 25 
Q 14.984375 22.515625 14.984375 16.5 
Q 14.984375 11.71875 18.140625 8.90625 
Q 21.296875 6.109375 26.703125 6.109375 
Q 34.1875 6.109375 38.703125 11.40625 
Q 43.21875 16.703125 43.21875 25.484375 
L 43.21875 27.484375 
z
M 52.203125 31.203125 
L 52.203125 0 
L 43.21875 0 
L 43.21875 8.296875 
Q 40.140625 3.328125 35.546875 0.953125 
Q 30.953125 -1.421875 24.3125 -1.421875 
Q 15.921875 -1.421875 10.953125 3.296875 
Q 6 8.015625 6 15.921875 
Q 6 25.140625 12.171875 29.828125 
Q 18.359375 34.515625 30.609375 34.515625 
L 43.21875 34.515625 
L 43.21875 35.40625 
Q 43.21875 41.609375 39.140625 45 
Q 35.0625 48.390625 27.6875 48.390625 
Q 23 48.390625 18.546875 47.265625 
Q 14.109375 46.140625 10.015625 43.890625 
L 10.015625 52.203125 
Q 14.9375 54.109375 19.578125 55.046875 
Q 24.21875 56 28.609375 56 
Q 40.484375 56 46.34375 49.84375 
Q 52.203125 43.703125 52.203125 31.203125 
z
" id="DejaVuSans-97"/>
      <path d="M 54.890625 33.015625 
L 54.890625 0 
L 45.90625 0 
L 45.90625 32.71875 
Q 45.90625 40.484375 42.875 44.328125 
Q 39.84375 48.1875 33.796875 48.1875 
Q 26.515625 48.1875 22.3125 43.546875 
Q 18.109375 38.921875 18.109375 30.90625 
L 18.109375 0 
L 9.078125 0 
L 9.078125 54.6875 
L 18.109375 54.6875 
L 18.109375 46.1875 
Q 21.34375 51.125 25.703125 53.5625 
Q 30.078125 56 35.796875 56 
Q 45.21875 56 50.046875 50.171875 
Q 54.890625 44.34375 54.890625 33.015625 
z
" id="DejaVuSans-110"/>
     </defs>
     <g transform="translate(202.790625 20.397656)scale(0.1 -0.1)">
      <use xlink:href="#DejaVuSans-116"/>
      <use x="39.208984" xlink:href="#DejaVuSans-114"/>
      <use x="80.322266" xlink:href="#DejaVuSans-97"/>
      <use x="141.601562" xlink:href="#DejaVuSans-105"/>
      <use x="169.384766" xlink:href="#DejaVuSans-110"/>
     </g>
    </g>
   </g>
  </g>
 </g>
 <defs>
  <clipPath id="pb517ebde36">
   <rect height="135.9" width="195.3" x="39.765625" y="3.799219"/>
  </clipPath>
 </defs>
</svg>
