<?xml version="1.0" encoding="utf-8" standalone="no"?>
<!DOCTYPE svg PUBLIC "-//W3C//DTD SVG 1.1//EN"
  "http://www.w3.org/Graphics/SVG/1.1/DTD/svg11.dtd">
<!-- Created with matplotlib (https://matplotlib.org/) -->
<svg height="170.055469pt" version="1.1" viewBox="0 0 248.349881 170.055469" width="248.349881pt" xmlns="http://www.w3.org/2000/svg" xmlns:xlink="http://www.w3.org/1999/xlink">
 <defs>
  <style type="text/css">
*{stroke-linecap:butt;stroke-linejoin:round;}
  </style>
 </defs>
 <g id="figure_1">
  <g id="patch_1">
   <path d="M 0 170.055469 
L 248.349881 170.055469 
L 248.349881 0 
L 0 0 
z
" style="fill:#ffffff;"/>
  </g>
  <g id="axes_1">
   <g id="patch_2">
    <path d="M 39.765625 139.699219 
L 235.065625 139.699219 
L 235.065625 3.799219 
L 39.765625 3.799219 
z
" style="fill:#ffffff;"/>
   </g>
   <g id="matplotlib.axis_1">
    <g id="xtick_1">
     <g id="line2d_1">
      <path clip-path="url(#pd880147e46)" d="M 78.208685 139.699219 
L 78.208685 3.799219 
" style="fill:none;stroke:#b0b0b0;stroke-linecap:square;stroke-width:0.8;"/>
     </g>
     <g id="line2d_2">
      <defs>
       <path d="M 0 0 
L 0 3.5 
" id="m69d3297c55" style="stroke:#000000;stroke-width:0.8;"/>
      </defs>
      <g>
       <use style="stroke:#000000;stroke-width:0.8;" x="78.208685" xlink:href="#m69d3297c55" y="139.699219"/>
      </g>
     </g>
     <g id="text_1">
      <!-- 10000 -->
      <defs>
       <path d="M 12.40625 8.296875 
L 28.515625 8.296875 
L 28.515625 63.921875 
L 10.984375 60.40625 
L 10.984375 69.390625 
L 28.421875 72.90625 
L 38.28125 72.90625 
L 38.28125 8.296875 
L 54.390625 8.296875 
L 54.390625 0 
L 12.40625 0 
z
" id="DejaVuSans-49"/>
       <path d="M 31.78125 66.40625 
Q 24.171875 66.40625 20.328125 58.90625 
Q 16.5 51.421875 16.5 36.375 
Q 16.5 21.390625 20.328125 13.890625 
Q 24.171875 6.390625 31.78125 6.390625 
Q 39.453125 6.390625 43.28125 13.890625 
Q 47.125 21.390625 47.125 36.375 
Q 47.125 51.421875 43.28125 58.90625 
Q 39.453125 66.40625 31.78125 66.40625 
z
M 31.78125 74.21875 
Q 44.046875 74.21875 50.515625 64.515625 
Q 56.984375 54.828125 56.984375 36.375 
Q 56.984375 17.96875 50.515625 8.265625 
Q 44.046875 -1.421875 31.78125 -1.421875 
Q 19.53125 -1.421875 13.0625 8.265625 
Q 6.59375 17.96875 6.59375 36.375 
Q 6.59375 54.828125 13.0625 64.515625 
Q 19.53125 74.21875 31.78125 74.21875 
z
" id="DejaVuSans-48"/>
      </defs>
      <g transform="translate(62.302435 154.297656)scale(0.1 -0.1)">
       <use xlink:href="#DejaVuSans-49"/>
       <use x="63.623047" xlink:href="#DejaVuSans-48"/>
       <use x="127.246094" xlink:href="#DejaVuSans-48"/>
       <use x="190.869141" xlink:href="#DejaVuSans-48"/>
       <use x="254.492188" xlink:href="#DejaVuSans-48"/>
      </g>
     </g>
    </g>
    <g id="xtick_2">
     <g id="line2d_3">
      <path clip-path="url(#pd880147e46)" d="M 116.767422 139.699219 
L 116.767422 3.799219 
" style="fill:none;stroke:#b0b0b0;stroke-linecap:square;stroke-width:0.8;"/>
     </g>
     <g id="line2d_4">
      <g>
       <use style="stroke:#000000;stroke-width:0.8;" x="116.767422" xlink:href="#m69d3297c55" y="139.699219"/>
      </g>
     </g>
     <g id="text_2">
      <!-- 20000 -->
      <defs>
       <path d="M 19.1875 8.296875 
L 53.609375 8.296875 
L 53.609375 0 
L 7.328125 0 
L 7.328125 8.296875 
Q 12.9375 14.109375 22.625 23.890625 
Q 32.328125 33.6875 34.8125 36.53125 
Q 39.546875 41.84375 41.421875 45.53125 
Q 43.3125 49.21875 43.3125 52.78125 
Q 43.3125 58.59375 39.234375 62.25 
Q 35.15625 65.921875 28.609375 65.921875 
Q 23.96875 65.921875 18.8125 64.3125 
Q 13.671875 62.703125 7.8125 59.421875 
L 7.8125 69.390625 
Q 13.765625 71.78125 18.9375 73 
Q 24.125 74.21875 28.421875 74.21875 
Q 39.75 74.21875 46.484375 68.546875 
Q 53.21875 62.890625 53.21875 53.421875 
Q 53.21875 48.921875 51.53125 44.890625 
Q 49.859375 40.875 45.40625 35.40625 
Q 44.1875 33.984375 37.640625 27.21875 
Q 31.109375 20.453125 19.1875 8.296875 
z
" id="DejaVuSans-50"/>
      </defs>
      <g transform="translate(100.861172 154.297656)scale(0.1 -0.1)">
       <use xlink:href="#DejaVuSans-50"/>
       <use x="63.623047" xlink:href="#DejaVuSans-48"/>
       <use x="127.246094" xlink:href="#DejaVuSans-48"/>
       <use x="190.869141" xlink:href="#DejaVuSans-48"/>
       <use x="254.492188" xlink:href="#DejaVuSans-48"/>
      </g>
     </g>
    </g>
    <g id="xtick_3">
     <g id="line2d_5">
      <path clip-path="url(#pd880147e46)" d="M 155.326158 139.699219 
L 155.326158 3.799219 
" style="fill:none;stroke:#b0b0b0;stroke-linecap:square;stroke-width:0.8;"/>
     </g>
     <g id="line2d_6">
      <g>
       <use style="stroke:#000000;stroke-width:0.8;" x="155.326158" xlink:href="#m69d3297c55" y="139.699219"/>
      </g>
     </g>
     <g id="text_3">
      <!-- 30000 -->
      <defs>
       <path d="M 40.578125 39.3125 
Q 47.65625 37.796875 51.625 33 
Q 55.609375 28.21875 55.609375 21.1875 
Q 55.609375 10.40625 48.1875 4.484375 
Q 40.765625 -1.421875 27.09375 -1.421875 
Q 22.515625 -1.421875 17.65625 -0.515625 
Q 12.796875 0.390625 7.625 2.203125 
L 7.625 11.71875 
Q 11.71875 9.328125 16.59375 8.109375 
Q 21.484375 6.890625 26.8125 6.890625 
Q 36.078125 6.890625 40.9375 10.546875 
Q 45.796875 14.203125 45.796875 21.1875 
Q 45.796875 27.640625 41.28125 31.265625 
Q 36.765625 34.90625 28.71875 34.90625 
L 20.21875 34.90625 
L 20.21875 43.015625 
L 29.109375 43.015625 
Q 36.375 43.015625 40.234375 45.921875 
Q 44.09375 48.828125 44.09375 54.296875 
Q 44.09375 59.90625 40.109375 62.90625 
Q 36.140625 65.921875 28.71875 65.921875 
Q 24.65625 65.921875 20.015625 65.03125 
Q 15.375 64.15625 9.8125 62.3125 
L 9.8125 71.09375 
Q 15.4375 72.65625 20.34375 73.4375 
Q 25.25 74.21875 29.59375 74.21875 
Q 40.828125 74.21875 47.359375 69.109375 
Q 53.90625 64.015625 53.90625 55.328125 
Q 53.90625 49.265625 50.4375 45.09375 
Q 46.96875 40.921875 40.578125 39.3125 
z
" id="DejaVuSans-51"/>
      </defs>
      <g transform="translate(139.419908 154.297656)scale(0.1 -0.1)">
       <use xlink:href="#DejaVuSans-51"/>
       <use x="63.623047" xlink:href="#DejaVuSans-48"/>
       <use x="127.246094" xlink:href="#DejaVuSans-48"/>
       <use x="190.869141" xlink:href="#DejaVuSans-48"/>
       <use x="254.492188" xlink:href="#DejaVuSans-48"/>
      </g>
     </g>
    </g>
    <g id="xtick_4">
     <g id="line2d_7">
      <path clip-path="url(#pd880147e46)" d="M 193.884894 139.699219 
L 193.884894 3.799219 
" style="fill:none;stroke:#b0b0b0;stroke-linecap:square;stroke-width:0.8;"/>
     </g>
     <g id="line2d_8">
      <g>
       <use style="stroke:#000000;stroke-width:0.8;" x="193.884894" xlink:href="#m69d3297c55" y="139.699219"/>
      </g>
     </g>
     <g id="text_4">
      <!-- 40000 -->
      <defs>
       <path d="M 37.796875 64.3125 
L 12.890625 25.390625 
L 37.796875 25.390625 
z
M 35.203125 72.90625 
L 47.609375 72.90625 
L 47.609375 25.390625 
L 58.015625 25.390625 
L 58.015625 17.1875 
L 47.609375 17.1875 
L 47.609375 0 
L 37.796875 0 
L 37.796875 17.1875 
L 4.890625 17.1875 
L 4.890625 26.703125 
z
" id="DejaVuSans-52"/>
      </defs>
      <g transform="translate(177.978644 154.297656)scale(0.1 -0.1)">
       <use xlink:href="#DejaVuSans-52"/>
       <use x="63.623047" xlink:href="#DejaVuSans-48"/>
       <use x="127.246094" xlink:href="#DejaVuSans-48"/>
       <use x="190.869141" xlink:href="#DejaVuSans-48"/>
       <use x="254.492188" xlink:href="#DejaVuSans-48"/>
      </g>
     </g>
    </g>
    <g id="xtick_5">
     <g id="line2d_9">
      <path clip-path="url(#pd880147e46)" d="M 232.443631 139.699219 
L 232.443631 3.799219 
" style="fill:none;stroke:#b0b0b0;stroke-linecap:square;stroke-width:0.8;"/>
     </g>
     <g id="line2d_10">
      <g>
       <use style="stroke:#000000;stroke-width:0.8;" x="232.443631" xlink:href="#m69d3297c55" y="139.699219"/>
      </g>
     </g>
     <g id="text_5">
      <!-- 50000 -->
      <defs>
       <path d="M 10.796875 72.90625 
L 49.515625 72.90625 
L 49.515625 64.59375 
L 19.828125 64.59375 
L 19.828125 46.734375 
Q 21.96875 47.46875 24.109375 47.828125 
Q 26.265625 48.1875 28.421875 48.1875 
Q 40.625 48.1875 47.75 41.5 
Q 54.890625 34.8125 54.890625 23.390625 
Q 54.890625 11.625 47.5625 5.09375 
Q 40.234375 -1.421875 26.90625 -1.421875 
Q 22.3125 -1.421875 17.546875 -0.640625 
Q 12.796875 0.140625 7.71875 1.703125 
L 7.71875 11.625 
Q 12.109375 9.234375 16.796875 8.0625 
Q 21.484375 6.890625 26.703125 6.890625 
Q 35.15625 6.890625 40.078125 11.328125 
Q 45.015625 15.765625 45.015625 23.390625 
Q 45.015625 31 40.078125 35.4375 
Q 35.15625 39.890625 26.703125 39.890625 
Q 22.75 39.890625 18.8125 39.015625 
Q 14.890625 38.140625 10.796875 36.28125 
z
" id="DejaVuSans-53"/>
      </defs>
      <g transform="translate(216.537381 154.297656)scale(0.1 -0.1)">
       <use xlink:href="#DejaVuSans-53"/>
       <use x="63.623047" xlink:href="#DejaVuSans-48"/>
       <use x="127.246094" xlink:href="#DejaVuSans-48"/>
       <use x="190.869141" xlink:href="#DejaVuSans-48"/>
       <use x="254.492188" xlink:href="#DejaVuSans-48"/>
      </g>
     </g>
    </g>
    <g id="text_6">
     <!-- iter -->
     <defs>
      <path d="M 9.421875 54.6875 
L 18.40625 54.6875 
L 18.40625 0 
L 9.421875 0 
z
M 9.421875 75.984375 
L 18.40625 75.984375 
L 18.40625 64.59375 
L 9.421875 64.59375 
z
" id="DejaVuSans-105"/>
      <path d="M 18.3125 70.21875 
L 18.3125 54.6875 
L 36.8125 54.6875 
L 36.8125 47.703125 
L 18.3125 47.703125 
L 18.3125 18.015625 
Q 18.3125 11.328125 20.140625 9.421875 
Q 21.96875 7.515625 27.59375 7.515625 
L 36.8125 7.515625 
L 36.8125 0 
L 27.59375 0 
Q 17.1875 0 13.234375 3.875 
Q 9.28125 7.765625 9.28125 18.015625 
L 9.28125 47.703125 
L 2.6875 47.703125 
L 2.6875 54.6875 
L 9.28125 54.6875 
L 9.28125 70.21875 
z
" id="DejaVuSans-116"/>
      <path d="M 56.203125 29.59375 
L 56.203125 25.203125 
L 14.890625 25.203125 
Q 15.484375 15.921875 20.484375 11.0625 
Q 25.484375 6.203125 34.421875 6.203125 
Q 39.59375 6.203125 44.453125 7.46875 
Q 49.3125 8.734375 54.109375 11.28125 
L 54.109375 2.78125 
Q 49.265625 0.734375 44.1875 -0.34375 
Q 39.109375 -1.421875 33.890625 -1.421875 
Q 20.796875 -1.421875 13.15625 6.1875 
Q 5.515625 13.8125 5.515625 26.8125 
Q 5.515625 40.234375 12.765625 48.109375 
Q 20.015625 56 32.328125 56 
Q 43.359375 56 49.78125 48.890625 
Q 56.203125 41.796875 56.203125 29.59375 
z
M 47.21875 32.234375 
Q 47.125 39.59375 43.09375 43.984375 
Q 39.0625 48.390625 32.421875 48.390625 
Q 24.90625 48.390625 20.390625 44.140625 
Q 15.875 39.890625 15.1875 32.171875 
z
" id="DejaVuSans-101"/>
      <path d="M 41.109375 46.296875 
Q 39.59375 47.171875 37.8125 47.578125 
Q 36.03125 48 33.890625 48 
Q 26.265625 48 22.1875 43.046875 
Q 18.109375 38.09375 18.109375 28.8125 
L 18.109375 0 
L 9.078125 0 
L 9.078125 54.6875 
L 18.109375 54.6875 
L 18.109375 46.1875 
Q 20.953125 51.171875 25.484375 53.578125 
Q 30.03125 56 36.53125 56 
Q 37.453125 56 38.578125 55.875 
Q 39.703125 55.765625 41.0625 55.515625 
z
" id="DejaVuSans-114"/>
     </defs>
     <g transform="translate(128.934375 167.975781)scale(0.1 -0.1)">
      <use xlink:href="#DejaVuSans-105"/>
      <use x="27.783203" xlink:href="#DejaVuSans-116"/>
      <use x="66.992188" xlink:href="#DejaVuSans-101"/>
      <use x="128.515625" xlink:href="#DejaVuSans-114"/>
     </g>
    </g>
   </g>
   <g id="matplotlib.axis_2">
    <g id="ytick_1">
     <g id="line2d_11">
      <path clip-path="url(#pd880147e46)" d="M 39.765625 139.699219 
L 235.065625 139.699219 
" style="fill:none;stroke:#b0b0b0;stroke-linecap:square;stroke-width:0.8;"/>
     </g>
     <g id="line2d_12">
      <defs>
       <path d="M 0 0 
L -3.5 0 
" id="m8fc4bf3207" style="stroke:#000000;stroke-width:0.8;"/>
      </defs>
      <g>
       <use style="stroke:#000000;stroke-width:0.8;" x="39.765625" xlink:href="#m8fc4bf3207" y="139.699219"/>
      </g>
     </g>
     <g id="text_7">
      <!-- 0 -->
      <g transform="translate(26.403125 143.498437)scale(0.1 -0.1)">
       <use xlink:href="#DejaVuSans-48"/>
      </g>
     </g>
    </g>
    <g id="ytick_2">
     <g id="line2d_13">
      <path clip-path="url(#pd880147e46)" d="M 39.765625 105.724219 
L 235.065625 105.724219 
" style="fill:none;stroke:#b0b0b0;stroke-linecap:square;stroke-width:0.8;"/>
     </g>
     <g id="line2d_14">
      <g>
       <use style="stroke:#000000;stroke-width:0.8;" x="39.765625" xlink:href="#m8fc4bf3207" y="105.724219"/>
      </g>
     </g>
     <g id="text_8">
      <!-- 50 -->
      <g transform="translate(20.040625 109.523438)scale(0.1 -0.1)">
       <use xlink:href="#DejaVuSans-53"/>
       <use x="63.623047" xlink:href="#DejaVuSans-48"/>
      </g>
     </g>
    </g>
    <g id="ytick_3">
     <g id="line2d_15">
      <path clip-path="url(#pd880147e46)" d="M 39.765625 71.749219 
L 235.065625 71.749219 
" style="fill:none;stroke:#b0b0b0;stroke-linecap:square;stroke-width:0.8;"/>
     </g>
     <g id="line2d_16">
      <g>
       <use style="stroke:#000000;stroke-width:0.8;" x="39.765625" xlink:href="#m8fc4bf3207" y="71.749219"/>
      </g>
     </g>
     <g id="text_9">
      <!-- 100 -->
      <g transform="translate(13.678125 75.548437)scale(0.1 -0.1)">
       <use xlink:href="#DejaVuSans-49"/>
       <use x="63.623047" xlink:href="#DejaVuSans-48"/>
       <use x="127.246094" xlink:href="#DejaVuSans-48"/>
      </g>
     </g>
    </g>
    <g id="ytick_4">
     <g id="line2d_17">
      <path clip-path="url(#pd880147e46)" d="M 39.765625 37.774219 
L 235.065625 37.774219 
" style="fill:none;stroke:#b0b0b0;stroke-linecap:square;stroke-width:0.8;"/>
     </g>
     <g id="line2d_18">
      <g>
       <use style="stroke:#000000;stroke-width:0.8;" x="39.765625" xlink:href="#m8fc4bf3207" y="37.774219"/>
      </g>
     </g>
     <g id="text_10">
      <!-- 150 -->
      <g transform="translate(13.678125 41.573437)scale(0.1 -0.1)">
       <use xlink:href="#DejaVuSans-49"/>
       <use x="63.623047" xlink:href="#DejaVuSans-53"/>
       <use x="127.246094" xlink:href="#DejaVuSans-48"/>
      </g>
     </g>
    </g>
    <g id="ytick_5">
     <g id="line2d_19">
      <path clip-path="url(#pd880147e46)" d="M 39.765625 3.799219 
L 235.065625 3.799219 
" style="fill:none;stroke:#b0b0b0;stroke-linecap:square;stroke-width:0.8;"/>
     </g>
     <g id="line2d_20">
      <g>
       <use style="stroke:#000000;stroke-width:0.8;" x="39.765625" xlink:href="#m8fc4bf3207" y="3.799219"/>
      </g>
     </g>
     <g id="text_11">
      <!-- 200 -->
      <g transform="translate(13.678125 7.598438)scale(0.1 -0.1)">
       <use xlink:href="#DejaVuSans-50"/>
       <use x="63.623047" xlink:href="#DejaVuSans-48"/>
       <use x="127.246094" xlink:href="#DejaVuSans-48"/>
      </g>
     </g>
    </g>
    <g id="text_12">
     <!-- perplexity -->
     <defs>
      <path d="M 18.109375 8.203125 
L 18.109375 -20.796875 
L 9.078125 -20.796875 
L 9.078125 54.6875 
L 18.109375 54.6875 
L 18.109375 46.390625 
Q 20.953125 51.265625 25.265625 53.625 
Q 29.59375 56 35.59375 56 
Q 45.5625 56 51.78125 48.09375 
Q 58.015625 40.1875 58.015625 27.296875 
Q 58.015625 14.40625 51.78125 6.484375 
Q 45.5625 -1.421875 35.59375 -1.421875 
Q 29.59375 -1.421875 25.265625 0.953125 
Q 20.953125 3.328125 18.109375 8.203125 
z
M 48.6875 27.296875 
Q 48.6875 37.203125 44.609375 42.84375 
Q 40.53125 48.484375 33.40625 48.484375 
Q 26.265625 48.484375 22.1875 42.84375 
Q 18.109375 37.203125 18.109375 27.296875 
Q 18.109375 17.390625 22.1875 11.75 
Q 26.265625 6.109375 33.40625 6.109375 
Q 40.53125 6.109375 44.609375 11.75 
Q 48.6875 17.390625 48.6875 27.296875 
z
" id="DejaVuSans-112"/>
      <path d="M 9.421875 75.984375 
L 18.40625 75.984375 
L 18.40625 0 
L 9.421875 0 
z
" id="DejaVuSans-108"/>
      <path d="M 54.890625 54.6875 
L 35.109375 28.078125 
L 55.90625 0 
L 45.3125 0 
L 29.390625 21.484375 
L 13.484375 0 
L 2.875 0 
L 24.125 28.609375 
L 4.6875 54.6875 
L 15.28125 54.6875 
L 29.78125 35.203125 
L 44.28125 54.6875 
z
" id="DejaVuSans-120"/>
      <path d="M 32.171875 -5.078125 
Q 28.375 -14.84375 24.75 -17.8125 
Q 21.140625 -20.796875 15.09375 -20.796875 
L 7.90625 -20.796875 
L 7.90625 -13.28125 
L 13.1875 -13.28125 
Q 16.890625 -13.28125 18.9375 -11.515625 
Q 21 -9.765625 23.484375 -3.21875 
L 25.09375 0.875 
L 2.984375 54.6875 
L 12.5 54.6875 
L 29.59375 11.921875 
L 46.6875 54.6875 
L 56.203125 54.6875 
z
" id="DejaVuSans-121"/>
     </defs>
     <g transform="translate(7.598438 96.875781)rotate(-90)scale(0.1 -0.1)">
      <use xlink:href="#DejaVuSans-112"/>
      <use x="63.476562" xlink:href="#DejaVuSans-101"/>
      <use x="125" xlink:href="#DejaVuSans-114"/>
      <use x="166.113281" xlink:href="#DejaVuSans-112"/>
      <use x="229.589844" xlink:href="#DejaVuSans-108"/>
      <use x="257.373047" xlink:href="#DejaVuSans-101"/>
      <use x="317.146484" xlink:href="#DejaVuSans-120"/>
      <use x="376.326172" xlink:href="#DejaVuSans-105"/>
      <use x="404.109375" xlink:href="#DejaVuSans-116"/>
      <use x="443.318359" xlink:href="#DejaVuSans-121"/>
     </g>
    </g>
   </g>
   <g id="line2d_21">
    <path clip-path="url(#pd880147e46)" d="M 43.826222 -1 
L 43.852851 1.569952 
L 43.895668 -1 
M 44.030622 -1 
L 44.045645 3.580097 
L 44.076446 -1 
M 44.090891 -1 
L 44.122762 4.497141 
L 44.182865 -1 
M 44.210692 -1 
L 44.238438 4.992522 
L 44.317934 -1 
M 44.35999 -1 
L 44.431232 7.641149 
L 44.469791 4.728906 
L 44.50835 0.057256 
L 44.546908 9.486727 
L 44.624026 5.119827 
L 44.662585 2.569219 
L 44.701143 6.356197 
L 44.739702 11.689262 
L 44.816819 9.219409 
L 44.855378 1.729441 
L 44.893937 11.013178 
L 44.932496 12.060021 
L 44.971054 2.766051 
L 45.009613 13.237669 
L 45.048172 9.316007 
L 45.086731 15.536416 
L 45.163848 10.241297 
L 45.240966 17.472495 
L 45.279524 12.939831 
L 45.318083 7.786887 
L 45.395201 7.752569 
L 45.433759 20.954357 
L 45.549435 8.340406 
L 45.587994 22.005561 
L 45.626553 15.235744 
L 45.665112 8.291507 
L 45.70367 19.445317 
L 45.742229 10.48224 
L 45.819347 24.802095 
L 45.857905 22.826022 
L 45.896464 23.138469 
L 45.935023 18.563539 
L 45.973582 23.243921 
L 46.01214 26.148212 
L 46.166375 18.780043 
L 46.243493 30.656978 
L 46.282051 25.11932 
L 46.32061 21.541322 
L 46.359169 23.016943 
L 46.397728 27.13848 
L 46.474845 24.442587 
L 46.590521 20.876092 
L 46.706198 31.641731 
L 46.783315 31.678687 
L 46.860433 24.556946 
L 47.014667 36.776156 
L 47.168902 25.129368 
L 47.323137 36.931484 
L 47.400255 33.975115 
L 47.477372 32.324744 
L 47.515931 34.77525 
L 47.55449 28.491228 
L 47.593048 33.953724 
L 47.631607 35.525229 
L 47.670166 31.3446 
L 47.708725 35.630348 
L 47.747283 32.073253 
L 47.86296 39.925686 
L 47.901518 27.11771 
L 47.978636 33.00691 
L 48.017195 35.711721 
L 48.055753 32.840381 
L 48.094312 35.222403 
L 48.209988 26.475301 
L 48.364223 39.973437 
L 48.402782 40.385343 
L 48.479899 41.815646 
L 48.518458 36.745312 
L 48.557017 41.562797 
L 48.595576 34.471822 
L 48.634134 35.347631 
L 48.672693 42.515033 
L 48.749811 41.214823 
L 48.865487 38.029891 
L 48.942604 43.109032 
L 48.981163 39.114568 
L 49.05828 43.335643 
L 49.096839 37.480062 
L 49.135398 47.354704 
L 49.173957 39.477018 
L 49.251074 38.99533 
L 49.289633 42.598475 
L 49.328192 34.13962 
L 49.36675 40.410335 
L 49.482427 44.566418 
L 49.520985 43.06158 
L 49.559544 48.461548 
L 49.598103 42.58557 
L 49.636662 42.418335 
L 49.713779 47.060286 
L 49.790896 44.38638 
L 49.829455 45.537802 
L 49.868014 40.629544 
L 49.906573 46.621833 
L 49.945131 46.793597 
L 49.98369 43.834897 
L 50.022249 44.85629 
L 50.060808 50.062381 
L 50.099366 43.140632 
L 50.137925 43.023171 
L 50.253601 54.425076 
L 50.29216 45.0489 
L 50.369278 47.206534 
L 50.446395 44.409316 
L 50.484954 50.674521 
L 50.523512 49.316915 
L 50.562071 45.063247 
L 50.639189 46.908905 
L 50.677747 46.411813 
L 50.831982 51.295433 
L 50.986217 47.011451 
L 51.101894 55.311443 
L 51.140452 55.167584 
L 51.21757 45.534735 
L 51.294687 45.995361 
L 51.410363 55.060184 
L 51.487481 51.847006 
L 51.52604 51.798765 
L 51.564598 53.362231 
L 51.603157 47.232516 
L 51.680275 52.63132 
L 51.718833 51.092438 
L 51.757392 51.755478 
L 51.795951 53.803693 
L 51.83451 51.141102 
L 51.873068 46.506572 
L 51.911627 52.355131 
L 51.988744 54.144292 
L 52.027303 45.803274 
L 52.065862 54.18785 
L 52.104421 51.289737 
L 52.142979 52.098739 
L 52.181538 47.973129 
L 52.220097 56.837569 
L 52.297214 53.928328 
L 52.335773 50.297205 
L 52.374332 56.555372 
L 52.412891 57.264306 
L 52.451449 51.277776 
L 52.490008 58.53894 
L 52.528567 58.725976 
L 52.567125 50.493181 
L 52.644243 53.098144 
L 52.682802 55.009291 
L 52.72136 54.670275 
L 52.798478 52.556995 
L 52.875595 58.903886 
L 52.914154 55.14504 
L 52.952713 51.812317 
L 52.991272 56.871565 
L 53.02983 53.952812 
L 53.068389 51.729444 
L 53.145507 59.296643 
L 53.222624 57.320855 
L 53.261183 48.456126 
L 53.299741 58.593098 
L 53.3383 57.925557 
L 53.376859 61.296586 
L 53.415418 61.139485 
L 53.453976 55.09655 
L 53.531094 55.55611 
L 53.608211 57.696245 
L 53.64677 56.215502 
L 53.762446 60.173417 
L 53.801005 56.168651 
L 53.839564 59.888415 
L 53.878123 59.768788 
L 53.916681 58.98411 
L 53.993799 53.080461 
L 54.032357 59.442208 
L 54.070916 58.544634 
L 54.109475 52.665095 
L 54.148034 60.552116 
L 54.225151 61.601911 
L 54.379386 56.70415 
L 54.417945 57.674363 
L 54.456504 64.337072 
L 54.533621 61.279983 
L 54.649297 55.614496 
L 54.687856 64.828901 
L 54.764973 60.11922 
L 54.803532 62.858413 
L 54.842091 62.656408 
L 54.88065 57.055112 
L 54.957767 57.836939 
L 54.996326 58.193076 
L 55.112002 65.920555 
L 55.150561 58.498029 
L 55.227678 62.040651 
L 55.381913 58.516468 
L 55.420472 63.654947 
L 55.497589 61.05233 
L 55.536148 63.312869 
L 55.574707 60.885087 
L 55.613266 62.926903 
L 55.651824 62.567887 
L 55.690383 67.654446 
L 55.728942 66.123703 
L 55.844618 58.117296 
L 55.806059 68.722743 
L 55.883177 60.214382 
L 55.921736 61.001403 
L 55.998853 68.038338 
L 56.075971 66.955935 
L 56.114529 60.927436 
L 56.153088 62.027241 
L 56.191647 67.013094 
L 56.230205 65.484817 
L 56.345882 61.972254 
L 56.38444 65.523122 
L 56.461558 63.976825 
L 56.500117 63.666156 
L 56.538675 62.206842 
L 56.615793 68.309413 
L 56.654352 65.344803 
L 56.69291 65.577715 
L 56.808587 64.200477 
L 56.924263 67.880556 
L 57.039939 61.773437 
L 57.078498 68.93144 
L 57.155615 66.770258 
L 57.194174 66.370156 
L 57.232733 62.545141 
L 57.30985 65.841452 
L 57.348409 65.01847 
L 57.386968 68.089355 
L 57.425526 66.248524 
L 57.502644 60.686572 
L 57.541202 64.942769 
L 57.61832 62.588583 
L 57.656879 68.327343 
L 57.733996 64.874698 
L 57.772555 65.704552 
L 57.811114 69.533699 
L 57.888231 67.412569 
L 57.965349 67.344474 
L 58.003907 70.722041 
L 58.196701 63.97409 
L 58.273818 69.531274 
L 58.312377 67.141316 
L 58.350936 64.643453 
L 58.389495 67.295764 
L 58.428053 64.945745 
L 58.466612 71.909009 
L 58.54373 66.058911 
L 58.659406 70.330074 
L 58.697965 66.702437 
L 58.775082 67.251311 
L 58.813641 71.533868 
L 58.890758 71.236762 
L 59.006434 65.527643 
L 59.044993 68.464878 
L 59.083552 69.309024 
L 59.122111 68.161756 
L 59.160669 66.926734 
L 59.276346 71.821385 
L 59.314904 65.09936 
L 59.353463 68.555724 
L 59.392022 75.979722 
L 59.430581 70.449816 
L 59.469139 68.270072 
L 59.507698 69.645204 
L 59.546257 73.968382 
L 59.584816 70.513606 
L 59.661933 66.763292 
L 59.700492 69.375351 
L 59.73905 69.262029 
L 59.777609 73.437972 
L 59.816168 71.873312 
L 59.893285 73.30141 
L 59.970403 68.080318 
L 60.124638 73.632767 
L 60.163197 75.334489 
L 60.201755 72.305298 
L 60.240314 71.455602 
L 60.278873 71.899707 
L 60.317432 73.351906 
L 60.35599 67.596831 
L 60.394549 76.150705 
L 60.433108 70.95129 
L 60.548784 73.695509 
L 60.587343 71.767239 
L 60.625901 76.998554 
L 60.66446 68.614242 
L 60.741578 72.959738 
L 60.818695 72.647592 
L 60.895813 71.033881 
L 61.050048 78.494014 
L 60.97293 70.522505 
L 61.088606 77.387722 
L 61.127165 72.507072 
L 61.204282 75.624941 
L 61.2814 77.851865 
L 61.358517 71.203421 
L 61.397076 74.452856 
L 61.435635 76.618428 
L 61.474194 73.902438 
L 61.551311 72.289983 
L 61.58987 72.339496 
L 61.705546 76.796022 
L 61.744105 76.248939 
L 61.782663 76.937009 
L 61.821222 73.92956 
L 61.859781 76.301231 
L 61.89834 77.806545 
L 61.936898 75.787772 
L 62.052575 71.814 
L 62.168251 77.016786 
L 62.322486 70.720931 
L 62.361045 78.673903 
L 62.438162 74.39623 
L 62.515279 79.199658 
L 62.553838 76.28407 
L 62.592397 75.443888 
L 62.630956 76.604858 
L 62.669514 77.223794 
L 62.708073 76.280616 
L 62.746632 73.084764 
L 62.785191 75.008053 
L 62.823749 75.955698 
L 62.862308 80.320053 
L 62.900867 75.516692 
L 62.939426 77.137358 
L 63.016543 71.805608 
L 63.055102 78.828079 
L 63.132219 77.328972 
L 63.170778 73.360363 
L 63.209337 74.768547 
L 63.247895 80.016655 
L 63.325013 75.728723 
L 63.479248 79.258675 
L 63.556365 71.942494 
L 63.633483 75.976699 
L 63.672042 76.033759 
L 63.749159 79.235793 
L 63.787718 76.188423 
L 63.826277 76.138983 
L 63.864835 80.479988 
L 63.941953 77.928096 
L 63.980511 76.858898 
L 64.01907 78.31344 
L 64.173305 80.269581 
L 64.250423 78.940338 
L 64.288981 83.561124 
L 64.32754 77.740005 
L 64.366099 77.465095 
L 64.404658 73.747695 
L 64.443216 80.607728 
L 64.481775 76.16034 
L 64.63601 81.123394 
L 64.713127 77.566158 
L 64.751686 80.979535 
L 64.790245 78.891065 
L 64.828804 77.523379 
L 64.867362 80.90599 
L 64.94448 80.470065 
L 65.021597 78.057584 
L 65.098715 78.306448 
L 65.137274 81.425079 
L 65.175832 75.592053 
L 65.214391 75.475494 
L 65.330067 80.571297 
L 65.407185 76.71599 
L 65.484302 78.707425 
L 65.56142 80.431704 
L 65.599978 80.119266 
L 65.677096 79.063805 
L 65.715655 79.209739 
L 65.792772 82.010507 
L 65.831331 79.573768 
L 65.947007 80.962014 
L 65.985566 80.364714 
L 66.024125 77.15061 
L 66.062683 79.032915 
L 66.101242 80.080091 
L 66.139801 85.548131 
L 66.216918 82.910628 
L 66.255477 78.53327 
L 66.332594 80.569346 
L 66.371153 84.14339 
L 66.409712 79.902851 
L 66.448271 82.418395 
L 66.486829 79.748378 
L 66.525388 81.914508 
L 66.602506 82.623252 
L 66.679623 83.137785 
L 66.75674 77.114601 
L 66.872417 84.122475 
L 66.910975 81.247367 
L 66.949534 80.228127 
L 66.988093 82.013875 
L 67.026652 83.89938 
L 67.06521 79.955765 
L 67.142328 80.377297 
L 67.180887 83.301093 
L 67.219445 82.881979 
L 67.258004 77.12126 
L 67.296563 83.112583 
L 67.335122 82.738629 
L 67.37368 85.308498 
L 67.412239 83.796494 
L 67.566474 80.612691 
L 67.605033 83.603054 
L 67.68215 83.202217 
L 67.720709 80.982486 
L 67.759268 83.473405 
L 67.836385 83.415769 
L 67.952061 86.740696 
L 67.99062 79.610533 
L 68.029179 82.993822 
L 68.067738 85.960352 
L 68.106296 82.23998 
L 68.144855 85.519215 
L 68.183414 81.223202 
L 68.260531 82.297539 
L 68.29909 85.801361 
L 68.337649 85.101364 
L 68.376207 81.95171 
L 68.453325 82.270126 
L 68.491884 83.892338 
L 68.530442 83.60966 
L 68.569001 78.462817 
L 68.646119 80.318829 
L 68.800354 87.929353 
L 68.993147 80.584038 
L 69.147382 86.753539 
L 69.185941 81.64519 
L 69.263058 84.363409 
L 69.301617 87.877494 
L 69.378735 86.653562 
L 69.417293 86.50537 
L 69.571528 82.834157 
L 69.687204 89.002411 
L 69.725763 86.309506 
L 69.764322 86.255577 
L 69.802881 86.534628 
L 69.841439 85.216941 
L 69.879998 86.467623 
L 69.918557 86.863457 
L 69.957116 83.582417 
L 69.995674 88.454785 
L 70.034233 84.041202 
L 70.072792 84.334441 
L 70.111351 85.674679 
L 70.149909 85.047118 
L 70.304144 82.267974 
L 70.41982 85.991774 
L 70.458379 86.199805 
L 70.496938 88.464352 
L 70.535497 84.213085 
L 70.574055 84.646659 
L 70.651173 83.909125 
L 70.689732 87.883949 
L 70.766849 84.860324 
L 70.805408 88.502413 
L 70.882525 85.500584 
L 71.113878 90.177096 
L 70.959643 85.435399 
L 71.152436 88.418394 
L 71.190995 88.191213 
L 71.383789 93.970549 
L 71.422348 89.852044 
L 71.499465 90.278382 
L 71.538024 94.152068 
L 71.576583 90.252775 
L 71.615141 90.7742 
L 71.730817 93.186028 
L 71.807935 87.931359 
L 71.846494 93.024619 
L 71.923611 88.596328 
L 72.000729 92.191683 
L 72.039287 90.25892 
L 72.116405 93.482417 
L 72.193522 88.051314 
L 72.232081 90.188578 
L 72.27064 92.23861 
L 72.309199 92.069442 
L 72.347757 88.332897 
L 72.424875 89.808272 
L 72.501992 92.028269 
L 72.540551 91.74171 
L 72.57911 87.905224 
L 72.617668 88.595621 
L 72.656227 93.701183 
L 72.694786 88.547619 
L 72.733345 93.41896 
L 72.771903 93.544152 
L 72.849021 88.951525 
L 72.88758 90.725261 
L 72.926138 88.597122 
L 72.964697 92.253338 
L 73.003256 95.415357 
L 73.041815 92.963995 
L 73.157491 85.653188 
L 73.196049 90.28842 
L 73.234608 92.37698 
L 73.273167 88.182056 
L 73.311726 88.871749 
L 73.465961 93.449454 
L 73.581637 90.526125 
L 73.658754 90.208058 
L 73.697313 94.927628 
L 73.812989 91.042191 
L 73.851548 95.444715 
L 73.890107 90.951123 
L 73.928665 91.764502 
L 73.967224 91.802876 
L 74.005783 92.17178 
L 74.044342 90.144583 
L 74.0829 94.530306 
L 74.121459 88.999618 
L 74.160018 92.610104 
L 74.198577 93.189483 
L 74.275694 90.749156 
L 74.314253 93.261299 
L 74.352812 89.087646 
L 74.39137 91.255137 
L 74.507047 94.595847 
L 74.545605 89.815546 
L 74.584164 95.113598 
L 74.622723 90.320774 
L 74.661281 95.325495 
L 74.738399 94.02272 
L 74.815516 91.566319 
L 74.854075 92.1361 
L 74.892634 95.792732 
L 74.969751 92.630241 
L 75.046869 93.685549 
L 75.085428 97.025635 
L 75.162545 94.123988 
L 75.201104 95.802713 
L 75.239663 93.112799 
L 75.31678 94.003492 
L 75.355339 90.453978 
L 75.393897 92.193049 
L 75.432456 93.646515 
L 75.471015 92.253383 
L 75.548132 90.438976 
L 75.62525 94.15317 
L 75.663809 93.135801 
L 75.702367 92.668649 
L 75.779485 96.840534 
L 75.818044 90.548236 
L 75.895161 92.364849 
L 75.93372 96.346939 
L 75.972279 91.676553 
L 76.010837 94.158739 
L 76.049396 91.373212 
L 76.087955 97.128805 
L 76.165072 94.163277 
L 76.357866 90.801158 
L 76.434983 97.07053 
L 76.512101 96.713903 
L 76.627777 95.59978 
L 76.782012 92.146949 
L 76.820571 92.707314 
L 76.859129 91.131048 
L 76.974806 97.935079 
L 77.129041 92.303172 
L 77.283276 95.866019 
L 77.360393 91.966138 
L 77.398952 94.781847 
L 77.476069 96.00609 
L 77.514628 95.731223 
L 77.553187 91.964828 
L 77.591745 97.224093 
L 77.784539 93.06296 
L 77.900215 95.971397 
L 77.977333 93.237534 
L 78.015892 90.373153 
L 78.170126 97.263435 
L 78.285803 92.962226 
L 78.324361 93.04281 
L 78.440038 99.081739 
L 78.517155 95.545374 
L 78.555714 95.579031 
L 78.594273 97.287984 
L 78.632831 94.971305 
L 78.67139 94.91791 
L 78.709949 97.010811 
L 78.748508 95.248744 
L 78.787066 94.728038 
L 78.902742 96.86878 
L 78.941301 93.516394 
L 78.97986 95.278806 
L 79.018419 98.244991 
L 79.056977 94.239312 
L 79.095536 97.700426 
L 79.249771 94.013552 
L 79.404006 98.647314 
L 79.558241 90.76244 
L 79.635358 98.873565 
L 79.712476 97.555544 
L 79.751035 94.190243 
L 79.828152 96.712568 
L 79.866711 96.37278 
L 79.90527 94.765465 
L 79.943828 99.63885 
L 80.020946 97.454195 
L 80.059505 97.760952 
L 80.098063 96.981673 
L 80.136622 99.661603 
L 80.175181 92.797773 
L 80.252298 95.033848 
L 80.329416 98.155543 
L 80.367974 93.77837 
L 80.445092 96.641475 
L 80.483651 96.086326 
L 80.522209 97.9671 
L 80.560768 97.365705 
L 80.637886 96.222051 
L 80.676444 98.113617 
L 80.715003 93.248269 
L 80.753562 99.247573 
L 80.792121 99.546176 
L 80.984914 94.03442 
L 81.023473 100.994878 
L 81.062032 93.342558 
L 81.10059 98.66775 
L 81.139149 94.942576 
L 81.216267 96.035457 
L 81.254825 94.975156 
L 81.293384 96.655875 
L 81.331943 99.466149 
L 81.370502 97.80972 
L 81.40906 94.588976 
L 81.447619 98.106008 
L 81.486178 96.819559 
L 81.524737 94.653351 
L 81.563295 97.888874 
L 81.601854 96.010191 
L 81.640413 98.048289 
L 81.678971 96.892739 
L 81.71753 95.682733 
L 81.756089 100.410479 
L 81.833206 97.564899 
L 81.948883 94.768262 
L 81.987441 98.238419 
L 82.064559 97.307518 
L 82.141676 94.618249 
L 82.180235 95.735756 
L 82.218794 99.440095 
L 82.257353 96.685899 
L 82.295911 96.13327 
L 82.373029 100.848787 
L 82.411587 97.798099 
L 82.450146 97.190419 
L 82.488705 98.997895 
L 82.565822 98.121344 
L 82.604381 97.919045 
L 82.64294 98.352065 
L 82.681499 97.905346 
L 82.720057 97.576319 
L 82.797175 100.356569 
L 82.835734 99.594637 
L 82.912851 100.938237 
L 82.95141 97.076931 
L 83.067086 102.065931 
L 83.105645 97.380451 
L 83.182762 101.215482 
L 83.298438 97.206457 
L 83.336997 102.294425 
L 83.414115 98.403955 
L 83.452673 101.657273 
L 83.491232 95.816024 
L 83.529791 98.970931 
L 83.56835 98.985885 
L 83.645467 98.329196 
L 83.684026 101.61934 
L 83.799702 95.801332 
L 83.838261 100.926554 
L 83.915378 100.857155 
L 83.992496 101.207191 
L 84.031054 98.79759 
L 84.069613 99.138058 
L 84.146731 94.732198 
L 84.300966 100.231772 
L 84.339524 98.453519 
L 84.378083 100.472127 
L 84.416642 100.731012 
L 84.455201 100.136588 
L 84.609435 94.177375 
L 84.647994 100.410356 
L 84.686553 93.891803 
L 84.725112 99.976178 
L 84.76367 98.480994 
L 84.802229 102.320426 
L 84.879347 99.286616 
L 84.995023 100.154334 
L 85.033582 95.9808 
L 85.07214 99.630622 
L 85.110699 103.082192 
L 85.149258 96.630632 
L 85.303493 100.670529 
L 85.419169 98.058549 
L 85.534845 100.773042 
L 85.573404 96.229532 
L 85.611963 99.891964 
L 85.650521 100.372497 
L 85.804756 98.095853 
L 85.881874 97.737275 
L 85.958991 101.305517 
L 86.036109 98.229551 
L 86.074667 100.13236 
L 86.113226 100.6319 
L 86.228902 98.195917 
L 86.267461 98.454135 
L 86.383137 101.078598 
L 86.460255 99.468062 
L 86.537372 102.837155 
L 86.575931 96.550992 
L 86.653048 98.144064 
L 86.730166 102.673737 
L 86.807283 101.977099 
L 86.884401 98.596365 
L 86.92296 100.923378 
L 86.961518 101.210484 
L 87.000077 104.051562 
L 87.038636 99.702512 
L 87.154312 101.766124 
L 87.192871 101.215449 
L 87.23143 98.248342 
L 87.308547 100.489047 
L 87.462782 98.949823 
L 87.539899 102.097766 
L 87.578458 101.530426 
L 87.694134 98.087811 
L 87.771252 97.054682 
L 87.848369 103.272496 
L 88.002604 97.892936 
L 88.041163 97.775947 
L 88.156839 102.123196 
L 88.195398 101.544879 
L 88.233957 104.82176 
L 88.272515 99.043591 
L 88.311074 101.089147 
L 88.349633 100.094286 
L 88.42675 98.311017 
L 88.465309 102.267948 
L 88.542427 101.758989 
L 88.580985 100.335733 
L 88.619544 101.646497 
L 88.658103 103.443349 
L 88.812338 97.335703 
L 88.966573 101.892578 
L 89.005131 97.951115 
L 89.082249 98.205938 
L 89.120808 101.433197 
L 89.159366 100.455926 
L 89.197925 97.552174 
L 89.236484 100.817339 
L 89.275043 100.926984 
L 89.313601 101.896514 
L 89.35216 97.099771 
L 89.390719 102.510457 
L 89.429278 100.932321 
L 89.467836 103.353435 
L 89.544954 101.447075 
L 89.583512 102.20969 
L 89.622071 99.95859 
L 89.66063 100.466875 
L 89.737747 103.040638 
L 89.776306 101.167523 
L 89.814865 100.240004 
L 89.853424 100.790366 
L 89.891982 103.272173 
L 89.9691 101.729796 
L 90.007659 102.754044 
L 90.046217 101.552089 
L 90.084776 100.316521 
L 90.123335 102.423468 
L 90.161894 102.242831 
L 90.200452 103.215056 
L 90.27757 98.866069 
L 90.316128 100.55784 
L 90.354687 100.038271 
L 90.431805 102.166299 
L 90.470363 100.707785 
L 90.508922 99.514886 
L 90.547481 103.118045 
L 90.58604 97.71729 
L 90.624598 102.979454 
L 90.663157 101.091901 
L 90.740275 102.678108 
L 90.778833 102.897745 
L 90.817392 100.731377 
L 90.855951 103.132153 
L 90.89451 104.509687 
L 91.048744 98.58908 
L 91.087303 103.558372 
L 91.164421 99.371214 
L 91.202979 103.284943 
L 91.280097 103.098006 
L 91.318656 101.390579 
L 91.357214 102.692186 
L 91.395773 103.884791 
L 91.434332 101.097342 
L 91.472891 106.010161 
L 91.511449 102.976989 
L 91.550008 104.18536 
L 91.627125 100.571288 
L 91.665684 101.563087 
L 91.704243 103.247766 
L 91.742802 102.772421 
L 91.78136 99.373007 
L 91.819919 100.045815 
L 91.858478 102.846136 
L 91.935595 100.494915 
L 92.051272 102.960225 
L 92.08983 102.391809 
L 92.128389 101.725697 
L 92.166948 102.548564 
L 92.205507 102.158918 
L 92.244065 101.976969 
L 92.282624 102.716281 
L 92.321183 100.043705 
L 92.359741 106.613348 
L 92.436859 102.616362 
L 92.475418 103.557263 
L 92.513976 99.966561 
L 92.591094 100.758025 
L 92.629653 105.002281 
L 92.668211 101.178792 
L 92.70677 99.211203 
L 92.783888 100.237318 
L 92.938123 104.481025 
L 92.976681 101.638562 
L 93.01524 106.195727 
L 93.169475 101.204772 
L 93.208034 103.412578 
L 93.246592 101.648341 
L 93.285151 99.66292 
L 93.32371 102.025687 
L 93.400827 100.972213 
L 93.555062 103.552112 
L 93.63218 100.479582 
L 93.747856 104.094126 
L 93.786415 103.286304 
L 93.824973 98.501306 
L 93.863532 100.684369 
L 93.902091 106.037394 
L 93.979208 104.392741 
L 94.056326 100.628697 
L 94.094885 103.032732 
L 94.133443 104.934355 
L 94.172002 103.168128 
L 94.210561 102.903669 
L 94.24912 104.708755 
L 94.287678 99.60857 
L 94.364796 103.335202 
L 94.403355 101.937751 
L 94.441913 104.562381 
L 94.480472 103.411482 
L 94.519031 103.965303 
L 94.557589 105.546041 
L 94.634707 104.920841 
L 94.750383 100.057627 
L 94.827501 103.787823 
L 94.866059 100.306863 
L 94.904618 105.566448 
L 94.943177 100.969167 
L 95.058853 103.937828 
L 95.097412 100.180664 
L 95.135971 105.092758 
L 95.174529 104.508408 
L 95.251647 101.772108 
L 95.290205 103.756624 
L 95.328764 102.733931 
L 95.405882 101.656732 
L 95.482999 105.419914 
L 95.598675 101.666277 
L 95.714352 105.299942 
L 95.75291 103.813663 
L 95.791469 104.730991 
L 95.830028 106.000355 
L 95.984263 100.95137 
L 96.099939 105.835329 
L 96.138498 104.540959 
L 96.177056 104.325025 
L 96.215615 100.687476 
L 96.254174 102.093509 
L 96.292733 104.183704 
L 96.36985 104.063963 
L 96.485526 102.493636 
L 96.524085 103.063279 
L 96.562644 102.781594 
L 96.601202 103.537846 
L 96.639761 100.442855 
L 96.67832 103.569608 
L 96.716879 105.596262 
L 96.755437 104.680277 
L 96.793996 103.046376 
L 96.832555 104.767415 
L 96.871114 105.607091 
L 96.98679 102.770837 
L 97.025349 106.343641 
L 97.063907 103.375009 
L 97.102466 100.37502 
L 97.141025 106.236028 
L 97.218142 105.962025 
L 97.256701 102.590022 
L 97.333818 104.944472 
L 97.372377 103.861348 
L 97.410936 106.267937 
L 97.449495 103.36756 
L 97.488053 102.256197 
L 97.526612 105.019473 
L 97.60373 103.496706 
L 97.642288 104.59406 
L 97.719406 102.147351 
L 97.835082 105.5506 
L 97.9122 102.862165 
L 98.027876 103.178953 
L 98.066434 104.185462 
L 98.104993 102.908082 
L 98.182111 103.37934 
L 98.220669 104.380337 
L 98.259228 99.81962 
L 98.297787 104.636705 
L 98.336346 102.434874 
L 98.413463 105.648325 
L 98.452022 101.502839 
L 98.529139 104.248419 
L 98.567698 103.095939 
L 98.606257 105.742244 
L 98.683374 103.493144 
L 98.760492 106.305372 
L 98.79905 105.72627 
L 98.914727 103.748303 
L 99.068962 106.835099 
L 99.10752 105.335965 
L 99.184638 106.12548 
L 99.300314 104.05878 
L 99.338873 108.125024 
L 99.377432 106.1033 
L 99.454549 103.940898 
L 99.493108 108.39318 
L 99.531666 101.968545 
L 99.647343 106.587032 
L 99.72446 106.273347 
L 99.840136 102.291524 
L 99.878695 108.054444 
L 99.917254 102.311382 
L 99.955813 101.547305 
L 99.994371 107.221851 
L 100.071489 103.06807 
L 100.148606 101.836162 
L 100.187165 106.949399 
L 100.3414 103.623782 
L 100.457076 108.154477 
L 100.572752 102.64417 
L 100.688429 106.470677 
L 100.64987 101.803718 
L 100.726987 106.102956 
L 100.842663 104.498321 
L 100.881222 106.720999 
L 100.919781 105.854481 
L 100.95834 102.306434 
L 101.035457 105.220198 
L 101.074016 106.540727 
L 101.151133 107.334181 
L 101.189692 102.72968 
L 101.228251 106.727587 
L 101.305368 103.455714 
L 101.421045 106.440277 
L 101.498162 104.970352 
L 101.536721 106.603074 
L 101.613838 106.541315 
L 101.729514 105.077404 
L 101.768073 105.818939 
L 101.845191 103.648938 
L 101.883749 106.419228 
L 101.960867 106.332126 
L 102.037984 103.756813 
L 102.076543 108.426981 
L 102.153661 107.397031 
L 102.192219 107.846688 
L 102.269337 104.237851 
L 102.307895 104.444925 
L 102.346454 108.30357 
L 102.385013 106.155466 
L 102.423572 104.639607 
L 102.46213 107.930695 
L 102.539248 107.432164 
L 102.577807 104.075493 
L 102.616365 107.440923 
L 102.654924 106.05748 
L 102.693483 105.701182 
L 102.809159 110.848254 
L 102.847718 110.350593 
L 102.886277 110.329927 
L 102.924835 110.130491 
L 102.963394 110.594661 
L 103.040511 110.938766 
L 103.07907 109.099248 
L 103.117629 109.992032 
L 103.156188 109.975467 
L 103.233305 107.944121 
L 103.271864 108.553453 
L 103.310423 110.200013 
L 103.348981 106.995856 
L 103.426099 109.443221 
L 103.464658 109.093371 
L 103.503216 110.953522 
L 103.541775 109.039403 
L 103.580334 110.329375 
L 103.618893 109.645299 
L 103.657451 110.266138 
L 103.69601 111.158165 
L 103.773127 110.604751 
L 103.811686 109.520606 
L 103.850245 111.784072 
L 103.927362 110.748032 
L 103.965921 111.289387 
L 104.158715 108.343613 
L 104.274391 111.09699 
L 104.351509 108.017307 
L 104.428626 108.469769 
L 104.582861 111.64859 
L 104.62142 107.284476 
L 104.698537 108.374594 
L 104.737096 112.367903 
L 104.775655 107.30821 
L 104.814213 110.206758 
L 104.852772 109.764192 
L 104.891331 106.830442 
L 104.92989 110.073473 
L 105.007007 109.994162 
L 105.045566 110.99548 
L 105.084125 107.467696 
L 105.122683 111.659363 
L 105.238359 109.36083 
L 105.276918 110.311254 
L 105.354036 111.393795 
L 105.431153 108.636058 
L 105.508271 108.998909 
L 105.701064 111.387539 
L 105.778182 107.91381 
L 105.893858 111.43668 
L 105.932417 110.287387 
L 105.970975 111.469203 
L 106.009534 112.193463 
L 106.163769 106.638885 
L 106.240887 111.13634 
L 106.279445 110.12468 
L 106.356563 108.874136 
L 106.43368 111.703892 
L 106.510798 107.255758 
L 106.549356 107.864074 
L 106.703591 112.198521 
L 106.819268 108.351651 
L 106.857826 108.513109 
L 106.896385 109.987134 
L 106.973503 109.352291 
L 107.012061 109.4942 
L 107.089179 112.644408 
L 107.127738 108.223595 
L 107.204855 110.800551 
L 107.243414 110.798952 
L 107.35909 110.081251 
L 107.320531 110.874599 
L 107.397649 110.591052 
L 107.474766 109.28794 
L 107.513325 111.378941 
L 107.551884 108.712183 
L 107.590442 109.863764 
L 107.66756 109.393997 
L 107.706119 111.502901 
L 107.744677 109.356293 
L 107.783236 109.982046 
L 107.821795 112.904156 
L 107.898912 110.945246 
L 107.937471 110.891322 
L 108.091706 105.878601 
L 108.130265 111.299345 
L 108.207382 108.587071 
L 108.361617 112.128219 
L 108.400176 109.760224 
L 108.477293 110.774422 
L 108.515852 111.583061 
L 108.554411 108.803639 
L 108.631528 110.093104 
L 108.670087 110.379191 
L 108.708646 112.114133 
L 108.747204 110.403175 
L 108.824322 110.698945 
L 108.901439 108.795318 
L 109.017116 111.918117 
L 109.209909 107.685221 
L 109.287027 111.165481 
L 109.402703 111.037221 
L 109.556938 108.088951 
L 109.711173 112.911051 
L 109.826849 109.803966 
L 109.865408 110.485335 
L 109.903967 109.399743 
L 109.942525 109.299105 
L 109.981084 111.674185 
L 110.019643 108.830507 
L 110.09676 110.885527 
L 110.212436 110.533346 
L 110.250995 109.140686 
L 110.328113 109.715527 
L 110.40523 112.306613 
L 110.443789 110.324934 
L 110.482348 111.022427 
L 110.520906 108.32958 
L 110.559465 110.75488 
L 110.598024 111.910425 
L 110.636583 110.568214 
L 110.675141 111.557271 
L 110.7137 109.745549 
L 110.752259 112.303155 
L 110.790817 110.27641 
L 110.829376 112.467736 
L 110.867935 109.451002 
L 110.906494 109.944676 
L 110.983611 108.29752 
L 111.060729 111.339713 
L 111.099287 109.423455 
L 111.137846 109.654078 
L 111.253522 112.546883 
L 111.33064 109.135989 
L 111.369199 112.729075 
L 111.446316 110.597252 
L 111.484875 109.337156 
L 111.523433 110.141786 
L 111.561992 110.711746 
L 111.63911 108.237757 
L 111.677668 110.829213 
L 111.754786 109.616621 
L 111.909021 111.754257 
L 111.94758 111.642962 
L 111.986138 107.322715 
L 112.063256 109.283522 
L 112.101815 111.57306 
L 112.178932 111.126939 
L 112.217491 108.434369 
L 112.294608 110.58396 
L 112.333167 110.275619 
L 112.371726 112.179853 
L 112.410284 109.167706 
L 112.487402 109.81519 
L 112.525961 108.492735 
L 112.564519 109.032566 
L 112.603078 113.110277 
L 112.680196 112.343773 
L 112.795872 105.454394 
L 112.950107 112.483125 
L 112.988665 113.405473 
L 113.065783 106.61977 
L 113.104342 111.576683 
L 113.220018 109.151264 
L 113.297135 109.17168 
L 113.335694 110.607168 
L 113.412812 109.546569 
L 113.45137 109.355617 
L 113.489929 113.15734 
L 113.528488 110.90692 
L 113.567047 109.042499 
L 113.605605 110.758658 
L 113.682723 110.65016 
L 113.75984 112.399058 
L 113.836958 108.899888 
L 113.875516 112.660234 
L 113.914075 111.456461 
L 114.029751 105.27482 
L 114.183986 111.931843 
L 114.222545 110.261957 
L 114.299663 110.978905 
L 114.338221 111.061857 
L 114.37678 108.998269 
L 114.453897 110.787576 
L 114.492456 109.699193 
L 114.531015 111.959422 
L 114.608132 111.78724 
L 114.723809 108.772858 
L 114.800926 108.410044 
L 114.878044 109.966571 
L 114.916602 107.557937 
L 114.955161 110.700023 
L 114.99372 108.637644 
L 115.032279 111.930951 
L 115.109396 109.820016 
L 115.147955 111.913981 
L 115.225072 110.349537 
L 115.263631 110.808431 
L 115.379307 109.474153 
L 115.456425 109.934422 
L 115.494983 112.613984 
L 115.533542 109.663105 
L 115.572101 112.52157 
L 115.687777 107.280423 
L 115.803453 113.767958 
L 115.919129 108.86195 
L 115.957688 108.935936 
L 116.073364 111.357678 
L 116.111923 111.385349 
L 116.150482 109.673734 
L 116.189041 109.879102 
L 116.266158 112.700246 
L 116.304717 111.4861 
L 116.343276 110.603814 
L 116.381834 111.675768 
L 116.420393 110.772787 
L 116.458952 111.567517 
L 116.574628 108.421025 
L 116.613187 109.171754 
L 116.651745 108.429062 
L 116.690304 113.08689 
L 116.767422 110.357458 
L 116.80598 110.19561 
L 116.844539 111.828182 
L 116.883098 108.36248 
L 116.921657 110.73171 
L 116.960215 112.235147 
L 117.037333 111.500549 
L 117.075892 110.524392 
L 117.11445 111.775477 
L 117.153009 114.001773 
L 117.191568 111.138223 
L 117.230126 112.948783 
L 117.307244 107.628401 
L 117.345803 110.398128 
L 117.384361 109.124325 
L 117.42292 110.811705 
L 117.461479 111.395747 
L 117.577155 109.254142 
L 117.615714 112.297914 
L 117.654273 111.86953 
L 117.692831 109.187625 
L 117.73139 111.999855 
L 117.769949 110.337461 
L 117.808508 110.260055 
L 117.847066 111.415332 
L 117.885625 110.097703 
L 117.924184 110.372669 
L 117.962742 110.09938 
L 118.001301 108.249293 
L 118.03986 111.057518 
L 118.078419 110.386077 
L 118.116977 112.315766 
L 118.155536 111.677812 
L 118.232654 112.196314 
L 118.309771 108.188829 
L 118.464006 113.523436 
L 118.541124 110.57757 
L 118.579682 112.615586 
L 118.618241 112.346515 
L 118.733917 108.780286 
L 118.695358 112.772056 
L 118.772476 110.590917 
L 118.811035 112.055141 
L 118.849593 109.598847 
L 118.888152 111.928603 
L 118.926711 109.529829 
L 119.003828 109.615629 
L 119.158063 112.095385 
L 119.196622 108.954934 
L 119.27374 110.65521 
L 119.312298 111.324597 
L 119.350857 111.037875 
L 119.389416 109.921679 
L 119.466533 109.972638 
L 119.505092 111.681929 
L 119.582209 111.118889 
L 119.620768 110.906991 
L 119.659327 108.710013 
L 119.697886 112.947563 
L 119.736444 107.220537 
L 119.775003 110.834374 
L 119.852121 112.534669 
L 119.929238 112.475709 
L 120.006356 107.590284 
L 120.083473 110.354411 
L 120.16059 109.903617 
L 120.353384 113.376882 
L 120.507619 110.677516 
L 120.623295 113.613524 
L 120.661854 109.352303 
L 120.738971 111.574407 
L 120.77753 110.259244 
L 120.816089 112.800048 
L 120.854648 109.389723 
L 120.893206 110.564886 
L 120.931765 110.568831 
L 120.970324 109.531337 
L 121.008883 110.964252 
L 121.086 109.87092 
L 121.124559 113.952234 
L 121.163118 110.316552 
L 121.240235 110.40521 
L 121.317353 112.090879 
L 121.355911 109.611128 
L 121.433029 111.246656 
L 121.471587 112.7451 
L 121.510146 111.071956 
L 121.548705 108.656846 
L 121.587264 113.085286 
L 121.780057 110.94056 
L 121.818616 111.512567 
L 121.857175 109.143036 
L 121.934292 109.461199 
L 122.088527 112.380476 
L 122.127086 112.244015 
L 122.165645 109.10082 
L 122.204203 111.061852 
L 122.242762 114.070693 
L 122.31988 111.733214 
L 122.396997 107.343749 
L 122.435556 111.388332 
L 122.474115 113.300667 
L 122.512673 111.926774 
L 122.551232 111.106313 
L 122.589791 111.25298 
L 122.666908 112.326494 
L 122.705467 111.11987 
L 122.782585 111.892873 
L 122.859702 111.477405 
L 122.898261 112.74041 
L 122.936819 110.724501 
L 122.975378 110.119869 
L 123.013937 112.877432 
L 123.091054 111.51296 
L 123.129613 110.167397 
L 123.206731 111.139434 
L 123.283848 112.298714 
L 123.322407 109.875033 
L 123.399524 110.429419 
L 123.553759 113.443094 
L 123.592318 108.996708 
L 123.630877 111.958287 
L 123.669435 113.923248 
L 123.707994 111.727748 
L 123.746553 111.145845 
L 123.785112 111.658261 
L 123.82367 113.288254 
L 123.862229 112.662167 
L 123.900788 109.967571 
L 123.939347 112.251842 
L 123.977905 113.566305 
L 124.093582 110.092051 
L 124.170699 113.581761 
L 124.247817 112.440276 
L 124.402051 110.344268 
L 124.556286 111.546391 
L 124.594845 112.507311 
L 124.633404 110.451194 
L 124.710521 111.713379 
L 124.787639 113.233024 
L 124.826198 111.605964 
L 124.864756 112.175519 
L 124.903315 113.671973 
L 124.941874 109.189739 
L 125.018991 111.792054 
L 125.096109 110.812299 
L 125.250344 114.285401 
L 125.481696 110.877976 
L 125.713048 113.686841 
L 125.790166 109.677037 
L 125.828725 111.434601 
L 125.867283 114.327815 
L 125.905842 112.241657 
L 126.021518 110.904817 
L 126.060077 111.133814 
L 126.098636 113.015537 
L 126.137195 112.054278 
L 126.175753 109.894151 
L 126.214312 113.041825 
L 126.252871 111.609137 
L 126.29143 112.141155 
L 126.368547 111.741101 
L 126.407106 111.74591 
L 126.445664 112.761116 
L 126.484223 109.701508 
L 126.522782 114.160392 
L 126.599899 110.196011 
L 126.638458 111.855496 
L 126.677017 112.682528 
L 126.715576 109.150767 
L 126.754134 112.845992 
L 126.792693 112.64299 
L 126.908369 109.725442 
L 126.946928 111.975899 
L 126.985487 108.515732 
L 127.024046 111.725118 
L 127.062604 112.212971 
L 127.139722 112.171874 
L 127.255398 109.795035 
L 127.293957 112.276996 
L 127.371074 112.145792 
L 127.409633 112.486437 
L 127.48675 109.567892 
L 127.525309 110.693522 
L 127.679544 112.275729 
L 127.756662 110.826394 
L 127.79522 112.211697 
L 127.833779 109.795439 
L 128.065131 113.180712 
L 128.142249 110.635957 
L 128.180808 111.013671 
L 128.335043 114.831105 
L 128.373601 113.906214 
L 128.41216 109.968298 
L 128.489278 111.451497 
L 128.527836 111.542625 
L 128.682071 113.230891 
L 128.797747 107.701318 
L 128.951982 114.873747 
L 129.0291 109.510021 
L 129.106217 111.288138 
L 129.183335 114.302726 
L 129.221894 110.266986 
L 129.260452 111.784849 
L 129.299011 114.798671 
L 129.33757 108.870326 
L 129.414687 113.126996 
L 129.453246 114.58263 
L 129.491805 112.840707 
L 129.530363 109.666063 
L 129.568922 112.862375 
L 129.607481 112.093188 
L 129.64604 112.043494 
L 129.723157 111.712721 
L 129.800275 111.674806 
L 129.877392 114.966301 
L 129.95451 112.009874 
L 129.993068 112.808812 
L 130.031627 114.505738 
L 130.070186 112.054783 
L 130.108744 112.904164 
L 130.147303 111.810264 
L 130.185862 112.197533 
L 130.262979 113.997914 
L 130.301538 113.923816 
L 130.417214 111.117351 
L 130.455773 111.572171 
L 130.494332 114.042665 
L 130.532891 113.121541 
L 130.610008 109.85247 
L 130.648567 114.951054 
L 130.725684 111.361606 
L 130.764243 109.665622 
L 130.802802 110.826479 
L 130.918478 113.444413 
L 130.957037 112.57838 
L 131.034154 111.893178 
L 131.072713 114.384306 
L 131.14983 112.476093 
L 131.226948 114.118074 
L 131.265507 107.437258 
L 131.342624 113.038344 
L 131.419741 112.881369 
L 131.535418 110.157135 
L 131.612535 115.039242 
L 131.651094 113.153334 
L 131.76677 110.959332 
L 131.728211 113.438317 
L 131.805329 111.011097 
L 131.882446 112.160815 
L 131.921005 112.119381 
L 131.959564 110.094125 
L 131.998123 114.598553 
L 132.07524 114.308033 
L 132.113799 111.582322 
L 132.190916 113.239296 
L 132.306592 109.906285 
L 132.422269 114.339245 
L 132.499386 112.996088 
L 132.537945 110.378691 
L 132.576504 113.451257 
L 132.615062 114.45569 
L 132.653621 110.494632 
L 132.730739 111.337777 
L 132.807856 110.838693 
L 132.846415 114.245888 
L 132.884973 110.767994 
L 132.923532 114.279949 
L 132.962091 113.471793 
L 133.00065 111.681824 
L 133.077767 113.211945 
L 133.116326 112.891408 
L 133.193443 110.288387 
L 133.270561 114.217382 
L 133.30912 113.773767 
L 133.386237 110.529775 
L 133.424796 113.439177 
L 133.540472 111.864004 
L 133.579031 114.597901 
L 133.617589 112.999877 
L 133.771824 110.129842 
L 133.926059 113.711554 
L 134.080294 110.260469 
L 134.118853 110.79477 
L 134.234529 117.029999 
L 134.273088 116.916878 
L 134.350205 114.497824 
L 134.388764 118.981307 
L 134.465882 116.399691 
L 134.50444 113.687953 
L 134.542999 116.406257 
L 134.581558 118.61145 
L 134.620117 114.688213 
L 134.658675 114.147994 
L 134.697234 115.045602 
L 134.774352 117.554353 
L 134.81291 116.439804 
L 134.890028 117.035307 
L 134.967145 116.714523 
L 135.005704 117.839609 
L 135.044263 117.349457 
L 135.159939 113.06624 
L 135.198498 115.13124 
L 135.275615 117.815467 
L 135.352733 116.89312 
L 135.391291 115.094342 
L 135.42985 117.802767 
L 135.584085 113.621994 
L 135.661202 115.598319 
L 135.699761 115.376467 
L 135.73832 115.768105 
L 135.776879 116.986838 
L 135.853996 116.868884 
L 135.892555 116.904777 
L 135.969672 114.358787 
L 136.008231 115.88351 
L 136.123907 117.418484 
L 136.278142 114.005962 
L 136.393818 116.893571 
L 136.432377 116.747672 
L 136.470936 115.195998 
L 136.509495 116.08259 
L 136.548053 116.769128 
L 136.586612 116.719535 
L 136.625171 115.191005 
L 136.66373 116.263516 
L 136.702288 117.714402 
L 136.740847 116.950907 
L 136.779406 114.555721 
L 136.856523 116.104624 
L 136.895082 114.746934 
L 136.933641 116.139228 
L 136.9722 116.81499 
L 137.010758 116.272644 
L 137.049317 114.781786 
L 137.087876 115.669028 
L 137.126434 117.834066 
L 137.164993 116.702178 
L 137.203552 115.05344 
L 137.242111 115.521188 
L 137.280669 117.85747 
L 137.357787 116.609511 
L 137.473463 113.730401 
L 137.589139 117.367383 
L 137.627698 116.330324 
L 137.704816 113.870539 
L 137.743374 117.774752 
L 137.820492 115.129829 
L 137.897609 115.073159 
L 138.013285 117.843097 
L 138.16752 114.15446 
L 138.206079 114.711569 
L 138.244638 114.271562 
L 138.283197 113.792409 
L 138.398873 117.471172 
L 138.437432 112.816819 
L 138.514549 116.896244 
L 138.553108 113.004892 
L 138.591666 117.534958 
L 138.630225 115.699191 
L 138.668784 114.539409 
L 138.707343 114.666877 
L 138.745901 119.307426 
L 138.78446 119.272624 
L 138.900136 114.401175 
L 138.938695 118.194999 
L 139.015813 115.101188 
L 139.247165 117.698606 
L 139.4014 114.151512 
L 139.517076 116.145507 
L 139.555635 114.513445 
L 139.594194 117.158014 
L 139.632752 115.621588 
L 139.825546 117.648675 
L 139.864105 116.817784 
L 139.941222 117.343895 
L 140.01834 113.85348 
L 140.095457 117.333081 
L 140.134016 115.775151 
L 140.172575 115.03732 
L 140.211133 116.133946 
L 140.249692 115.381381 
L 140.365368 117.152148 
L 140.442486 115.863711 
L 140.481045 118.767307 
L 140.519603 117.539195 
L 140.635279 113.763348 
L 140.673838 115.474629 
L 140.750956 117.627269 
L 140.789514 116.554456 
L 140.828073 116.99059 
L 140.943749 115.244527 
L 141.059426 119.248242 
L 141.136543 114.992824 
L 141.175102 115.052457 
L 141.213661 117.44728 
L 141.252219 115.301352 
L 141.290778 114.863466 
L 141.367895 116.385927 
L 141.445013 113.223105 
L 141.483572 117.704233 
L 141.560689 117.622545 
L 141.637807 115.766817 
L 141.676365 117.369853 
L 141.714924 117.140185 
L 141.753483 117.932109 
L 141.792042 114.356381 
L 141.869159 115.922341 
L 141.946277 113.591948 
L 141.984835 115.451763 
L 142.023394 115.367679 
L 142.13907 114.437402 
L 142.216188 116.921778 
L 142.254746 114.337668 
L 142.331864 115.816229 
L 142.408981 113.745229 
L 142.44754 115.390554 
L 142.486099 115.32567 
L 142.524658 116.976681 
L 142.563216 116.399274 
L 142.640334 114.451087 
L 142.678893 115.776158 
L 142.717451 115.876565 
L 142.75601 115.705007 
L 142.794569 115.027014 
L 142.871686 117.773943 
L 142.910245 115.416973 
L 142.948804 116.40079 
L 142.987362 115.511046 
L 143.025921 114.960185 
L 143.06448 116.485368 
L 143.103039 112.439421 
L 143.141597 115.533113 
L 143.180156 116.862823 
L 143.257274 116.554733 
L 143.334391 116.891876 
L 143.37295 114.985936 
L 143.527185 118.440909 
L 143.68142 113.752997 
L 143.719978 116.258711 
L 143.758537 115.513804 
L 143.797096 113.84853 
L 143.835655 114.46457 
L 143.874213 117.197 
L 143.912772 114.291151 
L 143.951331 115.472193 
L 143.98989 117.392855 
L 144.028448 115.963259 
L 144.067007 114.347127 
L 144.105566 116.461353 
L 144.144125 115.75316 
L 144.182683 115.905384 
L 144.259801 116.348069 
L 144.298359 113.304783 
L 144.375477 116.58832 
L 144.414036 116.137648 
L 144.491153 116.751593 
L 144.529712 114.162517 
L 144.568271 117.618362 
L 144.645388 115.942534 
L 144.683947 117.93613 
L 144.722506 116.268426 
L 144.761064 114.185439 
L 144.799623 116.68908 
L 144.838182 116.021871 
L 144.87674 117.701634 
L 144.915299 116.530297 
L 144.992417 113.696126 
L 145.030975 117.529755 
L 145.108093 117.012574 
L 145.146652 116.822909 
L 145.18521 115.395469 
L 145.223769 116.069277 
L 145.300887 117.350522 
L 145.378004 114.389298 
L 145.416563 117.133488 
L 145.455122 117.636483 
L 145.609356 114.30151 
L 145.686474 113.199586 
L 145.763591 117.164458 
L 145.80215 114.62098 
L 145.879268 116.077741 
L 145.917826 117.154028 
L 145.956385 115.787576 
L 145.994944 115.852686 
L 146.149179 117.1233 
L 146.187738 114.498103 
L 146.226296 116.636353 
L 146.264855 117.585992 
L 146.341972 114.385162 
L 146.380531 115.539618 
L 146.41909 118.550467 
L 146.457649 114.386879 
L 146.650442 117.663783 
L 146.72756 113.976577 
L 146.766119 118.266407 
L 146.804677 116.181834 
L 146.843236 113.673006 
L 146.881795 115.569744 
L 146.920354 117.12116 
L 146.958912 116.700807 
L 146.997471 114.573746 
L 147.03603 114.781281 
L 147.074588 118.010455 
L 147.151706 115.589257 
L 147.228823 117.669672 
L 147.267382 113.888997 
L 147.3445 115.237503 
L 147.383058 115.835746 
L 147.421617 113.730153 
L 147.460176 115.443605 
L 147.498735 115.644064 
L 147.537293 116.544114 
L 147.614411 116.097694 
L 147.65297 114.445971 
L 147.691528 114.964634 
L 147.730087 115.958693 
L 147.768646 113.359604 
L 147.807204 115.627178 
L 147.884322 117.402924 
L 147.922881 116.121003 
L 147.961439 116.133943 
L 147.999998 117.351425 
L 148.038557 115.861899 
L 148.077116 115.248802 
L 148.115674 117.320787 
L 148.192792 115.512664 
L 148.308468 116.997798 
L 148.347027 113.273934 
L 148.385586 117.129284 
L 148.424144 115.035032 
L 148.462703 118.381384 
L 148.53982 115.967503 
L 148.578379 115.966748 
L 148.655497 114.396937 
L 148.732614 116.25379 
L 148.771173 114.317596 
L 148.809732 117.811437 
L 148.84829 114.414623 
L 148.886849 117.361622 
L 148.963967 114.927719 
L 149.002525 115.687947 
L 149.041084 115.501485 
L 149.079643 114.069553 
L 149.118202 118.769674 
L 149.195319 117.470594 
L 149.233878 118.752793 
L 149.272436 114.505943 
L 149.349554 116.101714 
L 149.388113 117.062433 
L 149.426671 115.390188 
L 149.46523 114.638544 
L 149.503789 117.798663 
L 149.580906 116.896441 
L 149.619465 116.720714 
L 149.658024 114.439617 
L 149.696583 117.609176 
L 149.735141 114.669079 
L 149.812259 114.312405 
L 149.927935 117.166611 
L 149.966494 117.763645 
L 150.005052 114.978943 
L 150.08217 116.351006 
L 150.120729 116.209856 
L 150.159287 116.408942 
L 150.197846 120.449986 
L 150.236405 117.291375 
L 150.274964 115.711935 
L 150.352081 115.726731 
L 150.39064 117.723727 
L 150.429199 114.818896 
L 150.467757 115.205625 
L 150.506316 117.440632 
L 150.544875 114.58848 
L 150.621992 116.155112 
L 150.660551 115.68395 
L 150.69911 118.349823 
L 150.776227 117.05463 
L 150.853345 114.278596 
L 150.891903 118.780847 
L 150.930462 113.63071 
L 150.969021 117.481346 
L 151.046138 114.181806 
L 151.084697 116.184702 
L 151.238932 117.868654 
L 151.393167 113.442957 
L 151.431726 117.252239 
L 151.508843 114.715857 
L 151.547402 116.997466 
L 151.585961 114.413891 
L 151.624519 116.785109 
L 151.663078 116.089856 
L 151.740196 119.353023 
L 151.778754 117.388081 
L 151.817313 116.40288 
L 151.855872 117.814277 
L 151.894431 117.047704 
L 151.932989 117.799319 
L 151.971548 116.544304 
L 152.010107 115.290015 
L 152.048665 116.691549 
L 152.125783 117.461714 
L 152.241459 113.803917 
L 152.318577 116.108138 
L 152.395694 115.841522 
L 152.434253 114.493501 
L 152.472812 115.012131 
L 152.588488 117.057351 
L 152.665605 115.217741 
L 152.704164 115.580948 
L 152.781281 115.31147 
L 152.81984 117.555534 
L 152.858399 115.945805 
L 152.935516 116.402329 
L 153.012634 115.525603 
L 153.089751 118.246556 
L 153.12831 117.150622 
L 153.166869 117.196349 
L 153.205428 117.769609 
L 153.282545 115.505622 
L 153.321104 115.958126 
L 153.398221 118.269898 
L 153.43678 116.455936 
L 153.591015 113.601807 
L 153.629574 116.574447 
L 153.706691 114.888508 
L 153.74525 114.375185 
L 153.783809 114.402453 
L 153.899485 118.797442 
L 154.05372 113.630731 
L 154.169396 116.803706 
L 154.207955 116.34963 
L 154.285072 117.463478 
L 154.323631 116.803723 
L 154.36219 114.53156 
L 154.400748 117.092647 
L 154.439307 117.0048 
L 154.477866 113.663567 
L 154.554983 113.943393 
L 154.593542 117.850954 
L 154.632101 113.92759 
L 154.67066 114.423251 
L 154.709218 116.06229 
L 154.786336 115.528759 
L 154.824894 115.776077 
L 154.940571 119.139654 
L 155.133364 114.629371 
L 155.287599 117.328832 
L 155.326158 118.135028 
L 155.480393 115.558959 
L 155.518952 116.786529 
L 155.55751 115.964996 
L 155.596069 114.943795 
L 155.634628 117.132 
L 155.673187 113.497405 
L 155.711745 116.662887 
L 155.788863 115.416971 
L 155.827422 116.183513 
L 155.86598 116.274681 
L 155.904539 115.34186 
L 155.981657 115.629059 
L 156.020215 116.744167 
L 156.058774 116.345135 
L 156.097333 114.278583 
L 156.135892 118.054499 
L 156.328685 114.204279 
L 156.48292 117.321671 
L 156.521479 117.460773 
L 156.560038 115.037948 
L 156.598596 117.104399 
L 156.637155 117.533822 
L 156.714273 117.569605 
L 156.752831 113.842845 
L 156.829949 117.131618 
L 156.868508 115.430463 
L 156.945625 116.520234 
L 157.022742 113.719101 
L 157.061301 117.126646 
L 157.138419 115.913333 
L 157.215536 116.182737 
L 157.331212 114.07574 
L 157.369771 117.396501 
L 157.446889 116.301671 
L 157.485447 116.119959 
L 157.562565 117.148617 
L 157.601124 113.785757 
L 157.678241 116.195247 
L 157.7168 115.889935 
L 157.755358 114.584032 
L 157.793917 116.221315 
L 157.832476 116.139467 
L 157.909593 116.724757 
L 157.948152 116.479679 
L 157.986711 116.391876 
L 158.02527 113.929202 
L 158.102387 114.926635 
L 158.256622 116.618543 
L 158.295181 116.25234 
L 158.372298 116.287362 
L 158.410857 115.157293 
L 158.449416 116.559143 
L 158.487974 112.662416 
L 158.526533 117.650536 
L 158.565092 113.299336 
L 158.603651 117.320122 
L 158.680768 115.859952 
L 158.719327 116.071839 
L 158.757886 114.945617 
L 158.796444 116.576436 
L 159.027797 115.135054 
L 159.066356 116.904753 
L 159.104914 115.455768 
L 159.143473 115.250588 
L 159.22059 116.847426 
L 159.259149 115.132616 
L 159.336267 116.394338 
L 159.374825 116.310579 
L 159.413384 116.482789 
L 159.451943 118.019827 
L 159.490502 115.375884 
L 159.52906 115.396088 
L 159.606178 117.163654 
L 159.644737 116.004583 
L 159.721854 116.61271 
L 159.760413 114.054166 
L 159.798971 115.19189 
L 159.876089 116.900031 
L 159.914648 114.220664 
L 159.991765 115.810892 
L 160.030324 117.665832 
L 160.107441 116.197773 
L 160.146 115.63372 
L 160.223118 115.864291 
L 160.261676 117.411288 
L 160.300235 115.618747 
L 160.338794 116.534307 
L 160.377353 114.26127 
L 160.415911 115.166692 
L 160.45447 118.088869 
L 160.531587 116.255533 
L 160.570146 114.051232 
L 160.647264 115.051407 
L 160.724381 116.047774 
L 160.76294 115.796699 
L 160.801499 114.624628 
L 160.917175 117.872939 
L 160.994292 112.732634 
L 161.032851 115.281516 
L 161.07141 116.266174 
L 161.109969 113.121203 
L 161.148527 117.9051 
L 161.264203 114.716435 
L 161.37988 115.289432 
L 161.418438 116.489435 
L 161.456997 116.366506 
L 161.495556 114.474507 
L 161.572673 116.008552 
L 161.649791 118.547944 
L 161.68835 115.180492 
L 161.765467 116.244409 
L 161.804026 115.994908 
L 161.842585 114.822271 
L 161.881143 118.618143 
L 161.919702 117.917595 
L 161.958261 114.743864 
L 162.035378 115.56481 
L 162.073937 115.827068 
L 162.112496 118.01418 
L 162.151054 113.163711 
L 162.228172 117.27595 
L 162.266731 116.626968 
L 162.305289 119.442781 
L 162.343848 116.281564 
L 162.382407 116.694429 
L 162.420966 116.547055 
L 162.459524 116.238283 
L 162.498083 112.825951 
L 162.536642 115.69108 
L 162.575201 116.511357 
L 162.652318 118.123374 
L 162.690877 111.802491 
L 162.729435 117.782603 
L 162.806553 116.385393 
L 162.845112 116.054839 
L 162.88367 113.388087 
L 162.922229 116.494219 
L 162.960788 115.134249 
L 162.999347 117.629702 
L 163.076464 115.950014 
L 163.115023 117.339343 
L 163.153582 116.042074 
L 163.19214 114.394259 
L 163.230699 116.840571 
L 163.269258 117.311393 
L 163.307817 116.844756 
L 163.346375 115.387516 
L 163.384934 116.892097 
L 163.423493 117.300658 
L 163.462051 115.952178 
L 163.50061 116.817468 
L 163.539169 118.938229 
L 163.577728 117.755522 
L 163.616286 114.319231 
L 163.654845 117.795849 
L 163.693404 116.747935 
L 163.847639 114.752646 
L 163.770521 117.092952 
L 163.886198 115.353342 
L 163.963315 114.925787 
L 164.040433 118.518387 
L 164.078991 116.410467 
L 164.11755 114.792285 
L 164.156109 118.333825 
L 164.194667 117.19878 
L 164.233226 115.04807 
L 164.310344 116.166822 
L 164.348902 115.818978 
L 164.464579 119.550504 
L 164.541696 115.062174 
L 164.580255 117.005991 
L 164.618814 118.304509 
L 164.657372 116.792987 
L 164.73449 116.801321 
L 164.773048 116.612908 
L 164.811607 118.124941 
L 164.850166 115.902072 
L 164.888725 116.318312 
L 164.927283 118.018471 
L 164.965842 115.965105 
L 165.04296 116.648925 
L 165.081518 116.030274 
L 165.120077 114.923161 
L 165.158636 115.331264 
L 165.235753 117.202086 
L 165.274312 114.858409 
L 165.312871 117.239522 
L 165.35143 115.527935 
L 165.389988 118.227279 
L 165.428547 117.986622 
L 165.467106 114.710682 
L 165.505664 118.068437 
L 165.544223 116.402697 
L 165.621341 117.430123 
L 165.659899 116.712231 
L 165.698458 115.468512 
L 165.814134 121.282231 
L 165.891252 119.912099 
L 165.929811 121.589669 
L 166.006928 121.116627 
L 166.045487 118.941692 
L 166.084046 119.484701 
L 166.122604 120.897905 
L 166.161163 118.822273 
L 166.199722 118.890111 
L 166.23828 118.618841 
L 166.431074 121.274769 
L 166.508192 121.293886 
L 166.54675 117.38963 
L 166.585309 120.732557 
L 166.662427 120.696546 
L 166.700985 120.294666 
L 166.739544 118.670065 
L 166.816662 119.819162 
L 166.85522 119.756203 
L 166.893779 118.538367 
L 166.932338 119.153052 
L 166.970896 121.808898 
L 167.009455 119.784675 
L 167.048014 118.389878 
L 167.125131 118.90037 
L 167.202249 120.656543 
L 167.240808 120.318844 
L 167.356484 118.485762 
L 167.433601 120.900297 
L 167.47216 119.614963 
L 167.549278 118.301646 
L 167.626395 121.919887 
L 167.664954 119.63737 
L 167.78063 116.80372 
L 167.857747 120.963628 
L 167.896306 119.472908 
L 167.934865 117.943251 
L 167.973424 119.541321 
L 168.011982 119.31183 
L 168.050541 118.09277 
L 168.0891 120.595234 
L 168.166217 120.088113 
L 168.243335 121.382045 
L 168.281894 120.177053 
L 168.320452 120.110032 
L 168.39757 119.686266 
L 168.436128 121.872919 
L 168.551805 119.227327 
L 168.628922 121.436054 
L 168.667481 117.817256 
L 168.744598 118.290118 
L 168.783157 120.788567 
L 168.860275 119.228601 
L 168.898833 118.326018 
L 168.975951 118.958095 
L 169.01451 120.742835 
L 169.053068 120.548223 
L 169.207303 118.525726 
L 169.284421 120.809409 
L 169.322979 120.231351 
L 169.400097 121.122871 
L 169.477214 118.594082 
L 169.515773 119.042797 
L 169.592891 121.53388 
L 169.631449 119.704222 
L 169.747125 121.249377 
L 169.824243 116.344888 
L 169.862802 119.901384 
L 169.90136 120.017075 
L 170.055595 118.23456 
L 170.132713 120.020528 
L 170.171272 118.686372 
L 170.20983 115.904797 
L 170.248389 122.030299 
L 170.325507 120.371601 
L 170.364065 119.805155 
L 170.402624 120.029045 
L 170.441183 120.71717 
L 170.479741 118.424309 
L 170.556859 119.31591 
L 170.595418 120.409838 
L 170.633976 119.477116 
L 170.672535 117.17635 
L 170.749653 119.179704 
L 170.788211 119.85669 
L 170.82677 118.589627 
L 170.903888 118.692745 
L 170.981005 119.856904 
L 171.058123 116.480824 
L 171.096681 121.504386 
L 171.173799 119.864943 
L 171.250916 119.052685 
L 171.289475 120.878445 
L 171.328034 117.904302 
L 171.44371 120.971078 
L 171.520827 119.532917 
L 171.597945 118.399634 
L 171.636504 118.63361 
L 171.790739 120.540445 
L 171.829297 117.403716 
L 171.867856 121.059593 
L 171.906415 119.351273 
L 171.944973 118.577452 
L 171.983532 120.87397 
L 172.022091 117.612692 
L 172.06065 119.423585 
L 172.137767 119.765412 
L 172.176326 118.276782 
L 172.214885 119.601267 
L 172.292002 119.568449 
L 172.330561 119.466726 
L 172.36912 119.621497 
L 172.407678 119.582027 
L 172.446237 120.463853 
L 172.484796 118.56155 
L 172.561913 119.117407 
L 172.600472 119.060566 
L 172.639031 118.765823 
L 172.793266 121.27474 
L 172.831824 118.172595 
L 172.908942 120.035775 
L 172.947501 119.102922 
L 172.986059 121.180326 
L 173.024618 120.314478 
L 173.101736 117.86195 
L 173.178853 118.242413 
L 173.255971 119.36085 
L 173.371647 117.578216 
L 173.525882 120.246527 
L 173.56444 118.781034 
L 173.641558 120.044698 
L 173.680117 120.136335 
L 173.795793 117.867676 
L 173.911469 119.263272 
L 173.950028 118.719713 
L 173.988587 120.938166 
L 174.027145 118.208126 
L 174.065704 118.474631 
L 174.104263 119.996545 
L 174.142821 117.896736 
L 174.18138 118.099059 
L 174.219939 121.072246 
L 174.258498 119.058184 
L 174.297056 117.423376 
L 174.335615 121.157857 
L 174.412733 118.826203 
L 174.48985 121.186936 
L 174.566968 116.810779 
L 174.605526 118.279684 
L 174.759761 121.1123 
L 174.913996 119.165489 
L 174.952555 118.593242 
L 174.991114 119.653281 
L 175.029672 121.594169 
L 175.068231 117.59037 
L 175.145349 119.846942 
L 175.183907 118.262856 
L 175.222466 119.523541 
L 175.299584 119.200253 
L 175.338142 119.948039 
L 175.376701 119.043749 
L 175.492377 121.413616 
L 175.608053 117.782143 
L 175.72373 119.999844 
L 175.762288 117.641533 
L 175.800847 118.185054 
L 175.916523 120.485471 
L 176.147876 117.092789 
L 176.186434 119.318416 
L 176.263552 119.279776 
L 176.302111 118.951851 
L 176.340669 117.578606 
L 176.379228 118.605094 
L 176.417787 119.248524 
L 176.456346 118.694135 
L 176.494904 118.532381 
L 176.533463 117.851888 
L 176.572022 119.715823 
L 176.610581 119.004278 
L 176.649139 117.795682 
L 176.687698 118.67969 
L 176.726257 119.299097 
L 176.764816 119.215165 
L 176.803374 117.738773 
L 176.841933 119.614491 
L 176.880492 120.9232 
L 176.91905 118.90611 
L 176.996168 117.019189 
L 177.073285 121.08181 
L 177.111844 117.024451 
L 177.150403 121.477589 
L 177.188962 117.843017 
L 177.304638 119.442758 
L 177.343197 118.341537 
L 177.381755 119.151091 
L 177.458873 119.809767 
L 177.497432 118.410448 
L 177.53599 120.328316 
L 177.651666 118.138486 
L 177.690225 120.407657 
L 177.767343 119.976829 
L 177.84446 119.446936 
L 177.883019 118.187416 
L 177.921578 118.922956 
L 177.960136 119.327921 
L 178.037254 118.28484 
L 178.075813 118.723481 
L 178.114371 118.772312 
L 178.15293 121.562367 
L 178.191489 120.675734 
L 178.230048 118.440036 
L 178.307165 119.444485 
L 178.345724 121.372868 
L 178.384282 115.924309 
L 178.4614 119.441719 
L 178.615635 117.81202 
L 178.654194 121.768946 
L 178.731311 120.242084 
L 178.808429 118.359339 
L 178.846987 119.952775 
L 178.885546 118.409667 
L 178.924105 120.339133 
L 178.962663 118.684131 
L 179.001222 118.245537 
L 179.116898 121.309489 
L 179.271133 118.499066 
L 179.309692 120.489023 
L 179.348251 118.469729 
L 179.425368 116.459119 
L 179.541045 120.921824 
L 179.579603 118.782272 
L 179.656721 119.007395 
L 179.695279 118.926198 
L 179.810956 117.722035 
L 179.849514 118.124525 
L 180.003749 120.90334 
L 180.080867 118.812599 
L 180.196543 119.072837 
L 180.235102 120.035938 
L 180.273661 118.45691 
L 180.312219 118.896597 
L 180.350778 117.946692 
L 180.389337 119.860618 
L 180.427895 115.469705 
L 180.505013 117.559184 
L 180.543572 120.375133 
L 180.58213 117.381854 
L 180.620689 115.952823 
L 180.736365 120.194812 
L 180.774924 119.528864 
L 180.813483 121.348012 
L 180.852042 118.71706 
L 180.8906 119.879189 
L 181.006277 117.790496 
L 181.121953 118.241044 
L 181.19907 119.651014 
L 181.237629 116.855505 
L 181.276188 119.843137 
L 181.314746 120.412906 
L 181.430423 116.015636 
L 181.468981 118.444495 
L 181.50754 118.729277 
L 181.546099 117.688175 
L 181.584658 121.880577 
L 181.661775 119.169488 
L 181.700334 119.876692 
L 181.738893 118.895698 
L 181.81601 118.784449 
L 181.893127 117.945077 
L 181.931686 119.779234 
L 181.970245 118.702011 
L 182.008804 118.968137 
L 182.047362 119.844299 
L 182.085921 117.612312 
L 182.12448 121.454314 
L 182.240156 118.85113 
L 182.278715 119.55412 
L 182.471509 121.996932 
L 182.587185 116.372788 
L 182.74142 120.860196 
L 182.857096 117.577684 
L 182.895655 120.535645 
L 182.972772 118.260488 
L 183.04989 116.261174 
L 183.088448 120.694995 
L 183.165566 119.316919 
L 183.242683 119.803336 
L 183.281242 119.702187 
L 183.358359 117.886161 
L 183.396918 118.922406 
L 183.435477 120.008534 
L 183.474036 117.94835 
L 183.551153 119.510334 
L 183.628271 119.527537 
L 183.666829 115.402076 
L 183.821064 118.886315 
L 183.859623 117.819155 
L 183.898182 118.101443 
L 184.013858 120.572786 
L 184.168093 118.455289 
L 184.24521 119.360279 
L 184.360887 117.296596 
L 184.438004 120.241609 
L 184.476563 118.284564 
L 184.515122 118.059239 
L 184.55368 119.43902 
L 184.592239 117.80539 
L 184.630798 117.990473 
L 184.669356 120.365586 
L 184.707915 118.610992 
L 184.785033 117.545851 
L 184.86215 119.756984 
L 184.900709 117.338945 
L 184.977826 118.912138 
L 185.016385 119.097127 
L 185.054944 118.459264 
L 185.093503 118.571258 
L 185.132061 119.574116 
L 185.209179 119.109376 
L 185.247738 116.717584 
L 185.324855 118.390241 
L 185.47909 120.69886 
L 185.594766 118.652909 
L 185.633325 119.351762 
L 185.671884 118.812311 
L 185.710442 120.194219 
L 185.78756 119.131702 
L 185.826119 119.1771 
L 185.903236 117.53424 
L 185.980354 118.003645 
L 186.134588 120.275815 
L 186.211706 120.749351 
L 186.250265 116.946659 
L 186.288823 119.37741 
L 186.365941 118.357887 
L 186.4045 117.3388 
L 186.443058 119.004862 
L 186.481617 118.332784 
L 186.520176 118.966594 
L 186.597293 118.732886 
L 186.635852 119.940947 
L 186.71297 118.757462 
L 186.751528 119.736844 
L 186.905763 117.053219 
L 186.982881 117.445965 
L 187.021439 117.53457 
L 187.175674 119.80223 
L 187.214233 119.664291 
L 187.252792 119.85591 
L 187.291351 120.485171 
L 187.329909 118.14118 
L 187.407027 118.283759 
L 187.445586 120.271771 
L 187.484144 118.846256 
L 187.522703 118.51316 
L 187.561262 119.004507 
L 187.59982 118.912685 
L 187.638379 117.568632 
L 187.676938 118.412993 
L 187.715497 119.41251 
L 187.754055 117.260905 
L 187.792614 118.846612 
L 187.831173 120.547484 
L 187.869732 118.182836 
L 187.90829 118.026011 
L 187.985408 117.935315 
L 188.023967 121.128578 
L 188.139643 117.127821 
L 188.21676 117.348907 
L 188.255319 119.303617 
L 188.332436 119.185361 
L 188.409554 116.088793 
L 188.448113 120.374434 
L 188.52523 117.292518 
L 188.679465 119.975251 
L 188.718024 120.103449 
L 188.795141 117.924392 
L 188.8337 120.867635 
L 188.872259 119.055084 
L 188.910817 117.510526 
L 188.949376 120.160116 
L 189.065052 118.269757 
L 189.14217 120.391234 
L 189.257846 116.710151 
L 189.296405 120.188451 
L 189.373522 118.812847 
L 189.412081 117.091545 
L 189.45064 117.226782 
L 189.604875 119.390113 
L 189.643433 119.559833 
L 189.681992 120.977441 
L 189.720551 117.036619 
L 189.797668 118.972234 
L 189.836227 120.519963 
L 189.874786 120.13047 
L 189.913345 118.585269 
L 189.990462 118.761241 
L 190.029021 119.655599 
L 190.106138 119.035067 
L 190.144697 117.419811 
L 190.183256 118.528885 
L 190.260373 121.346041 
L 190.337491 122.025683 
L 190.376049 117.157255 
L 190.414608 119.395358 
L 190.491726 118.658306 
L 190.530284 119.577652 
L 190.568843 118.608422 
L 190.607402 117.926127 
L 190.645961 118.760428 
L 190.684519 118.738263 
L 190.800196 119.398358 
L 190.838754 118.378556 
L 190.877313 118.976744 
L 190.915872 121.103967 
L 190.954431 119.105044 
L 190.992989 117.444263 
L 191.031548 121.20283 
L 191.108665 120.049818 
L 191.185783 117.789237 
L 191.224342 119.272474 
L 191.2629 119.179284 
L 191.340018 119.326232 
L 191.417135 117.714474 
L 191.455694 118.083372 
L 191.494253 117.826032 
L 191.532812 119.918738 
L 191.609929 119.114308 
L 191.687047 117.94524 
L 191.725605 118.19502 
L 191.764164 119.698804 
L 191.802723 119.33991 
L 191.87984 119.819851 
L 191.918399 117.809656 
L 191.956958 119.690339 
L 191.995516 116.624005 
L 192.034075 119.13268 
L 192.072634 118.486978 
L 192.111193 118.598475 
L 192.149751 119.817758 
L 192.18831 117.966852 
L 192.226869 118.116714 
L 192.265428 120.357101 
L 192.342545 119.394884 
L 192.381104 119.815386 
L 192.419663 119.635411 
L 192.49678 117.594679 
L 192.573897 118.104127 
L 192.612456 120.206371 
L 192.651015 117.93323 
L 192.689574 119.511062 
L 192.728132 119.131829 
L 192.766691 119.251667 
L 192.80525 120.773839 
L 192.843809 118.96522 
L 192.882367 117.220322 
L 192.920926 121.422036 
L 192.998044 118.828581 
L 193.036602 119.638985 
L 193.075161 118.948706 
L 193.229396 116.836669 
L 193.383631 120.316271 
L 193.537866 114.798782 
L 193.576425 119.179545 
L 193.653542 116.207886 
L 193.73066 120.529518 
L 193.807777 119.285956 
L 193.846336 119.252083 
L 193.923453 116.91502 
L 193.962012 119.733754 
L 194.039129 117.269495 
L 194.154806 120.285592 
L 194.193364 119.232069 
L 194.231923 114.685682 
L 194.309041 118.062779 
L 194.463276 120.681259 
L 194.501834 117.866341 
L 194.578952 118.074617 
L 194.61751 119.253264 
L 194.656069 117.747409 
L 194.694628 118.536588 
L 194.733187 118.599611 
L 194.771745 119.46655 
L 194.848863 118.914945 
L 194.887422 118.265666 
L 194.964539 118.304422 
L 195.118774 120.639884 
L 195.23445 116.968791 
L 195.273009 120.880179 
L 195.350126 118.574694 
L 195.388685 120.620101 
L 195.465803 119.244697 
L 195.504361 120.26869 
L 195.54292 119.481906 
L 195.581479 119.30576 
L 195.658596 117.400991 
L 195.697155 118.428854 
L 195.774273 118.092118 
L 195.85139 119.623791 
L 195.889949 117.727165 
L 195.967066 119.046577 
L 196.005625 120.433592 
L 196.044184 115.858614 
L 196.121301 117.675522 
L 196.15986 117.603028 
L 196.198419 119.185885 
L 196.275536 118.08158 
L 196.314095 117.555991 
L 196.391212 120.3158 
L 196.429771 119.436899 
L 196.46833 120.203234 
L 196.545447 117.636098 
L 196.584006 119.89262 
L 196.699682 118.24095 
L 196.738241 118.76304 
L 196.7768 118.751474 
L 196.815358 115.508854 
L 196.853917 120.01427 
L 196.892476 117.708732 
L 196.931035 116.965546 
L 196.969593 117.25151 
L 197.008152 118.257721 
L 197.046711 116.330942 
L 197.123828 117.588919 
L 197.162387 117.251458 
L 197.316622 122.729524 
L 197.470857 121.148905 
L 197.509416 122.376202 
L 197.586533 122.232298 
L 197.625092 122.499958 
L 197.663651 121.709457 
L 197.702209 122.623747 
L 197.740768 123.014515 
L 197.933562 120.223866 
L 198.087797 124.27415 
L 198.126356 122.830326 
L 198.164914 122.205688 
L 198.242032 122.466977 
L 198.28059 123.852721 
L 198.319149 122.207451 
L 198.357708 120.058406 
L 198.434825 121.291412 
L 198.473384 123.402649 
L 198.550502 122.426719 
L 198.666178 120.624603 
L 198.627619 122.834016 
L 198.704737 121.180132 
L 198.820413 122.77798 
L 198.858971 122.174654 
L 198.89753 120.550042 
L 198.974648 121.854193 
L 199.090324 123.055953 
L 199.128883 121.99785 
L 199.167441 122.061187 
L 199.206 123.481174 
L 199.244559 122.200539 
L 199.283118 121.910596 
L 199.321676 122.746878 
L 199.360235 121.578419 
L 199.398794 121.457122 
L 199.51447 122.528185 
L 199.630146 120.778522 
L 199.668705 122.472719 
L 199.707264 121.848412 
L 199.784381 120.457571 
L 199.82294 120.760315 
L 199.900057 120.588486 
L 199.977175 122.468761 
L 200.054292 123.368712 
L 200.092851 119.838564 
L 200.13141 122.756337 
L 200.208527 122.5526 
L 200.247086 119.967247 
L 200.324203 120.712506 
L 200.362762 122.412119 
L 200.401321 122.202945 
L 200.478438 120.676959 
L 200.516997 122.003131 
L 200.555556 123.385807 
L 200.594115 122.605607 
L 200.671232 121.653806 
L 200.709791 122.115847 
L 200.74835 123.265698 
L 200.786908 122.18143 
L 200.864026 122.226566 
L 200.941143 119.864698 
L 200.979702 122.717337 
L 201.056819 122.307415 
L 201.095378 120.384902 
L 201.133937 122.723761 
L 201.172496 124.680901 
L 201.211054 121.163424 
L 201.249613 123.31856 
L 201.365289 120.51046 
L 201.442407 120.982866 
L 201.480966 121.364648 
L 201.519524 123.72304 
L 201.596642 122.129668 
L 201.635201 120.869447 
L 201.673759 122.468085 
L 201.712318 121.969829 
L 201.789435 122.223929 
L 201.866553 122.104792 
L 201.982229 120.943119 
L 202.020788 123.458195 
L 202.059347 119.784002 
L 202.097905 122.909038 
L 202.136464 123.502319 
L 202.25214 121.527634 
L 202.290699 124.000207 
L 202.329258 121.301015 
L 202.367817 121.950693 
L 202.406375 122.135085 
L 202.444934 123.908343 
L 202.522051 122.507878 
L 202.56061 121.723337 
L 202.599169 123.322638 
L 202.637728 122.034624 
L 202.753404 120.281708 
L 202.907639 123.518382 
L 203.023315 120.047136 
L 203.061874 121.678341 
L 203.100433 122.2006 
L 203.138991 122.088435 
L 203.17755 120.845076 
L 203.216109 122.020024 
L 203.254667 123.934538 
L 203.331785 123.713061 
L 203.48602 120.595943 
L 203.524579 122.910532 
L 203.601696 122.42484 
L 203.640255 122.382413 
L 203.755931 123.206632 
L 203.79449 122.883333 
L 203.833048 123.471266 
L 203.871607 123.317722 
L 203.910166 123.343952 
L 203.948725 121.649466 
L 203.987283 123.02089 
L 204.025842 123.485116 
L 204.064401 120.951445 
L 204.10296 123.568734 
L 204.141518 122.318161 
L 204.295753 124.262143 
L 204.372871 121.578613 
L 204.527106 121.760816 
L 204.565664 123.427913 
L 204.604223 121.552843 
L 204.642782 122.778282 
L 204.681341 123.38055 
L 204.719899 123.305878 
L 204.835576 121.40366 
L 204.951252 122.943914 
L 204.989811 121.281636 
L 205.028369 121.529046 
L 205.066928 123.950142 
L 205.144046 123.119982 
L 205.221163 123.661299 
L 205.259722 122.551232 
L 205.29828 123.135027 
L 205.336839 124.456672 
L 205.375398 121.211736 
L 205.452515 122.382527 
L 205.491074 122.934146 
L 205.529633 121.580443 
L 205.568192 122.988869 
L 205.60675 122.404418 
L 205.683868 123.582372 
L 205.799544 121.834841 
L 205.91522 124.298883 
L 205.953779 121.557176 
L 206.030896 122.858897 
L 206.108014 121.105128 
L 206.146573 124.646264 
L 206.22369 122.835082 
L 206.262249 121.726296 
L 206.300808 123.558953 
L 206.339366 122.421773 
L 206.377925 121.730825 
L 206.416484 123.717864 
L 206.493601 122.648139 
L 206.53216 123.194947 
L 206.570719 121.886362 
L 206.647836 122.391716 
L 206.724954 121.976739 
L 206.802071 124.423986 
L 206.84063 123.475754 
L 206.879189 121.554938 
L 206.956306 122.874877 
L 207.033424 122.195146 
L 207.071982 123.328097 
L 207.110541 121.436901 
L 207.264776 123.920477 
L 207.303335 123.120915 
L 207.419011 121.074416 
L 207.496128 124.130163 
L 207.534687 120.910945 
L 207.611805 122.399696 
L 207.650363 124.729673 
L 207.688922 122.183384 
L 207.727481 119.666381 
L 207.76604 122.323848 
L 207.804598 121.540582 
L 207.843157 123.382322 
L 207.920275 122.945803 
L 208.113068 120.960033 
L 208.151627 123.719279 
L 208.228744 121.439108 
L 208.267303 122.930515 
L 208.344421 122.780388 
L 208.382979 122.164063 
L 208.421538 123.082401 
L 208.460097 124.334849 
L 208.537214 121.493996 
L 208.575773 123.91027 
L 208.614332 124.02621 
L 208.652891 122.535266 
L 208.691449 123.315273 
L 208.730008 124.030951 
L 208.768567 121.594283 
L 208.845684 122.487182 
L 208.922802 122.003192 
L 209.038478 123.90793 
L 209.077037 121.70941 
L 209.154154 122.206524 
L 209.192713 121.993695 
L 209.308389 124.011928 
L 209.385507 122.251726 
L 209.424065 124.190123 
L 209.462624 121.609823 
L 209.501183 123.101453 
L 209.5783 122.112164 
L 209.616859 123.336223 
L 209.655418 121.435488 
L 209.809653 123.032432 
L 209.848211 122.054819 
L 209.925329 122.665031 
L 209.963888 123.619007 
L 210.002446 123.27139 
L 210.041005 122.205264 
L 210.079564 122.405298 
L 210.233799 124.367342 
L 210.272357 124.277851 
L 210.310916 122.286275 
L 210.349475 123.108748 
L 210.388034 124.90301 
L 210.426592 124.017567 
L 210.580827 120.741013 
L 210.657945 123.571962 
L 210.696504 123.437606 
L 210.735062 120.998879 
L 210.81218 122.425455 
L 210.850739 124.48731 
L 210.927856 123.656053 
L 211.043532 120.742139 
L 211.082091 123.307208 
L 211.159208 123.179201 
L 211.197767 122.888241 
L 211.236326 124.102805 
L 211.274885 121.61668 
L 211.352002 121.698018 
L 211.42912 124.269241 
L 211.506237 123.752347 
L 211.544796 121.937117 
L 211.621913 122.145924 
L 211.699031 123.393403 
L 211.737589 122.878547 
L 211.776148 122.941278 
L 211.814707 123.562206 
L 211.853266 122.215708 
L 211.891824 122.63992 
L 211.930383 123.466719 
L 211.968942 118.935968 
L 212.046059 121.594988 
L 212.238853 123.585288 
L 212.277412 123.541186 
L 212.315971 122.707082 
L 212.354529 124.093583 
L 212.393088 122.816441 
L 212.431647 123.37805 
L 212.508764 121.936934 
L 212.662999 124.786515 
L 212.701558 122.948403 
L 212.778675 124.253099 
L 212.817234 124.142462 
L 212.855793 122.115983 
L 212.93291 123.68909 
L 212.971469 123.506977 
L 213.087145 122.01851 
L 213.125704 124.793758 
L 213.164263 121.696828 
L 213.202821 123.511105 
L 213.24138 123.159139 
L 213.279939 121.463548 
L 213.318498 123.253069 
L 213.357056 122.599635 
L 213.395615 121.334327 
L 213.434174 122.790696 
L 213.472733 121.78408 
L 213.511291 121.672196 
L 213.665526 123.657511 
L 213.704085 123.439478 
L 213.742644 122.28548 
L 213.819761 123.236765 
L 213.85832 123.319806 
L 213.935437 123.744536 
L 214.051114 120.982275 
L 214.205349 123.486245 
L 214.282466 121.736672 
L 214.321025 123.781656 
L 214.398142 123.256765 
L 214.436701 121.907741 
L 214.47526 124.530361 
L 214.513818 121.515409 
L 214.552377 122.241909 
L 214.590936 120.50622 
L 214.629495 122.757045 
L 214.745171 120.905302 
L 214.706612 122.986211 
L 214.78373 121.777732 
L 214.822288 123.69019 
L 214.899406 123.428914 
L 214.937965 121.65734 
L 214.976523 123.599095 
L 215.015082 122.366393 
L 215.053641 122.51306 
L 215.0922 121.006428 
L 215.130758 122.751567 
L 215.169317 124.207518 
L 215.207876 120.688825 
L 215.284993 122.241693 
L 215.400669 123.068614 
L 215.477787 121.690054 
L 215.516346 122.712543 
L 215.632022 121.587851 
L 215.747698 123.221364 
L 215.786257 121.764152 
L 215.824816 122.692706 
L 215.863374 123.82966 
L 215.901933 123.495895 
L 215.97905 121.01875 
L 216.056168 122.192848 
L 216.094727 123.827657 
L 216.133285 121.642815 
L 216.171844 122.63977 
L 216.210403 123.045857 
L 216.248962 120.342897 
L 216.28752 123.592711 
L 216.364638 123.07667 
L 216.403197 124.422536 
L 216.480314 123.716649 
L 216.518873 123.397975 
L 216.634549 122.046056 
L 216.711666 124.013932 
L 216.788784 123.307125 
L 216.90446 120.121546 
L 216.865901 123.422256 
L 216.943019 122.22898 
L 217.020136 122.820353 
L 217.058695 122.800968 
L 217.097254 122.411981 
L 217.135813 122.908713 
L 217.174371 123.12536 
L 217.21293 122.755174 
L 217.251489 124.527967 
L 217.328606 123.104539 
L 217.367165 121.334238 
L 217.405724 123.283601 
L 217.444282 122.047041 
L 217.482841 121.978217 
L 217.559959 123.131046 
L 217.637076 122.454406 
L 217.675635 121.242382 
L 217.714194 122.161078 
L 217.752752 123.686165 
L 217.791311 122.313267 
L 217.82987 121.830525 
L 217.868429 123.246666 
L 217.906987 122.83059 
L 217.945546 121.345377 
L 217.984105 122.860905 
L 218.022663 121.716463 
L 218.061222 122.109851 
L 218.099781 124.065128 
L 218.13834 120.046471 
L 218.215457 122.112745 
L 218.254016 123.678358 
L 218.292575 121.89122 
L 218.331133 120.963699 
L 218.369692 122.28857 
L 218.485368 122.508932 
L 218.523927 120.774424 
L 218.562486 123.216106 
L 218.601045 121.532775 
L 218.716721 123.497962 
L 218.755279 121.731503 
L 218.793838 122.771352 
L 218.832397 123.881869 
L 218.870956 122.249617 
L 218.909514 121.826285 
L 218.948073 124.315913 
L 218.986632 122.137184 
L 219.102308 121.462709 
L 219.140867 122.706411 
L 219.217984 121.775261 
L 219.295102 123.04312 
L 219.333661 122.144111 
L 219.372219 121.023023 
L 219.410778 122.416077 
L 219.449337 122.654467 
L 219.487895 122.209554 
L 219.526454 121.653557 
L 219.565013 123.5231 
L 219.64213 122.994083 
L 219.680689 123.527469 
L 219.719248 121.575965 
L 219.757807 121.745198 
L 219.796365 123.525561 
L 219.834924 122.90355 
L 219.873483 121.568057 
L 219.912042 121.876243 
L 219.989159 123.953309 
L 220.027718 121.891877 
L 220.104835 123.572646 
L 220.220511 120.888034 
L 220.336188 123.737347 
L 220.374746 122.796713 
L 220.413305 123.450499 
L 220.451864 123.990743 
L 220.490423 121.216223 
L 220.528981 124.917503 
L 220.56754 123.292831 
L 220.606099 123.065862 
L 220.683216 124.302136 
L 220.721775 124.141714 
L 220.760334 121.806825 
L 220.837451 123.282314 
L 220.87601 123.075998 
L 220.914569 122.20491 
L 220.953127 123.149001 
L 220.991686 122.22112 
L 221.107362 122.761938 
L 221.145921 121.655207 
L 221.18448 124.357328 
L 221.261597 123.449531 
L 221.338715 121.613355 
L 221.377274 122.994892 
L 221.454391 120.325857 
L 221.49295 123.506323 
L 221.570067 120.851108 
L 221.685743 123.679007 
L 221.724302 123.48508 
L 221.80142 122.254012 
L 221.839978 123.457241 
L 221.878537 123.225001 
L 221.917096 121.857493 
L 221.994213 121.885356 
L 222.032772 121.840945 
L 222.10989 123.091957 
L 222.148448 121.225909 
L 222.187007 122.228268 
L 222.264125 124.015034 
L 222.302683 122.546255 
L 222.341242 123.65394 
L 222.418359 122.941353 
L 222.534036 121.33909 
L 222.572594 123.12249 
L 222.649712 123.091266 
L 222.688271 121.953515 
L 222.726829 123.237114 
L 222.765388 122.002316 
L 222.803947 123.803157 
L 222.842506 122.541762 
L 222.881064 121.237039 
L 222.958182 121.488189 
L 222.99674 121.255387 
L 223.035299 121.380763 
L 223.112417 123.103692 
L 223.150975 121.475299 
L 223.228093 121.773934 
L 223.382328 124.274963 
L 223.459445 123.569316 
L 223.498004 120.718924 
L 223.536563 121.961918 
L 223.652239 123.782298 
L 223.806474 121.534254 
L 223.845033 123.837022 
L 223.883591 121.377592 
L 223.92215 121.080047 
L 223.999268 123.000051 
L 224.037826 121.58338 
L 224.076385 122.606564 
L 224.114944 121.580089 
L 224.153503 122.461368 
L 224.192061 122.20105 
L 224.23062 124.32132 
L 224.269179 122.376673 
L 224.307738 121.945958 
L 224.346296 122.373709 
L 224.423414 123.544938 
L 224.461972 121.710201 
L 224.53909 122.564494 
L 224.577649 122.455846 
L 224.616207 121.153968 
L 224.693325 122.264861 
L 224.731884 123.431843 
L 224.770442 123.333319 
L 224.809001 122.394115 
L 224.84756 124.268667 
L 224.886119 121.370868 
L 224.924677 120.527331 
L 224.963236 120.929313 
L 225.117471 123.424707 
L 225.15603 121.721601 
L 225.233147 121.960178 
L 225.271706 125.190456 
L 225.310265 122.613234 
L 225.387382 122.193832 
L 225.425941 122.328209 
L 225.4645 122.396511 
L 225.503058 124.833714 
L 225.541617 121.123705 
L 225.580176 122.8034 
L 225.618735 123.129891 
L 225.695852 123.736661 
L 225.77297 120.969655 
L 225.850087 120.829194 
L 225.888646 124.154827 
L 225.927204 120.279279 
L 226.004322 122.121036 
L 226.042881 123.048922 
L 226.081439 120.748917 
L 226.119998 122.336084 
L 226.158557 124.022353 
L 226.197116 122.131227 
L 226.235674 122.081205 
L 226.274233 122.406364 
L 226.312792 121.341996 
L 226.351351 122.572619 
L 226.389909 122.540511 
L 226.428468 122.778117 
L 226.505586 123.616959 
L 226.544144 121.63846 
L 226.65982 123.503231 
L 226.698379 123.073275 
L 226.736938 121.586541 
L 226.775497 121.679858 
L 226.929732 123.108757 
L 227.006849 121.498241 
L 227.045408 121.825409 
L 227.122525 123.347581 
L 227.199643 122.561604 
L 227.238202 121.242051 
L 227.27676 122.893381 
L 227.315319 122.742232 
L 227.430995 120.888466 
L 227.469554 123.948529 
L 227.508113 120.621195 
L 227.546671 123.135475 
L 227.623789 122.262377 
L 227.662348 123.52162 
L 227.739465 122.439765 
L 227.778024 122.112201 
L 227.816583 123.520662 
L 227.855141 121.678643 
L 227.8937 122.974119 
L 227.932259 120.597276 
L 227.970817 121.337766 
L 228.009376 122.846495 
L 228.086494 122.688299 
L 228.125052 121.60876 
L 228.163611 123.62471 
L 228.20217 121.629267 
L 228.240729 124.479616 
L 228.279287 122.15358 
L 228.317846 121.418363 
L 228.356405 124.15285 
L 228.433522 122.440483 
L 228.51064 121.023712 
L 228.587757 124.959463 
L 228.626316 122.628553 
L 228.703433 122.503321 
L 228.780551 124.57928 
L 228.934786 121.415812 
L 229.089021 124.971518 
L 229.12758 122.739017 
L 229.204697 124.054461 
L 229.243256 123.385272 
L 229.281815 123.994954 
L 229.320373 126.01928 
L 229.358932 125.140022 
L 229.397491 123.304597 
L 229.436049 123.740964 
L 229.474608 124.99254 
L 229.513167 123.936896 
L 229.551726 123.622112 
L 229.628843 125.934586 
L 229.705961 125.581284 
L 229.821637 123.04492 
L 229.898754 125.531857 
L 229.937313 125.081531 
L 230.091548 123.219198 
L 230.207224 124.701329 
L 230.168665 123.162022 
L 230.245783 124.50771 
L 230.3229 124.661344 
L 230.361459 122.779273 
L 230.400018 124.81706 
L 230.477135 124.45352 
L 230.554253 124.204477 
L 230.592812 125.306681 
L 230.63137 122.92243 
L 230.669929 123.727688 
L 230.708488 125.748292 
L 230.785605 124.231217 
L 230.824164 125.611287 
L 230.862723 124.377749 
L 230.93984 123.917418 
L 230.978399 125.645797 
L 231.016958 124.301037 
L 231.094075 122.090198 
L 231.132634 123.768455 
L 231.171193 125.110371 
L 231.209751 123.733743 
L 231.286869 124.127841 
L 231.363986 123.912388 
L 231.402545 123.888539 
L 231.479663 125.460326 
L 231.55678 125.573244 
L 231.595339 123.663312 
L 231.749574 125.130068 
L 231.788132 122.782169 
L 231.826691 124.040802 
L 231.86525 125.015325 
L 231.903809 124.715058 
L 231.980926 125.138201 
L 232.019485 123.600337 
L 232.096602 124.832977 
L 232.135161 123.457144 
L 232.212279 123.610217 
L 232.250837 124.506666 
L 232.327955 123.989859 
L 232.366513 124.1308 
L 232.405072 123.756508 
L 232.443631 122.23617 
L 232.48219 124.509866 
L 232.520748 123.773819 
L 232.559307 124.850971 
L 232.597866 125.827392 
L 232.636425 123.991451 
L 232.674983 123.314038 
L 232.713542 126.250394 
L 232.79066 125.950021 
L 232.829218 122.059785 
L 232.906336 124.942848 
L 232.944894 125.389838 
L 232.983453 124.831208 
L 233.022012 124.809818 
L 233.099129 125.222321 
L 233.137688 123.736649 
L 233.291923 124.468845 
L 233.369041 123.922925 
L 233.446158 125.898644 
L 233.484717 125.248037 
L 233.523276 124.329037 
L 233.561834 125.037314 
L 233.600393 125.351981 
L 233.67751 123.022876 
L 233.716069 125.356932 
L 233.754628 123.536088 
L 233.793187 123.067591 
L 233.947422 125.651979 
L 233.98598 123.857887 
L 234.063098 124.388524 
L 234.101657 124.097417 
L 234.178774 125.347808 
L 234.255892 125.176022 
L 234.29445 124.817349 
L 234.333009 125.692611 
L 234.371568 125.072443 
L 234.410126 123.948512 
L 234.448685 125.417056 
L 234.487244 124.880054 
L 234.564361 125.382997 
L 234.60292 125.234895 
L 234.641479 122.932515 
L 234.680038 123.906595 
L 234.795714 126.332329 
L 234.949949 122.922974 
L 235.065625 126.73378 
L 235.065625 126.73378 
" style="fill:none;stroke:#1f77b4;stroke-linecap:square;stroke-width:1.5;"/>
   </g>
   <g id="patch_3">
    <path d="M 39.765625 139.699219 
L 39.765625 3.799219 
" style="fill:none;stroke:#000000;stroke-linecap:square;stroke-linejoin:miter;stroke-width:0.8;"/>
   </g>
   <g id="patch_4">
    <path d="M 235.065625 139.699219 
L 235.065625 3.799219 
" style="fill:none;stroke:#000000;stroke-linecap:square;stroke-linejoin:miter;stroke-width:0.8;"/>
   </g>
   <g id="patch_5">
    <path d="M 39.765625 139.699219 
L 235.065625 139.699219 
" style="fill:none;stroke:#000000;stroke-linecap:square;stroke-linejoin:miter;stroke-width:0.8;"/>
   </g>
   <g id="patch_6">
    <path d="M 39.765625 3.799219 
L 235.065625 3.799219 
" style="fill:none;stroke:#000000;stroke-linecap:square;stroke-linejoin:miter;stroke-width:0.8;"/>
   </g>
   <g id="legend_1">
    <g id="patch_7">
     <path d="M 172.790625 26.477344 
L 228.065625 26.477344 
Q 230.065625 26.477344 230.065625 24.477344 
L 230.065625 10.799219 
Q 230.065625 8.799219 228.065625 8.799219 
L 172.790625 8.799219 
Q 170.790625 8.799219 170.790625 10.799219 
L 170.790625 24.477344 
Q 170.790625 26.477344 172.790625 26.477344 
z
" style="fill:#ffffff;opacity:0.8;stroke:#cccccc;stroke-linejoin:miter;"/>
    </g>
    <g id="line2d_22">
     <path d="M 174.790625 16.897656 
L 194.790625 16.897656 
" style="fill:none;stroke:#1f77b4;stroke-linecap:square;stroke-width:1.5;"/>
    </g>
    <g id="line2d_23"/>
    <g id="text_13">
     <!-- train -->
     <defs>
      <path d="M 34.28125 27.484375 
Q 23.390625 27.484375 19.1875 25 
Q 14.984375 22.515625 14.984375 16.5 
Q 14.984375 11.71875 18.140625 8.90625 
Q 21.296875 6.109375 26.703125 6.109375 
Q 34.1875 6.109375 38.703125 11.40625 
Q 43.21875 16.703125 43.21875 25.484375 
L 43.21875 27.484375 
z
M 52.203125 31.203125 
L 52.203125 0 
L 43.21875 0 
L 43.21875 8.296875 
Q 40.140625 3.328125 35.546875 0.953125 
Q 30.953125 -1.421875 24.3125 -1.421875 
Q 15.921875 -1.421875 10.953125 3.296875 
Q 6 8.015625 6 15.921875 
Q 6 25.140625 12.171875 29.828125 
Q 18.359375 34.515625 30.609375 34.515625 
L 43.21875 34.515625 
L 43.21875 35.40625 
Q 43.21875 41.609375 39.140625 45 
Q 35.0625 48.390625 27.6875 48.390625 
Q 23 48.390625 18.546875 47.265625 
Q 14.109375 46.140625 10.015625 43.890625 
L 10.015625 52.203125 
Q 14.9375 54.109375 19.578125 55.046875 
Q 24.21875 56 28.609375 56 
Q 40.484375 56 46.34375 49.84375 
Q 52.203125 43.703125 52.203125 31.203125 
z
" id="DejaVuSans-97"/>
      <path d="M 54.890625 33.015625 
L 54.890625 0 
L 45.90625 0 
L 45.90625 32.71875 
Q 45.90625 40.484375 42.875 44.328125 
Q 39.84375 48.1875 33.796875 48.1875 
Q 26.515625 48.1875 22.3125 43.546875 
Q 18.109375 38.921875 18.109375 30.90625 
L 18.109375 0 
L 9.078125 0 
L 9.078125 54.6875 
L 18.109375 54.6875 
L 18.109375 46.1875 
Q 21.34375 51.125 25.703125 53.5625 
Q 30.078125 56 35.796875 56 
Q 45.21875 56 50.046875 50.171875 
Q 54.890625 44.34375 54.890625 33.015625 
z
" id="DejaVuSans-110"/>
     </defs>
     <g transform="translate(202.790625 20.397656)scale(0.1 -0.1)">
      <use xlink:href="#DejaVuSans-116"/>
      <use x="39.208984" xlink:href="#DejaVuSans-114"/>
      <use x="80.322266" xlink:href="#DejaVuSans-97"/>
      <use x="141.601562" xlink:href="#DejaVuSans-105"/>
      <use x="169.384766" xlink:href="#DejaVuSans-110"/>
     </g>
    </g>
   </g>
  </g>
 </g>
 <defs>
  <clipPath id="pd880147e46">
   <rect height="135.9" width="195.3" x="39.765625" y="3.799219"/>
  </clipPath>
 </defs>
</svg>
